<?xml version="1.0" encoding="UTF-8" standalone="no"?>
<!DOCTYPE svg PUBLIC "-//W3C//DTD SVG 1.1//EN"
 "http://www.w3.org/Graphics/SVG/1.1/DTD/svg11.dtd">
<!-- Generated by graphviz version 2.38.0 (20140413.2041)
 -->
<!-- Title: priss2013&#45;table01_o36_d Pages: 1 -->
<svg width="1389pt" height="1816pt"
 viewBox="0.00 0.00 1389.48 1815.96" xmlns="http://www.w3.org/2000/svg" xmlns:xlink="http://www.w3.org/1999/xlink">
<g id="graph0" class="graph" transform="scale(1 1) rotate(0) translate(4 1811.96)">
<title>priss2013&#45;table01_o36_d</title>
<polygon fill="white" stroke="none" points="-4,4 -4,-1811.96 1385.48,-1811.96 1385.48,4 -4,4"/>
<!-- eBot -->
<g id="node1" class="node"><title>eBot</title>
<ellipse fill="none" stroke="black" cx="579.698" cy="-27.9475" rx="27.8951" ry="27.8951"/>
<text text-anchor="middle" x="579.698" y="-24.2475" font-family="Times New Roman,serif" font-size="14.00">eBot</text>
</g>
<!-- o40 -->
<g id="node16" class="node"><title>o40</title>
<ellipse fill="none" stroke="black" cx="646.698" cy="-116.593" rx="24.8972" ry="24.8972"/>
<text text-anchor="middle" x="646.698" y="-112.893" font-family="Times New Roman,serif" font-size="14.00">o40</text>
</g>
<!-- eBot&#45;&gt;o40 -->
<g id="edge28" class="edge"><title>eBot&#45;&gt;o40</title>
<path fill="none" stroke="black" d="M596.605,-50.8118C605.487,-62.2985 616.451,-76.4777 625.855,-88.6393"/>
<polygon fill="black" stroke="black" points="623.186,-90.9088 632.072,-96.6785 628.724,-86.6267 623.186,-90.9088"/>
</g>
<!-- o38 -->
<g id="node18" class="node"><title>o38</title>
<ellipse fill="none" stroke="black" cx="579.698" cy="-116.593" rx="24.8972" ry="24.8972"/>
<text text-anchor="middle" x="579.698" y="-112.893" font-family="Times New Roman,serif" font-size="14.00">o38</text>
</g>
<!-- eBot&#45;&gt;o38 -->
<g id="edge34" class="edge"><title>eBot&#45;&gt;o38</title>
<path fill="none" stroke="black" d="M579.698,-56.3626C579.698,-64.3805 579.698,-73.2425 579.698,-81.6154"/>
<polygon fill="black" stroke="black" points="576.198,-81.8593 579.698,-91.8593 583.198,-81.8594 576.198,-81.8593"/>
</g>
<!-- o34 -->
<g id="node27" class="node"><title>o34</title>
<ellipse fill="none" stroke="black" cx="465.698" cy="-116.593" rx="24.8972" ry="24.8972"/>
<text text-anchor="middle" x="465.698" y="-112.893" font-family="Times New Roman,serif" font-size="14.00">o34</text>
</g>
<!-- eBot&#45;&gt;o34 -->
<g id="edge57" class="edge"><title>eBot&#45;&gt;o34</title>
<path fill="none" stroke="black" d="M557.717,-45.6536C539.261,-59.6811 512.808,-79.7869 492.997,-94.8443"/>
<polygon fill="black" stroke="black" points="490.799,-92.1183 484.956,-100.956 495.035,-97.6913 490.799,-92.1183"/>
</g>
<!-- eTop -->
<g id="node2" class="node"><title>eTop</title>
<ellipse fill="none" stroke="black" cx="661.698" cy="-1777.41" rx="30.5947" ry="30.5947"/>
<text text-anchor="middle" x="661.698" y="-1773.71" font-family="Times New Roman,serif" font-size="14.00">eTop</text>
</g>
<!-- e(e(e(o34o40)o50)o52) -->
<g id="node3" class="node"><title>e(e(e(o34o40)o50)o52)</title>
<ellipse fill="none" stroke="black" cx="666.698" cy="-583.361" rx="94.7833" ry="94.7833"/>
<text text-anchor="middle" x="666.698" y="-579.661" font-family="Times New Roman,serif" font-size="14.00">e(e(e(o34o40)o50)o52)</text>
</g>
<!-- e(e(e(e(o34o40)o50)o52)e(e(e(o34o40)o50)o8)) -->
<g id="node14" class="node"><title>e(e(e(e(o34o40)o50)o52)e(e(e(o34o40)o50)o8))</title>
<ellipse fill="none" stroke="black" cx="663.698" cy="-898.186" rx="183.867" ry="183.867"/>
<text text-anchor="middle" x="663.698" y="-894.486" font-family="Times New Roman,serif" font-size="14.00">e(e(e(e(o34o40)o50)o52)e(e(e(o34o40)o50)o8))</text>
</g>
<!-- e(e(e(o34o40)o50)o52)&#45;&gt;e(e(e(e(o34o40)o50)o52)e(e(e(o34o40)o50)o8)) -->
<g id="edge26" class="edge"><title>e(e(e(o34o40)o50)o52)&#45;&gt;e(e(e(e(o34o40)o50)o52)e(e(e(o34o40)o50)o8))</title>
<path fill="none" stroke="black" d="M665.794,-678.643C665.715,-686.854 665.634,-695.337 665.551,-703.98"/>
<polygon fill="black" stroke="black" points="662.049,-704.158 665.453,-714.191 669.049,-704.226 662.049,-704.158"/>
</g>
<!-- o52 -->
<g id="node4" class="node"><title>o52</title>
<ellipse fill="none" stroke="black" cx="780.698" cy="-380.976" rx="24.8972" ry="24.8972"/>
<text text-anchor="middle" x="780.698" y="-377.276" font-family="Times New Roman,serif" font-size="14.00">o52</text>
</g>
<!-- o52&#45;&gt;e(e(e(o34o40)o50)o52) -->
<g id="edge4" class="edge"><title>o52&#45;&gt;e(e(e(o34o40)o50)o52)</title>
<path fill="none" stroke="black" d="M770.847,-403.864C764.344,-417.932 755.438,-436.497 746.698,-452.469 739.293,-466.001 731.117,-480.099 722.903,-493.805"/>
<polygon fill="black" stroke="black" points="719.678,-492.375 717.508,-502.745 725.671,-495.991 719.678,-492.375"/>
</g>
<!-- o16 -->
<g id="node5" class="node"><title>o16</title>
<ellipse fill="none" stroke="black" cx="24.6978" cy="-380.976" rx="24.8972" ry="24.8972"/>
<text text-anchor="middle" x="24.6978" y="-377.276" font-family="Times New Roman,serif" font-size="14.00">o16</text>
</g>
<!-- e(e(e(o34o40)o50)o8) -->
<g id="node21" class="node"><title>e(e(e(o34o40)o50)o8)</title>
<ellipse fill="none" stroke="black" cx="367.698" cy="-583.361" rx="90.1842" ry="90.1842"/>
<text text-anchor="middle" x="367.698" y="-579.661" font-family="Times New Roman,serif" font-size="14.00">e(e(e(o34o40)o50)o8)</text>
</g>
<!-- o16&#45;&gt;e(e(e(o34o40)o50)o8) -->
<g id="edge49" class="edge"><title>o16&#45;&gt;e(e(e(o34o40)o50)o8)</title>
<path fill="none" stroke="black" d="M29.6315,-405.197C34.2152,-420.965 42.6763,-440.969 57.6978,-452.469 131.149,-508.703 179.471,-448.09 262.698,-488.469 275.002,-494.439 286.942,-502.282 298.089,-510.894"/>
<polygon fill="black" stroke="black" points="296.068,-513.76 306.059,-517.285 300.447,-508.298 296.068,-513.76"/>
</g>
<!-- o26 -->
<g id="node29" class="node"><title>o26</title>
<ellipse fill="none" stroke="black" cx="228.698" cy="-583.361" rx="24.8972" ry="24.8972"/>
<text text-anchor="middle" x="228.698" y="-579.661" font-family="Times New Roman,serif" font-size="14.00">o26</text>
</g>
<!-- o16&#45;&gt;o26 -->
<g id="edge67" class="edge"><title>o16&#45;&gt;o26</title>
<path fill="none" stroke="black" d="M32.1625,-404.823C37.6839,-419.451 46.234,-438.279 57.6978,-452.469 97.9769,-502.33 161.282,-543.805 198.517,-565.668"/>
<polygon fill="black" stroke="black" points="196.983,-568.824 207.392,-570.798 200.485,-562.763 196.983,-568.824"/>
</g>
<!-- o50 -->
<g id="node6" class="node"><title>o50</title>
<ellipse fill="none" stroke="black" cx="579.698" cy="-225.386" rx="24.8972" ry="24.8972"/>
<text text-anchor="middle" x="579.698" y="-221.686" font-family="Times New Roman,serif" font-size="14.00">o50</text>
</g>
<!-- o50&#45;&gt;o52 -->
<g id="edge6" class="edge"><title>o50&#45;&gt;o52</title>
<path fill="none" stroke="black" d="M590.289,-247.755C595.812,-256.899 603.376,-266.952 612.698,-273.482 663.207,-308.861 699.213,-270.137 746.698,-309.482 758.4,-319.179 766.367,-333.859 771.629,-347.317"/>
<polygon fill="black" stroke="black" points="768.355,-348.558 774.997,-356.812 774.953,-346.218 768.355,-348.558"/>
</g>
<!-- e(e(o34o40)o50) -->
<g id="node17" class="node"><title>e(e(o34o40)o50)</title>
<ellipse fill="none" stroke="black" cx="666.698" cy="-380.976" rx="71.4873" ry="71.4873"/>
<text text-anchor="middle" x="666.698" y="-377.276" font-family="Times New Roman,serif" font-size="14.00">e(e(o34o40)o50)</text>
</g>
<!-- o50&#45;&gt;e(e(o34o40)o50) -->
<g id="edge29" class="edge"><title>o50&#45;&gt;e(e(o34o40)o50)</title>
<path fill="none" stroke="black" d="M591.612,-247.42C600.774,-263.594 613.991,-286.928 626.791,-309.524"/>
<polygon fill="black" stroke="black" points="623.881,-311.489 631.855,-318.465 629.972,-308.039 623.881,-311.489"/>
</g>
<!-- e(e(e(e(e(o34o40)o50)o8)o26)o4) -->
<g id="node7" class="node"><title>e(e(e(e(e(o34o40)o50)o8)o26)o4)</title>
<ellipse fill="none" stroke="black" cx="214.698" cy="-1414.49" rx="132.677" ry="132.677"/>
<text text-anchor="middle" x="214.698" y="-1410.79" font-family="Times New Roman,serif" font-size="14.00">e(e(e(e(e(o34o40)o50)o8)o26)o4)</text>
</g>
<!-- e(e(e(e(e(o34o40)o50)o8)o26)o4)&#45;&gt;eTop -->
<g id="edge2" class="edge"><title>e(e(e(e(e(o34o40)o50)o8)o26)o4)&#45;&gt;eTop</title>
<path fill="none" stroke="black" d="M247.61,-1543.11C269.229,-1602.48 303.619,-1669.06 356.698,-1710.87 397.402,-1742.93 547.645,-1763.68 620.944,-1772.12"/>
<polygon fill="black" stroke="black" points="620.849,-1775.63 631.178,-1773.27 621.634,-1768.67 620.849,-1775.63"/>
</g>
<!-- o30 -->
<g id="node8" class="node"><title>o30</title>
<ellipse fill="none" stroke="black" cx="91.6978" cy="-380.976" rx="24.8972" ry="24.8972"/>
<text text-anchor="middle" x="91.6978" y="-377.276" font-family="Times New Roman,serif" font-size="14.00">o30</text>
</g>
<!-- o30&#45;&gt;e(e(e(o34o40)o50)o8) -->
<g id="edge46" class="edge"><title>o30&#45;&gt;e(e(e(o34o40)o50)o8)</title>
<path fill="none" stroke="black" d="M97.029,-405.161C101.772,-420.704 110.26,-440.454 124.698,-452.469 173.419,-493.016 206.842,-458.505 262.698,-488.469 274.663,-494.888 286.377,-502.939 297.386,-511.613"/>
<polygon fill="black" stroke="black" points="295.304,-514.431 305.271,-518.024 299.72,-509 295.304,-514.431"/>
</g>
<!-- o30&#45;&gt;o26 -->
<g id="edge64" class="edge"><title>o30&#45;&gt;o26</title>
<path fill="none" stroke="black" d="M100.522,-404.27C106.54,-418.5 115.133,-437.094 124.698,-452.469 148.793,-491.204 182.734,-531.575 205.205,-556.825"/>
<polygon fill="black" stroke="black" points="202.786,-559.369 212.071,-564.471 207.994,-554.692 202.786,-559.369"/>
</g>
<!-- e(e(e(e(o34o40)o50)o8)o26) -->
<g id="node9" class="node"><title>e(e(e(e(o34o40)o50)o8)o26)</title>
<ellipse fill="none" stroke="black" cx="219.698" cy="-898.186" rx="113.98" ry="113.98"/>
<text text-anchor="middle" x="219.698" y="-894.486" font-family="Times New Roman,serif" font-size="14.00">e(e(e(e(o34o40)o50)o8)o26)</text>
</g>
<!-- e(e(e(e(o34o40)o50)o8)o26)&#45;&gt;e(e(e(e(e(o34o40)o50)o8)o26)o4) -->
<g id="edge13" class="edge"><title>e(e(e(e(o34o40)o50)o8)o26)&#45;&gt;e(e(e(e(e(o34o40)o50)o8)o26)o4)</title>
<path fill="none" stroke="black" d="M218.601,-1012.05C217.859,-1088.33 216.874,-1189.65 216.079,-1271.42"/>
<polygon fill="black" stroke="black" points="212.576,-1271.77 215.978,-1281.8 219.575,-1271.84 212.576,-1271.77"/>
</g>
<!-- e(e(e(e(e(o34o40)o50)o52)e(e(e(o34o40)o50)o8))e(e(e(e(o34o40)o50)o8)o26)) -->
<g id="node23" class="node"><title>e(e(e(e(e(o34o40)o50)o52)e(e(e(o34o40)o50)o8))e(e(e(e(o34o40)o50)o8)o26))</title>
<ellipse fill="none" stroke="black" cx="661.698" cy="-1414.49" rx="296.247" ry="296.247"/>
<text text-anchor="middle" x="661.698" y="-1410.79" font-family="Times New Roman,serif" font-size="14.00">e(e(e(e(e(o34o40)o50)o52)e(e(e(o34o40)o50)o8))e(e(e(e(o34o40)o50)o8)o26))</text>
</g>
<!-- e(e(e(e(o34o40)o50)o8)o26)&#45;&gt;e(e(e(e(e(o34o40)o50)o52)e(e(e(o34o40)o50)o8))e(e(e(e(o34o40)o50)o8)o26)) -->
<g id="edge52" class="edge"><title>e(e(e(e(o34o40)o50)o8)o26)&#45;&gt;e(e(e(e(e(o34o40)o50)o52)e(e(e(o34o40)o50)o8))e(e(e(e(o34o40)o50)o8)o26))</title>
<path fill="none" stroke="black" d="M279.544,-994.964C298.716,-1023.73 320.702,-1054.87 342.698,-1082.12 373.97,-1120.86 408.929,-1160.38 443.925,-1198.01"/>
<polygon fill="black" stroke="black" points="441.543,-1200.59 450.924,-1205.51 446.66,-1195.81 441.543,-1200.59"/>
</g>
<!-- o32 -->
<g id="node10" class="node"><title>o32</title>
<ellipse fill="none" stroke="black" cx="158.698" cy="-380.976" rx="24.8972" ry="24.8972"/>
<text text-anchor="middle" x="158.698" y="-377.276" font-family="Times New Roman,serif" font-size="14.00">o32</text>
</g>
<!-- o32&#45;&gt;e(e(e(o34o40)o50)o8) -->
<g id="edge47" class="edge"><title>o32&#45;&gt;e(e(e(o34o40)o50)o8)</title>
<path fill="none" stroke="black" d="M165.109,-404.893C170.269,-419.921 178.815,-439.175 191.698,-452.469 216.319,-477.877 233.486,-468.509 262.698,-488.469 273.746,-496.019 284.868,-504.63 295.528,-513.505"/>
<polygon fill="black" stroke="black" points="293.308,-516.211 303.201,-520.003 297.832,-510.869 293.308,-516.211"/>
</g>
<!-- o32&#45;&gt;o26 -->
<g id="edge65" class="edge"><title>o32&#45;&gt;o26</title>
<path fill="none" stroke="black" d="M166.592,-404.573C179.045,-440.222 203.294,-509.638 217.528,-550.387"/>
<polygon fill="black" stroke="black" points="214.231,-551.56 220.833,-559.846 220.839,-549.252 214.231,-551.56"/>
</g>
<!-- o14 -->
<g id="node11" class="node"><title>o14</title>
<ellipse fill="none" stroke="black" cx="225.698" cy="-380.976" rx="24.8972" ry="24.8972"/>
<text text-anchor="middle" x="225.698" y="-377.276" font-family="Times New Roman,serif" font-size="14.00">o14</text>
</g>
<!-- o14&#45;&gt;e(e(e(o34o40)o50)o8) -->
<g id="edge48" class="edge"><title>o14&#45;&gt;e(e(e(o34o40)o50)o8)</title>
<path fill="none" stroke="black" d="M234.655,-403.994C240.863,-418.281 249.776,-437.041 259.698,-452.469 271.804,-471.293 286.289,-490.437 300.66,-508.037"/>
<polygon fill="black" stroke="black" points="298.178,-510.528 307.245,-516.008 303.574,-506.069 298.178,-510.528"/>
</g>
<!-- o14&#45;&gt;o26 -->
<g id="edge66" class="edge"><title>o14&#45;&gt;o26</title>
<path fill="none" stroke="black" d="M226.054,-405.749C226.584,-441.152 227.583,-507.894 228.19,-548.422"/>
<polygon fill="black" stroke="black" points="224.693,-548.672 228.342,-558.618 231.692,-548.567 224.693,-548.672"/>
</g>
<!-- o4 -->
<g id="node12" class="node"><title>o4</title>
<ellipse fill="none" stroke="black" cx="371.698" cy="-898.186" rx="20.2975" ry="20.2975"/>
<text text-anchor="middle" x="371.698" y="-894.486" font-family="Times New Roman,serif" font-size="14.00">o4</text>
</g>
<!-- o4&#45;&gt;e(e(e(e(e(o34o40)o50)o8)o26)o4) -->
<g id="edge14" class="edge"><title>o4&#45;&gt;e(e(e(e(e(o34o40)o50)o8)o26)o4)</title>
<path fill="none" stroke="black" d="M369.998,-918.426C366.728,-952.071 358.451,-1023.59 342.698,-1082.12 324.402,-1150.1 296.975,-1223.33 272.196,-1283.63"/>
<polygon fill="black" stroke="black" points="268.829,-1282.61 268.244,-1293.19 275.298,-1285.28 268.829,-1282.61"/>
</g>
<!-- e(e(e(e(e(o34o40)o50)o52)e(e(e(o34o40)o50)o8))o4) -->
<g id="node13" class="node"><title>e(e(e(e(e(o34o40)o50)o52)e(e(e(o34o40)o50)o8))o4)</title>
<ellipse fill="none" stroke="black" cx="1178.7" cy="-1414.49" rx="202.564" ry="202.564"/>
<text text-anchor="middle" x="1178.7" y="-1410.79" font-family="Times New Roman,serif" font-size="14.00">e(e(e(e(e(o34o40)o50)o52)e(e(e(o34o40)o50)o8))o4)</text>
</g>
<!-- o4&#45;&gt;e(e(e(e(e(o34o40)o50)o52)e(e(e(o34o40)o50)o8))o4) -->
<g id="edge23" class="edge"><title>o4&#45;&gt;e(e(e(e(e(o34o40)o50)o52)e(e(e(o34o40)o50)o8))o4)</title>
<path fill="none" stroke="black" d="M367.955,-918.206C361.775,-955.862 354.332,-1039.91 400.698,-1082.12 493.892,-1166.97 856.452,-1057.05 966.698,-1118.12 1012.22,-1143.34 1050.4,-1182.94 1081.26,-1225.05"/>
<polygon fill="black" stroke="black" points="1078.45,-1227.15 1087.13,-1233.22 1084.14,-1223.06 1078.45,-1227.15"/>
</g>
<!-- e(e(e(e(e(o34o40)o50)o52)e(e(e(o34o40)o50)o8))o4)&#45;&gt;eTop -->
<g id="edge1" class="edge"><title>e(e(e(e(e(o34o40)o50)o52)e(e(e(o34o40)o50)o8))o4)&#45;&gt;eTop</title>
<path fill="none" stroke="black" d="M1082.74,-1593.52C1051.16,-1637.77 1012.24,-1681.03 966.698,-1710.87 884.257,-1764.88 764.909,-1775.22 702.779,-1776.69"/>
<polygon fill="black" stroke="black" points="702.528,-1773.19 692.588,-1776.86 702.646,-1780.19 702.528,-1773.19"/>
</g>
<!-- e(e(e(e(o34o40)o50)o52)e(e(e(o34o40)o50)o8))&#45;&gt;e(e(e(e(e(o34o40)o50)o52)e(e(e(o34o40)o50)o8))o4) -->
<g id="edge22" class="edge"><title>e(e(e(e(o34o40)o50)o52)e(e(e(o34o40)o50)o8))&#45;&gt;e(e(e(e(e(o34o40)o50)o52)e(e(e(o34o40)o50)o8))o4)</title>
<path fill="none" stroke="black" d="M819.282,-997.139C869.107,-1032.18 922.713,-1074 966.698,-1118.12 1001.51,-1153.04 1034.82,-1194.16 1064.29,-1234.43"/>
<polygon fill="black" stroke="black" points="1061.62,-1236.71 1070.33,-1242.74 1067.29,-1232.59 1061.62,-1236.71"/>
</g>
<!-- e(e(e(e(o34o40)o50)o52)e(e(e(o34o40)o50)o8))&#45;&gt;e(e(e(e(e(o34o40)o50)o52)e(e(e(o34o40)o50)o8))e(e(e(e(o34o40)o50)o8)o26)) -->
<g id="edge51" class="edge"><title>e(e(e(e(o34o40)o50)o52)e(e(e(o34o40)o50)o8))&#45;&gt;e(e(e(e(e(o34o40)o50)o52)e(e(e(o34o40)o50)o8))e(e(e(e(o34o40)o50)o8)o26))</title>
<path fill="none" stroke="black" d="M662.986,-1082.32C662.953,-1090.72 662.92,-1099.24 662.886,-1107.83"/>
<polygon fill="black" stroke="black" points="659.386,-1107.93 662.847,-1117.95 666.386,-1107.96 659.386,-1107.93"/>
</g>
<!-- o8 -->
<g id="node15" class="node"><title>o8</title>
<ellipse fill="none" stroke="black" cx="288.698" cy="-380.976" rx="20.2975" ry="20.2975"/>
<text text-anchor="middle" x="288.698" y="-377.276" font-family="Times New Roman,serif" font-size="14.00">o8</text>
</g>
<!-- o8&#45;&gt;e(e(e(o34o40)o50)o8) -->
<g id="edge40" class="edge"><title>o8&#45;&gt;e(e(e(o34o40)o50)o8)</title>
<path fill="none" stroke="black" d="M295.848,-400.112C303.937,-420.63 317.729,-455.613 331.079,-489.477"/>
<polygon fill="black" stroke="black" points="327.904,-490.966 334.828,-498.986 334.416,-488.399 327.904,-490.966"/>
</g>
<!-- o8&#45;&gt;o26 -->
<g id="edge59" class="edge"><title>o8&#45;&gt;o26</title>
<path fill="none" stroke="black" d="M283.161,-400.468C272.982,-434.464 251.177,-507.288 238.46,-549.757"/>
<polygon fill="black" stroke="black" points="235.103,-548.766 235.588,-559.35 241.809,-550.774 235.103,-548.766"/>
</g>
<!-- o40&#45;&gt;o50 -->
<g id="edge12" class="edge"><title>o40&#45;&gt;o50</title>
<path fill="none" stroke="black" d="M633.78,-138.184C623.676,-154.287 609.496,-176.891 598.19,-194.911"/>
<polygon fill="black" stroke="black" points="594.926,-193.528 592.576,-203.859 600.856,-197.248 594.926,-193.528"/>
</g>
<!-- e(o34o40) -->
<g id="node19" class="node"><title>e(o34o40)</title>
<ellipse fill="none" stroke="black" cx="418.698" cy="-225.386" rx="48.1917" ry="48.1917"/>
<text text-anchor="middle" x="418.698" y="-221.686" font-family="Times New Roman,serif" font-size="14.00">e(o34o40)</text>
</g>
<!-- o40&#45;&gt;e(o34o40) -->
<g id="edge37" class="edge"><title>o40&#45;&gt;e(o34o40)</title>
<path fill="none" stroke="black" d="M627.624,-132.364C623.175,-135.504 618.369,-138.661 613.698,-141.291 568.225,-166.894 513.296,-189.629 473.339,-204.818"/>
<polygon fill="black" stroke="black" points="471.901,-201.62 463.775,-208.419 474.367,-208.171 471.901,-201.62"/>
</g>
<!-- o44 -->
<g id="node20" class="node"><title>o44</title>
<ellipse fill="none" stroke="black" cx="646.698" cy="-225.386" rx="24.8972" ry="24.8972"/>
<text text-anchor="middle" x="646.698" y="-221.686" font-family="Times New Roman,serif" font-size="14.00">o44</text>
</g>
<!-- o40&#45;&gt;o44 -->
<g id="edge39" class="edge"><title>o40&#45;&gt;o44</title>
<path fill="none" stroke="black" d="M646.698,-141.294C646.698,-155.71 646.698,-174.362 646.698,-190.34"/>
<polygon fill="black" stroke="black" points="643.198,-190.382 646.698,-200.382 650.198,-190.382 643.198,-190.382"/>
</g>
<!-- o48 -->
<g id="node25" class="node"><title>o48</title>
<ellipse fill="none" stroke="black" cx="713.698" cy="-225.386" rx="24.8972" ry="24.8972"/>
<text text-anchor="middle" x="713.698" y="-221.686" font-family="Times New Roman,serif" font-size="14.00">o48</text>
</g>
<!-- o40&#45;&gt;o48 -->
<g id="edge55" class="edge"><title>o40&#45;&gt;o48</title>
<path fill="none" stroke="black" d="M659.616,-138.184C669.719,-154.287 683.9,-176.891 695.206,-194.911"/>
<polygon fill="black" stroke="black" points="692.54,-197.248 700.819,-203.859 698.47,-193.528 692.54,-197.248"/>
</g>
<!-- o46 -->
<g id="node30" class="node"><title>o46</title>
<ellipse fill="none" stroke="black" cx="780.698" cy="-225.386" rx="24.8972" ry="24.8972"/>
<text text-anchor="middle" x="780.698" y="-221.686" font-family="Times New Roman,serif" font-size="14.00">o46</text>
</g>
<!-- o40&#45;&gt;o46 -->
<g id="edge69" class="edge"><title>o40&#45;&gt;o46</title>
<path fill="none" stroke="black" d="M668.973,-127.336C690.724,-137.592 723.929,-155.293 747.698,-177.291 753.34,-182.512 758.573,-188.853 763.134,-195.168"/>
<polygon fill="black" stroke="black" points="760.39,-197.358 768.91,-203.656 766.177,-193.419 760.39,-197.358"/>
</g>
<!-- e(e(o34o40)o50)&#45;&gt;e(e(e(o34o40)o50)o52) -->
<g id="edge5" class="edge"><title>e(e(o34o40)o50)&#45;&gt;e(e(e(o34o40)o50)o52)</title>
<path fill="none" stroke="black" d="M666.698,-452.624C666.698,-460.885 666.698,-469.44 666.698,-478.036"/>
<polygon fill="black" stroke="black" points="663.198,-478.13 666.698,-488.13 670.198,-478.13 663.198,-478.13"/>
</g>
<!-- e(e(o34o40)o50)&#45;&gt;e(e(e(o34o40)o50)o8) -->
<g id="edge43" class="edge"><title>e(e(o34o40)o50)&#45;&gt;e(e(e(o34o40)o50)o8)</title>
<path fill="none" stroke="black" d="M614.493,-430.437C605.458,-438.103 595.98,-445.719 586.698,-452.469 545.482,-482.447 496.972,-511.768 456.098,-534.943"/>
<polygon fill="black" stroke="black" points="454.221,-531.983 447.229,-539.944 457.659,-538.081 454.221,-531.983"/>
</g>
<!-- o38&#45;&gt;o50 -->
<g id="edge11" class="edge"><title>o38&#45;&gt;o50</title>
<path fill="none" stroke="black" d="M579.698,-141.294C579.698,-155.71 579.698,-174.362 579.698,-190.34"/>
<polygon fill="black" stroke="black" points="576.198,-190.382 579.698,-200.382 583.198,-190.382 576.198,-190.382"/>
</g>
<!-- o38&#45;&gt;e(o34o40) -->
<g id="edge35" class="edge"><title>o38&#45;&gt;e(o34o40)</title>
<path fill="none" stroke="black" d="M559.307,-131.118C536.181,-146.458 497.679,-171.997 466.806,-192.475"/>
<polygon fill="black" stroke="black" points="464.718,-189.66 458.32,-198.105 468.588,-195.494 464.718,-189.66"/>
</g>
<!-- o38&#45;&gt;o44 -->
<g id="edge38" class="edge"><title>o38&#45;&gt;o44</title>
<path fill="none" stroke="black" d="M592.616,-138.184C602.719,-154.287 616.9,-176.891 628.206,-194.911"/>
<polygon fill="black" stroke="black" points="625.54,-197.248 633.819,-203.859 631.47,-193.528 625.54,-197.248"/>
</g>
<!-- o38&#45;&gt;o48 -->
<g id="edge54" class="edge"><title>o38&#45;&gt;o48</title>
<path fill="none" stroke="black" d="M598.942,-132.077C603.382,-135.231 608.141,-138.467 612.698,-141.291 641.764,-159.305 655.062,-154.659 680.698,-177.291 686.461,-182.378 691.743,-188.666 696.311,-194.972"/>
<polygon fill="black" stroke="black" points="693.566,-197.161 702.077,-203.471 699.359,-193.231 693.566,-197.161"/>
</g>
<!-- o38&#45;&gt;o46 -->
<g id="edge68" class="edge"><title>o38&#45;&gt;o46</title>
<path fill="none" stroke="black" d="M598.512,-132.866C602.975,-135.98 607.852,-138.999 612.698,-141.291 668.835,-167.835 696.804,-141.712 747.698,-177.291 754.111,-181.774 759.69,-187.926 764.345,-194.306"/>
<polygon fill="black" stroke="black" points="761.671,-196.606 770.112,-203.01 767.507,-192.74 761.671,-196.606"/>
</g>
<!-- e(o34o40)&#45;&gt;o16 -->
<g id="edge10" class="edge"><title>e(o34o40)&#45;&gt;o16</title>
<path fill="none" stroke="black" d="M370.957,-232.139C284.306,-243.411 105.658,-270.73 57.6978,-309.482 45.9414,-318.981 38.1585,-333.637 33.1212,-347.13"/>
<polygon fill="black" stroke="black" points="29.7869,-346.065 29.921,-356.659 36.4226,-348.293 29.7869,-346.065"/>
</g>
<!-- e(o34o40)&#45;&gt;o30 -->
<g id="edge16" class="edge"><title>e(o34o40)&#45;&gt;o30</title>
<path fill="none" stroke="black" d="M370.542,-228.01C307.169,-232.574 195.541,-249.3 124.698,-309.482 113.373,-319.103 105.688,-333.466 100.606,-346.722"/>
<polygon fill="black" stroke="black" points="97.1689,-345.952 97.2095,-356.546 103.785,-348.239 97.1689,-345.952"/>
</g>
<!-- e(o34o40)&#45;&gt;o32 -->
<g id="edge19" class="edge"><title>e(o34o40)&#45;&gt;o32</title>
<path fill="none" stroke="black" d="M371.016,-232.933C320.844,-242.081 242.279,-263.117 191.698,-309.482 180.743,-319.523 173.111,-333.946 167.968,-347.133"/>
<polygon fill="black" stroke="black" points="164.554,-346.288 164.506,-356.883 171.15,-348.63 164.554,-346.288"/>
</g>
<!-- e(o34o40)&#45;&gt;o14 -->
<g id="edge20" class="edge"><title>e(o34o40)&#45;&gt;o14</title>
<path fill="none" stroke="black" d="M373.021,-241.27C338.275,-254.534 291.223,-276.926 259.698,-309.482 249.379,-320.139 241.678,-334.526 236.238,-347.525"/>
<polygon fill="black" stroke="black" points="232.873,-346.52 232.514,-357.109 239.398,-349.056 232.873,-346.52"/>
</g>
<!-- e(o34o40)&#45;&gt;o8 -->
<g id="edge27" class="edge"><title>e(o34o40)&#45;&gt;o8</title>
<path fill="none" stroke="black" d="M378.679,-252.178C358.258,-266.959 334.294,-287.019 317.698,-309.482 308.423,-322.035 301.539,-337.983 296.812,-351.534"/>
<polygon fill="black" stroke="black" points="293.389,-350.741 293.613,-361.334 300.043,-352.913 293.389,-350.741"/>
</g>
<!-- e(o34o40)&#45;&gt;e(e(o34o40)o50) -->
<g id="edge33" class="edge"><title>e(o34o40)&#45;&gt;e(e(o34o40)o50)</title>
<path fill="none" stroke="black" d="M462.884,-244.415C497.812,-259.553 547.109,-282.928 586.698,-309.482 593.549,-314.077 600.439,-319.209 607.146,-324.551"/>
<polygon fill="black" stroke="black" points="604.963,-327.287 614.924,-330.898 609.39,-321.864 604.963,-327.287"/>
</g>
<!-- o28 -->
<g id="node22" class="node"><title>o28</title>
<ellipse fill="none" stroke="black" cx="351.698" cy="-380.976" rx="24.8972" ry="24.8972"/>
<text text-anchor="middle" x="351.698" y="-377.276" font-family="Times New Roman,serif" font-size="14.00">o28</text>
</g>
<!-- e(o34o40)&#45;&gt;o28 -->
<g id="edge50" class="edge"><title>e(o34o40)&#45;&gt;o28</title>
<path fill="none" stroke="black" d="M399.678,-269.988C388.71,-295.131 375.177,-326.152 365.283,-348.833"/>
<polygon fill="black" stroke="black" points="362.074,-347.435 361.284,-358.001 368.49,-350.234 362.074,-347.435"/>
</g>
<!-- o20 -->
<g id="node24" class="node"><title>o20</title>
<ellipse fill="none" stroke="black" cx="418.698" cy="-380.976" rx="24.8972" ry="24.8972"/>
<text text-anchor="middle" x="418.698" y="-377.276" font-family="Times New Roman,serif" font-size="14.00">o20</text>
</g>
<!-- e(o34o40)&#45;&gt;o20 -->
<g id="edge53" class="edge"><title>e(o34o40)&#45;&gt;o20</title>
<path fill="none" stroke="black" d="M418.698,-273.722C418.698,-297.096 418.698,-324.763 418.698,-346.004"/>
<polygon fill="black" stroke="black" points="415.198,-346.168 418.698,-356.168 422.198,-346.168 415.198,-346.168"/>
</g>
<!-- o10 -->
<g id="node26" class="node"><title>o10</title>
<ellipse fill="none" stroke="black" cx="485.698" cy="-380.976" rx="24.8972" ry="24.8972"/>
<text text-anchor="middle" x="485.698" y="-377.276" font-family="Times New Roman,serif" font-size="14.00">o10</text>
</g>
<!-- e(o34o40)&#45;&gt;o10 -->
<g id="edge56" class="edge"><title>e(o34o40)&#45;&gt;o10</title>
<path fill="none" stroke="black" d="M437.718,-269.988C448.686,-295.131 462.218,-326.152 472.112,-348.833"/>
<polygon fill="black" stroke="black" points="468.905,-350.234 476.112,-358.001 475.321,-347.435 468.905,-350.234"/>
</g>
<!-- o18 -->
<g id="node28" class="node"><title>o18</title>
<ellipse fill="none" stroke="black" cx="552.698" cy="-380.976" rx="24.8972" ry="24.8972"/>
<text text-anchor="middle" x="552.698" y="-377.276" font-family="Times New Roman,serif" font-size="14.00">o18</text>
</g>
<!-- e(o34o40)&#45;&gt;o18 -->
<g id="edge58" class="edge"><title>e(o34o40)&#45;&gt;o18</title>
<path fill="none" stroke="black" d="M458.784,-252.867C478.977,-267.701 502.711,-287.599 519.698,-309.482 528.612,-320.966 535.861,-335.246 541.271,-347.945"/>
<polygon fill="black" stroke="black" points="538.051,-349.319 545.047,-357.276 544.54,-346.693 538.051,-349.319"/>
</g>
<!-- o44&#45;&gt;o52 -->
<g id="edge7" class="edge"><title>o44&#45;&gt;o52</title>
<path fill="none" stroke="black" d="M658.34,-247.277C663.977,-256.113 671.338,-266.056 679.698,-273.482 704.97,-295.932 723.322,-285.063 746.698,-309.482 756.956,-320.198 764.648,-334.594 770.097,-347.583"/>
<polygon fill="black" stroke="black" points="766.937,-349.113 773.832,-357.157 773.458,-346.569 766.937,-349.113"/>
</g>
<!-- o44&#45;&gt;e(e(o34o40)o50) -->
<g id="edge30" class="edge"><title>o44&#45;&gt;e(e(o34o40)o50)</title>
<path fill="none" stroke="black" d="M649.779,-250.048C651.545,-263.609 653.875,-281.505 656.24,-299.664"/>
<polygon fill="black" stroke="black" points="652.792,-300.29 657.554,-309.754 659.733,-299.386 652.792,-300.29"/>
</g>
<!-- e(e(e(o34o40)o50)o8)&#45;&gt;e(e(e(e(o34o40)o50)o8)o26) -->
<g id="edge17" class="edge"><title>e(e(e(o34o40)o50)o8)&#45;&gt;e(e(e(e(o34o40)o50)o8)o26)</title>
<path fill="none" stroke="black" d="M329.392,-665.328C312.03,-702.025 291.221,-746.008 272.416,-785.756"/>
<polygon fill="black" stroke="black" points="269.174,-784.425 268.061,-794.961 275.502,-787.419 269.174,-784.425"/>
</g>
<!-- e(e(e(o34o40)o50)o8)&#45;&gt;o4 -->
<g id="edge21" class="edge"><title>e(e(e(o34o40)o50)o8)&#45;&gt;o4</title>
<path fill="none" stroke="black" d="M368.844,-674.004C369.678,-739.249 370.757,-823.575 371.319,-867.544"/>
<polygon fill="black" stroke="black" points="367.822,-867.863 371.45,-877.817 374.822,-867.773 367.822,-867.863"/>
</g>
<!-- e(e(e(o34o40)o50)o8)&#45;&gt;e(e(e(e(o34o40)o50)o52)e(e(e(o34o40)o50)o8)) -->
<g id="edge25" class="edge"><title>e(e(e(o34o40)o50)o8)&#45;&gt;e(e(e(e(o34o40)o50)o52)e(e(e(o34o40)o50)o8))</title>
<path fill="none" stroke="black" d="M429.389,-649.559C458.854,-680.699 495.335,-719.253 530.666,-756.593"/>
<polygon fill="black" stroke="black" points="528.3,-759.184 537.715,-764.042 533.384,-754.373 528.3,-759.184"/>
</g>
<!-- o2 -->
<g id="node31" class="node"><title>o2</title>
<ellipse fill="none" stroke="black" cx="429.698" cy="-898.186" rx="20.2975" ry="20.2975"/>
<text text-anchor="middle" x="429.698" y="-894.486" font-family="Times New Roman,serif" font-size="14.00">o2</text>
</g>
<!-- e(e(e(o34o40)o50)o8)&#45;&gt;o2 -->
<g id="edge70" class="edge"><title>e(e(e(o34o40)o50)o8)&#45;&gt;o2</title>
<path fill="none" stroke="black" d="M390.818,-670.744C394.354,-685.219 397.789,-700.123 400.698,-714.253 411.773,-768.056 420.98,-831.511 425.881,-867.779"/>
<polygon fill="black" stroke="black" points="422.469,-868.672 427.261,-878.121 429.408,-867.746 422.469,-868.672"/>
</g>
<!-- o28&#45;&gt;e(e(e(o34o40)o50)o8) -->
<g id="edge41" class="edge"><title>o28&#45;&gt;e(e(e(o34o40)o50)o8)</title>
<path fill="none" stroke="black" d="M353.596,-405.749C355.151,-425.224 357.463,-454.183 359.768,-483.045"/>
<polygon fill="black" stroke="black" points="356.296,-483.544 360.581,-493.234 363.274,-482.987 356.296,-483.544"/>
</g>
<!-- o28&#45;&gt;o26 -->
<g id="edge60" class="edge"><title>o28&#45;&gt;o26</title>
<path fill="none" stroke="black" d="M344.074,-404.553C338.365,-419.249 329.507,-438.256 317.698,-452.469 300.428,-473.255 285.478,-467.287 268.698,-488.469 254.363,-506.565 244.259,-530.561 237.792,-549.765"/>
<polygon fill="black" stroke="black" points="234.45,-548.723 234.738,-559.314 241.118,-550.855 234.45,-548.723"/>
</g>
<!-- e(e(e(e(e(o34o40)o50)o52)e(e(e(o34o40)o50)o8))e(e(e(e(o34o40)o50)o8)o26))&#45;&gt;eTop -->
<g id="edge3" class="edge"><title>e(e(e(e(e(o34o40)o50)o52)e(e(e(o34o40)o50)o8))e(e(e(e(o34o40)o50)o8)o26))&#45;&gt;eTop</title>
<path fill="none" stroke="black" d="M661.698,-1711.05C661.698,-1720.32 661.698,-1728.88 661.698,-1736.56"/>
<polygon fill="black" stroke="black" points="658.198,-1736.8 661.698,-1746.8 665.198,-1736.8 658.198,-1736.8"/>
</g>
<!-- o20&#45;&gt;e(e(e(o34o40)o50)o8) -->
<g id="edge42" class="edge"><title>o20&#45;&gt;e(e(e(o34o40)o50)o8)</title>
<path fill="none" stroke="black" d="M412.748,-405.355C407.626,-425.477 399.876,-455.93 392.24,-485.932"/>
<polygon fill="black" stroke="black" points="388.843,-485.089 389.768,-495.644 395.627,-486.816 388.843,-485.089"/>
</g>
<!-- o20&#45;&gt;o26 -->
<g id="edge61" class="edge"><title>o20&#45;&gt;o26</title>
<path fill="none" stroke="black" d="M413.097,-405.301C408.26,-420.704 399.77,-440.233 385.698,-452.469 344.643,-488.169 309.12,-452.055 268.698,-488.469 251.242,-504.194 241.138,-528.819 235.453,-548.905"/>
<polygon fill="black" stroke="black" points="232.052,-548.074 232.935,-558.632 238.829,-549.828 232.052,-548.074"/>
</g>
<!-- o48&#45;&gt;o52 -->
<g id="edge8" class="edge"><title>o48&#45;&gt;o52</title>
<path fill="none" stroke="black" d="M723.297,-248.392C734.74,-274.624 753.947,-318.653 766.96,-348.485"/>
<polygon fill="black" stroke="black" points="763.91,-350.245 771.116,-358.011 770.326,-347.446 763.91,-350.245"/>
</g>
<!-- o48&#45;&gt;e(e(o34o40)o50) -->
<g id="edge32" class="edge"><title>o48&#45;&gt;e(e(o34o40)o50)</title>
<path fill="none" stroke="black" d="M706.661,-249.38C702.28,-263.698 696.364,-283.03 690.429,-302.426"/>
<polygon fill="black" stroke="black" points="687.005,-301.653 687.426,-312.239 693.699,-303.701 687.005,-301.653"/>
</g>
<!-- o10&#45;&gt;e(e(e(o34o40)o50)o8) -->
<g id="edge44" class="edge"><title>o10&#45;&gt;e(e(e(o34o40)o50)o8)</title>
<path fill="none" stroke="black" d="M476.365,-403.971C470.144,-418.081 461.516,-436.654 452.698,-452.469 443.95,-468.159 433.994,-484.484 424.054,-500.051"/>
<polygon fill="black" stroke="black" points="421.012,-498.309 418.541,-508.612 426.898,-502.099 421.012,-498.309"/>
</g>
<!-- o10&#45;&gt;o26 -->
<g id="edge62" class="edge"><title>o10&#45;&gt;o26</title>
<path fill="none" stroke="black" d="M480.596,-405.445C475.957,-421.118 467.501,-440.907 452.698,-452.469 387.027,-503.763 333.458,-436.032 268.698,-488.469 250.321,-503.349 240.234,-528.231 234.787,-548.643"/>
<polygon fill="black" stroke="black" points="231.343,-547.994 232.407,-558.536 238.149,-549.632 231.343,-547.994"/>
</g>
<!-- o34&#45;&gt;e(o34o40) -->
<g id="edge36" class="edge"><title>o34&#45;&gt;e(o34o40)</title>
<path fill="none" stroke="black" d="M456.073,-139.462C451.961,-148.806 446.965,-160.157 441.983,-171.479"/>
<polygon fill="black" stroke="black" points="438.645,-170.375 437.82,-180.937 445.052,-173.194 438.645,-170.375"/>
</g>
<!-- o18&#45;&gt;e(e(e(o34o40)o50)o8) -->
<g id="edge45" class="edge"><title>o18&#45;&gt;e(e(e(o34o40)o50)o8)</title>
<path fill="none" stroke="black" d="M544.957,-404.606C539.322,-419.145 530.749,-437.955 519.698,-452.469 499.775,-478.636 473.779,-503.226 448.934,-523.822"/>
<polygon fill="black" stroke="black" points="446.451,-521.331 440.917,-530.366 450.877,-526.754 446.451,-521.331"/>
</g>
<!-- o18&#45;&gt;o26 -->
<g id="edge63" class="edge"><title>o18&#45;&gt;o26</title>
<path fill="none" stroke="black" d="M547.874,-405.343C543.342,-421.179 534.898,-441.206 519.698,-452.469 429.15,-519.565 358.054,-419.796 268.698,-488.469 249.829,-502.971 239.749,-528.099 234.43,-548.713"/>
<polygon fill="black" stroke="black" points="230.963,-548.17 232.122,-558.702 237.783,-549.746 230.963,-548.17"/>
</g>
<!-- o26&#45;&gt;e(e(e(e(o34o40)o50)o8)o26) -->
<g id="edge18" class="edge"><title>o26&#45;&gt;e(e(e(e(o34o40)o50)o8)o26)</title>
<path fill="none" stroke="black" d="M228.014,-608.131C226.996,-643.517 225.011,-712.516 223.235,-774.227"/>
<polygon fill="black" stroke="black" points="219.73,-774.362 222.941,-784.458 226.727,-774.563 219.73,-774.362"/>
</g>
<!-- o46&#45;&gt;o52 -->
<g id="edge9" class="edge"><title>o46&#45;&gt;o52</title>
<path fill="none" stroke="black" d="M780.698,-250.385C780.698,-276.083 780.698,-317.07 780.698,-346.059"/>
<polygon fill="black" stroke="black" points="777.198,-346.146 780.698,-356.146 784.198,-346.146 777.198,-346.146"/>
</g>
<!-- o46&#45;&gt;e(e(o34o40)o50) -->
<g id="edge31" class="edge"><title>o46&#45;&gt;e(e(o34o40)o50)</title>
<path fill="none" stroke="black" d="M767.06,-246.214C761.178,-254.67 754.174,-264.613 747.698,-273.482 737.621,-287.282 726.647,-301.945 716.123,-315.834"/>
<polygon fill="black" stroke="black" points="713.25,-313.83 709.989,-323.911 718.825,-318.064 713.25,-313.83"/>
</g>
<!-- o2&#45;&gt;e(e(e(e(e(o34o40)o50)o8)o26)o4) -->
<g id="edge15" class="edge"><title>o2&#45;&gt;e(e(e(e(e(o34o40)o50)o8)o26)o4)</title>
<path fill="none" stroke="black" d="M430.964,-918.552C432.363,-953.636 431.196,-1028.99 400.698,-1082.12 388.118,-1104.03 372.321,-1098.26 356.698,-1118.12 318.618,-1166.52 287.355,-1226.8 263.951,-1280.25"/>
<polygon fill="black" stroke="black" points="260.727,-1278.89 259.968,-1289.46 267.151,-1281.67 260.727,-1278.89"/>
</g>
<!-- o2&#45;&gt;e(e(e(e(e(o34o40)o50)o52)e(e(e(o34o40)o50)o8))o4) -->
<g id="edge24" class="edge"><title>o2&#45;&gt;e(e(e(e(e(o34o40)o50)o52)e(e(e(o34o40)o50)o8))o4)</title>
<path fill="none" stroke="black" d="M427.384,-918.338C423.999,-956.232 422.624,-1040.68 470.698,-1082.12 554.406,-1154.27 870.268,-1064.14 966.698,-1118.12 1012.1,-1143.54 1050.25,-1183.22 1081.1,-1225.33"/>
<polygon fill="black" stroke="black" points="1078.3,-1227.43 1086.98,-1233.5 1083.98,-1223.34 1078.3,-1227.43"/>
</g>
</g>
</svg>
