<?xml version="1.0" encoding="UTF-8" standalone="no"?>
<!DOCTYPE svg PUBLIC "-//W3C//DTD SVG 1.1//EN"
 "http://www.w3.org/Graphics/SVG/1.1/DTD/svg11.dtd">
<!-- Generated by graphviz version 2.38.0 (20140413.2041)
 -->
<!-- Title: priss2013&#45;table01_o20_d Pages: 1 -->
<svg width="528pt" height="753pt"
 viewBox="0.00 0.00 528.09 753.45" xmlns="http://www.w3.org/2000/svg" xmlns:xlink="http://www.w3.org/1999/xlink">
<g id="graph0" class="graph" transform="scale(1 1) rotate(0) translate(4 749.45)">
<title>priss2013&#45;table01_o20_d</title>
<polygon fill="white" stroke="none" points="-4,4 -4,-749.45 524.092,-749.45 524.092,4 -4,4"/>
<!-- eBot -->
<g id="node1" class="node"><title>eBot</title>
<ellipse fill="none" stroke="black" cx="312.148" cy="-27.9475" rx="27.8951" ry="27.8951"/>
<text text-anchor="middle" x="312.148" y="-24.2475" font-family="Times New Roman,serif" font-size="14.00">eBot</text>
</g>
<!-- o16 -->
<g id="node6" class="node"><title>o16</title>
<ellipse fill="none" stroke="black" cx="446.148" cy="-116.593" rx="24.8972" ry="24.8972"/>
<text text-anchor="middle" x="446.148" y="-112.893" font-family="Times New Roman,serif" font-size="14.00">o16</text>
</g>
<!-- eBot&#45;&gt;o16 -->
<g id="edge11" class="edge"><title>eBot&#45;&gt;o16</title>
<path fill="none" stroke="black" d="M335.691,-43.0212C356.34,-55.5057 387.053,-74.4208 413.148,-91.895 414.775,-92.9841 416.436,-94.1155 418.106,-95.2673"/>
<polygon fill="black" stroke="black" points="416.207,-98.2108 426.402,-101.094 420.231,-92.4825 416.207,-98.2108"/>
</g>
<!-- o28 -->
<g id="node9" class="node"><title>o28</title>
<ellipse fill="none" stroke="black" cx="178.148" cy="-116.593" rx="24.8972" ry="24.8972"/>
<text text-anchor="middle" x="178.148" y="-112.893" font-family="Times New Roman,serif" font-size="14.00">o28</text>
</g>
<!-- eBot&#45;&gt;o28 -->
<g id="edge24" class="edge"><title>eBot&#45;&gt;o28</title>
<path fill="none" stroke="black" d="M288.605,-43.0212C267.957,-55.5057 237.243,-74.4208 211.148,-91.895 209.522,-92.9841 207.86,-94.1155 206.19,-95.2673"/>
<polygon fill="black" stroke="black" points="204.066,-92.4825 197.894,-101.094 208.089,-98.2108 204.066,-92.4825"/>
</g>
<!-- o30 -->
<g id="node10" class="node"><title>o30</title>
<ellipse fill="none" stroke="black" cx="245.148" cy="-116.593" rx="24.8972" ry="24.8972"/>
<text text-anchor="middle" x="245.148" y="-112.893" font-family="Times New Roman,serif" font-size="14.00">o30</text>
</g>
<!-- eBot&#45;&gt;o30 -->
<g id="edge25" class="edge"><title>eBot&#45;&gt;o30</title>
<path fill="none" stroke="black" d="M295.241,-50.8118C286.359,-62.2985 275.395,-76.4777 265.991,-88.6393"/>
<polygon fill="black" stroke="black" points="263.122,-86.6267 259.774,-96.6785 268.66,-90.9088 263.122,-86.6267"/>
</g>
<!-- o10 -->
<g id="node14" class="node"><title>o10</title>
<ellipse fill="none" stroke="black" cx="312.148" cy="-116.593" rx="24.8972" ry="24.8972"/>
<text text-anchor="middle" x="312.148" y="-112.893" font-family="Times New Roman,serif" font-size="14.00">o10</text>
</g>
<!-- eBot&#45;&gt;o10 -->
<g id="edge35" class="edge"><title>eBot&#45;&gt;o10</title>
<path fill="none" stroke="black" d="M312.148,-56.3626C312.148,-64.3805 312.148,-73.2425 312.148,-81.6154"/>
<polygon fill="black" stroke="black" points="308.648,-81.8593 312.148,-91.8593 315.648,-81.8594 308.648,-81.8593"/>
</g>
<!-- o18 -->
<g id="node17" class="node"><title>o18</title>
<ellipse fill="none" stroke="black" cx="379.148" cy="-116.593" rx="24.8972" ry="24.8972"/>
<text text-anchor="middle" x="379.148" y="-112.893" font-family="Times New Roman,serif" font-size="14.00">o18</text>
</g>
<!-- eBot&#45;&gt;o18 -->
<g id="edge44" class="edge"><title>eBot&#45;&gt;o18</title>
<path fill="none" stroke="black" d="M329.055,-50.8118C337.937,-62.2985 348.902,-76.4777 358.306,-88.6393"/>
<polygon fill="black" stroke="black" points="355.636,-90.9088 364.522,-96.6785 361.174,-86.6267 355.636,-90.9088"/>
</g>
<!-- o8 -->
<g id="node2" class="node"><title>o8</title>
<ellipse fill="none" stroke="black" cx="31.1482" cy="-310.782" rx="20.2975" ry="20.2975"/>
<text text-anchor="middle" x="31.1482" y="-307.082" font-family="Times New Roman,serif" font-size="14.00">o8</text>
</g>
<!-- o50 -->
<g id="node7" class="node"><title>o50</title>
<ellipse fill="none" stroke="black" cx="209.148" cy="-461.822" rx="24.8972" ry="24.8972"/>
<text text-anchor="middle" x="209.148" y="-458.122" font-family="Times New Roman,serif" font-size="14.00">o50</text>
</g>
<!-- o8&#45;&gt;o50 -->
<g id="edge12" class="edge"><title>o8&#45;&gt;o50</title>
<path fill="none" stroke="black" d="M38.3724,-329.67C43.1971,-339.557 50.4471,-351.331 60.1482,-358.878 102.421,-391.762 134.153,-360.414 175.148,-394.878 185.573,-403.642 193.187,-416.416 198.533,-428.392"/>
<polygon fill="black" stroke="black" points="195.326,-429.797 202.344,-437.734 201.807,-427.153 195.326,-429.797"/>
</g>
<!-- o44 -->
<g id="node8" class="node"><title>o44</title>
<ellipse fill="none" stroke="black" cx="276.148" cy="-461.822" rx="24.8972" ry="24.8972"/>
<text text-anchor="middle" x="276.148" y="-458.122" font-family="Times New Roman,serif" font-size="14.00">o44</text>
</g>
<!-- o8&#45;&gt;o44 -->
<g id="edge18" class="edge"><title>o8&#45;&gt;o44</title>
<path fill="none" stroke="black" d="M38.0745,-330.075C42.7999,-340.098 50.0499,-351.872 60.1482,-358.878 128.254,-406.129 177.185,-344.678 243.148,-394.878 254,-403.137 261.535,-415.94 266.634,-428.076"/>
<polygon fill="black" stroke="black" points="263.411,-429.448 270.218,-437.567 269.959,-426.975 263.411,-429.448"/>
</g>
<!-- o48 -->
<g id="node13" class="node"><title>o48</title>
<ellipse fill="none" stroke="black" cx="343.148" cy="-461.822" rx="24.8972" ry="24.8972"/>
<text text-anchor="middle" x="343.148" y="-458.122" font-family="Times New Roman,serif" font-size="14.00">o48</text>
</g>
<!-- o8&#45;&gt;o48 -->
<g id="edge29" class="edge"><title>o8&#45;&gt;o48</title>
<path fill="none" stroke="black" d="M37.9424,-330.271C42.6238,-340.359 49.8738,-352.132 60.1482,-358.878 153.989,-420.486 219.106,-329.204 310.148,-394.878 321.29,-402.915 328.89,-415.802 333.959,-428.06"/>
<polygon fill="black" stroke="black" points="330.753,-429.483 337.501,-437.651 337.32,-427.058 330.753,-429.483"/>
</g>
<!-- e(e(o14o26)o8) -->
<g id="node16" class="node"><title>e(e(o14o26)o8)</title>
<ellipse fill="none" stroke="black" cx="453.148" cy="-461.822" rx="66.8882" ry="66.8882"/>
<text text-anchor="middle" x="453.148" y="-458.122" font-family="Times New Roman,serif" font-size="14.00">e(e(o14o26)o8)</text>
</g>
<!-- o8&#45;&gt;e(e(o14o26)o8) -->
<g id="edge37" class="edge"><title>o8&#45;&gt;e(e(o14o26)o8)</title>
<path fill="none" stroke="black" d="M37.6512,-329.913C42.2982,-340.144 49.6119,-352.184 60.1482,-358.878 179.832,-434.913 247.326,-337.854 377.148,-394.878 384.458,-398.089 391.58,-402.255 398.348,-406.933"/>
<polygon fill="black" stroke="black" points="396.593,-409.986 406.72,-413.099 400.744,-404.35 396.593,-409.986"/>
</g>
<!-- o4 -->
<g id="node18" class="node"><title>o4</title>
<ellipse fill="none" stroke="black" cx="20.1482" cy="-461.822" rx="20.2975" ry="20.2975"/>
<text text-anchor="middle" x="20.1482" y="-458.122" font-family="Times New Roman,serif" font-size="14.00">o4</text>
</g>
<!-- o8&#45;&gt;o4 -->
<g id="edge45" class="edge"><title>o8&#45;&gt;o4</title>
<path fill="none" stroke="black" d="M29.7327,-330.961C27.8515,-356.449 24.51,-401.723 22.3117,-431.509"/>
<polygon fill="black" stroke="black" points="18.804,-431.486 21.5583,-441.716 25.785,-432.001 18.804,-431.486"/>
</g>
<!-- o46 -->
<g id="node22" class="node"><title>o46</title>
<ellipse fill="none" stroke="black" cx="83.1482" cy="-461.822" rx="24.8972" ry="24.8972"/>
<text text-anchor="middle" x="83.1482" y="-458.122" font-family="Times New Roman,serif" font-size="14.00">o46</text>
</g>
<!-- o8&#45;&gt;o46 -->
<g id="edge62" class="edge"><title>o8&#45;&gt;o46</title>
<path fill="none" stroke="black" d="M37.5244,-330.057C46.0768,-354.57 61.4018,-398.493 71.9122,-428.618"/>
<polygon fill="black" stroke="black" points="68.6763,-429.968 75.2752,-438.257 75.2856,-427.662 68.6763,-429.968"/>
</g>
<!-- o2 -->
<g id="node23" class="node"><title>o2</title>
<ellipse fill="none" stroke="black" cx="146.148" cy="-461.822" rx="20.2975" ry="20.2975"/>
<text text-anchor="middle" x="146.148" y="-458.122" font-family="Times New Roman,serif" font-size="14.00">o2</text>
</g>
<!-- o8&#45;&gt;o2 -->
<g id="edge68" class="edge"><title>o8&#45;&gt;o2</title>
<path fill="none" stroke="black" d="M39.4074,-329.226C44.4839,-338.731 51.642,-350.274 60.1482,-358.878 81.2143,-380.185 97.597,-372.172 117.148,-394.878 126.485,-405.721 133.269,-420.044 137.917,-432.571"/>
<polygon fill="black" stroke="black" points="134.64,-433.806 141.194,-442.131 141.262,-431.536 134.64,-433.806"/>
</g>
<!-- o40 -->
<g id="node3" class="node"><title>o40</title>
<ellipse fill="none" stroke="black" cx="94.1482" cy="-310.782" rx="24.8972" ry="24.8972"/>
<text text-anchor="middle" x="94.1482" y="-307.082" font-family="Times New Roman,serif" font-size="14.00">o40</text>
</g>
<!-- o40&#45;&gt;o50 -->
<g id="edge13" class="edge"><title>o40&#45;&gt;o50</title>
<path fill="none" stroke="black" d="M106.652,-332.565C112.342,-341.183 119.509,-350.988 127.148,-358.878 145.697,-378.036 157.935,-374.511 175.148,-394.878 183.722,-405.023 190.906,-417.696 196.428,-429.213"/>
<polygon fill="black" stroke="black" points="193.342,-430.883 200.67,-438.535 199.714,-427.983 193.342,-430.883"/>
</g>
<!-- o40&#45;&gt;o44 -->
<g id="edge19" class="edge"><title>o40&#45;&gt;o44</title>
<path fill="none" stroke="black" d="M105.151,-333.467C110.669,-342.449 118.115,-352.288 127.148,-358.878 170.758,-390.692 201.996,-359.943 243.148,-394.878 253.468,-403.638 260.892,-416.411 266.053,-428.388"/>
<polygon fill="black" stroke="black" points="262.807,-429.7 269.718,-437.731 269.324,-427.143 262.807,-429.7"/>
</g>
<!-- o40&#45;&gt;o48 -->
<g id="edge30" class="edge"><title>o40&#45;&gt;o48</title>
<path fill="none" stroke="black" d="M104.539,-333.448C110.021,-342.652 117.609,-352.67 127.148,-358.878 196.624,-404.091 244.185,-344.678 310.148,-394.878 321,-403.137 328.535,-415.94 333.634,-428.076"/>
<polygon fill="black" stroke="black" points="330.411,-429.448 337.218,-437.567 336.959,-426.975 330.411,-429.448"/>
</g>
<!-- o40&#45;&gt;e(e(o14o26)o8) -->
<g id="edge38" class="edge"><title>o40&#45;&gt;e(e(o14o26)o8)</title>
<path fill="none" stroke="black" d="M104.395,-333.675C109.849,-342.925 117.453,-352.916 127.148,-358.878 222.773,-417.678 275.056,-348.199 377.148,-394.878 384.409,-398.198 391.5,-402.434 398.249,-407.153"/>
<polygon fill="black" stroke="black" points="396.489,-410.206 406.604,-413.358 400.662,-404.586 396.489,-410.206"/>
</g>
<!-- o40&#45;&gt;o4 -->
<g id="edge46" class="edge"><title>o40&#45;&gt;o4</title>
<path fill="none" stroke="black" d="M82.1973,-332.708C72.8367,-349.363 59.6814,-373.365 49.1482,-394.878 43.0039,-407.427 36.6994,-421.582 31.5447,-433.551"/>
<polygon fill="black" stroke="black" points="28.2152,-432.436 27.5139,-443.008 34.6546,-435.181 28.2152,-432.436"/>
</g>
<!-- o40&#45;&gt;o46 -->
<g id="edge63" class="edge"><title>o40&#45;&gt;o46</title>
<path fill="none" stroke="black" d="M92.3809,-335.728C90.5607,-360.39 87.7078,-399.044 85.6549,-426.858"/>
<polygon fill="black" stroke="black" points="82.1568,-426.705 84.9112,-436.935 89.1378,-427.22 82.1568,-426.705"/>
</g>
<!-- o40&#45;&gt;o2 -->
<g id="edge69" class="edge"><title>o40&#45;&gt;o2</title>
<path fill="none" stroke="black" d="M102.046,-334.418C111.257,-360.817 126.485,-404.463 136.417,-432.931"/>
<polygon fill="black" stroke="black" points="133.217,-434.384 139.816,-442.672 139.826,-432.078 133.217,-434.384"/>
</g>
<!-- e(e(e(o14o26)o8)o50) -->
<g id="node4" class="node"><title>e(e(e(o14o26)o8)o50)</title>
<ellipse fill="none" stroke="black" cx="209.148" cy="-655.108" rx="90.1842" ry="90.1842"/>
<text text-anchor="middle" x="209.148" y="-651.408" font-family="Times New Roman,serif" font-size="14.00">e(e(e(o14o26)o8)o50)</text>
</g>
<!-- o38 -->
<g id="node5" class="node"><title>o38</title>
<ellipse fill="none" stroke="black" cx="161.148" cy="-310.782" rx="24.8972" ry="24.8972"/>
<text text-anchor="middle" x="161.148" y="-307.082" font-family="Times New Roman,serif" font-size="14.00">o38</text>
</g>
<!-- o38&#45;&gt;o50 -->
<g id="edge16" class="edge"><title>o38&#45;&gt;o50</title>
<path fill="none" stroke="black" d="M168.438,-334.418C176.473,-359.367 189.469,-399.719 198.612,-428.106"/>
<polygon fill="black" stroke="black" points="195.392,-429.527 201.789,-437.973 202.055,-427.381 195.392,-429.527"/>
</g>
<!-- o38&#45;&gt;o44 -->
<g id="edge22" class="edge"><title>o38&#45;&gt;o44</title>
<path fill="none" stroke="black" d="M173.614,-332.602C179.298,-341.226 186.47,-351.026 194.148,-358.878 213.041,-378.199 225.727,-374.219 243.148,-394.878 251.595,-404.894 258.562,-417.441 263.883,-428.895"/>
<polygon fill="black" stroke="black" points="260.735,-430.431 267.961,-438.179 267.143,-427.616 260.735,-430.431"/>
</g>
<!-- o38&#45;&gt;o48 -->
<g id="edge33" class="edge"><title>o38&#45;&gt;o48</title>
<path fill="none" stroke="black" d="M172.151,-333.467C177.669,-342.449 185.115,-352.288 194.148,-358.878 237.758,-390.692 268.996,-359.943 310.148,-394.878 320.468,-403.638 327.892,-416.411 333.053,-428.388"/>
<polygon fill="black" stroke="black" points="329.807,-429.7 336.718,-437.731 336.324,-427.143 329.807,-429.7"/>
</g>
<!-- o38&#45;&gt;e(e(o14o26)o8) -->
<g id="edge42" class="edge"><title>o38&#45;&gt;e(e(o14o26)o8)</title>
<path fill="none" stroke="black" d="M171.539,-333.448C177.021,-342.652 184.609,-352.67 194.148,-358.878 263.624,-404.091 302.67,-358.49 377.148,-394.878 384.322,-398.382 391.356,-402.738 398.073,-407.528"/>
<polygon fill="black" stroke="black" points="396.303,-410.576 406.396,-413.797 400.514,-404.985 396.303,-410.576"/>
</g>
<!-- o38&#45;&gt;o4 -->
<g id="edge49" class="edge"><title>o38&#45;&gt;o4</title>
<path fill="none" stroke="black" d="M149.732,-332.937C144.138,-341.821 136.747,-351.729 128.148,-358.878 98.4782,-383.545 76.2502,-367.414 49.1482,-394.878 39.0279,-405.133 32.1433,-419.513 27.6317,-432.228"/>
<polygon fill="black" stroke="black" points="24.2323,-431.367 24.5057,-441.958 30.8968,-433.508 24.2323,-431.367"/>
</g>
<!-- o38&#45;&gt;o46 -->
<g id="edge66" class="edge"><title>o38&#45;&gt;o46</title>
<path fill="none" stroke="black" d="M149.872,-332.924C140.945,-349.698 128.186,-373.755 117.148,-394.878 111.09,-406.472 104.487,-419.246 98.7254,-430.439"/>
<polygon fill="black" stroke="black" points="95.5738,-428.914 94.114,-439.408 101.799,-432.115 95.5738,-428.914"/>
</g>
<!-- o38&#45;&gt;o2 -->
<g id="edge72" class="edge"><title>o38&#45;&gt;o2</title>
<path fill="none" stroke="black" d="M158.771,-335.398C156.149,-361.454 151.926,-403.414 149.095,-431.541"/>
<polygon fill="black" stroke="black" points="145.604,-431.282 148.085,-441.582 152.568,-431.983 145.604,-431.282"/>
</g>
<!-- o26 -->
<g id="node19" class="node"><title>o26</title>
<ellipse fill="none" stroke="black" cx="345.148" cy="-201.988" rx="24.8972" ry="24.8972"/>
<text text-anchor="middle" x="345.148" y="-198.288" font-family="Times New Roman,serif" font-size="14.00">o26</text>
</g>
<!-- o16&#45;&gt;o26 -->
<g id="edge55" class="edge"><title>o16&#45;&gt;o26</title>
<path fill="none" stroke="black" d="M427.151,-133.279C411.535,-146.173 389.227,-164.593 371.82,-178.966"/>
<polygon fill="black" stroke="black" points="369.202,-176.589 363.719,-185.654 373.659,-181.986 369.202,-176.589"/>
</g>
<!-- o14 -->
<g id="node21" class="node"><title>o14</title>
<ellipse fill="none" stroke="black" cx="261.148" cy="-201.988" rx="24.8972" ry="24.8972"/>
<text text-anchor="middle" x="261.148" y="-198.288" font-family="Times New Roman,serif" font-size="14.00">o14</text>
</g>
<!-- o16&#45;&gt;o14 -->
<g id="edge61" class="edge"><title>o16&#45;&gt;o14</title>
<path fill="none" stroke="black" d="M427.195,-132.586C422.739,-135.714 417.9,-138.81 413.148,-141.291 370.53,-163.534 355.595,-158.971 311.148,-177.291 304.97,-179.837 298.458,-182.749 292.249,-185.641"/>
<polygon fill="black" stroke="black" points="290.366,-182.66 282.834,-190.111 293.368,-188.984 290.366,-182.66"/>
</g>
<!-- o50&#45;&gt;e(e(e(o14o26)o8)o50) -->
<g id="edge3" class="edge"><title>o50&#45;&gt;e(e(e(o14o26)o8)o50)</title>
<path fill="none" stroke="black" d="M209.148,-486.662C209.148,-504.079 209.148,-528.984 209.148,-554.28"/>
<polygon fill="black" stroke="black" points="205.648,-554.358 209.148,-564.358 212.648,-554.358 205.648,-554.358"/>
</g>
<!-- o44&#45;&gt;e(e(e(o14o26)o8)o50) -->
<g id="edge4" class="edge"><title>o44&#45;&gt;e(e(e(o14o26)o8)o50)</title>
<path fill="none" stroke="black" d="M268.199,-485.516C261.657,-504.195 251.913,-532.014 242.217,-559.695"/>
<polygon fill="black" stroke="black" points="238.798,-558.87 238.795,-569.465 245.404,-561.184 238.798,-558.87"/>
</g>
<!-- o28&#45;&gt;o26 -->
<g id="edge51" class="edge"><title>o28&#45;&gt;o26</title>
<path fill="none" stroke="black" d="M197.226,-132.357C201.675,-135.497 206.48,-138.656 211.148,-141.291 246.521,-161.255 258.123,-160.59 295.148,-177.291 301.125,-179.986 307.468,-182.929 313.558,-185.796"/>
<polygon fill="black" stroke="black" points="312.295,-189.07 322.831,-190.191 315.294,-182.745 312.295,-189.07"/>
</g>
<!-- o28&#45;&gt;o14 -->
<g id="edge57" class="edge"><title>o28&#45;&gt;o14</title>
<path fill="none" stroke="black" d="M195.346,-134.872C207.365,-146.949 223.583,-163.244 236.911,-176.635"/>
<polygon fill="black" stroke="black" points="234.438,-179.112 243.973,-183.731 239.399,-174.174 234.438,-179.112"/>
</g>
<!-- o30&#45;&gt;o26 -->
<g id="edge54" class="edge"><title>o30&#45;&gt;o26</title>
<path fill="none" stroke="black" d="M263.957,-133.279C279.322,-146.092 301.228,-164.361 318.415,-178.694"/>
<polygon fill="black" stroke="black" points="316.502,-181.656 326.423,-185.373 320.985,-176.28 316.502,-181.656"/>
</g>
<!-- o30&#45;&gt;o14 -->
<g id="edge60" class="edge"><title>o30&#45;&gt;o14</title>
<path fill="none" stroke="black" d="M249.69,-141.268C251.258,-149.436 253.044,-158.747 254.732,-167.547"/>
<polygon fill="black" stroke="black" points="251.328,-168.382 256.65,-177.543 258.203,-167.063 251.328,-168.382"/>
</g>
<!-- o36 -->
<g id="node11" class="node"><title>o36</title>
<ellipse fill="none" stroke="black" cx="228.148" cy="-310.782" rx="24.8972" ry="24.8972"/>
<text text-anchor="middle" x="228.148" y="-307.082" font-family="Times New Roman,serif" font-size="14.00">o36</text>
</g>
<!-- o36&#45;&gt;o50 -->
<g id="edge14" class="edge"><title>o36&#45;&gt;o50</title>
<path fill="none" stroke="black" d="M225.138,-335.398C222.001,-359.998 217.058,-398.776 213.498,-426.703"/>
<polygon fill="black" stroke="black" points="210,-426.461 212.208,-436.823 216.944,-427.346 210,-426.461"/>
</g>
<!-- o36&#45;&gt;o44 -->
<g id="edge20" class="edge"><title>o36&#45;&gt;o44</title>
<path fill="none" stroke="black" d="M235.438,-334.418C243.473,-359.367 256.469,-399.719 265.612,-428.106"/>
<polygon fill="black" stroke="black" points="262.392,-429.527 268.789,-437.973 269.055,-427.381 262.392,-429.527"/>
</g>
<!-- o36&#45;&gt;o48 -->
<g id="edge31" class="edge"><title>o36&#45;&gt;o48</title>
<path fill="none" stroke="black" d="M240.614,-332.602C246.298,-341.226 253.47,-351.026 261.148,-358.878 280.041,-378.199 292.727,-374.219 310.148,-394.878 318.595,-404.894 325.562,-417.441 330.883,-428.895"/>
<polygon fill="black" stroke="black" points="327.735,-430.431 334.961,-438.179 334.143,-427.616 327.735,-430.431"/>
</g>
<!-- o36&#45;&gt;e(e(o14o26)o8) -->
<g id="edge39" class="edge"><title>o36&#45;&gt;e(e(o14o26)o8)</title>
<path fill="none" stroke="black" d="M239.151,-333.467C244.669,-342.449 252.115,-352.288 261.148,-358.878 304.758,-390.692 329.978,-368.629 377.148,-394.878 384.017,-398.7 390.82,-403.216 397.367,-408.064"/>
<polygon fill="black" stroke="black" points="395.456,-411.011 405.509,-414.355 399.736,-405.472 395.456,-411.011"/>
</g>
<!-- o36&#45;&gt;o4 -->
<g id="edge47" class="edge"><title>o36&#45;&gt;o4</title>
<path fill="none" stroke="black" d="M217.619,-333.24C212.108,-342.402 204.537,-352.445 195.148,-358.878 140.015,-396.651 100.302,-351.868 49.1482,-394.878 37.8583,-404.37 30.8158,-419.112 26.5034,-432.252"/>
<polygon fill="black" stroke="black" points="23.1367,-431.296 23.7128,-441.875 29.8597,-433.246 23.1367,-431.296"/>
</g>
<!-- o36&#45;&gt;o46 -->
<g id="edge64" class="edge"><title>o36&#45;&gt;o46</title>
<path fill="none" stroke="black" d="M216.716,-332.917C211.118,-341.798 203.729,-351.708 195.148,-358.878 165.848,-383.358 144.729,-368.475 117.148,-394.878 107.48,-404.133 100.059,-416.739 94.6537,-428.451"/>
<polygon fill="black" stroke="black" points="91.2907,-427.414 90.5822,-437.985 97.7283,-430.163 91.2907,-427.414"/>
</g>
<!-- o36&#45;&gt;o2 -->
<g id="edge70" class="edge"><title>o36&#45;&gt;o2</title>
<path fill="none" stroke="black" d="M214.412,-331.414C203.152,-347.934 187.17,-372.395 175.148,-394.878 168.56,-407.199 162.199,-421.325 157.121,-433.334"/>
<polygon fill="black" stroke="black" points="153.778,-432.26 153.182,-442.838 160.244,-434.941 153.778,-432.26"/>
</g>
<!-- e(o14o26) -->
<g id="node12" class="node"><title>e(o14o26)</title>
<ellipse fill="none" stroke="black" cx="453.148" cy="-310.782" rx="48.1917" ry="48.1917"/>
<text text-anchor="middle" x="453.148" y="-307.082" font-family="Times New Roman,serif" font-size="14.00">e(o14o26)</text>
</g>
<!-- e(o14o26)&#45;&gt;e(e(o14o26)o8) -->
<g id="edge40" class="edge"><title>e(o14o26)&#45;&gt;e(e(o14o26)o8)</title>
<path fill="none" stroke="black" d="M453.148,-358.939C453.148,-367.091 453.148,-375.751 453.148,-384.445"/>
<polygon fill="black" stroke="black" points="449.648,-384.637 453.148,-394.637 456.648,-384.637 449.648,-384.637"/>
</g>
<!-- o48&#45;&gt;e(e(e(o14o26)o8)o50) -->
<g id="edge6" class="edge"><title>o48&#45;&gt;e(e(e(o14o26)o8)o50)</title>
<path fill="none" stroke="black" d="M333.573,-484.846C327.514,-497.978 319.145,-514.764 310.148,-528.766 299.47,-545.383 286.99,-562.379 274.516,-578.278"/>
<polygon fill="black" stroke="black" points="271.478,-576.476 268.003,-586.484 276.961,-580.827 271.478,-576.476"/>
</g>
<!-- o10&#45;&gt;o26 -->
<g id="edge52" class="edge"><title>o10&#45;&gt;o26</title>
<path fill="none" stroke="black" d="M320.992,-139.941C324.571,-148.988 328.769,-159.595 332.652,-169.408"/>
<polygon fill="black" stroke="black" points="329.461,-170.857 336.395,-178.867 335.97,-168.281 329.461,-170.857"/>
</g>
<!-- o10&#45;&gt;o14 -->
<g id="edge58" class="edge"><title>o10&#45;&gt;o14</title>
<path fill="none" stroke="black" d="M299.541,-138.208C293.304,-148.407 285.669,-160.892 278.856,-172.033"/>
<polygon fill="black" stroke="black" points="275.841,-170.254 273.61,-180.611 281.813,-173.906 275.841,-170.254"/>
</g>
<!-- o34 -->
<g id="node15" class="node"><title>o34</title>
<ellipse fill="none" stroke="black" cx="295.148" cy="-310.782" rx="24.8972" ry="24.8972"/>
<text text-anchor="middle" x="295.148" y="-307.082" font-family="Times New Roman,serif" font-size="14.00">o34</text>
</g>
<!-- o34&#45;&gt;o50 -->
<g id="edge15" class="edge"><title>o34&#45;&gt;o50</title>
<path fill="none" stroke="black" d="M281.703,-331.574C270.616,-348.189 254.725,-372.7 242.148,-394.878 235.734,-406.188 229.216,-418.903 223.685,-430.128"/>
<polygon fill="black" stroke="black" points="220.526,-428.62 219.295,-439.144 226.82,-431.685 220.526,-428.62"/>
</g>
<!-- o34&#45;&gt;o44 -->
<g id="edge21" class="edge"><title>o34&#45;&gt;o44</title>
<path fill="none" stroke="black" d="M292.138,-335.398C289.001,-359.998 284.058,-398.776 280.498,-426.703"/>
<polygon fill="black" stroke="black" points="277,-426.461 279.208,-436.823 283.944,-427.346 277,-426.461"/>
</g>
<!-- o34&#45;&gt;o48 -->
<g id="edge32" class="edge"><title>o34&#45;&gt;o48</title>
<path fill="none" stroke="black" d="M302.438,-334.418C310.473,-359.367 323.469,-399.719 332.612,-428.106"/>
<polygon fill="black" stroke="black" points="329.392,-429.527 335.789,-437.973 336.055,-427.381 329.392,-429.527"/>
</g>
<!-- o34&#45;&gt;e(e(o14o26)o8) -->
<g id="edge41" class="edge"><title>o34&#45;&gt;e(e(o14o26)o8)</title>
<path fill="none" stroke="black" d="M307.614,-332.602C313.298,-341.226 320.47,-351.026 328.148,-358.878 347.041,-378.199 356.036,-378.009 377.148,-394.878 383.194,-399.708 389.422,-404.841 395.59,-410.028"/>
<polygon fill="black" stroke="black" points="393.46,-412.811 403.351,-416.607 397.987,-407.471 393.46,-412.811"/>
</g>
<!-- o34&#45;&gt;o4 -->
<g id="edge48" class="edge"><title>o34&#45;&gt;o4</title>
<path fill="none" stroke="black" d="M284.833,-333.566C279.366,-342.794 271.77,-352.798 262.148,-358.878 180.984,-410.162 124.879,-335.864 49.1482,-394.878 37.4348,-404.005 30.3485,-418.852 26.1169,-432.149"/>
<polygon fill="black" stroke="black" points="22.714,-431.322 23.4081,-441.894 29.4583,-433.197 22.714,-431.322"/>
</g>
<!-- o34&#45;&gt;o46 -->
<g id="edge65" class="edge"><title>o34&#45;&gt;o46</title>
<path fill="none" stroke="black" d="M284.614,-333.233C279.103,-342.394 271.532,-352.437 262.148,-358.878 207.401,-396.451 169.234,-353.693 117.148,-394.878 106.385,-403.388 98.6925,-416.234 93.3784,-428.334"/>
<polygon fill="black" stroke="black" points="90.0645,-427.195 89.6133,-437.78 96.5671,-429.787 90.0645,-427.195"/>
</g>
<!-- o34&#45;&gt;o2 -->
<g id="edge71" class="edge"><title>o34&#45;&gt;o2</title>
<path fill="none" stroke="black" d="M283.851,-333.081C278.278,-341.993 270.871,-351.882 262.148,-358.878 229.504,-385.059 205.061,-365.615 175.148,-394.878 164.849,-404.953 157.946,-419.315 153.469,-432.065"/>
<polygon fill="black" stroke="black" points="150.059,-431.242 150.38,-441.832 156.733,-433.353 150.059,-431.242"/>
</g>
<!-- e(e(o14o26)o8)&#45;&gt;e(e(e(o14o26)o8)o50) -->
<g id="edge7" class="edge"><title>e(e(o14o26)o8)&#45;&gt;e(e(e(o14o26)o8)o50)</title>
<path fill="none" stroke="black" d="M403.308,-506.982C394.677,-514.366 385.721,-521.864 377.148,-528.766 349.286,-551.197 318.051,-574.883 290.142,-595.551"/>
<polygon fill="black" stroke="black" points="287.944,-592.823 281.98,-601.58 292.103,-598.454 287.944,-592.823"/>
</g>
<!-- o18&#45;&gt;o26 -->
<g id="edge53" class="edge"><title>o18&#45;&gt;o26</title>
<path fill="none" stroke="black" d="M370.037,-139.941C366.349,-148.988 362.024,-159.595 358.024,-169.408"/>
<polygon fill="black" stroke="black" points="354.701,-168.286 354.167,-178.867 361.183,-170.929 354.701,-168.286"/>
</g>
<!-- o18&#45;&gt;o14 -->
<g id="edge59" class="edge"><title>o18&#45;&gt;o14</title>
<path fill="none" stroke="black" d="M359.279,-131.912C354.956,-135.013 350.404,-138.268 346.148,-141.291 327.243,-154.717 305.885,-169.717 289.307,-181.322"/>
<polygon fill="black" stroke="black" points="287.3,-178.455 281.112,-187.055 291.312,-184.191 287.3,-178.455"/>
</g>
<!-- o4&#45;&gt;e(e(e(o14o26)o8)o50) -->
<g id="edge8" class="edge"><title>o4&#45;&gt;e(e(e(o14o26)o8)o50)</title>
<path fill="none" stroke="black" d="M25.6007,-481.476C30.307,-495.454 38.102,-514.541 49.1482,-528.766 70.0369,-555.665 97.9173,-580.097 124.548,-600.099"/>
<polygon fill="black" stroke="black" points="122.639,-603.041 132.764,-606.163 126.796,-597.408 122.639,-603.041"/>
</g>
<!-- o26&#45;&gt;e(o14o26) -->
<g id="edge27" class="edge"><title>o26&#45;&gt;e(o14o26)</title>
<path fill="none" stroke="black" d="M362.5,-220.147C375.857,-233.354 394.877,-252.162 412.048,-269.141"/>
<polygon fill="black" stroke="black" points="409.701,-271.742 419.273,-276.285 414.623,-266.765 409.701,-271.742"/>
</g>
<!-- o32 -->
<g id="node20" class="node"><title>o32</title>
<ellipse fill="none" stroke="black" cx="362.148" cy="-310.782" rx="24.8972" ry="24.8972"/>
<text text-anchor="middle" x="362.148" y="-307.082" font-family="Times New Roman,serif" font-size="14.00">o32</text>
</g>
<!-- o32&#45;&gt;o50 -->
<g id="edge17" class="edge"><title>o32&#45;&gt;o50</title>
<path fill="none" stroke="black" d="M350.851,-333.081C345.278,-341.993 337.871,-351.882 329.148,-358.878 296.504,-385.059 272.779,-366.367 242.148,-394.878 232.411,-403.941 225.142,-416.511 219.941,-428.247"/>
<polygon fill="black" stroke="black" points="216.575,-427.233 216.05,-437.815 223.06,-429.87 216.575,-427.233"/>
</g>
<!-- o32&#45;&gt;o44 -->
<g id="edge23" class="edge"><title>o32&#45;&gt;o44</title>
<path fill="none" stroke="black" d="M348.703,-331.574C337.616,-348.189 321.725,-372.7 309.148,-394.878 302.734,-406.188 296.216,-418.903 290.685,-430.128"/>
<polygon fill="black" stroke="black" points="287.526,-428.62 286.295,-439.144 293.82,-431.685 287.526,-428.62"/>
</g>
<!-- o32&#45;&gt;o48 -->
<g id="edge34" class="edge"><title>o32&#45;&gt;o48</title>
<path fill="none" stroke="black" d="M359.138,-335.398C356.001,-359.998 351.058,-398.776 347.498,-426.703"/>
<polygon fill="black" stroke="black" points="344,-426.461 346.208,-436.823 350.944,-427.346 344,-426.461"/>
</g>
<!-- o32&#45;&gt;e(e(o14o26)o8) -->
<g id="edge43" class="edge"><title>o32&#45;&gt;e(e(o14o26)o8)</title>
<path fill="none" stroke="black" d="M374.611,-332.193C384.667,-348.664 399.397,-372.787 413.389,-395.705"/>
<polygon fill="black" stroke="black" points="410.507,-397.7 418.705,-404.411 416.481,-394.052 410.507,-397.7"/>
</g>
<!-- o32&#45;&gt;o4 -->
<g id="edge50" class="edge"><title>o32&#45;&gt;o4</title>
<path fill="none" stroke="black" d="M351.942,-333.743C346.498,-343.006 338.888,-352.99 329.148,-358.878 221.774,-423.787 149.623,-319.729 49.1482,-394.878 37.2566,-403.772 30.1574,-418.601 25.9632,-431.947"/>
<polygon fill="black" stroke="black" points="22.5468,-431.172 23.2909,-441.741 29.2999,-433.015 22.5468,-431.172"/>
</g>
<!-- o32&#45;&gt;o46 -->
<g id="edge67" class="edge"><title>o32&#45;&gt;o46</title>
<path fill="none" stroke="black" d="M351.831,-333.563C346.364,-342.79 338.768,-352.794 329.148,-358.878 248.374,-409.959 194.289,-338.458 117.148,-394.878 105.991,-403.038 98.2135,-415.944 92.9425,-428.184"/>
<polygon fill="black" stroke="black" points="89.5841,-427.165 89.236,-437.754 96.1116,-429.693 89.5841,-427.165"/>
</g>
<!-- o32&#45;&gt;o2 -->
<g id="edge73" class="edge"><title>o32&#45;&gt;o2</title>
<path fill="none" stroke="black" d="M351.654,-333.293C346.151,-342.465 338.576,-352.502 329.148,-358.878 270.923,-398.254 229.222,-349.97 175.148,-394.878 163.801,-404.302 156.754,-419.038 152.453,-432.193"/>
<polygon fill="black" stroke="black" points="149.083,-431.251 149.674,-441.829 155.808,-433.19 149.083,-431.251"/>
</g>
<!-- o14&#45;&gt;o8 -->
<g id="edge1" class="edge"><title>o14&#45;&gt;o8</title>
<path fill="none" stroke="black" d="M236.337,-204.701C195.647,-208.652 113.894,-221.506 60.1482,-262.686 53.2884,-267.942 47.6676,-275.323 43.2624,-282.686"/>
<polygon fill="black" stroke="black" points="39.9923,-281.377 38.331,-291.841 46.155,-284.697 39.9923,-281.377"/>
</g>
<!-- o14&#45;&gt;o40 -->
<g id="edge2" class="edge"><title>o14&#45;&gt;o40</title>
<path fill="none" stroke="black" d="M237.504,-209.275C208.97,-217.757 160.656,-235.067 127.148,-262.686 121.216,-267.576 115.867,-273.785 111.287,-280.077"/>
<polygon fill="black" stroke="black" points="108.232,-278.347 105.535,-288.593 114.033,-282.265 108.232,-278.347"/>
</g>
<!-- o14&#45;&gt;o38 -->
<g id="edge10" class="edge"><title>o14&#45;&gt;o38</title>
<path fill="none" stroke="black" d="M242.166,-217.885C228.127,-229.365 208.957,-246.042 194.148,-262.686 189.13,-268.327 184.196,-274.745 179.736,-280.989"/>
<polygon fill="black" stroke="black" points="176.793,-279.091 173.983,-289.306 182.55,-283.073 176.793,-279.091"/>
</g>
<!-- o14&#45;&gt;o36 -->
<g id="edge26" class="edge"><title>o14&#45;&gt;o36</title>
<path fill="none" stroke="black" d="M254.069,-225.898C249.458,-240.82 243.371,-260.519 238.254,-277.077"/>
<polygon fill="black" stroke="black" points="234.824,-276.322 235.216,-286.91 241.512,-278.389 234.824,-276.322"/>
</g>
<!-- o14&#45;&gt;e(o14o26) -->
<g id="edge28" class="edge"><title>o14&#45;&gt;e(o14o26)</title>
<path fill="none" stroke="black" d="M283.456,-213.807C292.072,-217.92 302.033,-222.598 311.148,-226.686 348.582,-243.475 361.078,-241.397 396.148,-262.686 400.743,-265.476 405.36,-268.613 409.869,-271.909"/>
<polygon fill="black" stroke="black" points="407.762,-274.703 417.839,-277.973 412,-269.133 407.762,-274.703"/>
</g>
<!-- o14&#45;&gt;o34 -->
<g id="edge36" class="edge"><title>o14&#45;&gt;o34</title>
<path fill="none" stroke="black" d="M268.359,-225.637C273.105,-240.544 279.395,-260.3 284.687,-276.924"/>
<polygon fill="black" stroke="black" points="281.462,-278.331 287.831,-286.798 288.132,-276.208 281.462,-278.331"/>
</g>
<!-- o14&#45;&gt;o32 -->
<g id="edge56" class="edge"><title>o14&#45;&gt;o32</title>
<path fill="none" stroke="black" d="M280.435,-217.836C294.694,-229.291 314.155,-245.958 329.148,-262.686 334.188,-268.309 339.129,-274.719 343.591,-280.961"/>
<polygon fill="black" stroke="black" points="340.777,-283.045 349.343,-289.28 346.534,-279.064 340.777,-283.045"/>
</g>
<!-- o46&#45;&gt;e(e(e(o14o26)o8)o50) -->
<g id="edge5" class="edge"><title>o46&#45;&gt;e(e(e(o14o26)o8)o50)</title>
<path fill="none" stroke="black" d="M93.3413,-484.676C99.7002,-497.748 108.33,-514.531 117.148,-528.766 126.623,-544.062 137.402,-559.89 148.162,-574.936"/>
<polygon fill="black" stroke="black" points="145.44,-577.145 154.129,-583.206 151.116,-573.049 145.44,-577.145"/>
</g>
<!-- o2&#45;&gt;e(e(e(o14o26)o8)o50) -->
<g id="edge9" class="edge"><title>o2&#45;&gt;e(e(e(o14o26)o8)o50)</title>
<path fill="none" stroke="black" d="M152.189,-481.163C158.275,-499.642 168.148,-529.62 177.978,-559.467"/>
<polygon fill="black" stroke="black" points="174.711,-560.736 181.164,-569.139 181.36,-558.546 174.711,-560.736"/>
</g>
</g>
</svg>
