<?xml version="1.0" encoding="UTF-8" standalone="no"?>
<!DOCTYPE svg PUBLIC "-//W3C//DTD SVG 1.1//EN"
 "http://www.w3.org/Graphics/SVG/1.1/DTD/svg11.dtd">
<!-- Generated by graphviz version 2.38.0 (20140413.2041)
 -->
<!-- Title: priss2013&#45;table01_o26_d Pages: 1 -->
<svg width="602pt" height="650pt"
 viewBox="0.00 0.00 601.85 649.86" xmlns="http://www.w3.org/2000/svg" xmlns:xlink="http://www.w3.org/1999/xlink">
<g id="graph0" class="graph" transform="scale(1 1) rotate(0) translate(4 645.856)">
<title>priss2013&#45;table01_o26_d</title>
<polygon fill="white" stroke="none" points="-4,4 -4,-645.856 597.846,-645.856 597.846,4 -4,4"/>
<!-- eBot -->
<g id="node1" class="node"><title>eBot</title>
<ellipse fill="none" stroke="black" cx="241.148" cy="-27.9475" rx="27.8951" ry="27.8951"/>
<text text-anchor="middle" x="241.148" y="-24.2475" font-family="Times New Roman,serif" font-size="14.00">eBot</text>
</g>
<!-- o16 -->
<g id="node3" class="node"><title>o16</title>
<ellipse fill="none" stroke="black" cx="141.148" cy="-116.593" rx="24.8972" ry="24.8972"/>
<text text-anchor="middle" x="141.148" y="-112.893" font-family="Times New Roman,serif" font-size="14.00">o16</text>
</g>
<!-- eBot&#45;&gt;o16 -->
<g id="edge9" class="edge"><title>eBot&#45;&gt;o16</title>
<path fill="none" stroke="black" d="M220.428,-46.9005C204.991,-60.2762 183.804,-78.6335 167.216,-93.0061"/>
<polygon fill="black" stroke="black" points="164.754,-90.5087 159.488,-99.7023 169.338,-95.7991 164.754,-90.5087"/>
</g>
<!-- o30 -->
<g id="node5" class="node"><title>o30</title>
<ellipse fill="none" stroke="black" cx="208.148" cy="-116.593" rx="24.8972" ry="24.8972"/>
<text text-anchor="middle" x="208.148" y="-112.893" font-family="Times New Roman,serif" font-size="14.00">o30</text>
</g>
<!-- eBot&#45;&gt;o30 -->
<g id="edge12" class="edge"><title>eBot&#45;&gt;o30</title>
<path fill="none" stroke="black" d="M231.426,-54.4753C227.954,-63.5894 223.999,-73.9751 220.346,-83.5667"/>
<polygon fill="black" stroke="black" points="216.97,-82.5971 216.681,-93.188 223.511,-85.0886 216.97,-82.5971"/>
</g>
<!-- o4 -->
<g id="node8" class="node"><title>o4</title>
<ellipse fill="none" stroke="black" cx="20.1482" cy="-116.593" rx="20.2975" ry="20.2975"/>
<text text-anchor="middle" x="20.1482" y="-112.893" font-family="Times New Roman,serif" font-size="14.00">o4</text>
</g>
<!-- eBot&#45;&gt;o4 -->
<g id="edge20" class="edge"><title>eBot&#45;&gt;o4</title>
<path fill="none" stroke="black" d="M213.79,-34.5657C175.347,-43.1882 103.916,-61.9065 49.1482,-91.895 46.9027,-93.1246 44.6618,-94.5365 42.4774,-96.0457"/>
<polygon fill="black" stroke="black" points="40.275,-93.3236 34.4411,-102.168 44.5169,-98.8919 40.275,-93.3236"/>
</g>
<!-- o28 -->
<g id="node12" class="node"><title>o28</title>
<ellipse fill="none" stroke="black" cx="275.148" cy="-116.593" rx="24.8972" ry="24.8972"/>
<text text-anchor="middle" x="275.148" y="-112.893" font-family="Times New Roman,serif" font-size="14.00">o28</text>
</g>
<!-- eBot&#45;&gt;o28 -->
<g id="edge24" class="edge"><title>eBot&#45;&gt;o28</title>
<path fill="none" stroke="black" d="M251.165,-54.4753C254.779,-63.6853 258.903,-74.1939 262.7,-83.8693"/>
<polygon fill="black" stroke="black" points="259.445,-85.1576 266.356,-93.188 265.962,-82.6005 259.445,-85.1576"/>
</g>
<!-- o20 -->
<g id="node13" class="node"><title>o20</title>
<ellipse fill="none" stroke="black" cx="342.148" cy="-116.593" rx="24.8972" ry="24.8972"/>
<text text-anchor="middle" x="342.148" y="-112.893" font-family="Times New Roman,serif" font-size="14.00">o20</text>
</g>
<!-- eBot&#45;&gt;o20 -->
<g id="edge25" class="edge"><title>eBot&#45;&gt;o20</title>
<path fill="none" stroke="black" d="M262.075,-46.9005C277.667,-60.2762 299.066,-78.6335 315.819,-93.0061"/>
<polygon fill="black" stroke="black" points="313.756,-95.8476 323.625,-99.7023 318.314,-90.5347 313.756,-95.8476"/>
</g>
<!-- o10 -->
<g id="node15" class="node"><title>o10</title>
<ellipse fill="none" stroke="black" cx="409.148" cy="-116.593" rx="24.8972" ry="24.8972"/>
<text text-anchor="middle" x="409.148" y="-112.893" font-family="Times New Roman,serif" font-size="14.00">o10</text>
</g>
<!-- eBot&#45;&gt;o10 -->
<g id="edge27" class="edge"><title>eBot&#45;&gt;o10</title>
<path fill="none" stroke="black" d="M266.741,-39.1929C294.437,-50.6634 339.546,-70.4717 376.148,-91.895 377.883,-92.9105 379.641,-93.9935 381.394,-95.1166"/>
<polygon fill="black" stroke="black" points="379.763,-98.2382 390.008,-100.937 383.682,-92.4381 379.763,-98.2382"/>
</g>
<!-- o18 -->
<g id="node17" class="node"><title>o18</title>
<ellipse fill="none" stroke="black" cx="476.148" cy="-116.593" rx="24.8972" ry="24.8972"/>
<text text-anchor="middle" x="476.148" y="-112.893" font-family="Times New Roman,serif" font-size="14.00">o18</text>
</g>
<!-- eBot&#45;&gt;o18 -->
<g id="edge29" class="edge"><title>eBot&#45;&gt;o18</title>
<path fill="none" stroke="black" d="M268.341,-34.4978C308.148,-43.2607 383.974,-62.3976 443.148,-91.895 444.947,-92.7918 446.755,-93.7827 448.547,-94.8355"/>
<polygon fill="black" stroke="black" points="446.964,-97.9797 457.262,-100.468 450.763,-92.1005 446.964,-97.9797"/>
</g>
<!-- o2 -->
<g id="node19" class="node"><title>o2</title>
<ellipse fill="none" stroke="black" cx="78.1482" cy="-116.593" rx="20.2975" ry="20.2975"/>
<text text-anchor="middle" x="78.1482" y="-112.893" font-family="Times New Roman,serif" font-size="14.00">o2</text>
</g>
<!-- eBot&#45;&gt;o2 -->
<g id="edge37" class="edge"><title>eBot&#45;&gt;o2</title>
<path fill="none" stroke="black" d="M215.233,-38.8904C187.503,-50.0319 142.706,-69.4962 107.148,-91.895 104.982,-93.2596 102.796,-94.765 100.648,-96.3357"/>
<polygon fill="black" stroke="black" points="98.4035,-93.6474 92.67,-102.557 102.708,-99.1675 98.4035,-93.6474"/>
</g>
<!-- e(o10o4) -->
<g id="node2" class="node"><title>e(o10o4)</title>
<ellipse fill="none" stroke="black" cx="208.148" cy="-220.837" rx="43.5923" ry="43.5923"/>
<text text-anchor="middle" x="208.148" y="-217.137" font-family="Times New Roman,serif" font-size="14.00">e(o10o4)</text>
</g>
<!-- e(e(o10o4)o14) -->
<g id="node4" class="node"><title>e(e(o10o4)o14)</title>
<ellipse fill="none" stroke="black" cx="132.148" cy="-367.327" rx="66.8882" ry="66.8882"/>
<text text-anchor="middle" x="132.148" y="-363.627" font-family="Times New Roman,serif" font-size="14.00">e(e(o10o4)o14)</text>
</g>
<!-- e(o10o4)&#45;&gt;e(e(o10o4)o14) -->
<g id="edge10" class="edge"><title>e(o10o4)&#45;&gt;e(e(o10o4)o14)</title>
<path fill="none" stroke="black" d="M188.18,-259.8C181.927,-271.689 174.825,-285.19 167.829,-298.491"/>
<polygon fill="black" stroke="black" points="164.572,-297.165 163.014,-307.645 170.767,-300.424 164.572,-297.165"/>
</g>
<!-- o16&#45;&gt;e(o10o4) -->
<g id="edge3" class="edge"><title>o16&#45;&gt;e(o10o4)</title>
<path fill="none" stroke="black" d="M154.385,-137.793C161.455,-148.582 170.454,-162.315 179.058,-175.445"/>
<polygon fill="black" stroke="black" points="176.223,-177.503 184.631,-183.949 182.077,-173.666 176.223,-177.503"/>
</g>
<!-- o14 -->
<g id="node7" class="node"><title>o14</title>
<ellipse fill="none" stroke="black" cx="342.148" cy="-220.837" rx="24.8972" ry="24.8972"/>
<text text-anchor="middle" x="342.148" y="-217.137" font-family="Times New Roman,serif" font-size="14.00">o14</text>
</g>
<!-- o16&#45;&gt;o14 -->
<g id="edge19" class="edge"><title>o16&#45;&gt;o14</title>
<path fill="none" stroke="black" d="M160.202,-132.401C164.652,-135.538 169.463,-138.685 174.148,-141.291 210.719,-161.63 223.252,-159.543 261.148,-177.291 278.183,-185.269 296.791,-194.97 311.871,-203.093"/>
<polygon fill="black" stroke="black" points="310.3,-206.223 320.759,-207.917 313.639,-200.071 310.3,-206.223"/>
</g>
<!-- e(e(e(o10o4)o14)o8) -->
<g id="node18" class="node"><title>e(e(e(o10o4)o14)o8)</title>
<ellipse fill="none" stroke="black" cx="376.148" cy="-556.063" rx="85.5853" ry="85.5853"/>
<text text-anchor="middle" x="376.148" y="-552.363" font-family="Times New Roman,serif" font-size="14.00">e(e(e(o10o4)o14)o8)</text>
</g>
<!-- e(e(o10o4)o14)&#45;&gt;e(e(e(o10o4)o14)o8) -->
<g id="edge33" class="edge"><title>e(e(o10o4)o14)&#45;&gt;e(e(e(o10o4)o14)o8)</title>
<path fill="none" stroke="black" d="M181.885,-412.617C190.529,-419.985 199.515,-427.445 208.148,-434.271 236.617,-456.78 268.78,-480.335 297.288,-500.606"/>
<polygon fill="black" stroke="black" points="295.434,-503.581 305.617,-506.508 299.482,-497.87 295.434,-503.581"/>
</g>
<!-- o30&#45;&gt;e(o10o4) -->
<g id="edge6" class="edge"><title>o30&#45;&gt;e(o10o4)</title>
<path fill="none" stroke="black" d="M208.148,-141.307C208.148,-149.022 208.148,-157.919 208.148,-166.892"/>
<polygon fill="black" stroke="black" points="204.648,-166.995 208.148,-176.995 211.648,-166.995 204.648,-166.995"/>
</g>
<!-- o30&#45;&gt;o14 -->
<g id="edge18" class="edge"><title>o30&#45;&gt;o14</title>
<path fill="none" stroke="black" d="M227.347,-132.242C250.333,-149.78 288.981,-179.269 315.012,-199.132"/>
<polygon fill="black" stroke="black" points="312.912,-201.931 322.985,-205.215 317.158,-196.366 312.912,-201.931"/>
</g>
<!-- o32 -->
<g id="node6" class="node"><title>o32</title>
<ellipse fill="none" stroke="black" cx="443.148" cy="-367.327" rx="24.8972" ry="24.8972"/>
<text text-anchor="middle" x="443.148" y="-363.627" font-family="Times New Roman,serif" font-size="14.00">o32</text>
</g>
<!-- o32&#45;&gt;e(e(e(o10o4)o14)o8) -->
<g id="edge36" class="edge"><title>o32&#45;&gt;e(e(e(o10o4)o14)o8)</title>
<path fill="none" stroke="black" d="M435.066,-390.852C428.342,-409.595 418.301,-437.578 408.406,-465.157"/>
<polygon fill="black" stroke="black" points="405,-464.285 404.918,-474.88 411.589,-466.649 405,-464.285"/>
</g>
<!-- o14&#45;&gt;e(e(o10o4)o14) -->
<g id="edge11" class="edge"><title>o14&#45;&gt;e(e(o10o4)o14)</title>
<path fill="none" stroke="black" d="M320.506,-232.923C293.368,-247.18 245.832,-273.342 208.148,-300.383 201.861,-304.894 195.474,-309.819 189.211,-314.879"/>
<polygon fill="black" stroke="black" points="186.857,-312.282 181.359,-321.339 191.305,-317.688 186.857,-312.282"/>
</g>
<!-- o14&#45;&gt;o32 -->
<g id="edge13" class="edge"><title>o14&#45;&gt;o32</title>
<path fill="none" stroke="black" d="M359.16,-238.905C373.805,-254.168 394.923,-277.583 410.148,-300.383 417.369,-311.196 424.054,-323.808 429.493,-335.091"/>
<polygon fill="black" stroke="black" points="426.341,-336.614 433.752,-344.186 432.681,-333.646 426.341,-336.614"/>
</g>
<!-- o8 -->
<g id="node9" class="node"><title>o8</title>
<ellipse fill="none" stroke="black" cx="506.148" cy="-367.327" rx="20.2975" ry="20.2975"/>
<text text-anchor="middle" x="506.148" y="-363.627" font-family="Times New Roman,serif" font-size="14.00">o8</text>
</g>
<!-- o14&#45;&gt;o8 -->
<g id="edge21" class="edge"><title>o14&#45;&gt;o8</title>
<path fill="none" stroke="black" d="M365.153,-230.02C394.646,-241.555 445.717,-265.195 477.148,-300.383 486.681,-311.055 493.485,-325.36 498.096,-337.918"/>
<polygon fill="black" stroke="black" points="494.82,-339.157 501.334,-347.513 501.453,-336.919 494.82,-339.157"/>
</g>
<!-- o40 -->
<g id="node10" class="node"><title>o40</title>
<ellipse fill="none" stroke="black" cx="569.148" cy="-367.327" rx="24.8972" ry="24.8972"/>
<text text-anchor="middle" x="569.148" y="-363.627" font-family="Times New Roman,serif" font-size="14.00">o40</text>
</g>
<!-- o14&#45;&gt;o40 -->
<g id="edge22" class="edge"><title>o14&#45;&gt;o40</title>
<path fill="none" stroke="black" d="M366.408,-226.06C406.107,-234.09 485.488,-254.981 535.148,-300.383 545.2,-309.573 552.748,-322.421 558.147,-334.337"/>
<polygon fill="black" stroke="black" points="554.936,-335.73 562.022,-343.607 561.394,-333.03 554.936,-335.73"/>
</g>
<!-- o38 -->
<g id="node11" class="node"><title>o38</title>
<ellipse fill="none" stroke="black" cx="242.148" cy="-367.327" rx="24.8972" ry="24.8972"/>
<text text-anchor="middle" x="242.148" y="-363.627" font-family="Times New Roman,serif" font-size="14.00">o38</text>
</g>
<!-- o14&#45;&gt;o38 -->
<g id="edge23" class="edge"><title>o14&#45;&gt;o38</title>
<path fill="none" stroke="black" d="M325.124,-239.252C310.72,-254.547 290.096,-277.82 275.148,-300.383 267.967,-311.222 261.29,-323.84 255.847,-335.119"/>
<polygon fill="black" stroke="black" points="252.661,-333.671 251.582,-344.211 258.998,-336.644 252.661,-333.671"/>
</g>
<!-- o36 -->
<g id="node14" class="node"><title>o36</title>
<ellipse fill="none" stroke="black" cx="309.148" cy="-367.327" rx="24.8972" ry="24.8972"/>
<text text-anchor="middle" x="309.148" y="-363.627" font-family="Times New Roman,serif" font-size="14.00">o36</text>
</g>
<!-- o14&#45;&gt;o36 -->
<g id="edge26" class="edge"><title>o14&#45;&gt;o36</title>
<path fill="none" stroke="black" d="M336.846,-245.052C331.386,-268.961 322.827,-306.435 316.668,-333.4"/>
<polygon fill="black" stroke="black" points="313.252,-332.641 314.437,-343.17 320.076,-334.2 313.252,-332.641"/>
</g>
<!-- o34 -->
<g id="node16" class="node"><title>o34</title>
<ellipse fill="none" stroke="black" cx="376.148" cy="-367.327" rx="24.8972" ry="24.8972"/>
<text text-anchor="middle" x="376.148" y="-363.627" font-family="Times New Roman,serif" font-size="14.00">o34</text>
</g>
<!-- o14&#45;&gt;o34 -->
<g id="edge28" class="edge"><title>o14&#45;&gt;o34</title>
<path fill="none" stroke="black" d="M347.611,-245.052C353.237,-268.961 362.055,-306.435 368.4,-333.4"/>
<polygon fill="black" stroke="black" points="365.002,-334.237 370.699,-343.17 371.815,-332.634 365.002,-334.237"/>
</g>
<!-- o4&#45;&gt;e(o10o4) -->
<g id="edge7" class="edge"><title>o4&#45;&gt;e(o10o4)</title>
<path fill="none" stroke="black" d="M34.709,-130.568C39.1829,-134.254 44.2279,-138.123 49.1482,-141.291 84.2559,-163.892 126.787,-184.589 159.024,-199.058"/>
<polygon fill="black" stroke="black" points="157.693,-202.296 168.253,-203.156 160.534,-195.899 157.693,-202.296"/>
</g>
<!-- o8&#45;&gt;e(e(e(o10o4)o14)o8) -->
<g id="edge30" class="edge"><title>o8&#45;&gt;e(e(e(o10o4)o14)o8)</title>
<path fill="none" stroke="black" d="M499.697,-386.647C494.522,-400.279 486.578,-419.074 477.148,-434.271 466.496,-451.438 453.577,-468.76 440.587,-484.717"/>
<polygon fill="black" stroke="black" points="437.883,-482.495 434.214,-492.434 443.28,-486.952 437.883,-482.495"/>
</g>
<!-- o40&#45;&gt;e(e(e(o10o4)o14)o8) -->
<g id="edge31" class="edge"><title>o40&#45;&gt;e(e(e(o10o4)o14)o8)</title>
<path fill="none" stroke="black" d="M560.641,-390.59C554.781,-404.126 546.083,-421.251 535.148,-434.271 513.024,-460.614 484.16,-484.684 457.107,-504.286"/>
<polygon fill="black" stroke="black" points="454.89,-501.568 448.779,-510.223 458.953,-507.268 454.89,-501.568"/>
</g>
<!-- o38&#45;&gt;e(e(e(o10o4)o14)o8) -->
<g id="edge35" class="edge"><title>o38&#45;&gt;e(e(e(o10o4)o14)o8)</title>
<path fill="none" stroke="black" d="M251.631,-390.411C257.658,-403.564 266.025,-420.352 275.148,-434.271 286.223,-451.168 299.321,-468.376 312.352,-484.308"/>
<polygon fill="black" stroke="black" points="309.661,-486.547 318.734,-492.019 315.054,-482.084 309.661,-486.547"/>
</g>
<!-- o28&#45;&gt;e(o10o4) -->
<g id="edge1" class="edge"><title>o28&#45;&gt;e(o10o4)</title>
<path fill="none" stroke="black" d="M261.911,-137.793C254.841,-148.582 245.842,-162.315 237.238,-175.445"/>
<polygon fill="black" stroke="black" points="234.219,-173.666 231.665,-183.949 240.074,-177.503 234.219,-173.666"/>
</g>
<!-- o28&#45;&gt;o14 -->
<g id="edge14" class="edge"><title>o28&#45;&gt;o14</title>
<path fill="none" stroke="black" d="M288.385,-137.793C298.388,-153.057 312.251,-174.212 323.394,-191.218"/>
<polygon fill="black" stroke="black" points="320.53,-193.233 328.939,-199.679 326.385,-189.396 320.53,-193.233"/>
</g>
<!-- o20&#45;&gt;e(o10o4) -->
<g id="edge2" class="edge"><title>o20&#45;&gt;e(o10o4)</title>
<path fill="none" stroke="black" d="M322.949,-132.242C304.094,-146.629 274.7,-169.057 250.376,-187.616"/>
<polygon fill="black" stroke="black" points="248.171,-184.896 242.344,-193.745 252.417,-190.461 248.171,-184.896"/>
</g>
<!-- o20&#45;&gt;o14 -->
<g id="edge15" class="edge"><title>o20&#45;&gt;o14</title>
<path fill="none" stroke="black" d="M342.148,-141.307C342.148,-154.503 342.148,-171.16 342.148,-185.733"/>
<polygon fill="black" stroke="black" points="338.648,-185.897 342.148,-195.897 345.648,-185.897 338.648,-185.897"/>
</g>
<!-- o36&#45;&gt;e(e(e(o10o4)o14)o8) -->
<g id="edge32" class="edge"><title>o36&#45;&gt;e(e(e(o10o4)o14)o8)</title>
<path fill="none" stroke="black" d="M317.23,-390.852C323.955,-409.595 333.995,-437.578 343.89,-465.157"/>
<polygon fill="black" stroke="black" points="340.707,-466.649 347.379,-474.88 347.296,-464.285 340.707,-466.649"/>
</g>
<!-- o10&#45;&gt;e(o10o4) -->
<g id="edge4" class="edge"><title>o10&#45;&gt;e(o10o4)</title>
<path fill="none" stroke="black" d="M390.006,-132.245C385.561,-135.391 380.773,-138.58 376.148,-141.291 337.68,-163.833 291.67,-184.971 257.535,-199.628"/>
<polygon fill="black" stroke="black" points="256.067,-196.448 248.238,-203.586 258.809,-202.889 256.067,-196.448"/>
</g>
<!-- o10&#45;&gt;o14 -->
<g id="edge16" class="edge"><title>o10&#45;&gt;o14</title>
<path fill="none" stroke="black" d="M395.911,-137.793C385.909,-153.057 372.046,-174.212 360.902,-191.218"/>
<polygon fill="black" stroke="black" points="357.911,-189.396 355.358,-199.679 363.766,-193.233 357.911,-189.396"/>
</g>
<!-- o34&#45;&gt;e(e(e(o10o4)o14)o8) -->
<g id="edge34" class="edge"><title>o34&#45;&gt;e(e(e(o10o4)o14)o8)</title>
<path fill="none" stroke="black" d="M376.148,-392.357C376.148,-409.923 376.148,-434.991 376.148,-460.204"/>
<polygon fill="black" stroke="black" points="372.648,-460.235 376.148,-470.235 379.648,-460.235 372.648,-460.235"/>
</g>
<!-- o18&#45;&gt;e(o10o4) -->
<g id="edge5" class="edge"><title>o18&#45;&gt;e(o10o4)</title>
<path fill="none" stroke="black" d="M457.334,-132.866C452.871,-135.98 447.994,-138.999 443.148,-141.291 387.011,-167.835 366.865,-157.085 308.148,-177.291 291.147,-183.141 272.946,-190.532 256.794,-197.505"/>
<polygon fill="black" stroke="black" points="255.307,-194.335 247.546,-201.548 258.111,-200.749 255.307,-194.335"/>
</g>
<!-- o18&#45;&gt;o14 -->
<g id="edge17" class="edge"><title>o18&#45;&gt;o14</title>
<path fill="none" stroke="black" d="M456.949,-132.242C433.964,-149.78 395.316,-179.269 369.284,-199.132"/>
<polygon fill="black" stroke="black" points="367.138,-196.366 361.312,-205.215 371.385,-201.931 367.138,-196.366"/>
</g>
<!-- o2&#45;&gt;e(o10o4) -->
<g id="edge8" class="edge"><title>o2&#45;&gt;e(o10o4)</title>
<path fill="none" stroke="black" d="M93.4436,-130.207C97.8494,-133.809 102.674,-137.724 107.148,-141.291 126.277,-156.541 147.64,-173.207 165.775,-187.248"/>
<polygon fill="black" stroke="black" points="163.808,-190.151 173.86,-193.5 168.09,-184.614 163.808,-190.151"/>
</g>
</g>
</svg>
