<?xml version="1.0" encoding="UTF-8" standalone="no"?>
<!DOCTYPE svg PUBLIC "-//W3C//DTD SVG 1.1//EN"
 "http://www.w3.org/Graphics/SVG/1.1/DTD/svg11.dtd">
<!-- Generated by graphviz version 2.38.0 (20140413.2041)
 -->
<!-- Title: priss2013&#45;table01_o56_d Pages: 1 -->
<svg width="64pt" height="226pt"
 viewBox="0.00 0.00 63.90 225.59" xmlns="http://www.w3.org/2000/svg" xmlns:xlink="http://www.w3.org/1999/xlink">
<g id="graph0" class="graph" transform="scale(1 1) rotate(0) translate(4 221.587)">
<title>priss2013&#45;table01_o56_d</title>
<polygon fill="white" stroke="none" points="-4,4 -4,-221.587 59.895,-221.587 59.895,4 -4,4"/>
<!-- o54 -->
<g id="node1" class="node"><title>o54</title>
<ellipse fill="none" stroke="black" cx="27.9475" cy="-116.593" rx="24.8972" ry="24.8972"/>
<text text-anchor="middle" x="27.9475" y="-112.893" font-family="Times New Roman,serif" font-size="14.00">o54</text>
</g>
<!-- o2 -->
<g id="node3" class="node"><title>o2</title>
<ellipse fill="none" stroke="black" cx="27.9475" cy="-197.439" rx="20.2975" ry="20.2975"/>
<text text-anchor="middle" x="27.9475" y="-193.739" font-family="Times New Roman,serif" font-size="14.00">o2</text>
</g>
<!-- o54&#45;&gt;o2 -->
<g id="edge2" class="edge"><title>o54&#45;&gt;o2</title>
<path fill="none" stroke="black" d="M27.9475,-141.678C27.9475,-149.702 27.9475,-158.731 27.9475,-167.108"/>
<polygon fill="black" stroke="black" points="24.4476,-167.245 27.9475,-177.245 31.4476,-167.246 24.4476,-167.245"/>
</g>
<!-- eBot -->
<g id="node2" class="node"><title>eBot</title>
<ellipse fill="none" stroke="black" cx="27.9475" cy="-27.9475" rx="27.8951" ry="27.8951"/>
<text text-anchor="middle" x="27.9475" y="-24.2475" font-family="Times New Roman,serif" font-size="14.00">eBot</text>
</g>
<!-- eBot&#45;&gt;o54 -->
<g id="edge1" class="edge"><title>eBot&#45;&gt;o54</title>
<path fill="none" stroke="black" d="M27.9475,-56.3626C27.9475,-64.3805 27.9475,-73.2425 27.9475,-81.6154"/>
<polygon fill="black" stroke="black" points="24.4476,-81.8593 27.9475,-91.8593 31.4476,-81.8594 24.4476,-81.8593"/>
</g>
</g>
</svg>
