<?xml version="1.0" encoding="UTF-8" standalone="no"?>
<!DOCTYPE svg PUBLIC "-//W3C//DTD SVG 1.1//EN"
 "http://www.w3.org/Graphics/SVG/1.1/DTD/svg11.dtd">
<!-- Generated by graphviz version 2.38.0 (20140413.2041)
 -->
<!-- Title: priss2013&#45;table01_o10_d Pages: 1 -->
<svg width="574pt" height="1026pt"
 viewBox="0.00 0.00 574.04 1026.03" xmlns="http://www.w3.org/2000/svg" xmlns:xlink="http://www.w3.org/1999/xlink">
<g id="graph0" class="graph" transform="scale(1 1) rotate(0) translate(4 1022.03)">
<title>priss2013&#45;table01_o10_d</title>
<polygon fill="white" stroke="none" points="-4,4 -4,-1022.03 570.04,-1022.03 570.04,4 -4,4"/>
<!-- eBot -->
<g id="node1" class="node"><title>eBot</title>
<ellipse fill="none" stroke="black" cx="251.342" cy="-27.9475" rx="27.8951" ry="27.8951"/>
<text text-anchor="middle" x="251.342" y="-24.2475" font-family="Times New Roman,serif" font-size="14.00">eBot</text>
</g>
<!-- o16 -->
<g id="node8" class="node"><title>o16</title>
<ellipse fill="none" stroke="black" cx="251.342" cy="-116.593" rx="24.8972" ry="24.8972"/>
<text text-anchor="middle" x="251.342" y="-112.893" font-family="Times New Roman,serif" font-size="14.00">o16</text>
</g>
<!-- eBot&#45;&gt;o16 -->
<g id="edge23" class="edge"><title>eBot&#45;&gt;o16</title>
<path fill="none" stroke="black" d="M251.342,-56.3626C251.342,-64.3805 251.342,-73.2425 251.342,-81.6154"/>
<polygon fill="black" stroke="black" points="247.842,-81.8593 251.342,-91.8593 254.842,-81.8594 247.842,-81.8593"/>
</g>
<!-- o8 -->
<g id="node2" class="node"><title>o8</title>
<ellipse fill="none" stroke="black" cx="200.342" cy="-466.371" rx="20.2975" ry="20.2975"/>
<text text-anchor="middle" x="200.342" y="-462.671" font-family="Times New Roman,serif" font-size="14.00">o8</text>
</g>
<!-- e(e(e(o14o30)o26)o8) -->
<g id="node5" class="node"><title>e(e(e(o14o30)o26)o8)</title>
<ellipse fill="none" stroke="black" cx="90.342" cy="-664.207" rx="90.1842" ry="90.1842"/>
<text text-anchor="middle" x="90.342" y="-660.507" font-family="Times New Roman,serif" font-size="14.00">e(e(e(o14o30)o26)o8)</text>
</g>
<!-- o8&#45;&gt;e(e(e(o14o30)o26)o8) -->
<g id="edge8" class="edge"><title>o8&#45;&gt;e(e(e(o14o30)o26)o8)</title>
<path fill="none" stroke="black" d="M193.617,-485.422C187.999,-499.893 179.461,-520.57 170.342,-537.865 162.964,-551.859 154.533,-566.336 145.978,-580.262"/>
<polygon fill="black" stroke="black" points="142.945,-578.511 140.643,-588.853 148.892,-582.204 142.945,-578.511"/>
</g>
<!-- o50 -->
<g id="node9" class="node"><title>o50</title>
<ellipse fill="none" stroke="black" cx="407.342" cy="-664.207" rx="24.8972" ry="24.8972"/>
<text text-anchor="middle" x="407.342" y="-660.507" font-family="Times New Roman,serif" font-size="14.00">o50</text>
</g>
<!-- o8&#45;&gt;o50 -->
<g id="edge24" class="edge"><title>o8&#45;&gt;o50</title>
<path fill="none" stroke="black" d="M203.277,-486.309C206.753,-502.326 214.124,-524.711 229.342,-537.865 279.253,-581.004 324.011,-530.065 373.342,-573.865 389.363,-588.089 397.872,-610.687 402.371,-629.595"/>
<polygon fill="black" stroke="black" points="399.001,-630.576 404.48,-639.644 405.851,-629.138 399.001,-630.576"/>
</g>
<!-- o44 -->
<g id="node10" class="node"><title>o44</title>
<ellipse fill="none" stroke="black" cx="474.342" cy="-664.207" rx="24.8972" ry="24.8972"/>
<text text-anchor="middle" x="474.342" y="-660.507" font-family="Times New Roman,serif" font-size="14.00">o44</text>
</g>
<!-- o8&#45;&gt;o44 -->
<g id="edge30" class="edge"><title>o8&#45;&gt;o44</title>
<path fill="none" stroke="black" d="M203.032,-486.603C206.352,-502.808 213.63,-525.305 229.342,-537.865 303.993,-597.539 367.791,-512.84 441.342,-573.865 457.846,-587.558 466.097,-610.307 470.222,-629.422"/>
<polygon fill="black" stroke="black" points="466.791,-630.116 472.07,-639.302 473.671,-628.829 466.791,-630.116"/>
</g>
<!-- o48 -->
<g id="node16" class="node"><title>o48</title>
<ellipse fill="none" stroke="black" cx="541.342" cy="-664.207" rx="24.8972" ry="24.8972"/>
<text text-anchor="middle" x="541.342" y="-660.507" font-family="Times New Roman,serif" font-size="14.00">o48</text>
</g>
<!-- o8&#45;&gt;o48 -->
<g id="edge42" class="edge"><title>o8&#45;&gt;o48</title>
<path fill="none" stroke="black" d="M202.846,-486.438C206.057,-502.768 213.278,-525.54 229.342,-537.865 328.539,-613.969 410.548,-495.965 508.342,-573.865 525.225,-587.314 533.471,-610.277 537.498,-629.555"/>
<polygon fill="black" stroke="black" points="534.074,-630.291 539.286,-639.516 540.964,-629.054 534.074,-630.291"/>
</g>
<!-- o4 -->
<g id="node19" class="node"><title>o4</title>
<ellipse fill="none" stroke="black" cx="218.342" cy="-664.207" rx="20.2975" ry="20.2975"/>
<text text-anchor="middle" x="218.342" y="-660.507" font-family="Times New Roman,serif" font-size="14.00">o4</text>
</g>
<!-- o8&#45;&gt;o4 -->
<g id="edge50" class="edge"><title>o8&#45;&gt;o4</title>
<path fill="none" stroke="black" d="M202.101,-486.506C205.26,-520.874 211.912,-593.254 215.649,-633.907"/>
<polygon fill="black" stroke="black" points="212.175,-634.358 216.576,-643.995 219.146,-633.717 212.175,-634.358"/>
</g>
<!-- o46 -->
<g id="node23" class="node"><title>o46</title>
<ellipse fill="none" stroke="black" cx="281.342" cy="-664.207" rx="24.8972" ry="24.8972"/>
<text text-anchor="middle" x="281.342" y="-660.507" font-family="Times New Roman,serif" font-size="14.00">o46</text>
</g>
<!-- o8&#45;&gt;o46 -->
<g id="edge62" class="edge"><title>o8&#45;&gt;o46</title>
<path fill="none" stroke="black" d="M207.372,-485.491C213.034,-499.823 221.341,-520.278 229.342,-537.865 236.75,-554.148 240.152,-557.485 247.342,-573.865 255.539,-592.539 263.701,-613.871 269.972,-631.006"/>
<polygon fill="black" stroke="black" points="266.736,-632.348 273.432,-640.559 273.317,-629.964 266.736,-632.348"/>
</g>
<!-- o2 -->
<g id="node24" class="node"><title>o2</title>
<ellipse fill="none" stroke="black" cx="344.342" cy="-664.207" rx="20.2975" ry="20.2975"/>
<text text-anchor="middle" x="344.342" y="-660.507" font-family="Times New Roman,serif" font-size="14.00">o2</text>
</g>
<!-- o8&#45;&gt;o2 -->
<g id="edge68" class="edge"><title>o8&#45;&gt;o2</title>
<path fill="none" stroke="black" d="M203.943,-486.379C207.798,-502.003 215.349,-523.786 229.342,-537.865 258.551,-567.255 287.277,-543.381 315.342,-573.865 330.44,-590.264 337.682,-614.621 341.154,-633.763"/>
<polygon fill="black" stroke="black" points="337.717,-634.439 342.721,-643.777 344.633,-633.356 337.717,-634.439"/>
</g>
<!-- e(o14o30) -->
<g id="node3" class="node"><title>e(o14o30)</title>
<ellipse fill="none" stroke="black" cx="296.342" cy="-310.782" rx="48.1917" ry="48.1917"/>
<text text-anchor="middle" x="296.342" y="-307.082" font-family="Times New Roman,serif" font-size="14.00">e(o14o30)</text>
</g>
<!-- e(o14o30)&#45;&gt;o8 -->
<g id="edge1" class="edge"><title>e(o14o30)&#45;&gt;o8</title>
<path fill="none" stroke="black" d="M264.254,-346.93C252.305,-361.145 239.253,-378.133 229.342,-394.878 221.446,-408.218 214.704,-424.11 209.713,-437.425"/>
<polygon fill="black" stroke="black" points="206.353,-436.425 206.248,-447.02 212.937,-438.803 206.353,-436.425"/>
</g>
<!-- o40 -->
<g id="node4" class="node"><title>o40</title>
<ellipse fill="none" stroke="black" cx="263.342" cy="-466.371" rx="24.8972" ry="24.8972"/>
<text text-anchor="middle" x="263.342" y="-462.671" font-family="Times New Roman,serif" font-size="14.00">o40</text>
</g>
<!-- e(o14o30)&#45;&gt;o40 -->
<g id="edge7" class="edge"><title>e(o14o30)&#45;&gt;o40</title>
<path fill="none" stroke="black" d="M286.441,-357.864C281.318,-381.707 275.179,-410.28 270.518,-431.975"/>
<polygon fill="black" stroke="black" points="267.038,-431.509 268.359,-442.021 273.882,-432.979 267.038,-431.509"/>
</g>
<!-- o38 -->
<g id="node7" class="node"><title>o38</title>
<ellipse fill="none" stroke="black" cx="330.342" cy="-466.371" rx="24.8972" ry="24.8972"/>
<text text-anchor="middle" x="330.342" y="-462.671" font-family="Times New Roman,serif" font-size="14.00">o38</text>
</g>
<!-- e(o14o30)&#45;&gt;o38 -->
<g id="edge22" class="edge"><title>e(o14o30)&#45;&gt;o38</title>
<path fill="none" stroke="black" d="M306.543,-357.864C311.821,-381.707 318.147,-410.28 322.949,-431.975"/>
<polygon fill="black" stroke="black" points="319.594,-433.014 325.173,-442.021 326.429,-431.501 319.594,-433.014"/>
</g>
<!-- e(e(o14o30)o26) -->
<g id="node12" class="node"><title>e(e(o14o30)o26)</title>
<ellipse fill="none" stroke="black" cx="90.342" cy="-466.371" rx="71.4873" ry="71.4873"/>
<text text-anchor="middle" x="90.342" y="-462.671" font-family="Times New Roman,serif" font-size="14.00">e(e(o14o30)o26)</text>
</g>
<!-- e(o14o30)&#45;&gt;e(e(o14o30)o26) -->
<g id="edge38" class="edge"><title>e(o14o30)&#45;&gt;e(e(o14o30)o26)</title>
<path fill="none" stroke="black" d="M255.74,-336.884C230.83,-352.743 198.592,-374.101 171.342,-394.878 164.629,-399.996 157.757,-405.509 150.991,-411.117"/>
<polygon fill="black" stroke="black" points="148.526,-408.617 143.115,-417.726 153.025,-413.98 148.526,-408.617"/>
</g>
<!-- o36 -->
<g id="node15" class="node"><title>o36</title>
<ellipse fill="none" stroke="black" cx="397.342" cy="-466.371" rx="24.8972" ry="24.8972"/>
<text text-anchor="middle" x="397.342" y="-462.671" font-family="Times New Roman,serif" font-size="14.00">o36</text>
</g>
<!-- e(o14o30)&#45;&gt;o36 -->
<g id="edge41" class="edge"><title>e(o14o30)&#45;&gt;o36</title>
<path fill="none" stroke="black" d="M328.524,-347.119C340.602,-361.358 353.915,-378.313 364.342,-394.878 371.954,-406.969 378.907,-421.098 384.448,-433.519"/>
<polygon fill="black" stroke="black" points="381.387,-435.258 388.574,-443.042 387.81,-432.475 381.387,-435.258"/>
</g>
<!-- o34 -->
<g id="node17" class="node"><title>o34</title>
<ellipse fill="none" stroke="black" cx="464.342" cy="-466.371" rx="24.8972" ry="24.8972"/>
<text text-anchor="middle" x="464.342" y="-462.671" font-family="Times New Roman,serif" font-size="14.00">o34</text>
</g>
<!-- e(o14o30)&#45;&gt;o34 -->
<g id="edge48" class="edge"><title>e(o14o30)&#45;&gt;o34</title>
<path fill="none" stroke="black" d="M340.464,-330.716C369.344,-344.922 406.242,-366.742 431.342,-394.878 441.091,-405.806 448.5,-420.115 453.803,-432.984"/>
<polygon fill="black" stroke="black" points="450.593,-434.389 457.451,-442.465 457.126,-431.875 450.593,-434.389"/>
</g>
<!-- o32 -->
<g id="node21" class="node"><title>o32</title>
<ellipse fill="none" stroke="black" cx="531.342" cy="-466.371" rx="24.8972" ry="24.8972"/>
<text text-anchor="middle" x="531.342" y="-462.671" font-family="Times New Roman,serif" font-size="14.00">o32</text>
</g>
<!-- e(o14o30)&#45;&gt;o32 -->
<g id="edge60" class="edge"><title>e(o14o30)&#45;&gt;o32</title>
<path fill="none" stroke="black" d="M343.421,-320.813C388.197,-331.569 454.98,-353.531 498.342,-394.878 509.019,-405.058 516.591,-419.376 521.764,-432.451"/>
<polygon fill="black" stroke="black" points="518.569,-433.907 525.265,-442.118 525.151,-431.523 518.569,-433.907"/>
</g>
<!-- o40&#45;&gt;e(e(e(o14o30)o26)o8) -->
<g id="edge10" class="edge"><title>o40&#45;&gt;e(e(e(o14o30)o26)o8)</title>
<path fill="none" stroke="black" d="M255.113,-489.896C249.204,-504.391 240.351,-523.193 229.342,-537.865 214.988,-556.996 207.109,-557.853 189.342,-573.865 181.376,-581.044 173.051,-588.551 164.759,-596.03"/>
<polygon fill="black" stroke="black" points="162.244,-593.585 157.164,-602.882 166.933,-598.782 162.244,-593.585"/>
</g>
<!-- o40&#45;&gt;o50 -->
<g id="edge25" class="edge"><title>o40&#45;&gt;o50</title>
<path fill="none" stroke="black" d="M269.617,-490.423C274.718,-505.509 283.248,-524.778 296.342,-537.865 323.061,-564.571 347.631,-546.186 373.342,-573.865 387.732,-589.357 396.22,-611.558 401.117,-629.952"/>
<polygon fill="black" stroke="black" points="397.725,-630.819 403.482,-639.713 404.528,-629.17 397.725,-630.819"/>
</g>
<!-- o40&#45;&gt;o44 -->
<g id="edge31" class="edge"><title>o40&#45;&gt;o44</title>
<path fill="none" stroke="black" d="M268.629,-490.61C273.351,-506.178 281.834,-525.935 296.342,-537.865 347.631,-580.038 391.869,-529.576 441.342,-573.865 457.142,-588.009 465.393,-610.405 469.694,-629.234"/>
<polygon fill="black" stroke="black" points="466.305,-630.134 471.7,-639.253 473.169,-628.76 466.305,-630.134"/>
</g>
<!-- o40&#45;&gt;o48 -->
<g id="edge43" class="edge"><title>o40&#45;&gt;o48</title>
<path fill="none" stroke="black" d="M268.256,-490.618C272.83,-506.399 281.288,-526.407 296.342,-537.865 372.39,-595.748 434.791,-512.84 508.342,-573.865 524.846,-587.558 533.097,-610.307 537.222,-629.422"/>
<polygon fill="black" stroke="black" points="533.791,-630.116 539.07,-639.302 540.671,-628.829 533.791,-630.116"/>
</g>
<!-- o40&#45;&gt;o4 -->
<g id="edge51" class="edge"><title>o40&#45;&gt;o4</title>
<path fill="none" stroke="black" d="M258.003,-490.605C249.768,-526.446 233.98,-595.153 225.007,-634.202"/>
<polygon fill="black" stroke="black" points="221.497,-633.848 222.669,-644.378 228.319,-635.416 221.497,-633.848"/>
</g>
<!-- o40&#45;&gt;o46 -->
<g id="edge63" class="edge"><title>o40&#45;&gt;o46</title>
<path fill="none" stroke="black" d="M265.513,-490.994C268.682,-525.473 274.592,-589.768 278.225,-629.295"/>
<polygon fill="black" stroke="black" points="274.762,-629.863 279.163,-639.501 281.733,-629.223 274.762,-629.863"/>
</g>
<!-- o40&#45;&gt;o2 -->
<g id="edge69" class="edge"><title>o40&#45;&gt;o2</title>
<path fill="none" stroke="black" d="M273.186,-489.096C279.612,-503.099 288.275,-521.654 296.342,-537.865 304.402,-554.062 308.301,-557.2 315.342,-573.865 323.724,-593.706 331.177,-616.855 336.427,-634.617"/>
<polygon fill="black" stroke="black" points="333.113,-635.755 339.255,-644.388 339.837,-633.809 333.113,-635.755"/>
</g>
<!-- e(e(e(e(o14o30)o26)o8)o50) -->
<g id="node6" class="node"><title>e(e(e(e(o14o30)o26)o8)o50)</title>
<ellipse fill="none" stroke="black" cx="344.342" cy="-904.289" rx="113.98" ry="113.98"/>
<text text-anchor="middle" x="344.342" y="-900.589" font-family="Times New Roman,serif" font-size="14.00">e(e(e(e(o14o30)o26)o8)o50)</text>
</g>
<!-- e(e(e(o14o30)o26)o8)&#45;&gt;e(e(e(e(o14o30)o26)o8)o50) -->
<g id="edge17" class="edge"><title>e(e(e(o14o30)o26)o8)&#45;&gt;e(e(e(e(o14o30)o26)o8)o50)</title>
<path fill="none" stroke="black" d="M156.084,-726.829C185.885,-754.763 221.605,-788.244 253.883,-818.499"/>
<polygon fill="black" stroke="black" points="251.885,-821.423 261.574,-825.708 256.672,-816.316 251.885,-821.423"/>
</g>
<!-- o38&#45;&gt;e(e(e(o14o30)o26)o8) -->
<g id="edge13" class="edge"><title>o38&#45;&gt;e(e(e(o14o30)o26)o8)</title>
<path fill="none" stroke="black" d="M324.65,-490.593C319.772,-505.95 311.271,-525.466 297.342,-537.865 259.55,-571.507 233.049,-548.376 189.342,-573.865 179.829,-579.413 170.433,-585.983 161.44,-593.005"/>
<polygon fill="black" stroke="black" points="159.243,-590.281 153.647,-599.277 163.632,-595.734 159.243,-590.281"/>
</g>
<!-- o38&#45;&gt;o50 -->
<g id="edge28" class="edge"><title>o38&#45;&gt;o50</title>
<path fill="none" stroke="black" d="M339.533,-489.757C348.33,-511.271 361.914,-544.722 373.342,-573.865 380.787,-592.851 388.918,-614.196 395.362,-631.26"/>
<polygon fill="black" stroke="black" points="392.141,-632.638 398.943,-640.762 398.692,-630.17 392.141,-632.638"/>
</g>
<!-- o38&#45;&gt;o44 -->
<g id="edge34" class="edge"><title>o38&#45;&gt;o44</title>
<path fill="none" stroke="black" d="M336.596,-490.444C341.688,-505.539 350.216,-524.81 363.342,-537.865 390.413,-564.79 415.425,-545.827 441.342,-573.865 455.642,-589.335 463.882,-611.536 468.552,-629.936"/>
<polygon fill="black" stroke="black" points="465.145,-630.737 470.795,-639.7 471.967,-629.17 465.145,-630.737"/>
</g>
<!-- o38&#45;&gt;o48 -->
<g id="edge46" class="edge"><title>o38&#45;&gt;o48</title>
<path fill="none" stroke="black" d="M335.629,-490.61C340.351,-506.178 348.834,-525.935 363.342,-537.865 414.631,-580.038 458.869,-529.576 508.342,-573.865 524.142,-588.009 532.393,-610.405 536.694,-629.234"/>
<polygon fill="black" stroke="black" points="533.305,-630.134 538.7,-639.253 540.169,-628.76 533.305,-630.134"/>
</g>
<!-- o38&#45;&gt;o4 -->
<g id="edge54" class="edge"><title>o38&#45;&gt;o4</title>
<path fill="none" stroke="black" d="M323.119,-489.993C317.653,-504.707 309.073,-523.718 297.342,-537.865 279.863,-558.944 263.482,-551.744 247.342,-573.865 234.346,-591.678 226.988,-615.598 222.938,-634.205"/>
<polygon fill="black" stroke="black" points="219.47,-633.702 220.966,-644.191 226.337,-635.059 219.47,-633.702"/>
</g>
<!-- o38&#45;&gt;o46 -->
<g id="edge66" class="edge"><title>o38&#45;&gt;o46</title>
<path fill="none" stroke="black" d="M324.529,-490.605C315.853,-525.277 299.482,-590.708 289.578,-630.291"/>
<polygon fill="black" stroke="black" points="286.18,-629.453 287.148,-640.003 292.97,-631.152 286.18,-629.453"/>
</g>
<!-- o38&#45;&gt;o2 -->
<g id="edge72" class="edge"><title>o38&#45;&gt;o2</title>
<path fill="none" stroke="black" d="M332.059,-491.385C334.628,-527.328 339.468,-595.034 342.244,-633.86"/>
<polygon fill="black" stroke="black" points="338.764,-634.27 342.969,-643.995 345.746,-633.77 338.764,-634.27"/>
</g>
<!-- o28 -->
<g id="node11" class="node"><title>o28</title>
<ellipse fill="none" stroke="black" cx="318.342" cy="-201.988" rx="24.8972" ry="24.8972"/>
<text text-anchor="middle" x="318.342" y="-198.288" font-family="Times New Roman,serif" font-size="14.00">o28</text>
</g>
<!-- o16&#45;&gt;o28 -->
<g id="edge36" class="edge"><title>o16&#45;&gt;o28</title>
<path fill="none" stroke="black" d="M266.545,-136.517C275.454,-147.606 286.854,-161.795 296.689,-174.037"/>
<polygon fill="black" stroke="black" points="294.207,-176.536 303.199,-182.14 299.664,-172.152 294.207,-176.536"/>
</g>
<!-- o30 -->
<g id="node13" class="node"><title>o30</title>
<ellipse fill="none" stroke="black" cx="117.342" cy="-201.988" rx="24.8972" ry="24.8972"/>
<text text-anchor="middle" x="117.342" y="-198.288" font-family="Times New Roman,serif" font-size="14.00">o30</text>
</g>
<!-- o16&#45;&gt;o30 -->
<g id="edge39" class="edge"><title>o16&#45;&gt;o30</title>
<path fill="none" stroke="black" d="M230.119,-129.406C209.448,-141.082 177.291,-159.7 150.342,-177.291 148.703,-178.361 147.031,-179.477 145.354,-180.617"/>
<polygon fill="black" stroke="black" points="143.241,-177.824 137.037,-186.412 147.242,-183.567 143.241,-177.824"/>
</g>
<!-- o20 -->
<g id="node14" class="node"><title>o20</title>
<ellipse fill="none" stroke="black" cx="184.342" cy="-201.988" rx="24.8972" ry="24.8972"/>
<text text-anchor="middle" x="184.342" y="-198.288" font-family="Times New Roman,serif" font-size="14.00">o20</text>
</g>
<!-- o16&#45;&gt;o20 -->
<g id="edge40" class="edge"><title>o16&#45;&gt;o20</title>
<path fill="none" stroke="black" d="M236.139,-136.517C227.23,-147.606 215.83,-161.795 205.995,-174.037"/>
<polygon fill="black" stroke="black" points="203.02,-172.152 199.485,-182.14 208.477,-176.536 203.02,-172.152"/>
</g>
<!-- o18 -->
<g id="node18" class="node"><title>o18</title>
<ellipse fill="none" stroke="black" cx="251.342" cy="-201.988" rx="24.8972" ry="24.8972"/>
<text text-anchor="middle" x="251.342" y="-198.288" font-family="Times New Roman,serif" font-size="14.00">o18</text>
</g>
<!-- o16&#45;&gt;o18 -->
<g id="edge49" class="edge"><title>o16&#45;&gt;o18</title>
<path fill="none" stroke="black" d="M251.342,-141.714C251.342,-149.649 251.342,-158.622 251.342,-167.142"/>
<polygon fill="black" stroke="black" points="247.842,-167.209 251.342,-177.209 254.842,-167.209 247.842,-167.209"/>
</g>
<!-- o14 -->
<g id="node22" class="node"><title>o14</title>
<ellipse fill="none" stroke="black" cx="385.342" cy="-201.988" rx="24.8972" ry="24.8972"/>
<text text-anchor="middle" x="385.342" y="-198.288" font-family="Times New Roman,serif" font-size="14.00">o14</text>
</g>
<!-- o16&#45;&gt;o14 -->
<g id="edge61" class="edge"><title>o16&#45;&gt;o14</title>
<path fill="none" stroke="black" d="M272.565,-129.406C293.236,-141.082 325.393,-159.7 352.342,-177.291 353.981,-178.361 355.652,-179.477 357.33,-180.617"/>
<polygon fill="black" stroke="black" points="355.442,-183.567 365.647,-186.412 359.443,-177.824 355.442,-183.567"/>
</g>
<!-- o50&#45;&gt;e(e(e(e(o14o30)o26)o8)o50) -->
<g id="edge15" class="edge"><title>o50&#45;&gt;e(e(e(e(o14o30)o26)o8)o50)</title>
<path fill="none" stroke="black" d="M401.187,-688.469C395.161,-711.239 385.504,-747.736 375.846,-784.234"/>
<polygon fill="black" stroke="black" points="372.434,-783.446 373.259,-794.009 379.201,-785.237 372.434,-783.446"/>
</g>
<!-- o44&#45;&gt;e(e(e(e(o14o30)o26)o8)o50) -->
<g id="edge16" class="edge"><title>o44&#45;&gt;e(e(e(e(o14o30)o26)o8)o50)</title>
<path fill="none" stroke="black" d="M467.427,-688.194C461.52,-706.598 452.26,-732.833 441.342,-754.549 433.397,-770.352 424.141,-786.543 414.56,-802.154"/>
<polygon fill="black" stroke="black" points="411.517,-800.42 409.211,-810.761 417.462,-804.115 411.517,-800.42"/>
</g>
<!-- o28&#45;&gt;e(o14o30) -->
<g id="edge2" class="edge"><title>o28&#45;&gt;e(o14o30)</title>
<path fill="none" stroke="black" d="M313.514,-226.425C311.843,-234.536 309.891,-244.011 307.914,-253.607"/>
<polygon fill="black" stroke="black" points="304.446,-253.097 305.856,-263.597 311.302,-254.509 304.446,-253.097"/>
</g>
<!-- o26 -->
<g id="node20" class="node"><title>o26</title>
<ellipse fill="none" stroke="black" cx="184.342" cy="-310.782" rx="24.8972" ry="24.8972"/>
<text text-anchor="middle" x="184.342" y="-307.082" font-family="Times New Roman,serif" font-size="14.00">o26</text>
</g>
<!-- o28&#45;&gt;o26 -->
<g id="edge56" class="edge"><title>o28&#45;&gt;o26</title>
<path fill="none" stroke="black" d="M298.608,-217.382C282.47,-229.275 259.163,-246.735 239.342,-262.686 229.646,-270.489 219.224,-279.3 210.088,-287.172"/>
<polygon fill="black" stroke="black" points="207.705,-284.606 202.44,-293.8 212.289,-289.896 207.705,-284.606"/>
</g>
<!-- e(e(o14o30)o26)&#45;&gt;e(e(e(o14o30)o26)o8) -->
<g id="edge9" class="edge"><title>e(e(o14o30)o26)&#45;&gt;e(e(e(o14o30)o26)o8)</title>
<path fill="none" stroke="black" d="M90.342,-538.073C90.342,-546.42 90.342,-555.053 90.342,-563.704"/>
<polygon fill="black" stroke="black" points="86.8421,-563.85 90.342,-573.85 93.8421,-563.85 86.8421,-563.85"/>
</g>
<!-- o30&#45;&gt;e(o14o30) -->
<g id="edge5" class="edge"><title>o30&#45;&gt;e(o14o30)</title>
<path fill="none" stroke="black" d="M136.586,-217.472C141.026,-220.626 145.786,-223.862 150.342,-226.686 179.408,-244.701 188.582,-245.842 218.342,-262.686 227.723,-267.996 237.636,-273.815 247.133,-279.497"/>
<polygon fill="black" stroke="black" points="245.338,-282.502 255.711,-284.658 248.947,-276.504 245.338,-282.502"/>
</g>
<!-- o30&#45;&gt;o26 -->
<g id="edge59" class="edge"><title>o30&#45;&gt;o26</title>
<path fill="none" stroke="black" d="M130.26,-223.579C140.363,-239.683 154.544,-262.286 165.85,-280.307"/>
<polygon fill="black" stroke="black" points="163.184,-282.644 171.463,-289.254 169.114,-278.923 163.184,-282.644"/>
</g>
<!-- o20&#45;&gt;e(o14o30) -->
<g id="edge3" class="edge"><title>o20&#45;&gt;e(o14o30)</title>
<path fill="none" stroke="black" d="M201.842,-219.675C215.839,-233.021 236.054,-252.297 254.199,-269.598"/>
<polygon fill="black" stroke="black" points="252.172,-272.501 261.824,-276.869 257.002,-267.435 252.172,-272.501"/>
</g>
<!-- o20&#45;&gt;o26 -->
<g id="edge57" class="edge"><title>o20&#45;&gt;o26</title>
<path fill="none" stroke="black" d="M184.342,-226.689C184.342,-241.106 184.342,-259.757 184.342,-275.736"/>
<polygon fill="black" stroke="black" points="180.842,-275.778 184.342,-285.778 187.842,-275.778 180.842,-275.778"/>
</g>
<!-- o36&#45;&gt;e(e(e(o14o30)o26)o8) -->
<g id="edge11" class="edge"><title>o36&#45;&gt;e(e(e(o14o30)o26)o8)</title>
<path fill="none" stroke="black" d="M392.205,-490.796C387.55,-506.449 379.089,-526.231 364.342,-537.865 301.999,-587.046 260.191,-538.008 189.342,-573.865 179.357,-578.919 169.612,-585.249 160.374,-592.195"/>
<polygon fill="black" stroke="black" points="158.112,-589.521 152.393,-598.44 162.425,-595.034 158.112,-589.521"/>
</g>
<!-- o36&#45;&gt;o50 -->
<g id="edge26" class="edge"><title>o36&#45;&gt;o50</title>
<path fill="none" stroke="black" d="M398.568,-491.385C400.331,-525.908 403.59,-589.734 405.602,-629.126"/>
<polygon fill="black" stroke="black" points="402.116,-629.495 406.121,-639.304 409.107,-629.138 402.116,-629.495"/>
</g>
<!-- o36&#45;&gt;o44 -->
<g id="edge32" class="edge"><title>o36&#45;&gt;o44</title>
<path fill="none" stroke="black" d="M406.688,-489.3C415.767,-510.763 429.829,-544.429 441.342,-573.865 448.743,-592.788 456.642,-614.13 462.856,-631.208"/>
<polygon fill="black" stroke="black" points="459.606,-632.512 466.304,-640.721 466.187,-630.127 459.606,-632.512"/>
</g>
<!-- o36&#45;&gt;o48 -->
<g id="edge44" class="edge"><title>o36&#45;&gt;o48</title>
<path fill="none" stroke="black" d="M403.596,-490.444C408.688,-505.539 417.216,-524.81 430.342,-537.865 457.413,-564.79 482.425,-545.827 508.342,-573.865 522.642,-589.335 530.882,-611.536 535.552,-629.936"/>
<polygon fill="black" stroke="black" points="532.145,-630.737 537.795,-639.7 538.967,-629.17 532.145,-630.737"/>
</g>
<!-- o36&#45;&gt;o4 -->
<g id="edge52" class="edge"><title>o36&#45;&gt;o4</title>
<path fill="none" stroke="black" d="M391.741,-490.697C386.904,-506.1 378.414,-525.629 364.342,-537.865 323.287,-573.565 286.107,-535.691 247.342,-573.865 231.362,-589.602 224.182,-614.215 220.959,-633.626"/>
<polygon fill="black" stroke="black" points="217.457,-633.399 219.544,-643.786 224.39,-634.364 217.457,-633.399"/>
</g>
<!-- o36&#45;&gt;o46 -->
<g id="edge64" class="edge"><title>o36&#45;&gt;o46</title>
<path fill="none" stroke="black" d="M389.953,-490.281C384.463,-504.934 375.919,-523.766 364.342,-537.865 347.193,-558.75 331.705,-552.359 315.342,-573.865 302.767,-590.393 294.362,-612.11 289.054,-629.994"/>
<polygon fill="black" stroke="black" points="285.65,-629.173 286.349,-639.745 292.395,-631.045 285.65,-629.173"/>
</g>
<!-- o36&#45;&gt;o2 -->
<g id="edge70" class="edge"><title>o36&#45;&gt;o2</title>
<path fill="none" stroke="black" d="M391.054,-490.605C381.288,-526.692 362.504,-596.098 351.975,-635.003"/>
<polygon fill="black" stroke="black" points="348.596,-634.089 349.362,-644.656 355.353,-635.918 348.596,-634.089"/>
</g>
<!-- o48&#45;&gt;e(e(e(e(o14o30)o26)o8)o50) -->
<g id="edge19" class="edge"><title>o48&#45;&gt;e(e(e(e(o14o30)o26)o8)o50)</title>
<path fill="none" stroke="black" d="M535.991,-688.665C530.928,-707.577 522.038,-734.269 508.342,-754.549 490.289,-781.28 466.449,-806.469 442.556,-828.255"/>
<polygon fill="black" stroke="black" points="439.912,-825.924 434.804,-835.206 444.585,-831.136 439.912,-825.924"/>
</g>
<!-- o34&#45;&gt;e(e(e(o14o30)o26)o8) -->
<g id="edge12" class="edge"><title>o34&#45;&gt;e(e(e(o14o30)o26)o8)</title>
<path fill="none" stroke="black" d="M459.5,-490.714C454.96,-506.539 446.513,-526.562 431.342,-537.865 344.144,-602.832 287.681,-527.458 189.342,-573.865 179.221,-578.641 169.392,-584.799 160.106,-591.647"/>
<polygon fill="black" stroke="black" points="157.875,-588.947 152.092,-597.825 162.149,-594.492 157.875,-588.947"/>
</g>
<!-- o34&#45;&gt;o50 -->
<g id="edge27" class="edge"><title>o34&#45;&gt;o50</title>
<path fill="none" stroke="black" d="M457.692,-490.22C447.615,-524.84 428.431,-590.752 416.872,-630.465"/>
<polygon fill="black" stroke="black" points="413.472,-629.622 414.038,-640.202 420.193,-631.578 413.472,-629.622"/>
</g>
<!-- o34&#45;&gt;o44 -->
<g id="edge33" class="edge"><title>o34&#45;&gt;o44</title>
<path fill="none" stroke="black" d="M465.568,-491.385C467.331,-525.908 470.59,-589.734 472.602,-629.126"/>
<polygon fill="black" stroke="black" points="469.116,-629.495 473.121,-639.304 476.107,-629.138 469.116,-629.495"/>
</g>
<!-- o34&#45;&gt;o48 -->
<g id="edge45" class="edge"><title>o34&#45;&gt;o48</title>
<path fill="none" stroke="black" d="M473.688,-489.3C482.767,-510.763 496.829,-544.429 508.342,-573.865 515.743,-592.788 523.642,-614.13 529.856,-631.208"/>
<polygon fill="black" stroke="black" points="526.606,-632.512 533.304,-640.721 533.187,-630.127 526.606,-632.512"/>
</g>
<!-- o34&#45;&gt;o4 -->
<g id="edge53" class="edge"><title>o34&#45;&gt;o4</title>
<path fill="none" stroke="black" d="M459.24,-490.841C454.602,-506.514 446.145,-526.303 431.342,-537.865 365.672,-589.158 309.709,-518.603 247.342,-573.865 230.375,-588.899 223.283,-613.951 220.345,-633.707"/>
<polygon fill="black" stroke="black" points="216.856,-633.409 219.131,-643.757 223.805,-634.249 216.856,-633.409"/>
</g>
<!-- o34&#45;&gt;o46 -->
<g id="edge65" class="edge"><title>o34&#45;&gt;o46</title>
<path fill="none" stroke="black" d="M458.732,-490.686C453.89,-506.084 445.399,-525.612 431.342,-537.865 390.65,-573.335 354.69,-536.91 315.342,-573.865 299.827,-588.436 291.324,-610.83 286.702,-629.553"/>
<polygon fill="black" stroke="black" points="283.243,-628.984 284.513,-639.503 290.079,-630.488 283.243,-628.984"/>
</g>
<!-- o34&#45;&gt;o2 -->
<g id="edge71" class="edge"><title>o34&#45;&gt;o2</title>
<path fill="none" stroke="black" d="M457.434,-490.263C452.101,-505.092 443.55,-524.128 431.342,-537.865 411.187,-560.543 392.053,-549.982 373.342,-573.865 359.743,-591.222 352.419,-615.168 348.535,-633.901"/>
<polygon fill="black" stroke="black" points="345.051,-633.496 346.669,-643.967 351.934,-634.772 345.051,-633.496"/>
</g>
<!-- o18&#45;&gt;e(o14o30) -->
<g id="edge4" class="edge"><title>o18&#45;&gt;e(o14o30)</title>
<path fill="none" stroke="black" d="M260.666,-225.116C264.568,-234.376 269.286,-245.572 273.995,-256.748"/>
<polygon fill="black" stroke="black" points="270.822,-258.231 277.93,-266.087 277.272,-255.513 270.822,-258.231"/>
</g>
<!-- o18&#45;&gt;o26 -->
<g id="edge58" class="edge"><title>o18&#45;&gt;o26</title>
<path fill="none" stroke="black" d="M238.424,-223.579C228.321,-239.683 214.14,-262.286 202.834,-280.307"/>
<polygon fill="black" stroke="black" points="199.57,-278.923 197.221,-289.254 205.5,-282.644 199.57,-278.923"/>
</g>
<!-- o4&#45;&gt;e(e(e(e(o14o30)o26)o8)o50) -->
<g id="edge20" class="edge"><title>o4&#45;&gt;e(e(e(e(o14o30)o26)o8)o50)</title>
<path fill="none" stroke="black" d="M222.861,-683.891C227.681,-702.357 236.16,-731.155 247.342,-754.549 254.97,-770.508 264.051,-786.784 273.551,-802.435"/>
<polygon fill="black" stroke="black" points="270.639,-804.382 278.865,-811.059 276.599,-800.709 270.639,-804.382"/>
</g>
<!-- o26&#45;&gt;e(e(o14o30)o26) -->
<g id="edge37" class="edge"><title>o26&#45;&gt;e(e(o14o30)o26)</title>
<path fill="none" stroke="black" d="M171.86,-332.177C161.718,-348.747 146.799,-373.125 132.486,-396.51"/>
<polygon fill="black" stroke="black" points="129.486,-394.708 127.251,-405.065 135.456,-398.363 129.486,-394.708"/>
</g>
<!-- o32&#45;&gt;e(e(e(o14o30)o26)o8) -->
<g id="edge14" class="edge"><title>o32&#45;&gt;e(e(e(o14o30)o26)o8)</title>
<path fill="none" stroke="black" d="M526.609,-490.863C522.12,-506.758 513.69,-526.804 498.342,-537.865 386.174,-618.703 315.3,-516.847 189.342,-573.865 179.065,-578.517 169.113,-584.635 159.736,-591.492"/>
<polygon fill="black" stroke="black" points="157.457,-588.829 151.649,-597.69 161.715,-594.385 157.457,-588.829"/>
</g>
<!-- o32&#45;&gt;o50 -->
<g id="edge29" class="edge"><title>o32&#45;&gt;o50</title>
<path fill="none" stroke="black" d="M524.434,-490.263C519.101,-505.092 510.55,-524.128 498.342,-537.865 478.187,-560.543 459.527,-550.361 440.342,-573.865 427.17,-590.002 418.971,-611.892 414.04,-629.965"/>
<polygon fill="black" stroke="black" points="410.605,-629.271 411.563,-639.822 417.394,-630.976 410.605,-629.271"/>
</g>
<!-- o32&#45;&gt;o44 -->
<g id="edge35" class="edge"><title>o32&#45;&gt;o44</title>
<path fill="none" stroke="black" d="M524.692,-490.22C514.615,-524.84 495.431,-590.752 483.872,-630.465"/>
<polygon fill="black" stroke="black" points="480.472,-629.622 481.038,-640.202 487.193,-631.578 480.472,-629.622"/>
</g>
<!-- o32&#45;&gt;o48 -->
<g id="edge47" class="edge"><title>o32&#45;&gt;o48</title>
<path fill="none" stroke="black" d="M532.568,-491.385C534.331,-525.908 537.59,-589.734 539.602,-629.126"/>
<polygon fill="black" stroke="black" points="536.116,-629.495 540.121,-639.304 543.107,-629.138 536.116,-629.495"/>
</g>
<!-- o32&#45;&gt;o4 -->
<g id="edge55" class="edge"><title>o32&#45;&gt;o4</title>
<path fill="none" stroke="black" d="M526.518,-490.738C521.986,-506.575 513.542,-526.602 498.342,-537.865 407.794,-604.96 333.56,-501.29 247.342,-573.865 229.893,-588.553 222.854,-613.859 220.058,-633.797"/>
<polygon fill="black" stroke="black" points="216.558,-633.608 218.927,-643.934 223.515,-634.384 216.558,-633.608"/>
</g>
<!-- o32&#45;&gt;o46 -->
<g id="edge67" class="edge"><title>o32&#45;&gt;o46</title>
<path fill="none" stroke="black" d="M526.236,-490.836C521.596,-506.507 513.139,-526.295 498.342,-537.865 433.041,-588.923 378.704,-520.42 315.342,-573.865 298.89,-587.742 290.381,-610.489 285.99,-629.556"/>
<polygon fill="black" stroke="black" points="282.549,-628.912 283.999,-639.408 289.41,-630.299 282.549,-628.912"/>
</g>
<!-- o32&#45;&gt;o2 -->
<g id="edge73" class="edge"><title>o32&#45;&gt;o2</title>
<path fill="none" stroke="black" d="M525.811,-490.778C521.006,-506.218 512.524,-525.756 498.342,-537.865 454.374,-575.405 414.9,-533.674 373.342,-573.865 357.046,-589.625 349.897,-614.614 346.766,-634.161"/>
<polygon fill="black" stroke="black" points="343.295,-633.712 345.437,-644.088 350.233,-634.641 343.295,-633.712"/>
</g>
<!-- o14&#45;&gt;e(o14o30) -->
<g id="edge6" class="edge"><title>o14&#45;&gt;e(o14o30)</title>
<path fill="none" stroke="black" d="M369.839,-221.59C359.746,-233.702 346.127,-250.044 333.355,-265.369"/>
<polygon fill="black" stroke="black" points="330.49,-263.34 326.776,-273.263 335.867,-267.822 330.49,-263.34"/>
</g>
<!-- o46&#45;&gt;e(e(e(e(o14o30)o26)o8)o50) -->
<g id="edge18" class="edge"><title>o46&#45;&gt;e(e(e(e(o14o30)o26)o8)o50)</title>
<path fill="none" stroke="black" d="M287.497,-688.469C293.523,-711.239 303.18,-747.736 312.838,-784.234"/>
<polygon fill="black" stroke="black" points="309.483,-785.237 315.425,-794.009 316.25,-783.446 309.483,-785.237"/>
</g>
<!-- o2&#45;&gt;e(e(e(e(o14o30)o26)o8)o50) -->
<g id="edge21" class="edge"><title>o2&#45;&gt;e(e(e(e(o14o30)o26)o8)o50)</title>
<path fill="none" stroke="black" d="M344.342,-684.69C344.342,-706.211 344.342,-742.755 344.342,-779.867"/>
<polygon fill="black" stroke="black" points="340.842,-780.338 344.342,-790.338 347.842,-780.338 340.842,-780.338"/>
</g>
</g>
</svg>
