<?xml version="1.0" encoding="UTF-8" standalone="no"?>
<!DOCTYPE svg PUBLIC "-//W3C//DTD SVG 1.1//EN"
 "http://www.w3.org/Graphics/SVG/1.1/DTD/svg11.dtd">
<!-- Generated by graphviz version 2.38.0 (20140413.2041)
 -->
<!-- Title: priss2013&#45;table01_o50_d Pages: 1 -->
<svg width="823pt" height="848pt"
 viewBox="0.00 0.00 822.57 847.94" xmlns="http://www.w3.org/2000/svg" xmlns:xlink="http://www.w3.org/1999/xlink">
<g id="graph0" class="graph" transform="scale(1 1) rotate(0) translate(4 843.945)">
<title>priss2013&#45;table01_o50_d</title>
<polygon fill="white" stroke="none" points="-4,4 -4,-843.945 818.57,-843.945 818.57,4 -4,4"/>
<!-- eBot -->
<g id="node1" class="node"><title>eBot</title>
<ellipse fill="none" stroke="black" cx="442.474" cy="-27.9475" rx="27.8951" ry="27.8951"/>
<text text-anchor="middle" x="442.474" y="-24.2475" font-family="Times New Roman,serif" font-size="14.00">eBot</text>
</g>
<!-- o52 -->
<g id="node8" class="node"><title>o52</title>
<ellipse fill="none" stroke="black" cx="409.474" cy="-116.593" rx="24.8972" ry="24.8972"/>
<text text-anchor="middle" x="409.474" y="-112.893" font-family="Times New Roman,serif" font-size="14.00">o52</text>
</g>
<!-- eBot&#45;&gt;o52 -->
<g id="edge14" class="edge"><title>eBot&#45;&gt;o52</title>
<path fill="none" stroke="black" d="M432.752,-54.4753C429.281,-63.5894 425.325,-73.9751 421.672,-83.5667"/>
<polygon fill="black" stroke="black" points="418.296,-82.5971 418.008,-93.188 424.838,-85.0886 418.296,-82.5971"/>
</g>
<!-- o46 -->
<g id="node13" class="node"><title>o46</title>
<ellipse fill="none" stroke="black" cx="342.474" cy="-116.593" rx="24.8972" ry="24.8972"/>
<text text-anchor="middle" x="342.474" y="-112.893" font-family="Times New Roman,serif" font-size="14.00">o46</text>
</g>
<!-- eBot&#45;&gt;o46 -->
<g id="edge20" class="edge"><title>eBot&#45;&gt;o46</title>
<path fill="none" stroke="black" d="M421.754,-46.9005C406.317,-60.2762 385.13,-78.6335 368.542,-93.0061"/>
<polygon fill="black" stroke="black" points="366.08,-90.5087 360.814,-99.7023 370.664,-95.7991 366.08,-90.5087"/>
</g>
<!-- o48 -->
<g id="node17" class="node"><title>o48</title>
<ellipse fill="none" stroke="black" cx="476.474" cy="-116.593" rx="24.8972" ry="24.8972"/>
<text text-anchor="middle" x="476.474" y="-112.893" font-family="Times New Roman,serif" font-size="14.00">o48</text>
</g>
<!-- eBot&#45;&gt;o48 -->
<g id="edge25" class="edge"><title>eBot&#45;&gt;o48</title>
<path fill="none" stroke="black" d="M452.492,-54.4753C456.106,-63.6853 460.229,-74.1939 464.026,-83.8693"/>
<polygon fill="black" stroke="black" points="460.771,-85.1576 467.683,-93.188 467.288,-82.6005 460.771,-85.1576"/>
</g>
<!-- o32 -->
<g id="node26" class="node"><title>o32</title>
<ellipse fill="none" stroke="black" cx="595.474" cy="-116.593" rx="24.8972" ry="24.8972"/>
<text text-anchor="middle" x="595.474" y="-112.893" font-family="Times New Roman,serif" font-size="14.00">o32</text>
</g>
<!-- eBot&#45;&gt;o32 -->
<g id="edge53" class="edge"><title>eBot&#45;&gt;o32</title>
<path fill="none" stroke="black" d="M466.381,-42.4859C493.075,-57.6034 536.331,-82.0994 565.326,-98.5198"/>
<polygon fill="black" stroke="black" points="563.774,-101.663 574.2,-103.545 567.223,-95.5718 563.774,-101.663"/>
</g>
<!-- o8 -->
<g id="node2" class="node"><title>o8</title>
<ellipse fill="none" stroke="black" cx="358.474" cy="-598.563" rx="20.2975" ry="20.2975"/>
<text text-anchor="middle" x="358.474" y="-594.863" font-family="Times New Roman,serif" font-size="14.00">o8</text>
</g>
<!-- e(e(e(o46o52)o44)o8) -->
<g id="node25" class="node"><title>e(e(e(o46o52)o44)o8)</title>
<ellipse fill="none" stroke="black" cx="358.474" cy="-749.603" rx="90.1842" ry="90.1842"/>
<text text-anchor="middle" x="358.474" y="-745.903" font-family="Times New Roman,serif" font-size="14.00">e(e(e(o46o52)o44)o8)</text>
</g>
<!-- o8&#45;&gt;e(e(e(o46o52)o44)o8) -->
<g id="edge40" class="edge"><title>o8&#45;&gt;e(e(e(o46o52)o44)o8)</title>
<path fill="none" stroke="black" d="M358.474,-618.742C358.474,-627.073 358.474,-637.517 358.474,-648.844"/>
<polygon fill="black" stroke="black" points="354.974,-648.993 358.474,-658.994 361.974,-648.994 354.974,-648.993"/>
</g>
<!-- e(e(o32o46)o44) -->
<g id="node3" class="node"><title>e(e(o32o46)o44)</title>
<ellipse fill="none" stroke="black" cx="421.474" cy="-466.371" rx="71.4873" ry="71.4873"/>
<text text-anchor="middle" x="421.474" y="-462.671" font-family="Times New Roman,serif" font-size="14.00">e(e(o32o46)o44)</text>
</g>
<!-- e(e(o32o46)o44)&#45;&gt;o8 -->
<g id="edge1" class="edge"><title>e(e(o32o46)o44)&#45;&gt;o8</title>
<path fill="none" stroke="black" d="M390.713,-530.942C383.88,-545.061 377.001,-559.277 371.363,-570.929"/>
<polygon fill="black" stroke="black" points="368.152,-569.529 366.946,-580.055 374.453,-572.578 368.152,-569.529"/>
</g>
<!-- o16 -->
<g id="node9" class="node"><title>o16</title>
<ellipse fill="none" stroke="black" cx="421.474" cy="-598.563" rx="24.8972" ry="24.8972"/>
<text text-anchor="middle" x="421.474" y="-594.863" font-family="Times New Roman,serif" font-size="14.00">o16</text>
</g>
<!-- e(e(o32o46)o44)&#45;&gt;o16 -->
<g id="edge15" class="edge"><title>e(e(o32o46)o44)&#45;&gt;o16</title>
<path fill="none" stroke="black" d="M421.474,-538.182C421.474,-546.956 421.474,-555.591 421.474,-563.442"/>
<polygon fill="black" stroke="black" points="417.974,-563.602 421.474,-573.602 424.974,-563.602 417.974,-563.602"/>
</g>
<!-- o28 -->
<g id="node12" class="node"><title>o28</title>
<ellipse fill="none" stroke="black" cx="488.474" cy="-598.563" rx="24.8972" ry="24.8972"/>
<text text-anchor="middle" x="488.474" y="-594.863" font-family="Times New Roman,serif" font-size="14.00">o28</text>
</g>
<!-- e(e(o32o46)o44)&#45;&gt;o28 -->
<g id="edge19" class="edge"><title>e(e(o32o46)o44)&#45;&gt;o28</title>
<path fill="none" stroke="black" d="M453.797,-530.179C460.423,-543.054 467.11,-556.048 472.82,-567.144"/>
<polygon fill="black" stroke="black" points="469.872,-569.066 477.56,-576.356 476.097,-565.862 469.872,-569.066"/>
</g>
<!-- o20 -->
<g id="node15" class="node"><title>o20</title>
<ellipse fill="none" stroke="black" cx="555.474" cy="-598.563" rx="24.8972" ry="24.8972"/>
<text text-anchor="middle" x="555.474" y="-594.863" font-family="Times New Roman,serif" font-size="14.00">o20</text>
</g>
<!-- e(e(o32o46)o44)&#45;&gt;o20 -->
<g id="edge22" class="edge"><title>e(e(o32o46)o44)&#45;&gt;o20</title>
<path fill="none" stroke="black" d="M472.516,-516.963C492.347,-536.23 514.159,-557.421 530.438,-573.238"/>
<polygon fill="black" stroke="black" points="528.341,-576.08 537.952,-580.538 533.219,-571.06 528.341,-576.08"/>
</g>
<!-- o10 -->
<g id="node19" class="node"><title>o10</title>
<ellipse fill="none" stroke="black" cx="622.474" cy="-598.563" rx="24.8972" ry="24.8972"/>
<text text-anchor="middle" x="622.474" y="-594.863" font-family="Times New Roman,serif" font-size="14.00">o10</text>
</g>
<!-- e(e(o32o46)o44)&#45;&gt;o10 -->
<g id="edge28" class="edge"><title>e(e(o32o46)o44)&#45;&gt;o10</title>
<path fill="none" stroke="black" d="M482.282,-504.736C514.44,-524.792 554.415,-550.193 589.474,-573.865 591.096,-574.96 592.755,-576.097 594.422,-577.252"/>
<polygon fill="black" stroke="black" points="592.52,-580.193 602.712,-583.089 596.55,-574.47 592.52,-580.193"/>
</g>
<!-- o34 -->
<g id="node20" class="node"><title>o34</title>
<ellipse fill="none" stroke="black" cx="689.474" cy="-598.563" rx="24.8972" ry="24.8972"/>
<text text-anchor="middle" x="689.474" y="-594.863" font-family="Times New Roman,serif" font-size="14.00">o34</text>
</g>
<!-- e(e(o32o46)o44)&#45;&gt;o34 -->
<g id="edge29" class="edge"><title>e(e(o32o46)o44)&#45;&gt;o34</title>
<path fill="none" stroke="black" d="M487.778,-493.294C535.826,-513.058 601.699,-542.201 656.474,-573.865 658.215,-574.871 659.977,-575.947 661.734,-577.064"/>
<polygon fill="black" stroke="black" points="660.106,-580.188 670.356,-582.87 664.016,-574.381 660.106,-580.188"/>
</g>
<!-- o18 -->
<g id="node22" class="node"><title>o18</title>
<ellipse fill="none" stroke="black" cx="45.4743" cy="-598.563" rx="24.8972" ry="24.8972"/>
<text text-anchor="middle" x="45.4743" y="-594.863" font-family="Times New Roman,serif" font-size="14.00">o18</text>
</g>
<!-- e(e(o32o46)o44)&#45;&gt;o18 -->
<g id="edge32" class="edge"><title>e(e(o32o46)o44)&#45;&gt;o18</title>
<path fill="none" stroke="black" d="M371.913,-518.17C362.159,-525.843 351.507,-532.854 340.474,-537.865 233.458,-586.474 187.643,-530.304 78.4743,-573.865 76.6073,-574.61 74.7469,-575.483 72.9149,-576.446"/>
<polygon fill="black" stroke="black" points="70.7997,-573.637 64.0915,-581.837 74.4495,-579.61 70.7997,-573.637"/>
</g>
<!-- o30 -->
<g id="node24" class="node"><title>o30</title>
<ellipse fill="none" stroke="black" cx="112.474" cy="-598.563" rx="24.8972" ry="24.8972"/>
<text text-anchor="middle" x="112.474" y="-594.863" font-family="Times New Roman,serif" font-size="14.00">o30</text>
</g>
<!-- e(e(o32o46)o44)&#45;&gt;o30 -->
<g id="edge39" class="edge"><title>e(e(o32o46)o44)&#45;&gt;o30</title>
<path fill="none" stroke="black" d="M371.715,-517.749C361.983,-525.466 351.389,-532.601 340.474,-537.865 261.092,-576.148 226.557,-539.329 145.474,-573.865 143.625,-574.653 141.778,-575.559 139.957,-576.547"/>
<polygon fill="black" stroke="black" points="137.812,-573.759 131.161,-582.006 141.503,-579.706 137.812,-573.759"/>
</g>
<!-- o14 -->
<g id="node27" class="node"><title>o14</title>
<ellipse fill="none" stroke="black" cx="179.474" cy="-598.563" rx="24.8972" ry="24.8972"/>
<text text-anchor="middle" x="179.474" y="-594.863" font-family="Times New Roman,serif" font-size="14.00">o14</text>
</g>
<!-- e(e(o32o46)o44)&#45;&gt;o14 -->
<g id="edge54" class="edge"><title>e(e(o32o46)o44)&#45;&gt;o14</title>
<path fill="none" stroke="black" d="M370.836,-517.265C361.275,-524.939 350.967,-532.185 340.474,-537.865 288.881,-565.796 266.493,-548.745 213.474,-573.865 211.414,-574.841 209.343,-575.939 207.295,-577.113"/>
<polygon fill="black" stroke="black" points="205.167,-574.317 198.573,-582.61 208.899,-580.239 205.167,-574.317"/>
</g>
<!-- o4 -->
<g id="node28" class="node"><title>o4</title>
<ellipse fill="none" stroke="black" cx="242.474" cy="-598.563" rx="20.2975" ry="20.2975"/>
<text text-anchor="middle" x="242.474" y="-594.863" font-family="Times New Roman,serif" font-size="14.00">o4</text>
</g>
<!-- e(e(o32o46)o44)&#45;&gt;o4 -->
<g id="edge55" class="edge"><title>e(e(o32o46)o44)&#45;&gt;o4</title>
<path fill="none" stroke="black" d="M369.321,-515.875C360.01,-523.618 350.177,-531.248 340.474,-537.865 311.897,-557.354 300.35,-554.822 271.474,-573.865 269.337,-575.274 267.171,-576.811 265.036,-578.402"/>
<polygon fill="black" stroke="black" points="262.779,-575.725 257.08,-584.656 267.104,-581.228 262.779,-575.725"/>
</g>
<!-- o2 -->
<g id="node29" class="node"><title>o2</title>
<ellipse fill="none" stroke="black" cx="300.474" cy="-598.563" rx="20.2975" ry="20.2975"/>
<text text-anchor="middle" x="300.474" y="-594.863" font-family="Times New Roman,serif" font-size="14.00">o2</text>
</g>
<!-- e(e(o32o46)o44)&#45;&gt;o2 -->
<g id="edge56" class="edge"><title>e(e(o32o46)o44)&#45;&gt;o2</title>
<path fill="none" stroke="black" d="M372.956,-519.575C354.704,-539.214 334.936,-560.484 320.662,-575.842"/>
<polygon fill="black" stroke="black" points="317.979,-573.587 313.735,-583.295 323.107,-578.353 317.979,-573.587"/>
</g>
<!-- o40 -->
<g id="node4" class="node"><title>o40</title>
<ellipse fill="none" stroke="black" cx="287.474" cy="-334.18" rx="24.8972" ry="24.8972"/>
<text text-anchor="middle" x="287.474" y="-330.48" font-family="Times New Roman,serif" font-size="14.00">o40</text>
</g>
<!-- o40&#45;&gt;e(e(o32o46)o44) -->
<g id="edge4" class="edge"><title>o40&#45;&gt;e(e(o32o46)o44)</title>
<path fill="none" stroke="black" d="M304.718,-351.934C319.577,-366.371 341.917,-388.075 363.089,-408.646"/>
<polygon fill="black" stroke="black" points="360.904,-411.403 370.515,-415.861 365.782,-406.382 360.904,-411.403"/>
</g>
<!-- e(e(o46o52)o44) -->
<g id="node23" class="node"><title>e(e(o46o52)o44)</title>
<ellipse fill="none" stroke="black" cx="260.474" cy="-466.371" rx="71.4873" ry="71.4873"/>
<text text-anchor="middle" x="260.474" y="-462.671" font-family="Times New Roman,serif" font-size="14.00">e(e(o46o52)o44)</text>
</g>
<!-- o40&#45;&gt;e(e(o46o52)o44) -->
<g id="edge34" class="edge"><title>o40&#45;&gt;e(e(o46o52)o44)</title>
<path fill="none" stroke="black" d="M282.647,-358.456C280.958,-366.603 278.953,-376.267 276.852,-386.401"/>
<polygon fill="black" stroke="black" points="273.418,-385.724 274.814,-396.227 280.272,-387.146 273.418,-385.724"/>
</g>
<!-- e(o48o52) -->
<g id="node5" class="node"><title>e(o48o52)</title>
<ellipse fill="none" stroke="black" cx="310.474" cy="-225.386" rx="48.1917" ry="48.1917"/>
<text text-anchor="middle" x="310.474" y="-221.686" font-family="Times New Roman,serif" font-size="14.00">e(o48o52)</text>
</g>
<!-- e(o48o52)&#45;&gt;e(e(o46o52)o44) -->
<g id="edge37" class="edge"><title>e(o48o52)&#45;&gt;e(e(o46o52)o44)</title>
<path fill="none" stroke="black" d="M279.146,-261.916C268.88,-275.785 258.758,-292.438 253.474,-309.482 246.001,-333.59 244.894,-360.797 246.509,-385.654"/>
<polygon fill="black" stroke="black" points="243.033,-386.093 247.323,-395.781 250.011,-385.532 243.033,-386.093"/>
</g>
<!-- o38 -->
<g id="node6" class="node"><title>o38</title>
<ellipse fill="none" stroke="black" cx="488.474" cy="-334.18" rx="24.8972" ry="24.8972"/>
<text text-anchor="middle" x="488.474" y="-330.48" font-family="Times New Roman,serif" font-size="14.00">o38</text>
</g>
<!-- o38&#45;&gt;e(e(o32o46)o44) -->
<g id="edge7" class="edge"><title>o38&#45;&gt;e(e(o32o46)o44)</title>
<path fill="none" stroke="black" d="M477.56,-356.387C472.207,-366.79 465.413,-379.992 458.417,-393.587"/>
<polygon fill="black" stroke="black" points="455.267,-392.059 453.803,-402.552 461.491,-395.262 455.267,-392.059"/>
</g>
<!-- o38&#45;&gt;e(e(o46o52)o44) -->
<g id="edge38" class="edge"><title>o38&#45;&gt;e(e(o46o52)o44)</title>
<path fill="none" stroke="black" d="M469.582,-350.292C465.123,-353.413 460.267,-356.477 455.474,-358.878 407.967,-382.672 387.819,-368.892 341.474,-394.878 333.994,-399.072 326.587,-404.035 319.468,-409.354"/>
<polygon fill="black" stroke="black" points="317.003,-406.838 311.257,-415.739 321.3,-412.364 317.003,-406.838"/>
</g>
<!-- e(o46o48) -->
<g id="node7" class="node"><title>e(o46o48)</title>
<ellipse fill="none" stroke="black" cx="424.474" cy="-225.386" rx="48.1917" ry="48.1917"/>
<text text-anchor="middle" x="424.474" y="-221.686" font-family="Times New Roman,serif" font-size="14.00">e(o46o48)</text>
</g>
<!-- e(o46o48)&#45;&gt;o40 -->
<g id="edge8" class="edge"><title>e(o46o48)&#45;&gt;o40</title>
<path fill="none" stroke="black" d="M387.897,-257.057C381.153,-262.584 374.137,-268.249 367.474,-273.482 350.341,-286.94 330.742,-301.577 315.231,-312.989"/>
<polygon fill="black" stroke="black" points="313.071,-310.234 307.077,-318.97 317.21,-315.878 313.071,-310.234"/>
</g>
<!-- e(o46o48)&#45;&gt;o38 -->
<g id="edge11" class="edge"><title>e(o46o48)&#45;&gt;o38</title>
<path fill="none" stroke="black" d="M448.853,-267.065C456.211,-279.344 464.141,-292.576 470.959,-303.952"/>
<polygon fill="black" stroke="black" points="468.013,-305.846 476.156,-312.625 474.017,-302.248 468.013,-305.846"/>
</g>
<!-- o44 -->
<g id="node11" class="node"><title>o44</title>
<ellipse fill="none" stroke="black" cx="354.474" cy="-334.18" rx="24.8972" ry="24.8972"/>
<text text-anchor="middle" x="354.474" y="-330.48" font-family="Times New Roman,serif" font-size="14.00">o44</text>
</g>
<!-- e(o46o48)&#45;&gt;o44 -->
<g id="edge18" class="edge"><title>e(o46o48)&#45;&gt;o44</title>
<path fill="none" stroke="black" d="M398.409,-266.152C390.046,-278.912 380.953,-292.784 373.22,-304.58"/>
<polygon fill="black" stroke="black" points="370.162,-302.862 367.607,-313.144 376.017,-306.699 370.162,-302.862"/>
</g>
<!-- o36 -->
<g id="node14" class="node"><title>o36</title>
<ellipse fill="none" stroke="black" cx="421.474" cy="-334.18" rx="24.8972" ry="24.8972"/>
<text text-anchor="middle" x="421.474" y="-330.48" font-family="Times New Roman,serif" font-size="14.00">o36</text>
</g>
<!-- e(o46o48)&#45;&gt;o36 -->
<g id="edge21" class="edge"><title>e(o46o48)&#45;&gt;o36</title>
<path fill="none" stroke="black" d="M423.15,-273.538C422.907,-282.163 422.659,-291.009 422.43,-299.158"/>
<polygon fill="black" stroke="black" points="418.925,-299.298 422.143,-309.392 425.922,-299.494 418.925,-299.298"/>
</g>
<!-- o52&#45;&gt;e(o48o52) -->
<g id="edge9" class="edge"><title>o52&#45;&gt;e(o48o52)</title>
<path fill="none" stroke="black" d="M393.126,-135.228C381.315,-147.969 364.844,-165.737 349.711,-182.061"/>
<polygon fill="black" stroke="black" points="347.105,-179.724 342.873,-189.437 352.239,-184.483 347.105,-179.724"/>
</g>
<!-- e(o46o52) -->
<g id="node16" class="node"><title>e(o46o52)</title>
<ellipse fill="none" stroke="black" cx="196.474" cy="-225.386" rx="48.1917" ry="48.1917"/>
<text text-anchor="middle" x="196.474" y="-221.686" font-family="Times New Roman,serif" font-size="14.00">e(o46o52)</text>
</g>
<!-- o52&#45;&gt;e(o46o52) -->
<g id="edge23" class="edge"><title>o52&#45;&gt;e(o46o52)</title>
<path fill="none" stroke="black" d="M390.619,-132.78C386.158,-135.898 381.292,-138.941 376.474,-141.291 325.278,-166.259 303.795,-150.603 253.474,-177.291 248.844,-179.746 244.241,-182.616 239.774,-185.707"/>
<polygon fill="black" stroke="black" points="237.37,-183.13 231.381,-191.869 241.513,-188.772 237.37,-183.13"/>
</g>
<!-- e(o32o52) -->
<g id="node18" class="node"><title>e(o32o52)</title>
<ellipse fill="none" stroke="black" cx="652.474" cy="-225.386" rx="48.1917" ry="48.1917"/>
<text text-anchor="middle" x="652.474" y="-221.686" font-family="Times New Roman,serif" font-size="14.00">e(o32o52)</text>
</g>
<!-- o52&#45;&gt;e(o32o52) -->
<g id="edge26" class="edge"><title>o52&#45;&gt;e(o32o52)</title>
<path fill="none" stroke="black" d="M428.239,-132.973C432.704,-136.081 437.595,-139.071 442.474,-141.291 506.061,-170.217 532.904,-146.227 595.474,-177.291 600.361,-179.717 605.196,-182.635 609.862,-185.816"/>
<polygon fill="black" stroke="black" points="607.907,-188.722 618.053,-191.774 612.025,-183.061 607.907,-188.722"/>
</g>
<!-- o16&#45;&gt;e(e(e(o46o52)o44)o8) -->
<g id="edge51" class="edge"><title>o16&#45;&gt;e(e(e(o46o52)o44)o8)</title>
<path fill="none" stroke="black" d="M412.178,-621.554C408.047,-631.328 402.879,-643.554 397.392,-656.534"/>
<polygon fill="black" stroke="black" points="394.021,-655.52 393.351,-666.094 400.469,-658.245 394.021,-655.52"/>
</g>
<!-- e(o32o48) -->
<g id="node10" class="node"><title>e(o32o48)</title>
<ellipse fill="none" stroke="black" cx="766.474" cy="-225.386" rx="48.1917" ry="48.1917"/>
<text text-anchor="middle" x="766.474" y="-221.686" font-family="Times New Roman,serif" font-size="14.00">e(o32o48)</text>
</g>
<!-- e(o32o48)&#45;&gt;e(e(o32o46)o44) -->
<g id="edge2" class="edge"><title>e(o32o48)&#45;&gt;e(e(o32o46)o44)</title>
<path fill="none" stroke="black" d="M730.124,-257.354C723.357,-262.85 716.274,-268.428 709.474,-273.482 636.625,-327.624 549.462,-384.689 490.248,-422.373"/>
<polygon fill="black" stroke="black" points="488.284,-419.474 481.719,-427.79 492.037,-425.383 488.284,-419.474"/>
</g>
<!-- o44&#45;&gt;e(e(o32o46)o44) -->
<g id="edge3" class="edge"><title>o44&#45;&gt;e(e(o32o46)o44)</title>
<path fill="none" stroke="black" d="M365.388,-356.387C370.742,-366.79 377.536,-379.992 384.532,-393.587"/>
<polygon fill="black" stroke="black" points="381.458,-395.262 389.146,-402.552 387.682,-392.059 381.458,-395.262"/>
</g>
<!-- o44&#45;&gt;e(e(o46o52)o44) -->
<g id="edge33" class="edge"><title>o44&#45;&gt;e(e(o46o52)o44)</title>
<path fill="none" stroke="black" d="M340.402,-354.671C331.679,-366.752 319.915,-383.045 308.099,-399.411"/>
<polygon fill="black" stroke="black" points="304.947,-397.797 301.931,-407.954 310.622,-401.895 304.947,-397.797"/>
</g>
<!-- o28&#45;&gt;e(e(e(o46o52)o44)o8) -->
<g id="edge41" class="edge"><title>o28&#45;&gt;e(e(e(o46o52)o44)o8)</title>
<path fill="none" stroke="black" d="M472.534,-617.838C460.215,-631.961 442.277,-652.527 424.258,-673.185"/>
<polygon fill="black" stroke="black" points="421.561,-670.951 417.626,-680.788 426.837,-675.553 421.561,-670.951"/>
</g>
<!-- o46&#45;&gt;e(o46o48) -->
<g id="edge13" class="edge"><title>o46&#45;&gt;e(o46o48)</title>
<path fill="none" stroke="black" d="M357.134,-136.685C366.074,-148.328 377.911,-163.744 389.165,-178.401"/>
<polygon fill="black" stroke="black" points="386.469,-180.637 395.335,-186.437 392.021,-176.373 386.469,-180.637"/>
</g>
<!-- o46&#45;&gt;e(o46o52) -->
<g id="edge24" class="edge"><title>o46&#45;&gt;e(o46o52)</title>
<path fill="none" stroke="black" d="M321.929,-130.545C303.628,-142.275 276.295,-160.275 253.474,-177.291 249.335,-180.377 245.09,-183.655 240.874,-186.99"/>
<polygon fill="black" stroke="black" points="238.448,-184.449 232.838,-193.436 242.828,-189.909 238.448,-184.449"/>
</g>
<!-- e(o32o46) -->
<g id="node21" class="node"><title>e(o32o46)</title>
<ellipse fill="none" stroke="black" cx="538.474" cy="-225.386" rx="48.1917" ry="48.1917"/>
<text text-anchor="middle" x="538.474" y="-221.686" font-family="Times New Roman,serif" font-size="14.00">e(o32o46)</text>
</g>
<!-- o46&#45;&gt;e(o32o46) -->
<g id="edge31" class="edge"><title>o46&#45;&gt;e(o32o46)</title>
<path fill="none" stroke="black" d="M361.406,-132.628C365.862,-135.754 370.707,-138.839 375.474,-141.291 419.718,-164.049 438.027,-153.047 481.474,-177.291 486.168,-179.91 490.852,-182.932 495.403,-186.156"/>
<polygon fill="black" stroke="black" points="493.314,-188.965 503.424,-192.133 497.496,-183.351 493.314,-188.965"/>
</g>
<!-- o36&#45;&gt;e(e(o32o46)o44) -->
<g id="edge5" class="edge"><title>o36&#45;&gt;e(e(o32o46)o44)</title>
<path fill="none" stroke="black" d="M421.474,-359.059C421.474,-366.606 421.474,-375.409 421.474,-384.66"/>
<polygon fill="black" stroke="black" points="417.974,-384.834 421.474,-394.834 424.974,-384.834 417.974,-384.834"/>
</g>
<!-- o36&#45;&gt;e(e(o46o52)o44) -->
<g id="edge35" class="edge"><title>o36&#45;&gt;e(e(o46o52)o44)</title>
<path fill="none" stroke="black" d="M401.764,-349.254C385.378,-361.105 361.575,-378.669 341.474,-394.878 334.903,-400.177 328.122,-405.806 321.412,-411.484"/>
<polygon fill="black" stroke="black" points="318.925,-409.005 313.583,-418.155 323.465,-414.333 318.925,-409.005"/>
</g>
<!-- o20&#45;&gt;e(e(e(o46o52)o44)o8) -->
<g id="edge42" class="edge"><title>o20&#45;&gt;e(e(e(o46o52)o44)o8)</title>
<path fill="none" stroke="black" d="M536.226,-614.125C513.454,-631.353 474.091,-661.133 438.187,-688.296"/>
<polygon fill="black" stroke="black" points="435.972,-685.583 430.108,-694.408 440.195,-691.166 435.972,-685.583"/>
</g>
<!-- e(o46o52)&#45;&gt;e(e(o46o52)o44) -->
<g id="edge36" class="edge"><title>e(o46o52)&#45;&gt;e(e(o46o52)o44)</title>
<path fill="none" stroke="black" d="M208.738,-272.182C217.435,-304.655 229.321,-349.04 239.508,-387.079"/>
<polygon fill="black" stroke="black" points="236.226,-388.357 242.194,-397.111 242.988,-386.546 236.226,-388.357"/>
</g>
<!-- o48&#45;&gt;e(o48o52) -->
<g id="edge10" class="edge"><title>o48&#45;&gt;e(o48o52)</title>
<path fill="none" stroke="black" d="M457.322,-132.228C452.877,-135.374 448.092,-138.569 443.474,-141.291 411.275,-160.268 399.012,-157.233 367.474,-177.291 362.939,-180.175 358.362,-183.376 353.878,-186.713"/>
<polygon fill="black" stroke="black" points="351.726,-183.953 345.938,-192.827 355.997,-189.499 351.726,-183.953"/>
</g>
<!-- o48&#45;&gt;e(o46o48) -->
<g id="edge12" class="edge"><title>o48&#45;&gt;e(o46o48)</title>
<path fill="none" stroke="black" d="M465.951,-139.204C461.268,-148.822 455.531,-160.604 449.835,-172.302"/>
<polygon fill="black" stroke="black" points="446.528,-171.099 445.297,-181.622 452.822,-174.164 446.528,-171.099"/>
</g>
<!-- o48&#45;&gt;e(o32o48) -->
<g id="edge17" class="edge"><title>o48&#45;&gt;e(o32o48)</title>
<path fill="none" stroke="black" d="M500.232,-124.445C517.246,-129.296 540.722,-135.875 561.474,-141.291 626.977,-158.383 648.953,-146.96 709.474,-177.291 714.16,-179.639 718.801,-182.436 723.292,-185.479"/>
<polygon fill="black" stroke="black" points="721.565,-188.55 731.716,-191.581 725.671,-182.88 721.565,-188.55"/>
</g>
<!-- e(o32o52)&#45;&gt;e(e(e(o46o52)o44)o8) -->
<g id="edge43" class="edge"><title>e(o32o52)&#45;&gt;e(e(e(o46o52)o44)o8)</title>
<path fill="none" stroke="black" d="M677.519,-266.687C721.753,-343.572 801.968,-513.313 723.474,-623.261 663.84,-706.792 544.883,-735.236 458.95,-744.61"/>
<polygon fill="black" stroke="black" points="458.497,-741.138 448.904,-745.636 459.208,-748.102 458.497,-741.138"/>
</g>
<!-- o10&#45;&gt;e(e(e(o46o52)o44)o8) -->
<g id="edge44" class="edge"><title>o10&#45;&gt;e(e(e(o46o52)o44)o8)</title>
<path fill="none" stroke="black" d="M602.858,-614.261C598.52,-617.339 593.897,-620.488 589.474,-623.261 543.999,-651.769 491.541,-680.544 448.12,-703.32"/>
<polygon fill="black" stroke="black" points="446.24,-700.353 438.998,-708.087 449.482,-706.557 446.24,-700.353"/>
</g>
<!-- o34&#45;&gt;e(e(e(o46o52)o44)o8) -->
<g id="edge45" class="edge"><title>o34&#45;&gt;e(e(e(o46o52)o44)o8)</title>
<path fill="none" stroke="black" d="M670.41,-614.35C665.96,-617.489 661.152,-620.642 656.474,-623.261 591.164,-659.832 513.025,-692.317 453.149,-715.047"/>
<polygon fill="black" stroke="black" points="451.822,-711.807 443.701,-718.611 454.293,-718.357 451.822,-711.807"/>
</g>
<!-- e(o32o46)&#45;&gt;e(e(o32o46)o44) -->
<g id="edge6" class="edge"><title>e(o32o46)&#45;&gt;e(e(o32o46)o44)</title>
<path fill="none" stroke="black" d="M539.897,-273.747C538.967,-299.951 534.897,-332.46 522.474,-358.878 513.203,-378.595 498.856,-397.022 483.86,-412.82"/>
<polygon fill="black" stroke="black" points="480.97,-410.769 476.466,-420.359 485.967,-415.67 480.97,-410.769"/>
</g>
<!-- o18&#45;&gt;e(e(e(o46o52)o44)o8) -->
<g id="edge47" class="edge"><title>o18&#45;&gt;e(e(e(o46o52)o44)o8)</title>
<path fill="none" stroke="black" d="M64.5835,-614.272C69.0309,-617.414 73.8272,-620.589 78.4743,-623.261 138.269,-657.643 209.224,-689.316 264.744,-712.222"/>
<polygon fill="black" stroke="black" points="263.639,-715.552 274.219,-716.108 266.295,-709.075 263.639,-715.552"/>
</g>
<!-- e(e(o46o52)o44)&#45;&gt;e(e(e(o46o52)o44)o8) -->
<g id="edge46" class="edge"><title>e(e(o46o52)o44)&#45;&gt;e(e(e(o46o52)o44)o8)</title>
<path fill="none" stroke="black" d="M190.304,-481.365C99.6745,-502.747 -40.6144,-549.063 11.4743,-623.261 66.7086,-701.939 176.442,-731.446 257.79,-742.394"/>
<polygon fill="black" stroke="black" points="257.704,-745.911 268.066,-743.699 258.586,-738.967 257.704,-745.911"/>
</g>
<!-- o30&#45;&gt;e(e(e(o46o52)o44)o8) -->
<g id="edge49" class="edge"><title>o30&#45;&gt;e(e(e(o46o52)o44)o8)</title>
<path fill="none" stroke="black" d="M132.165,-614.145C136.498,-617.23 141.101,-620.412 145.474,-623.261 186.085,-649.713 232.327,-677.225 271.324,-699.711"/>
<polygon fill="black" stroke="black" points="269.629,-702.774 280.042,-704.724 273.118,-696.705 269.629,-702.774"/>
</g>
<!-- o32&#45;&gt;e(o32o48) -->
<g id="edge16" class="edge"><title>o32&#45;&gt;e(o32o48)</title>
<path fill="none" stroke="black" d="M617.669,-127.525C641.22,-138.446 679.143,-157.137 709.474,-177.291 713.951,-180.266 718.489,-183.527 722.947,-186.902"/>
<polygon fill="black" stroke="black" points="720.817,-189.679 730.857,-193.063 725.118,-184.157 720.817,-189.679"/>
</g>
<!-- o32&#45;&gt;e(o32o52) -->
<g id="edge27" class="edge"><title>o32&#45;&gt;e(o32o52)</title>
<path fill="none" stroke="black" d="M606.736,-138.692C612.114,-148.768 618.804,-161.303 625.393,-173.647"/>
<polygon fill="black" stroke="black" points="622.356,-175.39 630.152,-182.564 628.531,-172.094 622.356,-175.39"/>
</g>
<!-- o32&#45;&gt;e(o32o46) -->
<g id="edge30" class="edge"><title>o32&#45;&gt;e(o32o46)</title>
<path fill="none" stroke="black" d="M584.213,-138.692C578.835,-148.768 572.145,-161.303 565.556,-173.647"/>
<polygon fill="black" stroke="black" points="562.417,-172.094 560.796,-182.564 568.593,-175.39 562.417,-172.094"/>
</g>
<!-- o14&#45;&gt;e(e(e(o46o52)o44)o8) -->
<g id="edge50" class="edge"><title>o14&#45;&gt;e(e(e(o46o52)o44)o8)</title>
<path fill="none" stroke="black" d="M197.956,-614.951C217.802,-631.475 250.649,-658.824 281.477,-684.493"/>
<polygon fill="black" stroke="black" points="279.338,-687.266 289.262,-690.975 283.817,-681.887 279.338,-687.266"/>
</g>
<!-- o4&#45;&gt;e(e(e(o46o52)o44)o8) -->
<g id="edge48" class="edge"><title>o4&#45;&gt;e(e(e(o46o52)o44)o8)</title>
<path fill="none" stroke="black" d="M254.451,-614.951C264.871,-628.339 280.822,-648.833 297.126,-669.781"/>
<polygon fill="black" stroke="black" points="294.478,-672.077 303.382,-677.818 300.002,-667.777 294.478,-672.077"/>
</g>
<!-- o2&#45;&gt;e(e(e(o46o52)o44)o8) -->
<g id="edge52" class="edge"><title>o2&#45;&gt;e(e(e(o46o52)o44)o8)</title>
<path fill="none" stroke="black" d="M307.47,-617.541C311.4,-627.639 316.638,-641.097 322.262,-655.549"/>
<polygon fill="black" stroke="black" points="319.115,-657.114 326.003,-665.163 325.638,-654.575 319.115,-657.114"/>
</g>
</g>
</svg>
