<?xml version="1.0" encoding="UTF-8" standalone="no"?>
<!DOCTYPE svg PUBLIC "-//W3C//DTD SVG 1.1//EN"
 "http://www.w3.org/Graphics/SVG/1.1/DTD/svg11.dtd">
<!-- Generated by graphviz version 2.38.0 (20140413.2041)
 -->
<!-- Title: priss2013&#45;table01_o14_d Pages: 1 -->
<svg width="672pt" height="1364pt"
 viewBox="0.00 0.00 671.99 1363.60" xmlns="http://www.w3.org/2000/svg" xmlns:xlink="http://www.w3.org/1999/xlink">
<g id="graph0" class="graph" transform="scale(1 1) rotate(0) translate(4 1359.6)">
<title>priss2013&#45;table01_o14_d</title>
<polygon fill="white" stroke="none" points="-4,4 -4,-1359.6 667.987,-1359.6 667.987,4 -4,4"/>
<!-- eBot -->
<g id="node1" class="node"><title>eBot</title>
<ellipse fill="none" stroke="black" cx="364.698" cy="-27.9475" rx="27.8951" ry="27.8951"/>
<text text-anchor="middle" x="364.698" y="-24.2475" font-family="Times New Roman,serif" font-size="14.00">eBot</text>
</g>
<!-- o16 -->
<g id="node9" class="node"><title>o16</title>
<ellipse fill="none" stroke="black" cx="297.698" cy="-116.593" rx="24.8972" ry="24.8972"/>
<text text-anchor="middle" x="297.698" y="-112.893" font-family="Times New Roman,serif" font-size="14.00">o16</text>
</g>
<!-- eBot&#45;&gt;o16 -->
<g id="edge33" class="edge"><title>eBot&#45;&gt;o16</title>
<path fill="none" stroke="black" d="M347.791,-50.8118C338.909,-62.2985 327.944,-76.4777 318.54,-88.6393"/>
<polygon fill="black" stroke="black" points="315.672,-86.6267 312.324,-96.6785 321.21,-90.9088 315.672,-86.6267"/>
</g>
<!-- o10 -->
<g id="node20" class="node"><title>o10</title>
<ellipse fill="none" stroke="black" cx="364.698" cy="-116.593" rx="24.8972" ry="24.8972"/>
<text text-anchor="middle" x="364.698" y="-112.893" font-family="Times New Roman,serif" font-size="14.00">o10</text>
</g>
<!-- eBot&#45;&gt;o10 -->
<g id="edge52" class="edge"><title>eBot&#45;&gt;o10</title>
<path fill="none" stroke="black" d="M364.698,-56.3626C364.698,-64.3805 364.698,-73.2425 364.698,-81.6154"/>
<polygon fill="black" stroke="black" points="361.198,-81.8593 364.698,-91.8593 368.198,-81.8594 361.198,-81.8593"/>
</g>
<!-- o18 -->
<g id="node22" class="node"><title>o18</title>
<ellipse fill="none" stroke="black" cx="431.698" cy="-116.593" rx="24.8972" ry="24.8972"/>
<text text-anchor="middle" x="431.698" y="-112.893" font-family="Times New Roman,serif" font-size="14.00">o18</text>
</g>
<!-- eBot&#45;&gt;o18 -->
<g id="edge56" class="edge"><title>eBot&#45;&gt;o18</title>
<path fill="none" stroke="black" d="M381.605,-50.8118C390.487,-62.2985 401.451,-76.4777 410.855,-88.6393"/>
<polygon fill="black" stroke="black" points="408.186,-90.9088 417.072,-96.6785 413.724,-86.6267 408.186,-90.9088"/>
</g>
<!-- o8 -->
<g id="node2" class="node"><title>o8</title>
<ellipse fill="none" stroke="black" cx="87.6978" cy="-583.361" rx="20.2975" ry="20.2975"/>
<text text-anchor="middle" x="87.6978" y="-579.661" font-family="Times New Roman,serif" font-size="14.00">o8</text>
</g>
<!-- e(o26o8) -->
<g id="node7" class="node"><title>e(o26o8)</title>
<ellipse fill="none" stroke="black" cx="120.698" cy="-832.542" rx="43.5923" ry="43.5923"/>
<text text-anchor="middle" x="120.698" y="-828.842" font-family="Times New Roman,serif" font-size="14.00">e(o26o8)</text>
</g>
<!-- o8&#45;&gt;e(o26o8) -->
<g id="edge19" class="edge"><title>o8&#45;&gt;e(o26o8)</title>
<path fill="none" stroke="black" d="M90.2873,-603.757C95.269,-641.072 106.341,-724.004 113.66,-778.829"/>
<polygon fill="black" stroke="black" points="110.233,-779.61 115.026,-789.059 117.172,-778.684 110.233,-779.61"/>
</g>
<!-- e(e(e(e(o10o18)o44)o30)o8) -->
<g id="node8" class="node"><title>e(e(e(e(o10o18)o44)o30)o8)</title>
<ellipse fill="none" stroke="black" cx="295.698" cy="-832.542" rx="113.98" ry="113.98"/>
<text text-anchor="middle" x="295.698" y="-828.842" font-family="Times New Roman,serif" font-size="14.00">e(e(e(e(o10o18)o44)o30)o8)</text>
</g>
<!-- o8&#45;&gt;e(e(e(e(o10o18)o44)o30)o8) -->
<g id="edge26" class="edge"><title>o8&#45;&gt;e(e(e(e(o10o18)o44)o30)o8)</title>
<path fill="none" stroke="black" d="M89.651,-603.417C92.5695,-623.753 99.6868,-656.039 116.698,-678.253 134.915,-702.042 150.111,-695.775 173.698,-714.253 185.461,-723.468 197.366,-733.651 208.891,-744.053"/>
<polygon fill="black" stroke="black" points="206.66,-746.755 216.405,-750.913 211.38,-741.586 206.66,-746.755"/>
</g>
<!-- e(e(e(e(e(o10o18)o44)o30)o26)o50) -->
<g id="node3" class="node"><title>e(e(e(e(e(o10o18)o44)o30)o26)o50)</title>
<ellipse fill="none" stroke="black" cx="299.698" cy="-1213.91" rx="141.875" ry="141.875"/>
<text text-anchor="middle" x="299.698" y="-1210.21" font-family="Times New Roman,serif" font-size="14.00">e(e(e(e(e(o10o18)o44)o30)o26)o50)</text>
</g>
<!-- o40 -->
<g id="node4" class="node"><title>o40</title>
<ellipse fill="none" stroke="black" cx="150.698" cy="-583.361" rx="24.8972" ry="24.8972"/>
<text text-anchor="middle" x="150.698" y="-579.661" font-family="Times New Roman,serif" font-size="14.00">o40</text>
</g>
<!-- o40&#45;&gt;e(o26o8) -->
<g id="edge20" class="edge"><title>o40&#45;&gt;e(o26o8)</title>
<path fill="none" stroke="black" d="M147.821,-608.062C143.078,-647.144 133.503,-726.031 127.095,-778.837"/>
<polygon fill="black" stroke="black" points="123.588,-778.682 125.857,-789.03 130.537,-779.525 123.588,-778.682"/>
</g>
<!-- o40&#45;&gt;e(e(e(e(o10o18)o44)o30)o8) -->
<g id="edge28" class="edge"><title>o40&#45;&gt;e(e(e(e(o10o18)o44)o30)o8)</title>
<path fill="none" stroke="black" d="M156.777,-607.527C162.372,-627.025 171.627,-655.318 183.698,-678.253 193.815,-697.475 206.146,-716.96 218.881,-735.298"/>
<polygon fill="black" stroke="black" points="216.134,-737.476 224.754,-743.637 221.858,-733.446 216.134,-737.476"/>
</g>
<!-- e(e(o10o18)o44) -->
<g id="node5" class="node"><title>e(e(o10o18)o44)</title>
<ellipse fill="none" stroke="black" cx="465.698" cy="-380.976" rx="71.4873" ry="71.4873"/>
<text text-anchor="middle" x="465.698" y="-377.276" font-family="Times New Roman,serif" font-size="14.00">e(e(o10o18)o44)</text>
</g>
<!-- e(e(e(o10o18)o44)o30) -->
<g id="node13" class="node"><title>e(e(e(o10o18)o44)o30)</title>
<ellipse fill="none" stroke="black" cx="556.698" cy="-583.361" rx="94.7833" ry="94.7833"/>
<text text-anchor="middle" x="556.698" y="-579.661" font-family="Times New Roman,serif" font-size="14.00">e(e(e(o10o18)o44)o30)</text>
</g>
<!-- e(e(o10o18)o44)&#45;&gt;e(e(e(o10o18)o44)o30) -->
<g id="edge41" class="edge"><title>e(e(o10o18)o44)&#45;&gt;e(e(e(o10o18)o44)o30)</title>
<path fill="none" stroke="black" d="M494.992,-446.482C500.959,-459.621 507.353,-473.703 513.684,-487.643"/>
<polygon fill="black" stroke="black" points="510.508,-489.113 517.829,-496.771 516.881,-486.219 510.508,-489.113"/>
</g>
<!-- o38 -->
<g id="node6" class="node"><title>o38</title>
<ellipse fill="none" stroke="black" cx="217.698" cy="-583.361" rx="24.8972" ry="24.8972"/>
<text text-anchor="middle" x="217.698" y="-579.661" font-family="Times New Roman,serif" font-size="14.00">o38</text>
</g>
<!-- o38&#45;&gt;e(o26o8) -->
<g id="edge23" class="edge"><title>o38&#45;&gt;e(o26o8)</title>
<path fill="none" stroke="black" d="M210.06,-607.262C203.594,-626.356 193.929,-654.22 184.698,-678.253 171.121,-713.598 154.637,-753.007 141.798,-783.016"/>
<polygon fill="black" stroke="black" points="138.493,-781.842 137.766,-792.412 144.926,-784.602 138.493,-781.842"/>
</g>
<!-- o38&#45;&gt;e(e(e(e(o10o18)o44)o30)o8) -->
<g id="edge31" class="edge"><title>o38&#45;&gt;e(e(e(e(o10o18)o44)o30)o8)</title>
<path fill="none" stroke="black" d="M224.896,-607.172C232.717,-631.957 245.817,-673.472 258.638,-714.099"/>
<polygon fill="black" stroke="black" points="255.366,-715.361 261.713,-723.844 262.041,-713.254 255.366,-715.361"/>
</g>
<!-- e(o26o8)&#45;&gt;e(e(e(e(e(o10o18)o44)o30)o26)o50) -->
<g id="edge5" class="edge"><title>e(o26o8)&#45;&gt;e(e(e(e(e(o10o18)o44)o30)o26)o50)</title>
<path fill="none" stroke="black" d="M117.08,-876.237C115.2,-918.65 116.986,-984.633 139.698,-1036.23 151.457,-1062.94 168.88,-1088.34 187.955,-1111.13"/>
<polygon fill="black" stroke="black" points="185.32,-1113.44 194.481,-1118.76 190.639,-1108.89 185.32,-1113.44"/>
</g>
<!-- o50 -->
<g id="node11" class="node"><title>o50</title>
<ellipse fill="none" stroke="black" cx="299.698" cy="-1011.53" rx="24.8972" ry="24.8972"/>
<text text-anchor="middle" x="299.698" y="-1007.83" font-family="Times New Roman,serif" font-size="14.00">o50</text>
</g>
<!-- e(e(e(e(o10o18)o44)o30)o8)&#45;&gt;o50 -->
<g id="edge37" class="edge"><title>e(e(e(e(o10o18)o44)o30)o8)&#45;&gt;o50</title>
<path fill="none" stroke="black" d="M298.248,-946.383C298.493,-957.227 298.726,-967.542 298.931,-976.605"/>
<polygon fill="black" stroke="black" points="295.432,-976.707 299.158,-986.625 302.431,-976.548 295.432,-976.707"/>
</g>
<!-- o48 -->
<g id="node18" class="node"><title>o48</title>
<ellipse fill="none" stroke="black" cx="366.698" cy="-1011.53" rx="24.8972" ry="24.8972"/>
<text text-anchor="middle" x="366.698" y="-1007.83" font-family="Times New Roman,serif" font-size="14.00">o48</text>
</g>
<!-- e(e(e(e(o10o18)o44)o30)o8)&#45;&gt;o48 -->
<g id="edge49" class="edge"><title>e(e(e(e(o10o18)o44)o30)o8)&#45;&gt;o48</title>
<path fill="none" stroke="black" d="M337.717,-938.287C343.659,-953.098 349.348,-967.28 354.088,-979.096"/>
<polygon fill="black" stroke="black" points="350.859,-980.448 357.831,-988.426 357.356,-977.842 350.859,-980.448"/>
</g>
<!-- o4 -->
<g id="node23" class="node"><title>o4</title>
<ellipse fill="none" stroke="black" cx="429.698" cy="-1011.53" rx="20.2975" ry="20.2975"/>
<text text-anchor="middle" x="429.698" y="-1007.83" font-family="Times New Roman,serif" font-size="14.00">o4</text>
</g>
<!-- e(e(e(e(o10o18)o44)o30)o8)&#45;&gt;o4 -->
<g id="edge57" class="edge"><title>e(e(e(e(o10o18)o44)o30)o8)&#45;&gt;o4</title>
<path fill="none" stroke="black" d="M363.875,-923.591C381.604,-947.007 399.222,-970.277 411.764,-986.842"/>
<polygon fill="black" stroke="black" points="409.006,-988.998 417.833,-994.858 414.587,-984.773 409.006,-988.998"/>
</g>
<!-- o46 -->
<g id="node26" class="node"><title>o46</title>
<ellipse fill="none" stroke="black" cx="173.698" cy="-1011.53" rx="24.8972" ry="24.8972"/>
<text text-anchor="middle" x="173.698" y="-1007.83" font-family="Times New Roman,serif" font-size="14.00">o46</text>
</g>
<!-- e(e(e(e(o10o18)o44)o30)o8)&#45;&gt;o46 -->
<g id="edge64" class="edge"><title>e(e(e(e(o10o18)o44)o30)o8)&#45;&gt;o46</title>
<path fill="none" stroke="black" d="M231.482,-926.7C217.47,-947.028 203.685,-967.027 193.095,-982.39"/>
<polygon fill="black" stroke="black" points="190.045,-980.647 187.251,-990.867 195.808,-984.62 190.045,-980.647"/>
</g>
<!-- o2 -->
<g id="node27" class="node"><title>o2</title>
<ellipse fill="none" stroke="black" cx="236.698" cy="-1011.53" rx="20.2975" ry="20.2975"/>
<text text-anchor="middle" x="236.698" y="-1007.83" font-family="Times New Roman,serif" font-size="14.00">o2</text>
</g>
<!-- e(e(e(e(o10o18)o44)o30)o8)&#45;&gt;o2 -->
<g id="edge65" class="edge"><title>e(e(e(e(o10o18)o44)o30)o8)&#45;&gt;o2</title>
<path fill="none" stroke="black" d="M260.016,-940.579C254.873,-956.007 249.993,-970.647 246.039,-982.509"/>
<polygon fill="black" stroke="black" points="242.661,-981.574 242.819,-992.167 249.302,-983.787 242.661,-981.574"/>
</g>
<!-- e(o10o18) -->
<g id="node10" class="node"><title>e(o10o18)</title>
<ellipse fill="none" stroke="black" cx="351.698" cy="-225.386" rx="48.1917" ry="48.1917"/>
<text text-anchor="middle" x="351.698" y="-221.686" font-family="Times New Roman,serif" font-size="14.00">e(o10o18)</text>
</g>
<!-- o16&#45;&gt;e(o10o18) -->
<g id="edge35" class="edge"><title>o16&#45;&gt;e(o10o18)</title>
<path fill="none" stroke="black" d="M308.496,-138.947C313.45,-148.745 319.559,-160.828 325.608,-172.789"/>
<polygon fill="black" stroke="black" points="322.565,-174.528 330.201,-181.873 328.812,-171.37 322.565,-174.528"/>
</g>
<!-- e(o10o18)&#45;&gt;e(e(o10o18)o44) -->
<g id="edge15" class="edge"><title>e(o10o18)&#45;&gt;e(e(o10o18)o44)</title>
<path fill="none" stroke="black" d="M380.171,-264.747C391.392,-279.866 404.602,-297.662 417.238,-314.687"/>
<polygon fill="black" stroke="black" points="414.613,-317.023 423.384,-322.967 420.234,-312.851 414.613,-317.023"/>
</g>
<!-- o28 -->
<g id="node14" class="node"><title>o28</title>
<ellipse fill="none" stroke="black" cx="217.698" cy="-380.976" rx="24.8972" ry="24.8972"/>
<text text-anchor="middle" x="217.698" y="-377.276" font-family="Times New Roman,serif" font-size="14.00">o28</text>
</g>
<!-- e(o10o18)&#45;&gt;o28 -->
<g id="edge43" class="edge"><title>e(o10o18)&#45;&gt;o28</title>
<path fill="none" stroke="black" d="M311.612,-252.867C291.419,-267.701 267.684,-287.599 250.698,-309.482 241.784,-320.966 234.534,-335.246 229.124,-347.945"/>
<polygon fill="black" stroke="black" points="225.855,-346.693 225.349,-357.276 232.344,-349.319 225.855,-346.693"/>
</g>
<!-- o30 -->
<g id="node15" class="node"><title>o30</title>
<ellipse fill="none" stroke="black" cx="284.698" cy="-380.976" rx="24.8972" ry="24.8972"/>
<text text-anchor="middle" x="284.698" y="-377.276" font-family="Times New Roman,serif" font-size="14.00">o30</text>
</g>
<!-- e(o10o18)&#45;&gt;o30 -->
<g id="edge44" class="edge"><title>e(o10o18)&#45;&gt;o30</title>
<path fill="none" stroke="black" d="M332.678,-269.988C321.71,-295.131 308.177,-326.152 298.283,-348.833"/>
<polygon fill="black" stroke="black" points="295.074,-347.435 294.284,-358.001 301.49,-350.234 295.074,-347.435"/>
</g>
<!-- o20 -->
<g id="node16" class="node"><title>o20</title>
<ellipse fill="none" stroke="black" cx="351.698" cy="-380.976" rx="24.8972" ry="24.8972"/>
<text text-anchor="middle" x="351.698" y="-377.276" font-family="Times New Roman,serif" font-size="14.00">o20</text>
</g>
<!-- e(o10o18)&#45;&gt;o20 -->
<g id="edge45" class="edge"><title>e(o10o18)&#45;&gt;o20</title>
<path fill="none" stroke="black" d="M351.698,-273.722C351.698,-297.096 351.698,-324.763 351.698,-346.004"/>
<polygon fill="black" stroke="black" points="348.198,-346.168 351.698,-356.168 355.198,-346.168 348.198,-346.168"/>
</g>
<!-- o50&#45;&gt;e(e(e(e(e(o10o18)o44)o30)o26)o50) -->
<g id="edge4" class="edge"><title>o50&#45;&gt;e(e(e(e(e(o10o18)o44)o30)o26)o50)</title>
<path fill="none" stroke="black" d="M299.698,-1036.3C299.698,-1043.61 299.698,-1052.26 299.698,-1061.73"/>
<polygon fill="black" stroke="black" points="296.198,-1061.89 299.698,-1071.89 303.198,-1061.89 296.198,-1061.89"/>
</g>
<!-- o44 -->
<g id="node12" class="node"><title>o44</title>
<ellipse fill="none" stroke="black" cx="454.698" cy="-225.386" rx="24.8972" ry="24.8972"/>
<text text-anchor="middle" x="454.698" y="-221.686" font-family="Times New Roman,serif" font-size="14.00">o44</text>
</g>
<!-- o44&#45;&gt;e(e(o10o18)o44) -->
<g id="edge14" class="edge"><title>o44&#45;&gt;e(e(o10o18)o44)</title>
<path fill="none" stroke="black" d="M456.392,-250.048C457.359,-263.538 458.632,-281.318 459.926,-299.379"/>
<polygon fill="black" stroke="black" points="456.439,-299.692 460.644,-309.417 463.421,-299.192 456.439,-299.692"/>
</g>
<!-- e(e(e(o10o18)o44)o30)&#45;&gt;e(e(e(e(o10o18)o44)o30)o8) -->
<g id="edge27" class="edge"><title>e(e(e(o10o18)o44)o30)&#45;&gt;e(e(e(e(o10o18)o44)o30)o8)</title>
<path fill="none" stroke="black" d="M487.825,-649.021C465.72,-669.819 441.15,-692.982 418.698,-714.253 407.804,-724.574 396.383,-735.423 385.076,-746.184"/>
<polygon fill="black" stroke="black" points="382.498,-743.805 377.669,-753.236 387.325,-748.875 382.498,-743.805"/>
</g>
<!-- e(e(e(e(o10o18)o44)o30)o26) -->
<g id="node19" class="node"><title>e(e(e(e(o10o18)o44)o30)o26)</title>
<ellipse fill="none" stroke="black" cx="545.698" cy="-832.542" rx="118.079" ry="118.079"/>
<text text-anchor="middle" x="545.698" y="-828.842" font-family="Times New Roman,serif" font-size="14.00">e(e(e(e(o10o18)o44)o30)o26)</text>
</g>
<!-- e(e(e(o10o18)o44)o30)&#45;&gt;e(e(e(e(o10o18)o44)o30)o26) -->
<g id="edge51" class="edge"><title>e(e(e(o10o18)o44)o30)&#45;&gt;e(e(e(e(o10o18)o44)o30)o26)</title>
<path fill="none" stroke="black" d="M552.523,-678.162C552.148,-686.604 551.763,-695.243 551.378,-703.909"/>
<polygon fill="black" stroke="black" points="547.873,-703.938 550.925,-714.083 554.866,-704.249 547.873,-703.938"/>
</g>
<!-- o28&#45;&gt;o8 -->
<g id="edge3" class="edge"><title>o28&#45;&gt;o8</title>
<path fill="none" stroke="black" d="M198.566,-397.296C175.931,-416.386 138.568,-451.078 116.698,-488.469 104.924,-508.598 97.4557,-534 93.0516,-553.304"/>
<polygon fill="black" stroke="black" points="89.5763,-552.82 90.9122,-563.33 96.4222,-554.28 89.5763,-552.82"/>
</g>
<!-- o28&#45;&gt;o40 -->
<g id="edge13" class="edge"><title>o28&#45;&gt;o40</title>
<path fill="none" stroke="black" d="M210.142,-404.573C198.28,-440.052 175.234,-508.978 161.584,-549.803"/>
<polygon fill="black" stroke="black" points="158.18,-548.945 158.329,-559.539 164.819,-551.165 158.18,-548.945"/>
</g>
<!-- o28&#45;&gt;o38 -->
<g id="edge18" class="edge"><title>o28&#45;&gt;o38</title>
<path fill="none" stroke="black" d="M217.698,-405.749C217.698,-441.152 217.698,-507.894 217.698,-548.422"/>
<polygon fill="black" stroke="black" points="214.198,-548.618 217.698,-558.618 221.198,-548.618 214.198,-548.618"/>
</g>
<!-- o28&#45;&gt;e(e(e(o10o18)o44)o30) -->
<g id="edge42" class="edge"><title>o28&#45;&gt;e(e(e(o10o18)o44)o30)</title>
<path fill="none" stroke="black" d="M222.64,-405.185C227.228,-420.947 235.691,-440.95 250.698,-452.469 323.036,-507.996 370.798,-448.364 452.698,-488.469 463.365,-493.693 473.747,-500.34 483.563,-507.677"/>
<polygon fill="black" stroke="black" points="481.629,-510.606 491.67,-513.986 485.928,-505.082 481.629,-510.606"/>
</g>
<!-- o36 -->
<g id="node17" class="node"><title>o36</title>
<ellipse fill="none" stroke="black" cx="284.698" cy="-583.361" rx="24.8972" ry="24.8972"/>
<text text-anchor="middle" x="284.698" y="-579.661" font-family="Times New Roman,serif" font-size="14.00">o36</text>
</g>
<!-- o28&#45;&gt;o36 -->
<g id="edge48" class="edge"><title>o28&#45;&gt;o36</title>
<path fill="none" stroke="black" d="M225.253,-404.573C237.116,-440.052 260.162,-508.978 273.812,-549.803"/>
<polygon fill="black" stroke="black" points="270.577,-551.165 277.067,-559.539 277.215,-548.945 270.577,-551.165"/>
</g>
<!-- o34 -->
<g id="node21" class="node"><title>o34</title>
<ellipse fill="none" stroke="black" cx="351.698" cy="-583.361" rx="24.8972" ry="24.8972"/>
<text text-anchor="middle" x="351.698" y="-579.661" font-family="Times New Roman,serif" font-size="14.00">o34</text>
</g>
<!-- o28&#45;&gt;o34 -->
<g id="edge55" class="edge"><title>o28&#45;&gt;o34</title>
<path fill="none" stroke="black" d="M224.185,-404.82C229.379,-419.815 237.932,-439.062 250.698,-452.469 274.278,-477.236 296.383,-462.557 318.698,-488.469 333.32,-505.449 341.596,-529.322 346.204,-548.746"/>
<polygon fill="black" stroke="black" points="342.825,-549.681 348.348,-558.722 349.668,-548.21 342.825,-549.681"/>
</g>
<!-- o26 -->
<g id="node24" class="node"><title>o26</title>
<ellipse fill="none" stroke="black" cx="418.698" cy="-583.361" rx="24.8972" ry="24.8972"/>
<text text-anchor="middle" x="418.698" y="-579.661" font-family="Times New Roman,serif" font-size="14.00">o26</text>
</g>
<!-- o28&#45;&gt;o26 -->
<g id="edge60" class="edge"><title>o28&#45;&gt;o26</title>
<path fill="none" stroke="black" d="M223.049,-405.137C227.802,-420.669 236.293,-440.415 250.698,-452.469 298.32,-492.32 340.123,-446.292 385.698,-488.469 402.436,-503.96 410.686,-528.437 414.752,-548.515"/>
<polygon fill="black" stroke="black" points="411.337,-549.302 416.519,-558.543 418.23,-548.087 411.337,-549.302"/>
</g>
<!-- o32 -->
<g id="node25" class="node"><title>o32</title>
<ellipse fill="none" stroke="black" cx="24.6978" cy="-583.361" rx="24.8972" ry="24.8972"/>
<text text-anchor="middle" x="24.6978" y="-579.661" font-family="Times New Roman,serif" font-size="14.00">o32</text>
</g>
<!-- o28&#45;&gt;o32 -->
<g id="edge63" class="edge"><title>o28&#45;&gt;o32</title>
<path fill="none" stroke="black" d="M195.145,-391.462C160.961,-406.929 96.0662,-440.72 58.6978,-488.469 44.9315,-506.06 36.4098,-529.727 31.3406,-548.899"/>
<polygon fill="black" stroke="black" points="27.9101,-548.193 28.9317,-558.739 34.7093,-549.858 27.9101,-548.193"/>
</g>
<!-- o30&#45;&gt;o8 -->
<g id="edge1" class="edge"><title>o30&#45;&gt;o8</title>
<path fill="none" stroke="black" d="M279.346,-405.137C274.594,-420.669 266.103,-440.415 251.698,-452.469 204.075,-492.32 161.454,-445.424 116.698,-488.469 99.3158,-505.187 92.2876,-532.07 89.4787,-552.796"/>
<polygon fill="black" stroke="black" points="85.9723,-552.664 88.362,-562.986 92.9306,-553.427 85.9723,-552.664"/>
</g>
<!-- o30&#45;&gt;o40 -->
<g id="edge11" class="edge"><title>o30&#45;&gt;o40</title>
<path fill="none" stroke="black" d="M278.21,-404.82C273.017,-419.815 264.463,-439.062 251.698,-452.469 228.118,-477.236 206.012,-462.557 183.698,-488.469 169.075,-505.449 160.799,-529.322 156.192,-548.746"/>
<polygon fill="black" stroke="black" points="152.727,-548.21 154.048,-558.722 159.571,-549.681 152.727,-548.21"/>
</g>
<!-- o30&#45;&gt;o38 -->
<g id="edge16" class="edge"><title>o30&#45;&gt;o38</title>
<path fill="none" stroke="black" d="M277.142,-404.573C265.28,-440.052 242.234,-508.978 228.584,-549.803"/>
<polygon fill="black" stroke="black" points="225.18,-548.945 225.329,-559.539 231.819,-551.165 225.18,-548.945"/>
</g>
<!-- o30&#45;&gt;e(e(e(o10o18)o44)o30) -->
<g id="edge39" class="edge"><title>o30&#45;&gt;e(e(e(o10o18)o44)o30)</title>
<path fill="none" stroke="black" d="M290.049,-405.137C294.802,-420.669 303.293,-440.415 317.698,-452.469 365.32,-492.32 398.128,-458.836 452.698,-488.469 463.052,-494.092 473.211,-500.949 482.879,-508.37"/>
<polygon fill="black" stroke="black" points="480.87,-511.244 490.877,-514.723 485.223,-505.763 480.87,-511.244"/>
</g>
<!-- o30&#45;&gt;o36 -->
<g id="edge46" class="edge"><title>o30&#45;&gt;o36</title>
<path fill="none" stroke="black" d="M284.698,-405.749C284.698,-441.152 284.698,-507.894 284.698,-548.422"/>
<polygon fill="black" stroke="black" points="281.198,-548.618 284.698,-558.618 288.198,-548.618 281.198,-548.618"/>
</g>
<!-- o30&#45;&gt;o34 -->
<g id="edge53" class="edge"><title>o30&#45;&gt;o34</title>
<path fill="none" stroke="black" d="M292.253,-404.573C304.116,-440.052 327.162,-508.978 340.812,-549.803"/>
<polygon fill="black" stroke="black" points="337.577,-551.165 344.067,-559.539 344.215,-548.945 337.577,-551.165"/>
</g>
<!-- o30&#45;&gt;o26 -->
<g id="edge58" class="edge"><title>o30&#45;&gt;o26</title>
<path fill="none" stroke="black" d="M291.185,-404.82C296.379,-419.815 304.932,-439.062 317.698,-452.469 341.278,-477.236 363.383,-462.557 385.698,-488.469 400.32,-505.449 408.596,-529.322 413.204,-548.746"/>
<polygon fill="black" stroke="black" points="409.825,-549.681 415.348,-558.722 416.668,-548.21 409.825,-549.681"/>
</g>
<!-- o30&#45;&gt;o32 -->
<g id="edge61" class="edge"><title>o30&#45;&gt;o32</title>
<path fill="none" stroke="black" d="M279.627,-405.486C275.004,-421.178 266.551,-440.973 251.698,-452.469 182.695,-505.878 125.217,-431.998 58.6978,-488.469 41.0605,-503.443 32.5722,-528.32 28.4872,-548.707"/>
<polygon fill="black" stroke="black" points="25.0343,-548.134 26.7709,-558.586 31.931,-549.333 25.0343,-548.134"/>
</g>
<!-- o20&#45;&gt;o8 -->
<g id="edge2" class="edge"><title>o20&#45;&gt;o8</title>
<path fill="none" stroke="black" d="M346.755,-405.185C342.167,-420.947 333.705,-440.95 318.698,-452.469 246.359,-507.996 185.028,-428.079 116.698,-488.469 98.4351,-504.61 91.5243,-531.977 88.9828,-553.013"/>
<polygon fill="black" stroke="black" points="85.4909,-552.764 88.0352,-563.048 92.4599,-553.422 85.4909,-552.764"/>
</g>
<!-- o20&#45;&gt;o40 -->
<g id="edge12" class="edge"><title>o20&#45;&gt;o40</title>
<path fill="none" stroke="black" d="M346.346,-405.137C341.594,-420.669 333.103,-440.415 318.698,-452.469 271.075,-492.32 229.272,-446.292 183.698,-488.469 166.96,-503.96 158.709,-528.437 154.644,-548.515"/>
<polygon fill="black" stroke="black" points="151.165,-548.087 152.876,-558.543 158.059,-549.302 151.165,-548.087"/>
</g>
<!-- o20&#45;&gt;o38 -->
<g id="edge17" class="edge"><title>o20&#45;&gt;o38</title>
<path fill="none" stroke="black" d="M345.21,-404.82C340.017,-419.815 331.463,-439.062 318.698,-452.469 295.118,-477.236 273.012,-462.557 250.698,-488.469 236.075,-505.449 227.799,-529.322 223.192,-548.746"/>
<polygon fill="black" stroke="black" points="219.727,-548.21 221.048,-558.722 226.571,-549.681 219.727,-548.21"/>
</g>
<!-- o20&#45;&gt;e(e(e(o10o18)o44)o30) -->
<g id="edge40" class="edge"><title>o20&#45;&gt;e(e(e(o10o18)o44)o30)</title>
<path fill="none" stroke="black" d="M358.563,-404.794C363.993,-419.779 372.825,-439.022 385.698,-452.469 409.074,-476.889 425.062,-469.002 452.698,-488.469 462.175,-495.146 471.728,-502.59 480.999,-510.285"/>
<polygon fill="black" stroke="black" points="478.814,-513.021 488.714,-516.796 483.329,-507.672 478.814,-513.021"/>
</g>
<!-- o20&#45;&gt;o36 -->
<g id="edge47" class="edge"><title>o20&#45;&gt;o36</title>
<path fill="none" stroke="black" d="M344.142,-404.573C332.28,-440.052 309.234,-508.978 295.584,-549.803"/>
<polygon fill="black" stroke="black" points="292.18,-548.945 292.329,-559.539 298.819,-551.165 292.18,-548.945"/>
</g>
<!-- o20&#45;&gt;o34 -->
<g id="edge54" class="edge"><title>o20&#45;&gt;o34</title>
<path fill="none" stroke="black" d="M351.698,-405.749C351.698,-441.152 351.698,-507.894 351.698,-548.422"/>
<polygon fill="black" stroke="black" points="348.198,-548.618 351.698,-558.618 355.198,-548.618 348.198,-548.618"/>
</g>
<!-- o20&#45;&gt;o26 -->
<g id="edge59" class="edge"><title>o20&#45;&gt;o26</title>
<path fill="none" stroke="black" d="M359.253,-404.573C371.116,-440.052 394.162,-508.978 407.812,-549.803"/>
<polygon fill="black" stroke="black" points="404.577,-551.165 411.067,-559.539 411.215,-548.945 404.577,-551.165"/>
</g>
<!-- o20&#45;&gt;o32 -->
<g id="edge62" class="edge"><title>o20&#45;&gt;o32</title>
<path fill="none" stroke="black" d="M346.891,-405.366C342.367,-421.213 333.925,-441.243 318.698,-452.469 224.799,-521.694 149.373,-415.073 58.6978,-488.469 40.7148,-503.026 32.2412,-527.921 28.2495,-548.42"/>
<polygon fill="black" stroke="black" points="24.7843,-547.922 26.5859,-558.363 31.6883,-549.078 24.7843,-547.922"/>
</g>
<!-- o36&#45;&gt;e(o26o8) -->
<g id="edge21" class="edge"><title>o36&#45;&gt;e(o26o8)</title>
<path fill="none" stroke="black" d="M281.633,-608.253C277.838,-629.015 269.535,-658.741 251.698,-678.253 225.663,-706.731 199.841,-686.829 172.698,-714.253 154.668,-732.468 142.341,-758.004 134.233,-780.599"/>
<polygon fill="black" stroke="black" points="130.917,-779.479 131.012,-790.073 137.544,-781.732 130.917,-779.479"/>
</g>
<!-- o36&#45;&gt;e(e(e(e(o10o18)o44)o30)o8) -->
<g id="edge29" class="edge"><title>o36&#45;&gt;e(e(e(e(o10o18)o44)o30)o8)</title>
<path fill="none" stroke="black" d="M285.753,-608.062C286.809,-631.799 288.519,-670.22 290.225,-708.563"/>
<polygon fill="black" stroke="black" points="286.741,-708.995 290.682,-718.83 293.734,-708.684 286.741,-708.995"/>
</g>
<!-- o48&#45;&gt;e(e(e(e(e(o10o18)o44)o30)o26)o50) -->
<g id="edge8" class="edge"><title>o48&#45;&gt;e(e(e(e(e(o10o18)o44)o30)o26)o50)</title>
<path fill="none" stroke="black" d="M359.142,-1035.13C355.975,-1044.6 352.011,-1056.45 347.642,-1069.52"/>
<polygon fill="black" stroke="black" points="344.246,-1068.64 344.394,-1079.24 350.884,-1070.86 344.246,-1068.64"/>
</g>
<!-- e(e(e(e(o10o18)o44)o30)o26)&#45;&gt;e(e(e(e(e(o10o18)o44)o30)o26)o50) -->
<g id="edge9" class="edge"><title>e(e(e(e(o10o18)o44)o30)o26)&#45;&gt;e(e(e(e(e(o10o18)o44)o30)o26)o50)</title>
<path fill="none" stroke="black" d="M505.932,-944.167C492.812,-975.02 476.857,-1007.84 458.698,-1036.23 443.58,-1059.86 425.278,-1083.4 406.549,-1105.23"/>
<polygon fill="black" stroke="black" points="403.823,-1103.04 399.912,-1112.88 409.11,-1107.62 403.823,-1103.04"/>
</g>
<!-- o10&#45;&gt;e(o10o18) -->
<g id="edge36" class="edge"><title>o10&#45;&gt;e(o10o18)</title>
<path fill="none" stroke="black" d="M361.813,-141.294C360.857,-149.146 359.748,-158.254 358.622,-167.503"/>
<polygon fill="black" stroke="black" points="355.135,-167.191 357.4,-177.54 362.083,-168.037 355.135,-167.191"/>
</g>
<!-- o34&#45;&gt;e(o26o8) -->
<g id="edge22" class="edge"><title>o34&#45;&gt;e(o26o8)</title>
<path fill="none" stroke="black" d="M349.599,-608.266C346.439,-629.626 338.524,-660.248 318.698,-678.253 269.222,-723.183 223.916,-671.32 172.698,-714.253 152.757,-730.967 140.188,-756.849 132.414,-780.051"/>
<polygon fill="black" stroke="black" points="129.011,-779.208 129.369,-789.797 135.692,-781.296 129.011,-779.208"/>
</g>
<!-- o34&#45;&gt;e(e(e(e(o10o18)o44)o30)o8) -->
<g id="edge30" class="edge"><title>o34&#45;&gt;e(e(e(e(o10o18)o44)o30)o8)</title>
<path fill="none" stroke="black" d="M346.429,-607.615C340.921,-631.93 331.844,-671.994 322.879,-711.564"/>
<polygon fill="black" stroke="black" points="319.462,-710.806 320.666,-721.332 326.289,-712.353 319.462,-710.806"/>
</g>
<!-- o18&#45;&gt;e(o10o18) -->
<g id="edge34" class="edge"><title>o18&#45;&gt;e(o10o18)</title>
<path fill="none" stroke="black" d="M417.025,-137.18C408.427,-148.657 397.178,-163.674 386.443,-178.004"/>
<polygon fill="black" stroke="black" points="383.4,-176.229 380.206,-186.331 389.002,-180.426 383.4,-176.229"/>
</g>
<!-- o18&#45;&gt;o44 -->
<g id="edge38" class="edge"><title>o18&#45;&gt;o44</title>
<path fill="none" stroke="black" d="M436.745,-141.029C439.891,-155.635 443.989,-174.664 447.476,-190.852"/>
<polygon fill="black" stroke="black" points="444.135,-191.966 449.662,-201.005 450.978,-190.492 444.135,-191.966"/>
</g>
<!-- o4&#45;&gt;e(e(e(e(e(o10o18)o44)o30)o26)o50) -->
<g id="edge6" class="edge"><title>o4&#45;&gt;e(e(e(e(e(o10o18)o44)o30)o26)o50)</title>
<path fill="none" stroke="black" d="M419.059,-1028.93C410.202,-1042.58 396.684,-1063.42 381.886,-1086.23"/>
<polygon fill="black" stroke="black" points="378.889,-1084.42 376.382,-1094.71 384.761,-1088.23 378.889,-1084.42"/>
</g>
<!-- o26&#45;&gt;e(o26o8) -->
<g id="edge24" class="edge"><title>o26&#45;&gt;e(o26o8)</title>
<path fill="none" stroke="black" d="M416.962,-608.199C414.056,-629.819 406.311,-660.886 385.698,-678.253 312.273,-740.112 248.517,-655.353 172.698,-714.253 152.073,-730.275 139.433,-756.224 131.79,-779.647"/>
<polygon fill="black" stroke="black" points="128.356,-778.909 128.811,-789.494 135.057,-780.935 128.356,-778.909"/>
</g>
<!-- o26&#45;&gt;e(e(e(e(o10o18)o44)o30)o26) -->
<g id="edge50" class="edge"><title>o26&#45;&gt;e(e(e(e(o10o18)o44)o30)o26)</title>
<path fill="none" stroke="black" d="M425.584,-607.258C431.728,-626.592 441.472,-654.796 452.698,-678.253 459.887,-693.274 468.133,-708.712 476.68,-723.736"/>
<polygon fill="black" stroke="black" points="473.719,-725.608 481.742,-732.528 479.786,-722.115 473.719,-725.608"/>
</g>
<!-- o32&#45;&gt;e(o26o8) -->
<g id="edge25" class="edge"><title>o32&#45;&gt;e(o26o8)</title>
<path fill="none" stroke="black" d="M32.5727,-606.833C39.32,-625.908 49.3938,-653.969 58.6978,-678.253 72.1362,-713.327 88.0334,-752.59 100.366,-782.599"/>
<polygon fill="black" stroke="black" points="97.1929,-784.086 104.237,-792 103.666,-781.42 97.1929,-784.086"/>
</g>
<!-- o32&#45;&gt;e(e(e(e(o10o18)o44)o30)o8) -->
<g id="edge32" class="edge"><title>o32&#45;&gt;e(e(e(e(o10o18)o44)o30)o8)</title>
<path fill="none" stroke="black" d="M27.3326,-607.998C30.9141,-629.173 39.2829,-659.675 58.6978,-678.253 97.3931,-715.28 127.612,-686.968 173.698,-714.253 186.764,-721.988 199.526,-731.38 211.575,-741.445"/>
<polygon fill="black" stroke="black" points="209.517,-744.291 219.386,-748.146 214.075,-738.978 209.517,-744.291"/>
</g>
<!-- o46&#45;&gt;e(e(e(e(e(o10o18)o44)o30)o26)o50) -->
<g id="edge7" class="edge"><title>o46&#45;&gt;e(e(e(e(e(o10o18)o44)o30)o26)o50)</title>
<path fill="none" stroke="black" d="M186.473,-1032.85C194.794,-1046.08 206.432,-1064.59 219.103,-1084.74"/>
<polygon fill="black" stroke="black" points="216.303,-1086.86 224.589,-1093.47 222.229,-1083.14 216.303,-1086.86"/>
</g>
<!-- o2&#45;&gt;e(e(e(e(e(o10o18)o44)o30)o26)o50) -->
<g id="edge10" class="edge"><title>o2&#45;&gt;e(e(e(e(e(o10o18)o44)o30)o26)o50)</title>
<path fill="none" stroke="black" d="M242.512,-1031.02C245.61,-1040.88 249.735,-1054 254.355,-1068.69"/>
<polygon fill="black" stroke="black" points="251.119,-1070.07 257.457,-1078.56 257.797,-1067.97 251.119,-1070.07"/>
</g>
</g>
</svg>
