<?xml version="1.0" encoding="UTF-8" standalone="no"?>
<!DOCTYPE svg PUBLIC "-//W3C//DTD SVG 1.1//EN"
 "http://www.w3.org/Graphics/SVG/1.1/DTD/svg11.dtd">
<!-- Generated by graphviz version 2.38.0 (20140413.2041)
 -->
<!-- Title: priss2013&#45;table01_o34_d Pages: 1 -->
<svg width="652pt" height="575pt"
 viewBox="0.00 0.00 652.40 575.37" xmlns="http://www.w3.org/2000/svg" xmlns:xlink="http://www.w3.org/1999/xlink">
<g id="graph0" class="graph" transform="scale(1 1) rotate(0) translate(4 571.366)">
<title>priss2013&#45;table01_o34_d</title>
<polygon fill="white" stroke="none" points="-4,4 -4,-571.366 648.396,-571.366 648.396,4 -4,4"/>
<!-- eBot -->
<g id="node1" class="node"><title>eBot</title>
<ellipse fill="none" stroke="black" cx="319.698" cy="-27.9475" rx="27.8951" ry="27.8951"/>
<text text-anchor="middle" x="319.698" y="-24.2475" font-family="Times New Roman,serif" font-size="14.00">eBot</text>
</g>
<!-- o30 -->
<g id="node10" class="node"><title>o30</title>
<ellipse fill="none" stroke="black" cx="286.698" cy="-116.593" rx="24.8972" ry="24.8972"/>
<text text-anchor="middle" x="286.698" y="-112.893" font-family="Times New Roman,serif" font-size="14.00">o30</text>
</g>
<!-- eBot&#45;&gt;o30 -->
<g id="edge33" class="edge"><title>eBot&#45;&gt;o30</title>
<path fill="none" stroke="black" d="M309.975,-54.4753C306.504,-63.5894 302.548,-73.9751 298.895,-83.5667"/>
<polygon fill="black" stroke="black" points="295.519,-82.5971 295.231,-93.188 302.061,-85.0886 295.519,-82.5971"/>
</g>
<!-- o36 -->
<g id="node12" class="node"><title>o36</title>
<ellipse fill="none" stroke="black" cx="353.698" cy="-116.593" rx="24.8972" ry="24.8972"/>
<text text-anchor="middle" x="353.698" y="-112.893" font-family="Times New Roman,serif" font-size="14.00">o36</text>
</g>
<!-- eBot&#45;&gt;o36 -->
<g id="edge35" class="edge"><title>eBot&#45;&gt;o36</title>
<path fill="none" stroke="black" d="M329.715,-54.4753C333.329,-63.6853 337.453,-74.1939 341.249,-83.8693"/>
<polygon fill="black" stroke="black" points="337.995,-85.1576 344.906,-93.188 344.511,-82.6005 337.995,-85.1576"/>
</g>
<!-- o8 -->
<g id="node2" class="node"><title>o8</title>
<ellipse fill="none" stroke="black" cx="288.698" cy="-334.18" rx="20.2975" ry="20.2975"/>
<text text-anchor="middle" x="288.698" y="-330.48" font-family="Times New Roman,serif" font-size="14.00">o8</text>
</g>
<!-- o50 -->
<g id="node7" class="node"><title>o50</title>
<ellipse fill="none" stroke="black" cx="187.698" cy="-419.576" rx="24.8972" ry="24.8972"/>
<text text-anchor="middle" x="187.698" y="-415.876" font-family="Times New Roman,serif" font-size="14.00">o50</text>
</g>
<!-- o8&#45;&gt;o50 -->
<g id="edge12" class="edge"><title>o8&#45;&gt;o50</title>
<path fill="none" stroke="black" d="M273.358,-347.846C257.687,-360.786 233.048,-381.13 214.21,-396.684"/>
<polygon fill="black" stroke="black" points="211.759,-394.17 206.276,-403.235 216.216,-399.567 211.759,-394.17"/>
</g>
<!-- o44 -->
<g id="node8" class="node"><title>o44</title>
<ellipse fill="none" stroke="black" cx="254.698" cy="-419.576" rx="24.8972" ry="24.8972"/>
<text text-anchor="middle" x="254.698" y="-415.876" font-family="Times New Roman,serif" font-size="14.00">o44</text>
</g>
<!-- o8&#45;&gt;o44 -->
<g id="edge22" class="edge"><title>o8&#45;&gt;o44</title>
<path fill="none" stroke="black" d="M281.32,-353.276C277.332,-363.057 272.291,-375.422 267.671,-386.755"/>
<polygon fill="black" stroke="black" points="264.29,-385.776 263.756,-396.357 270.772,-388.418 264.29,-385.776"/>
</g>
<!-- o48 -->
<g id="node14" class="node"><title>o48</title>
<ellipse fill="none" stroke="black" cx="321.698" cy="-419.576" rx="24.8972" ry="24.8972"/>
<text text-anchor="middle" x="321.698" y="-415.876" font-family="Times New Roman,serif" font-size="14.00">o48</text>
</g>
<!-- o8&#45;&gt;o48 -->
<g id="edge38" class="edge"><title>o8&#45;&gt;o48</title>
<path fill="none" stroke="black" d="M295.858,-353.276C299.729,-363.057 304.622,-375.422 309.106,-386.755"/>
<polygon fill="black" stroke="black" points="305.972,-388.346 312.906,-396.357 312.481,-385.771 305.972,-388.346"/>
</g>
<!-- o4 -->
<g id="node17" class="node"><title>o4</title>
<ellipse fill="none" stroke="black" cx="384.698" cy="-419.576" rx="20.2975" ry="20.2975"/>
<text text-anchor="middle" x="384.698" y="-415.876" font-family="Times New Roman,serif" font-size="14.00">o4</text>
</g>
<!-- o8&#45;&gt;o4 -->
<g id="edge50" class="edge"><title>o8&#45;&gt;o4</title>
<path fill="none" stroke="black" d="M303.698,-348.21C319.338,-361.797 344.037,-383.253 362.053,-398.904"/>
<polygon fill="black" stroke="black" points="359.959,-401.721 369.803,-405.636 364.549,-396.436 359.959,-401.721"/>
</g>
<!-- o26 -->
<g id="node18" class="node"><title>o26</title>
<ellipse fill="none" stroke="black" cx="447.698" cy="-419.576" rx="24.8972" ry="24.8972"/>
<text text-anchor="middle" x="447.698" y="-415.876" font-family="Times New Roman,serif" font-size="14.00">o26</text>
</g>
<!-- o8&#45;&gt;o26 -->
<g id="edge60" class="edge"><title>o8&#45;&gt;o26</title>
<path fill="none" stroke="black" d="M303.067,-348.47C307.535,-352.165 312.625,-355.96 317.698,-358.878 357.198,-381.596 373.358,-373.684 413.698,-394.878 415.716,-395.938 417.756,-397.099 419.78,-398.319"/>
<polygon fill="black" stroke="black" points="418.151,-401.434 428.449,-403.923 421.951,-395.555 418.151,-401.434"/>
</g>
<!-- o46 -->
<g id="node21" class="node"><title>o46</title>
<ellipse fill="none" stroke="black" cx="514.698" cy="-419.576" rx="24.8972" ry="24.8972"/>
<text text-anchor="middle" x="514.698" y="-415.876" font-family="Times New Roman,serif" font-size="14.00">o46</text>
</g>
<!-- o8&#45;&gt;o46 -->
<g id="edge72" class="edge"><title>o8&#45;&gt;o46</title>
<path fill="none" stroke="black" d="M302.82,-348.936C307.282,-352.644 312.43,-356.329 317.698,-358.878 384.873,-391.377 413.542,-364.488 481.698,-394.878 483.534,-395.696 485.37,-396.626 487.184,-397.633"/>
<polygon fill="black" stroke="black" points="485.627,-400.789 495.958,-403.141 489.349,-394.86 485.627,-400.789"/>
</g>
<!-- o2 -->
<g id="node22" class="node"><title>o2</title>
<ellipse fill="none" stroke="black" cx="124.698" cy="-419.576" rx="20.2975" ry="20.2975"/>
<text text-anchor="middle" x="124.698" y="-415.876" font-family="Times New Roman,serif" font-size="14.00">o2</text>
</g>
<!-- o8&#45;&gt;o2 -->
<g id="edge82" class="edge"><title>o8&#45;&gt;o2</title>
<path fill="none" stroke="black" d="M274.386,-348.571C269.919,-352.269 264.816,-356.04 259.698,-358.878 216.185,-383.004 197.211,-370.752 153.698,-394.878 151.459,-396.119 149.223,-397.539 147.041,-399.054"/>
<polygon fill="black" stroke="black" points="144.835,-396.335 139.01,-405.185 149.082,-401.899 144.835,-396.335"/>
</g>
<!-- o40 -->
<g id="node3" class="node"><title>o40</title>
<ellipse fill="none" stroke="black" cx="351.698" cy="-334.18" rx="24.8972" ry="24.8972"/>
<text text-anchor="middle" x="351.698" y="-330.48" font-family="Times New Roman,serif" font-size="14.00">o40</text>
</g>
<!-- o40&#45;&gt;o50 -->
<g id="edge13" class="edge"><title>o40&#45;&gt;o50</title>
<path fill="none" stroke="black" d="M332.456,-349.845C327.769,-353.06 322.67,-356.276 317.698,-358.878 276.953,-380.196 261.291,-373.274 220.698,-394.878 218.923,-395.822 217.135,-396.85 215.358,-397.931"/>
<polygon fill="black" stroke="black" points="213.112,-395.219 206.681,-403.639 216.959,-401.067 213.112,-395.219"/>
</g>
<!-- o40&#45;&gt;o44 -->
<g id="edge23" class="edge"><title>o40&#45;&gt;o44</title>
<path fill="none" stroke="black" d="M333.453,-350.866C318.644,-363.598 297.569,-381.717 280.946,-396.008"/>
<polygon fill="black" stroke="black" points="278.492,-393.503 273.191,-402.676 283.055,-398.811 278.492,-393.503"/>
</g>
<!-- o40&#45;&gt;o48 -->
<g id="edge39" class="edge"><title>o40&#45;&gt;o48</title>
<path fill="none" stroke="black" d="M343.5,-357.968C340.333,-366.773 336.652,-377.006 333.226,-386.527"/>
<polygon fill="black" stroke="black" points="329.873,-385.509 329.782,-396.104 336.46,-387.879 329.873,-385.509"/>
</g>
<!-- o40&#45;&gt;o4 -->
<g id="edge51" class="edge"><title>o40&#45;&gt;o4</title>
<path fill="none" stroke="black" d="M360.541,-357.528C364.634,-367.872 369.534,-380.255 373.849,-391.158"/>
<polygon fill="black" stroke="black" points="370.672,-392.642 377.606,-400.653 377.181,-390.067 370.672,-392.642"/>
</g>
<!-- o40&#45;&gt;o26 -->
<g id="edge61" class="edge"><title>o40&#45;&gt;o26</title>
<path fill="none" stroke="black" d="M370.208,-351.259C384.816,-363.95 405.376,-381.81 421.647,-395.945"/>
<polygon fill="black" stroke="black" points="419.4,-398.63 429.245,-402.545 423.991,-393.345 419.4,-398.63"/>
</g>
<!-- o40&#45;&gt;o46 -->
<g id="edge73" class="edge"><title>o40&#45;&gt;o46</title>
<path fill="none" stroke="black" d="M370.681,-350.117C375.135,-353.248 379.966,-356.359 384.698,-358.878 425.291,-380.482 441.104,-373.274 481.698,-394.878 483.472,-395.822 485.261,-396.85 487.038,-397.931"/>
<polygon fill="black" stroke="black" points="485.437,-401.067 495.715,-403.639 489.284,-395.219 485.437,-401.067"/>
</g>
<!-- o40&#45;&gt;o2 -->
<g id="edge83" class="edge"><title>o40&#45;&gt;o2</title>
<path fill="none" stroke="black" d="M332.701,-350.356C328.004,-353.55 322.839,-356.628 317.698,-358.878 249.33,-388.788 220.873,-362.378 153.698,-394.878 151.393,-395.993 149.111,-397.325 146.9,-398.782"/>
<polygon fill="black" stroke="black" points="144.736,-396.03 138.82,-404.82 148.926,-401.638 144.736,-396.03"/>
</g>
<!-- e(o2o50) -->
<g id="node4" class="node"><title>e(o2o50)</title>
<ellipse fill="none" stroke="black" cx="321.698" cy="-523.819" rx="43.5923" ry="43.5923"/>
<text text-anchor="middle" x="321.698" y="-520.119" font-family="Times New Roman,serif" font-size="14.00">e(o2o50)</text>
</g>
<!-- o38 -->
<g id="node5" class="node"><title>o38</title>
<ellipse fill="none" stroke="black" cx="418.698" cy="-334.18" rx="24.8972" ry="24.8972"/>
<text text-anchor="middle" x="418.698" y="-330.48" font-family="Times New Roman,serif" font-size="14.00">o38</text>
</g>
<!-- o38&#45;&gt;o50 -->
<g id="edge17" class="edge"><title>o38&#45;&gt;o50</title>
<path fill="none" stroke="black" d="M399.96,-350.619C395.493,-353.724 390.595,-356.698 385.698,-358.878 317.126,-389.401 289.27,-364.354 220.698,-394.878 218.861,-395.695 217.025,-396.624 215.211,-397.63"/>
<polygon fill="black" stroke="black" points="213.046,-394.857 206.436,-403.137 216.767,-400.786 213.046,-394.857"/>
</g>
<!-- o38&#45;&gt;o44 -->
<g id="edge27" class="edge"><title>o38&#45;&gt;o44</title>
<path fill="none" stroke="black" d="M399.721,-350.128C395.267,-353.259 390.434,-356.367 385.698,-358.878 344.7,-380.609 328.696,-373.146 287.698,-394.878 285.922,-395.819 284.132,-396.845 282.354,-397.924"/>
<polygon fill="black" stroke="black" points="280.11,-395.21 273.675,-403.627 283.954,-401.061 280.11,-395.21"/>
</g>
<!-- o38&#45;&gt;o48 -->
<g id="edge43" class="edge"><title>o38&#45;&gt;o48</title>
<path fill="none" stroke="black" d="M400.453,-350.866C385.644,-363.598 364.569,-381.717 347.946,-396.008"/>
<polygon fill="black" stroke="black" points="345.492,-393.503 340.191,-402.676 350.055,-398.811 345.492,-393.503"/>
</g>
<!-- o38&#45;&gt;o4 -->
<g id="edge55" class="edge"><title>o38&#45;&gt;o4</title>
<path fill="none" stroke="black" d="M409.586,-357.528C405.37,-367.872 400.321,-380.255 395.876,-391.158"/>
<polygon fill="black" stroke="black" points="392.539,-390.072 392.005,-400.653 399.021,-392.714 392.539,-390.072"/>
</g>
<!-- o38&#45;&gt;o26 -->
<g id="edge65" class="edge"><title>o38&#45;&gt;o26</title>
<path fill="none" stroke="black" d="M426.622,-357.968C429.684,-366.773 433.242,-377.006 436.553,-386.527"/>
<polygon fill="black" stroke="black" points="433.293,-387.808 439.883,-396.104 439.905,-385.509 433.293,-387.808"/>
</g>
<!-- o38&#45;&gt;o46 -->
<g id="edge77" class="edge"><title>o38&#45;&gt;o46</title>
<path fill="none" stroke="black" d="M437.208,-351.259C451.816,-363.95 472.376,-381.81 488.647,-395.945"/>
<polygon fill="black" stroke="black" points="486.4,-398.63 496.245,-402.545 490.991,-393.345 486.4,-398.63"/>
</g>
<!-- o38&#45;&gt;o2 -->
<g id="edge87" class="edge"><title>o38&#45;&gt;o2</title>
<path fill="none" stroke="black" d="M400.055,-350.841C395.583,-353.935 390.659,-356.848 385.698,-358.878 289.123,-398.39 248.994,-352.374 153.698,-394.878 151.36,-395.921 149.055,-397.203 146.828,-398.627"/>
<polygon fill="black" stroke="black" points="144.689,-395.856 138.724,-404.612 148.847,-401.487 144.689,-395.856"/>
</g>
<!-- o16 -->
<g id="node6" class="node"><title>o16</title>
<ellipse fill="none" stroke="black" cx="485.698" cy="-334.18" rx="24.8972" ry="24.8972"/>
<text text-anchor="middle" x="485.698" y="-330.48" font-family="Times New Roman,serif" font-size="14.00">o16</text>
</g>
<!-- o16&#45;&gt;o50 -->
<g id="edge21" class="edge"><title>o16&#45;&gt;o50</title>
<path fill="none" stroke="black" d="M467.055,-350.841C462.583,-353.935 457.659,-356.848 452.698,-358.878 356.123,-398.39 317.272,-355.365 220.698,-394.878 218.837,-395.639 216.982,-396.524 215.154,-397.497"/>
<polygon fill="black" stroke="black" points="213.027,-394.696 206.341,-402.914 216.693,-400.659 213.027,-394.696"/>
</g>
<!-- o16&#45;&gt;o44 -->
<g id="edge31" class="edge"><title>o16&#45;&gt;o44</title>
<path fill="none" stroke="black" d="M466.96,-350.619C462.493,-353.724 457.595,-356.698 452.698,-358.878 384.126,-389.401 356.27,-364.354 287.698,-394.878 285.861,-395.695 284.025,-396.624 282.211,-397.63"/>
<polygon fill="black" stroke="black" points="280.046,-394.857 273.436,-403.137 283.767,-400.786 280.046,-394.857"/>
</g>
<!-- o16&#45;&gt;o48 -->
<g id="edge47" class="edge"><title>o16&#45;&gt;o48</title>
<path fill="none" stroke="black" d="M466.715,-350.117C462.261,-353.248 457.43,-356.359 452.698,-358.878 412.104,-380.482 396.442,-373.56 355.698,-394.878 353.678,-395.935 351.637,-397.093 349.611,-398.312"/>
<polygon fill="black" stroke="black" points="347.442,-395.546 340.94,-403.911 351.239,-401.426 347.442,-395.546"/>
</g>
<!-- o16&#45;&gt;o4 -->
<g id="edge59" class="edge"><title>o16&#45;&gt;o4</title>
<path fill="none" stroke="black" d="M466.7,-350.866C450.102,-364.571 425.944,-384.518 408.146,-399.214"/>
<polygon fill="black" stroke="black" points="405.464,-396.89 399.981,-405.956 409.921,-402.288 405.464,-396.89"/>
</g>
<!-- o16&#45;&gt;o26 -->
<g id="edge69" class="edge"><title>o16&#45;&gt;o26</title>
<path fill="none" stroke="black" d="M475.714,-357.091C471.481,-366.38 466.471,-377.375 461.867,-387.48"/>
<polygon fill="black" stroke="black" points="458.577,-386.26 457.615,-396.811 464.947,-389.162 458.577,-386.26"/>
</g>
<!-- o16&#45;&gt;o46 -->
<g id="edge81" class="edge"><title>o16&#45;&gt;o46</title>
<path fill="none" stroke="black" d="M493.622,-357.968C496.684,-366.773 500.242,-377.006 503.553,-386.527"/>
<polygon fill="black" stroke="black" points="500.293,-387.808 506.883,-396.104 506.905,-385.509 500.293,-387.808"/>
</g>
<!-- o16&#45;&gt;o2 -->
<g id="edge91" class="edge"><title>o16&#45;&gt;o2</title>
<path fill="none" stroke="black" d="M467.105,-350.967C462.631,-354.054 457.693,-356.933 452.698,-358.878 327.97,-407.442 276.851,-342.45 153.698,-394.878 151.29,-395.903 148.922,-397.191 146.642,-398.635"/>
<polygon fill="black" stroke="black" points="144.338,-395.985 138.377,-404.744 148.499,-401.614 144.338,-395.985"/>
</g>
<!-- o50&#45;&gt;e(o2o50) -->
<g id="edge3" class="edge"><title>o50&#45;&gt;e(o2o50)</title>
<path fill="none" stroke="black" d="M206.897,-435.225C225.752,-449.611 255.146,-472.039 279.47,-490.599"/>
<polygon fill="black" stroke="black" points="277.429,-493.444 287.502,-496.728 281.675,-487.879 277.429,-493.444"/>
</g>
<!-- o44&#45;&gt;e(o2o50) -->
<g id="edge4" class="edge"><title>o44&#45;&gt;e(o2o50)</title>
<path fill="none" stroke="black" d="M267.935,-440.776C275.005,-451.565 284.004,-465.298 292.608,-478.427"/>
<polygon fill="black" stroke="black" points="289.772,-480.486 298.181,-486.932 295.627,-476.649 289.772,-480.486"/>
</g>
<!-- o28 -->
<g id="node9" class="node"><title>o28</title>
<ellipse fill="none" stroke="black" cx="552.698" cy="-334.18" rx="24.8972" ry="24.8972"/>
<text text-anchor="middle" x="552.698" y="-330.48" font-family="Times New Roman,serif" font-size="14.00">o28</text>
</g>
<!-- o28&#45;&gt;o50 -->
<g id="edge14" class="edge"><title>o28&#45;&gt;o50</title>
<path fill="none" stroke="black" d="M534.105,-350.967C529.631,-354.054 524.693,-356.933 519.698,-358.878 394.97,-407.442 345.425,-346.313 220.698,-394.878 218.825,-395.607 216.959,-396.468 215.124,-397.421"/>
<polygon fill="black" stroke="black" points="213.02,-394.605 206.291,-402.788 216.654,-400.587 213.02,-394.605"/>
</g>
<!-- o28&#45;&gt;o44 -->
<g id="edge24" class="edge"><title>o28&#45;&gt;o44</title>
<path fill="none" stroke="black" d="M534.055,-350.841C529.583,-353.935 524.659,-356.848 519.698,-358.878 423.123,-398.39 384.272,-355.365 287.698,-394.878 285.837,-395.639 283.982,-396.524 282.154,-397.497"/>
<polygon fill="black" stroke="black" points="280.027,-394.696 273.341,-402.914 283.693,-400.659 280.027,-394.696"/>
</g>
<!-- o28&#45;&gt;o48 -->
<g id="edge40" class="edge"><title>o28&#45;&gt;o48</title>
<path fill="none" stroke="black" d="M533.958,-350.614C529.491,-353.719 524.594,-356.695 519.698,-358.878 451.542,-389.268 424.066,-364.968 355.698,-394.878 353.609,-395.792 351.516,-396.842 349.453,-397.982"/>
<polygon fill="black" stroke="black" points="347.358,-395.162 340.695,-403.4 351.04,-401.115 347.358,-395.162"/>
</g>
<!-- o28&#45;&gt;o4 -->
<g id="edge52" class="edge"><title>o28&#45;&gt;o4</title>
<path fill="none" stroke="black" d="M533.766,-350.215C529.31,-353.341 524.465,-356.426 519.698,-358.878 475.454,-381.636 457.211,-370.752 413.698,-394.878 411.459,-396.119 409.223,-397.539 407.041,-399.054"/>
<polygon fill="black" stroke="black" points="404.835,-396.335 399.01,-405.185 409.082,-401.899 404.835,-396.335"/>
</g>
<!-- o28&#45;&gt;o26 -->
<g id="edge62" class="edge"><title>o28&#45;&gt;o26</title>
<path fill="none" stroke="black" d="M533.439,-350.476C517.01,-363.525 493.203,-382.433 474.841,-397.017"/>
<polygon fill="black" stroke="black" points="472.488,-394.416 466.834,-403.376 476.842,-399.898 472.488,-394.416"/>
</g>
<!-- o28&#45;&gt;o46 -->
<g id="edge74" class="edge"><title>o28&#45;&gt;o46</title>
<path fill="none" stroke="black" d="M542.714,-357.091C538.481,-366.38 533.471,-377.375 528.867,-387.48"/>
<polygon fill="black" stroke="black" points="525.577,-386.26 524.615,-396.811 531.947,-389.162 525.577,-386.26"/>
</g>
<!-- o28&#45;&gt;o2 -->
<g id="edge84" class="edge"><title>o28&#45;&gt;o2</title>
<path fill="none" stroke="black" d="M534.136,-351.048C529.66,-354.131 524.714,-356.987 519.698,-358.878 366.748,-416.521 304.777,-332.496 153.698,-394.878 151.279,-395.877 148.904,-397.147 146.618,-398.579"/>
<polygon fill="black" stroke="black" points="144.323,-395.923 138.346,-404.67 148.474,-401.559 144.323,-395.923"/>
</g>
<!-- e(o30o36) -->
<g id="node13" class="node"><title>e(o30o36)</title>
<ellipse fill="none" stroke="black" cx="319.698" cy="-225.386" rx="48.1917" ry="48.1917"/>
<text text-anchor="middle" x="319.698" y="-221.686" font-family="Times New Roman,serif" font-size="14.00">e(o30o36)</text>
</g>
<!-- o30&#45;&gt;e(o30o36) -->
<g id="edge37" class="edge"><title>o30&#45;&gt;e(o30o36)</title>
<path fill="none" stroke="black" d="M293.777,-140.503C296.418,-149.049 299.543,-159.161 302.692,-169.353"/>
<polygon fill="black" stroke="black" points="299.408,-170.58 305.704,-179.101 306.096,-168.514 299.408,-170.58"/>
</g>
<!-- o20 -->
<g id="node11" class="node"><title>o20</title>
<ellipse fill="none" stroke="black" cx="619.698" cy="-334.18" rx="24.8972" ry="24.8972"/>
<text text-anchor="middle" x="619.698" y="-330.48" font-family="Times New Roman,serif" font-size="14.00">o20</text>
</g>
<!-- o20&#45;&gt;o50 -->
<g id="edge15" class="edge"><title>o20&#45;&gt;o50</title>
<path fill="none" stroke="black" d="M601.136,-351.048C596.66,-354.131 591.714,-356.987 586.698,-358.878 433.748,-416.521 373.648,-337.235 220.698,-394.878 218.817,-395.587 216.946,-396.431 215.105,-397.373"/>
<polygon fill="black" stroke="black" points="213.016,-394.546 206.26,-402.707 216.631,-400.54 213.016,-394.546"/>
</g>
<!-- o20&#45;&gt;o44 -->
<g id="edge25" class="edge"><title>o20&#45;&gt;o44</title>
<path fill="none" stroke="black" d="M601.105,-350.967C596.631,-354.054 591.693,-356.933 586.698,-358.878 461.97,-407.442 412.425,-346.313 287.698,-394.878 285.825,-395.607 283.959,-396.468 282.124,-397.421"/>
<polygon fill="black" stroke="black" points="280.02,-394.605 273.291,-402.788 283.654,-400.587 280.02,-394.605"/>
</g>
<!-- o20&#45;&gt;o48 -->
<g id="edge41" class="edge"><title>o20&#45;&gt;o48</title>
<path fill="none" stroke="black" d="M601.054,-350.839C596.582,-353.932 591.659,-356.846 586.698,-358.878 490.543,-398.256 452.128,-356.177 355.698,-394.878 353.582,-395.727 351.469,-396.729 349.39,-397.833"/>
<polygon fill="black" stroke="black" points="347.331,-394.989 340.598,-403.169 350.963,-400.973 347.331,-394.989"/>
</g>
<!-- o20&#45;&gt;o4 -->
<g id="edge53" class="edge"><title>o20&#45;&gt;o4</title>
<path fill="none" stroke="black" d="M600.975,-350.654C596.508,-353.757 591.606,-356.721 586.698,-358.878 514.796,-390.469 484.58,-361.061 413.698,-394.878 411.387,-395.98 409.101,-397.304 406.887,-398.755"/>
<polygon fill="black" stroke="black" points="404.727,-396 398.803,-404.784 408.912,-401.611 404.727,-396"/>
</g>
<!-- o20&#45;&gt;o26 -->
<g id="edge63" class="edge"><title>o20&#45;&gt;o26</title>
<path fill="none" stroke="black" d="M600.766,-350.215C596.31,-353.341 591.465,-356.426 586.698,-358.878 542.454,-381.636 524.942,-372.119 480.698,-394.878 478.91,-395.797 477.112,-396.806 475.327,-397.872"/>
<polygon fill="black" stroke="black" points="473.096,-395.148 466.629,-403.54 476.918,-401.012 473.096,-395.148"/>
</g>
<!-- o20&#45;&gt;o46 -->
<g id="edge75" class="edge"><title>o20&#45;&gt;o46</title>
<path fill="none" stroke="black" d="M600.439,-350.476C584.01,-363.525 560.203,-382.433 541.841,-397.017"/>
<polygon fill="black" stroke="black" points="539.488,-394.416 533.834,-403.376 543.842,-399.898 539.488,-394.416"/>
</g>
<!-- o20&#45;&gt;o2 -->
<g id="edge85" class="edge"><title>o20&#45;&gt;o2</title>
<path fill="none" stroke="black" d="M601.157,-351.104C596.68,-354.184 591.728,-357.025 586.698,-358.878 405.488,-425.614 332.74,-322.527 153.698,-394.878 151.271,-395.858 148.891,-397.116 146.602,-398.54"/>
<polygon fill="black" stroke="black" points="144.314,-395.879 138.325,-404.619 148.457,-401.521 144.314,-395.879"/>
</g>
<!-- o36&#45;&gt;e(o30o36) -->
<g id="edge36" class="edge"><title>o36&#45;&gt;e(o30o36)</title>
<path fill="none" stroke="black" d="M346.487,-140.241C343.711,-148.96 340.407,-159.339 337.083,-169.779"/>
<polygon fill="black" stroke="black" points="333.739,-168.748 334.04,-179.338 340.409,-170.871 333.739,-168.748"/>
</g>
<!-- e(o30o36)&#45;&gt;o8 -->
<g id="edge1" class="edge"><title>e(o30o36)&#45;&gt;o8</title>
<path fill="none" stroke="black" d="M306.551,-271.676C303.259,-283.018 299.822,-294.859 296.852,-305.088"/>
<polygon fill="black" stroke="black" points="293.488,-304.122 294.062,-314.702 300.211,-306.074 293.488,-304.122"/>
</g>
<!-- e(o30o36)&#45;&gt;o40 -->
<g id="edge2" class="edge"><title>e(o30o36)&#45;&gt;o40</title>
<path fill="none" stroke="black" d="M333.269,-271.676C336.165,-281.342 339.17,-291.37 341.892,-300.454"/>
<polygon fill="black" stroke="black" points="338.601,-301.665 344.824,-310.239 345.306,-299.655 338.601,-301.665"/>
</g>
<!-- e(o30o36)&#45;&gt;o38 -->
<g id="edge10" class="edge"><title>e(o30o36)&#45;&gt;o38</title>
<path fill="none" stroke="black" d="M352.114,-261.355C366.293,-276.65 382.604,-294.244 395.533,-308.191"/>
<polygon fill="black" stroke="black" points="392.967,-310.572 402.333,-315.526 398.101,-305.813 392.967,-310.572"/>
</g>
<!-- e(o30o36)&#45;&gt;o16 -->
<g id="edge11" class="edge"><title>e(o30o36)&#45;&gt;o16</title>
<path fill="none" stroke="black" d="M360.583,-250.992C387.113,-267.188 422.282,-289.09 452.698,-309.482 454.324,-310.572 455.985,-311.704 457.654,-312.857"/>
<polygon fill="black" stroke="black" points="455.755,-315.8 465.949,-318.685 459.779,-310.072 455.755,-315.8"/>
</g>
<!-- e(o30o36)&#45;&gt;o28 -->
<g id="edge32" class="edge"><title>e(o30o36)&#45;&gt;o28</title>
<path fill="none" stroke="black" d="M365.154,-241.883C406.61,-256.797 468.95,-281.21 519.698,-309.482 521.454,-310.46 523.228,-311.515 524.994,-312.616"/>
<polygon fill="black" stroke="black" points="523.379,-315.745 533.642,-318.377 527.26,-309.92 523.379,-315.745"/>
</g>
<!-- e(o30o36)&#45;&gt;o20 -->
<g id="edge34" class="edge"><title>e(o30o36)&#45;&gt;o20</title>
<path fill="none" stroke="black" d="M366.779,-236.199C421.523,-248.69 513.698,-273.11 586.698,-309.482 588.497,-310.379 590.305,-311.369 592.097,-312.422"/>
<polygon fill="black" stroke="black" points="590.514,-315.566 600.812,-318.053 594.313,-309.687 590.514,-315.566"/>
</g>
<!-- o10 -->
<g id="node15" class="node"><title>o10</title>
<ellipse fill="none" stroke="black" cx="24.6978" cy="-334.18" rx="24.8972" ry="24.8972"/>
<text text-anchor="middle" x="24.6978" y="-330.48" font-family="Times New Roman,serif" font-size="14.00">o10</text>
</g>
<!-- e(o30o36)&#45;&gt;o10 -->
<g id="edge48" class="edge"><title>e(o30o36)&#45;&gt;o10</title>
<path fill="none" stroke="black" d="M272.544,-236.577C218.72,-249.276 128.929,-273.75 57.6978,-309.482 55.901,-310.383 54.0953,-311.378 52.3048,-312.433"/>
<polygon fill="black" stroke="black" points="50.0857,-309.7 43.5928,-318.073 53.8895,-315.577 50.0857,-309.7"/>
</g>
<!-- o18 -->
<g id="node16" class="node"><title>o18</title>
<ellipse fill="none" stroke="black" cx="91.6978" cy="-334.18" rx="24.8972" ry="24.8972"/>
<text text-anchor="middle" x="91.6978" y="-330.48" font-family="Times New Roman,serif" font-size="14.00">o18</text>
</g>
<!-- e(o30o36)&#45;&gt;o18 -->
<g id="edge49" class="edge"><title>e(o30o36)&#45;&gt;o18</title>
<path fill="none" stroke="black" d="M274.621,-242.354C234.222,-257.414 173.92,-281.768 124.698,-309.482 122.946,-310.468 121.176,-311.529 119.412,-312.635"/>
<polygon fill="black" stroke="black" points="117.141,-309.942 110.771,-318.409 121.031,-315.762 117.141,-309.942"/>
</g>
<!-- o32 -->
<g id="node19" class="node"><title>o32</title>
<ellipse fill="none" stroke="black" cx="158.698" cy="-334.18" rx="24.8972" ry="24.8972"/>
<text text-anchor="middle" x="158.698" y="-330.48" font-family="Times New Roman,serif" font-size="14.00">o32</text>
</g>
<!-- e(o30o36)&#45;&gt;o32 -->
<g id="edge70" class="edge"><title>e(o30o36)&#45;&gt;o32</title>
<path fill="none" stroke="black" d="M279.31,-251.919C253.956,-268.117 220.685,-289.681 191.698,-309.482 190.082,-310.586 188.428,-311.729 186.764,-312.89"/>
<polygon fill="black" stroke="black" points="184.631,-310.112 178.485,-318.742 188.671,-315.828 184.631,-310.112"/>
</g>
<!-- o14 -->
<g id="node20" class="node"><title>o14</title>
<ellipse fill="none" stroke="black" cx="225.698" cy="-334.18" rx="24.8972" ry="24.8972"/>
<text text-anchor="middle" x="225.698" y="-330.48" font-family="Times New Roman,serif" font-size="14.00">o14</text>
</g>
<!-- e(o30o36)&#45;&gt;o14 -->
<g id="edge71" class="edge"><title>e(o30o36)&#45;&gt;o14</title>
<path fill="none" stroke="black" d="M288.397,-261.947C275.271,-276.859 260.3,-293.868 248.279,-307.525"/>
<polygon fill="black" stroke="black" points="245.559,-305.319 241.579,-315.137 250.813,-309.944 245.559,-305.319"/>
</g>
<!-- o48&#45;&gt;e(o2o50) -->
<g id="edge6" class="edge"><title>o48&#45;&gt;e(o2o50)</title>
<path fill="none" stroke="black" d="M321.698,-444.289C321.698,-452.004 321.698,-460.902 321.698,-469.874"/>
<polygon fill="black" stroke="black" points="318.198,-469.977 321.698,-479.977 325.198,-469.977 318.198,-469.977"/>
</g>
<!-- o10&#45;&gt;o50 -->
<g id="edge16" class="edge"><title>o10&#45;&gt;o50</title>
<path fill="none" stroke="black" d="M43.6872,-350.105C48.1408,-353.236 52.97,-356.351 57.6978,-358.878 97.8873,-380.354 113.358,-373.684 153.698,-394.878 155.716,-395.938 157.756,-397.099 159.78,-398.319"/>
<polygon fill="black" stroke="black" points="158.151,-401.434 168.449,-403.923 161.951,-395.555 158.151,-401.434"/>
</g>
<!-- o10&#45;&gt;o44 -->
<g id="edge26" class="edge"><title>o10&#45;&gt;o44</title>
<path fill="none" stroke="black" d="M43.438,-350.614C47.9045,-353.719 52.8019,-356.695 57.6978,-358.878 125.854,-389.268 153.542,-364.488 221.698,-394.878 223.534,-395.696 225.37,-396.626 227.184,-397.633"/>
<polygon fill="black" stroke="black" points="225.627,-400.789 235.958,-403.141 229.349,-394.86 225.627,-400.789"/>
</g>
<!-- o10&#45;&gt;o48 -->
<g id="edge42" class="edge"><title>o10&#45;&gt;o48</title>
<path fill="none" stroke="black" d="M43.3419,-350.839C47.8134,-353.932 52.7371,-356.846 57.6978,-358.878 153.853,-398.256 192.543,-355.5 288.698,-394.878 290.558,-395.64 292.413,-396.525 294.241,-397.498"/>
<polygon fill="black" stroke="black" points="292.702,-400.661 303.054,-402.917 296.368,-394.697 292.702,-400.661"/>
</g>
<!-- o10&#45;&gt;o4 -->
<g id="edge54" class="edge"><title>o10&#45;&gt;o4</title>
<path fill="none" stroke="black" d="M43.2912,-350.966C47.7653,-354.053 52.7029,-356.932 57.6978,-358.878 182.005,-407.307 232.961,-342.598 355.698,-394.878 358.106,-395.903 360.473,-397.192 362.753,-398.636"/>
<polygon fill="black" stroke="black" points="360.896,-401.615 371.018,-404.746 365.057,-395.987 360.896,-401.615"/>
</g>
<!-- o10&#45;&gt;o26 -->
<g id="edge64" class="edge"><title>o10&#45;&gt;o26</title>
<path fill="none" stroke="black" d="M43.2635,-351.038C47.739,-354.121 52.6842,-356.98 57.6978,-358.878 206.433,-415.165 264.571,-339.639 413.698,-394.878 415.836,-395.67 417.965,-396.629 420.056,-397.701"/>
<polygon fill="black" stroke="black" points="418.496,-400.846 428.876,-402.964 422.083,-394.835 418.496,-400.846"/>
</g>
<!-- o10&#45;&gt;o46 -->
<g id="edge76" class="edge"><title>o10&#45;&gt;o46</title>
<path fill="none" stroke="black" d="M43.2411,-351.098C47.7178,-354.178 52.6692,-357.021 57.6978,-358.878 235.11,-424.392 304.285,-329.364 481.698,-394.878 483.584,-395.574 485.458,-396.409 487.301,-397.343"/>
<polygon fill="black" stroke="black" points="485.779,-400.512 496.155,-402.658 489.382,-394.51 485.779,-400.512"/>
</g>
<!-- o10&#45;&gt;o2 -->
<g id="edge86" class="edge"><title>o10&#45;&gt;o2</title>
<path fill="none" stroke="black" d="M43.507,-350.866C59.941,-364.571 83.8598,-384.518 101.482,-399.214"/>
<polygon fill="black" stroke="black" points="99.6444,-402.24 109.566,-405.956 104.128,-396.864 99.6444,-402.24"/>
</g>
<!-- o18&#45;&gt;o50 -->
<g id="edge18" class="edge"><title>o18&#45;&gt;o50</title>
<path fill="none" stroke="black" d="M110.208,-351.259C124.816,-363.95 145.376,-381.81 161.647,-395.945"/>
<polygon fill="black" stroke="black" points="159.4,-398.63 169.245,-402.545 163.991,-393.345 159.4,-398.63"/>
</g>
<!-- o18&#45;&gt;o44 -->
<g id="edge28" class="edge"><title>o18&#45;&gt;o44</title>
<path fill="none" stroke="black" d="M110.681,-350.117C115.135,-353.248 119.966,-356.359 124.698,-358.878 165.291,-380.482 181.104,-373.274 221.698,-394.878 223.472,-395.822 225.261,-396.85 227.038,-397.931"/>
<polygon fill="black" stroke="black" points="225.437,-401.067 235.715,-403.639 229.284,-395.219 225.437,-401.067"/>
</g>
<!-- o18&#45;&gt;o48 -->
<g id="edge44" class="edge"><title>o18&#45;&gt;o48</title>
<path fill="none" stroke="black" d="M110.438,-350.614C114.904,-353.719 119.802,-356.695 124.698,-358.878 192.854,-389.268 220.542,-364.488 288.698,-394.878 290.534,-395.696 292.37,-396.626 294.184,-397.633"/>
<polygon fill="black" stroke="black" points="292.627,-400.789 302.958,-403.141 296.349,-394.86 292.627,-400.789"/>
</g>
<!-- o18&#45;&gt;o4 -->
<g id="edge56" class="edge"><title>o18&#45;&gt;o4</title>
<path fill="none" stroke="black" d="M110.342,-350.839C114.813,-353.932 119.737,-356.846 124.698,-358.878 220.853,-398.256 260.817,-352.522 355.698,-394.878 358.036,-395.921 360.34,-397.205 362.567,-398.629"/>
<polygon fill="black" stroke="black" points="360.547,-401.489 370.671,-404.614 364.706,-395.858 360.547,-401.489"/>
</g>
<!-- o18&#45;&gt;o26 -->
<g id="edge66" class="edge"><title>o18&#45;&gt;o26</title>
<path fill="none" stroke="black" d="M110.297,-350.952C114.77,-354.04 119.707,-356.923 124.698,-358.878 245.218,-406.089 292.848,-348.516 413.698,-394.878 415.826,-395.694 417.949,-396.672 420.035,-397.758"/>
<polygon fill="black" stroke="black" points="418.469,-400.901 428.843,-403.053 422.075,-394.901 418.469,-400.901"/>
</g>
<!-- o18&#45;&gt;o46 -->
<g id="edge78" class="edge"><title>o18&#45;&gt;o46</title>
<path fill="none" stroke="black" d="M110.263,-351.039C114.739,-354.122 119.684,-356.981 124.698,-358.878 273.854,-415.3 332.541,-338.455 481.698,-394.878 483.578,-395.589 485.449,-396.436 487.288,-397.379"/>
<polygon fill="black" stroke="black" points="485.762,-400.546 496.133,-402.716 489.38,-394.553 485.762,-400.546"/>
</g>
<!-- o18&#45;&gt;o2 -->
<g id="edge88" class="edge"><title>o18&#45;&gt;o2</title>
<path fill="none" stroke="black" d="M100.541,-357.528C104.634,-367.872 109.534,-380.255 113.849,-391.158"/>
<polygon fill="black" stroke="black" points="110.672,-392.642 117.606,-400.653 117.181,-390.067 110.672,-392.642"/>
</g>
<!-- o4&#45;&gt;e(o2o50) -->
<g id="edge8" class="edge"><title>o4&#45;&gt;e(o2o50)</title>
<path fill="none" stroke="black" d="M374.576,-437.003C367.836,-447.942 358.623,-462.893 349.775,-477.253"/>
<polygon fill="black" stroke="black" points="346.604,-475.727 344.338,-486.076 352.564,-479.399 346.604,-475.727"/>
</g>
<!-- o26&#45;&gt;e(o2o50) -->
<g id="edge7" class="edge"><title>o26&#45;&gt;e(o2o50)</title>
<path fill="none" stroke="black" d="M428.834,-435.882C411.592,-449.874 385.486,-471.058 363.36,-489.012"/>
<polygon fill="black" stroke="black" points="360.973,-486.442 355.413,-495.461 365.384,-491.878 360.973,-486.442"/>
</g>
<!-- o32&#45;&gt;o50 -->
<g id="edge19" class="edge"><title>o32&#45;&gt;o50</title>
<path fill="none" stroke="black" d="M166.622,-357.968C169.684,-366.773 173.242,-377.006 176.553,-386.527"/>
<polygon fill="black" stroke="black" points="173.293,-387.808 179.883,-396.104 179.905,-385.509 173.293,-387.808"/>
</g>
<!-- o32&#45;&gt;o44 -->
<g id="edge29" class="edge"><title>o32&#45;&gt;o44</title>
<path fill="none" stroke="black" d="M177.208,-351.259C191.816,-363.95 212.376,-381.81 228.647,-395.945"/>
<polygon fill="black" stroke="black" points="226.4,-398.63 236.245,-402.545 230.991,-393.345 226.4,-398.63"/>
</g>
<!-- o32&#45;&gt;o48 -->
<g id="edge45" class="edge"><title>o32&#45;&gt;o48</title>
<path fill="none" stroke="black" d="M177.681,-350.117C182.135,-353.248 186.966,-356.359 191.698,-358.878 232.291,-380.482 248.104,-373.274 288.698,-394.878 290.472,-395.822 292.261,-396.85 294.038,-397.931"/>
<polygon fill="black" stroke="black" points="292.437,-401.067 302.715,-403.639 296.284,-395.219 292.437,-401.067"/>
</g>
<!-- o32&#45;&gt;o4 -->
<g id="edge57" class="edge"><title>o32&#45;&gt;o4</title>
<path fill="none" stroke="black" d="M177.438,-350.614C181.904,-353.719 186.802,-356.695 191.698,-358.878 259.854,-389.268 288.522,-362.378 355.698,-394.878 358.002,-395.993 360.284,-397.325 362.495,-398.782"/>
<polygon fill="black" stroke="black" points="360.47,-401.638 370.575,-404.82 364.66,-396.03 360.47,-401.638"/>
</g>
<!-- o32&#45;&gt;o26 -->
<g id="edge67" class="edge"><title>o32&#45;&gt;o26</title>
<path fill="none" stroke="black" d="M177.351,-350.816C181.822,-353.911 186.743,-356.831 191.698,-358.878 284.08,-397.043 321.049,-357.363 413.698,-394.878 415.811,-395.733 417.922,-396.74 419.999,-397.848"/>
<polygon fill="black" stroke="black" points="418.425,-400.987 428.788,-403.192 422.062,-395.006 418.425,-400.987"/>
</g>
<!-- o32&#45;&gt;o46 -->
<g id="edge79" class="edge"><title>o32&#45;&gt;o46</title>
<path fill="none" stroke="black" d="M177.296,-350.954C181.77,-354.041 186.706,-356.924 191.698,-358.878 312.639,-406.224 360.757,-347.531 481.698,-394.878 483.57,-395.611 485.434,-396.474 487.269,-397.43"/>
<polygon fill="black" stroke="black" points="485.737,-400.595 496.1,-402.802 489.375,-394.614 485.737,-400.595"/>
</g>
<!-- o32&#45;&gt;o2 -->
<g id="edge89" class="edge"><title>o32&#45;&gt;o2</title>
<path fill="none" stroke="black" d="M149.586,-357.528C145.37,-367.872 140.321,-380.255 135.876,-391.158"/>
<polygon fill="black" stroke="black" points="132.539,-390.072 132.005,-400.653 139.021,-392.714 132.539,-390.072"/>
</g>
<!-- o14&#45;&gt;o50 -->
<g id="edge20" class="edge"><title>o14&#45;&gt;o50</title>
<path fill="none" stroke="black" d="M215.714,-357.091C211.481,-366.38 206.471,-377.375 201.867,-387.48"/>
<polygon fill="black" stroke="black" points="198.577,-386.26 197.615,-396.811 204.947,-389.162 198.577,-386.26"/>
</g>
<!-- o14&#45;&gt;o44 -->
<g id="edge30" class="edge"><title>o14&#45;&gt;o44</title>
<path fill="none" stroke="black" d="M233.622,-357.968C236.684,-366.773 240.242,-377.006 243.553,-386.527"/>
<polygon fill="black" stroke="black" points="240.293,-387.808 246.883,-396.104 246.905,-385.509 240.293,-387.808"/>
</g>
<!-- o14&#45;&gt;o48 -->
<g id="edge46" class="edge"><title>o14&#45;&gt;o48</title>
<path fill="none" stroke="black" d="M244.208,-351.259C258.816,-363.95 279.376,-381.81 295.647,-395.945"/>
<polygon fill="black" stroke="black" points="293.4,-398.63 303.245,-402.545 297.991,-393.345 293.4,-398.63"/>
</g>
<!-- o14&#45;&gt;o4 -->
<g id="edge58" class="edge"><title>o14&#45;&gt;o4</title>
<path fill="none" stroke="black" d="M244.946,-349.833C249.632,-353.048 254.73,-356.268 259.698,-358.878 300.037,-380.071 316.197,-372.159 355.698,-394.878 357.917,-396.154 360.14,-397.599 362.312,-399.129"/>
<polygon fill="black" stroke="black" points="360.266,-401.971 370.329,-405.285 364.53,-396.419 360.266,-401.971"/>
</g>
<!-- o14&#45;&gt;o26 -->
<g id="edge68" class="edge"><title>o14&#45;&gt;o26</title>
<path fill="none" stroke="black" d="M244.717,-350.305C249.413,-353.501 254.572,-356.594 259.698,-358.878 323.902,-387.486 349.493,-366.269 413.698,-394.878 415.78,-395.806 417.868,-396.867 419.928,-398.014"/>
<polygon fill="black" stroke="black" points="418.337,-401.146 428.679,-403.45 422.031,-395.2 418.337,-401.146"/>
</g>
<!-- o14&#45;&gt;o46 -->
<g id="edge80" class="edge"><title>o14&#45;&gt;o46</title>
<path fill="none" stroke="black" d="M244.607,-350.563C249.308,-353.749 254.496,-356.771 259.698,-358.878 352.346,-396.392 389.315,-356.712 481.698,-394.878 483.556,-395.645 485.409,-396.536 487.236,-397.512"/>
<polygon fill="black" stroke="black" points="485.695,-400.674 496.044,-402.939 489.366,-394.714 485.695,-400.674"/>
</g>
<!-- o14&#45;&gt;o2 -->
<g id="edge90" class="edge"><title>o14&#45;&gt;o2</title>
<path fill="none" stroke="black" d="M206.7,-350.866C190.102,-364.571 165.944,-384.518 148.146,-399.214"/>
<polygon fill="black" stroke="black" points="145.464,-396.89 139.981,-405.956 149.921,-402.288 145.464,-396.89"/>
</g>
<!-- o46&#45;&gt;e(o2o50) -->
<g id="edge5" class="edge"><title>o46&#45;&gt;e(o2o50)</title>
<path fill="none" stroke="black" d="M495.517,-435.163C491.074,-438.312 486.297,-441.519 481.698,-444.273 445.695,-465.833 402.937,-486.593 370.683,-501.35"/>
<polygon fill="black" stroke="black" points="369.114,-498.218 361.455,-505.539 372.008,-504.592 369.114,-498.218"/>
</g>
<!-- o2&#45;&gt;e(o2o50) -->
<g id="edge9" class="edge"><title>o2&#45;&gt;e(o2o50)</title>
<path fill="none" stroke="black" d="M139.216,-433.617C143.689,-437.305 148.744,-441.159 153.698,-444.273 191.445,-468.004 237.514,-489.044 271.856,-503.362"/>
<polygon fill="black" stroke="black" points="270.635,-506.644 281.214,-507.218 273.302,-500.172 270.635,-506.644"/>
</g>
</g>
</svg>
