<?xml version="1.0" encoding="UTF-8" standalone="no"?>
<!DOCTYPE svg PUBLIC "-//W3C//DTD SVG 1.1//EN"
 "http://www.w3.org/Graphics/SVG/1.1/DTD/svg11.dtd">
<!-- Generated by graphviz version 2.38.0 (20140413.2041)
 -->
<!-- Title: priss2013&#45;table01_o30_d Pages: 1 -->
<svg width="1390pt" height="1722pt"
 viewBox="0.00 0.00 1389.68 1721.97" xmlns="http://www.w3.org/2000/svg" xmlns:xlink="http://www.w3.org/1999/xlink">
<g id="graph0" class="graph" transform="scale(1 1) rotate(0) translate(4 1717.97)">
<title>priss2013&#45;table01_o30_d</title>
<polygon fill="white" stroke="none" points="-4,4 -4,-1717.97 1385.68,-1717.97 1385.68,4 -4,4"/>
<!-- o16 -->
<g id="node1" class="node"><title>o16</title>
<ellipse fill="none" stroke="black" cx="596.892" cy="-225.386" rx="24.8972" ry="24.8972"/>
<text text-anchor="middle" x="596.892" y="-221.686" font-family="Times New Roman,serif" font-size="14.00">o16</text>
</g>
<!-- o14 -->
<g id="node4" class="node"><title>o14</title>
<ellipse fill="none" stroke="black" cx="596.892" cy="-380.976" rx="24.8972" ry="24.8972"/>
<text text-anchor="middle" x="596.892" y="-377.276" font-family="Times New Roman,serif" font-size="14.00">o14</text>
</g>
<!-- o16&#45;&gt;o14 -->
<g id="edge7" class="edge"><title>o16&#45;&gt;o14</title>
<path fill="none" stroke="black" d="M596.892,-250.385C596.892,-276.083 596.892,-317.07 596.892,-346.059"/>
<polygon fill="black" stroke="black" points="593.392,-346.146 596.892,-356.146 600.392,-346.146 593.392,-346.146"/>
</g>
<!-- e(e(o28o34)o20) -->
<g id="node9" class="node"><title>e(e(o28o34)o20)</title>
<ellipse fill="none" stroke="black" cx="415.892" cy="-380.976" rx="71.4873" ry="71.4873"/>
<text text-anchor="middle" x="415.892" y="-377.276" font-family="Times New Roman,serif" font-size="14.00">e(e(o28o34)o20)</text>
</g>
<!-- o16&#45;&gt;e(e(o28o34)o20) -->
<g id="edge25" class="edge"><title>o16&#45;&gt;e(e(o28o34)o20)</title>
<path fill="none" stroke="black" d="M585.271,-247.302C579.638,-256.142 572.274,-266.082 563.892,-273.482 538.256,-296.114 524.026,-290.044 495.892,-309.482 489.105,-314.171 482.257,-319.364 475.574,-324.743"/>
<polygon fill="black" stroke="black" points="473.317,-322.067 467.819,-331.124 477.765,-327.473 473.317,-322.067"/>
</g>
<!-- o26 -->
<g id="node19" class="node"><title>o26</title>
<ellipse fill="none" stroke="black" cx="529.892" cy="-380.976" rx="24.8972" ry="24.8972"/>
<text text-anchor="middle" x="529.892" y="-377.276" font-family="Times New Roman,serif" font-size="14.00">o26</text>
</g>
<!-- o16&#45;&gt;o26 -->
<g id="edge44" class="edge"><title>o16&#45;&gt;o26</title>
<path fill="none" stroke="black" d="M587.292,-248.392C575.849,-274.624 556.643,-318.653 543.629,-348.485"/>
<polygon fill="black" stroke="black" points="540.264,-347.446 539.473,-358.011 546.68,-350.245 540.264,-347.446"/>
</g>
<!-- e(o10o8) -->
<g id="node29" class="node"><title>e(o10o8)</title>
<ellipse fill="none" stroke="black" cx="682.892" cy="-380.976" rx="43.5923" ry="43.5923"/>
<text text-anchor="middle" x="682.892" y="-377.276" font-family="Times New Roman,serif" font-size="14.00">e(o10o8)</text>
</g>
<!-- o16&#45;&gt;e(o10o8) -->
<g id="edge75" class="edge"><title>o16&#45;&gt;e(o10o8)</title>
<path fill="none" stroke="black" d="M608.669,-247.42C621.039,-269.512 640.888,-304.961 656.949,-333.644"/>
<polygon fill="black" stroke="black" points="654.076,-335.678 662.016,-342.693 660.184,-332.258 654.076,-335.678"/>
</g>
<!-- o50 -->
<g id="node2" class="node"><title>o50</title>
<ellipse fill="none" stroke="black" cx="595.892" cy="-1369.9" rx="24.8972" ry="24.8972"/>
<text text-anchor="middle" x="595.892" y="-1366.2" font-family="Times New Roman,serif" font-size="14.00">o50</text>
</g>
<!-- e(e(e(e(e(o28o34)o20)o26)o40)o50) -->
<g id="node5" class="node"><title>e(e(e(e(e(o28o34)o20)o26)o40)o50)</title>
<ellipse fill="none" stroke="black" cx="695.892" cy="-1572.29" rx="141.875" ry="141.875"/>
<text text-anchor="middle" x="695.892" y="-1568.59" font-family="Times New Roman,serif" font-size="14.00">e(e(e(e(e(o28o34)o20)o26)o40)o50)</text>
</g>
<!-- o50&#45;&gt;e(e(e(e(e(o28o34)o20)o26)o40)o50) -->
<g id="edge9" class="edge"><title>o50&#45;&gt;e(e(e(e(e(o28o34)o20)o26)o40)o50)</title>
<path fill="none" stroke="black" d="M606.593,-1392.35C612.386,-1403.95 620.079,-1419.37 628.527,-1436.3"/>
<polygon fill="black" stroke="black" points="625.411,-1437.89 633.008,-1445.28 631.674,-1434.77 625.411,-1437.89"/>
</g>
<!-- e(e(e(o10o8)o14)e(e(o10o8)o4)) -->
<g id="node3" class="node"><title>e(e(e(o10o8)o14)e(e(o10o8)o4))</title>
<ellipse fill="none" stroke="black" cx="789.892" cy="-842.291" rx="128.077" ry="128.077"/>
<text text-anchor="middle" x="789.892" y="-838.591" font-family="Times New Roman,serif" font-size="14.00">e(e(e(o10o8)o14)e(e(o10o8)o4))</text>
</g>
<!-- e(e(e(e(o10o8)o14)e(e(o10o8)o4))o40) -->
<g id="node23" class="node"><title>e(e(e(e(o10o8)o14)e(e(o10o8)o4))o40)</title>
<ellipse fill="none" stroke="black" cx="700.892" cy="-1157.77" rx="151.373" ry="151.373"/>
<text text-anchor="middle" x="700.892" y="-1154.07" font-family="Times New Roman,serif" font-size="14.00">e(e(e(e(o10o8)o14)e(e(o10o8)o4))o40)</text>
</g>
<!-- e(e(e(o10o8)o14)e(e(o10o8)o4))&#45;&gt;e(e(e(e(o10o8)o14)e(e(o10o8)o4))o40) -->
<g id="edge50" class="edge"><title>e(e(e(o10o8)o14)e(e(o10o8)o4))&#45;&gt;e(e(e(e(o10o8)o14)e(e(o10o8)o4))o40)</title>
<path fill="none" stroke="black" d="M755.099,-965.836C751.714,-977.76 748.25,-989.961 744.791,-1002.15"/>
<polygon fill="black" stroke="black" points="741.383,-1001.33 742.019,-1011.91 748.117,-1003.24 741.383,-1001.33"/>
</g>
<!-- e(e(e(o28o34)o20)o14) -->
<g id="node8" class="node"><title>e(e(e(o28o34)o20)o14)</title>
<ellipse fill="none" stroke="black" cx="416.892" cy="-583.361" rx="94.7833" ry="94.7833"/>
<text text-anchor="middle" x="416.892" y="-579.661" font-family="Times New Roman,serif" font-size="14.00">e(e(e(o28o34)o20)o14)</text>
</g>
<!-- o14&#45;&gt;e(e(e(o28o34)o20)o14) -->
<g id="edge19" class="edge"><title>o14&#45;&gt;e(e(e(o28o34)o20)o14)</title>
<path fill="none" stroke="black" d="M589.199,-404.644C583.585,-419.198 575.016,-438.011 563.892,-452.469 548.693,-472.224 539.701,-472.115 520.892,-488.469 512.143,-496.076 503.048,-504.104 494.039,-512.133"/>
<polygon fill="black" stroke="black" points="491.625,-509.596 486.5,-518.869 496.289,-514.816 491.625,-509.596"/>
</g>
<!-- e(e(o10o8)o14) -->
<g id="node14" class="node"><title>e(e(o10o8)o14)</title>
<ellipse fill="none" stroke="black" cx="596.892" cy="-583.361" rx="66.8882" ry="66.8882"/>
<text text-anchor="middle" x="596.892" y="-579.661" font-family="Times New Roman,serif" font-size="14.00">e(e(o10o8)o14)</text>
</g>
<!-- o14&#45;&gt;e(e(o10o8)o14) -->
<g id="edge34" class="edge"><title>o14&#45;&gt;e(e(o10o8)o14)</title>
<path fill="none" stroke="black" d="M596.892,-405.749C596.892,-430.377 596.892,-470.17 596.892,-505.755"/>
<polygon fill="black" stroke="black" points="593.392,-506.151 596.892,-516.151 600.392,-506.151 593.392,-506.151"/>
</g>
<!-- e(o14o26) -->
<g id="node25" class="node"><title>e(o14o26)</title>
<ellipse fill="none" stroke="black" cx="255.892" cy="-583.361" rx="48.1917" ry="48.1917"/>
<text text-anchor="middle" x="255.892" y="-579.661" font-family="Times New Roman,serif" font-size="14.00">e(o14o26)</text>
</g>
<!-- o14&#45;&gt;e(o14o26) -->
<g id="edge59" class="edge"><title>o14&#45;&gt;e(o14o26)</title>
<path fill="none" stroke="black" d="M592.068,-405.343C587.536,-421.179 579.092,-441.206 563.892,-452.469 473.344,-519.565 406.922,-426.349 312.892,-488.469 297.995,-498.311 286.371,-513.512 277.617,-528.836"/>
<polygon fill="black" stroke="black" points="274.434,-527.367 272.792,-537.834 280.603,-530.675 274.434,-527.367"/>
</g>
<!-- o8 -->
<g id="node6" class="node"><title>o8</title>
<ellipse fill="none" stroke="black" cx="754.892" cy="-225.386" rx="20.2975" ry="20.2975"/>
<text text-anchor="middle" x="754.892" y="-221.686" font-family="Times New Roman,serif" font-size="14.00">o8</text>
</g>
<!-- e(e(o28o34)o8) -->
<g id="node12" class="node"><title>e(e(o28o34)o8)</title>
<ellipse fill="none" stroke="black" cx="748.892" cy="-583.361" rx="66.8882" ry="66.8882"/>
<text text-anchor="middle" x="748.892" y="-579.661" font-family="Times New Roman,serif" font-size="14.00">e(e(o28o34)o8)</text>
</g>
<!-- o8&#45;&gt;e(e(o28o34)o8) -->
<g id="edge32" class="edge"><title>o8&#45;&gt;e(e(o28o34)o8)</title>
<path fill="none" stroke="black" d="M754.565,-245.778C753.748,-294.246 751.582,-422.757 750.175,-506.224"/>
<polygon fill="black" stroke="black" points="746.672,-506.367 750.003,-516.424 753.671,-506.485 746.672,-506.367"/>
</g>
<!-- o2 -->
<g id="node20" class="node"><title>o2</title>
<ellipse fill="none" stroke="black" cx="1018.89" cy="-380.976" rx="20.2975" ry="20.2975"/>
<text text-anchor="middle" x="1018.89" y="-377.276" font-family="Times New Roman,serif" font-size="14.00">o2</text>
</g>
<!-- o8&#45;&gt;o2 -->
<g id="edge46" class="edge"><title>o8&#45;&gt;o2</title>
<path fill="none" stroke="black" d="M772.213,-236.464C817.447,-262.78 939.324,-333.685 992.958,-364.888"/>
<polygon fill="black" stroke="black" points="991.446,-368.057 1001.85,-370.061 994.966,-362.007 991.446,-368.057"/>
</g>
<!-- o4 -->
<g id="node28" class="node"><title>o4</title>
<ellipse fill="none" stroke="black" cx="1076.89" cy="-380.976" rx="20.2975" ry="20.2975"/>
<text text-anchor="middle" x="1076.89" y="-377.276" font-family="Times New Roman,serif" font-size="14.00">o4</text>
</g>
<!-- o8&#45;&gt;o4 -->
<g id="edge70" class="edge"><title>o8&#45;&gt;o4</title>
<path fill="none" stroke="black" d="M775.133,-226.367C827.098,-227.399 966.81,-237.15 1047.89,-309.482 1059.89,-320.186 1067.03,-336.61 1071.22,-350.913"/>
<polygon fill="black" stroke="black" points="1067.9,-352.03 1073.78,-360.84 1074.68,-350.283 1067.9,-352.03"/>
</g>
<!-- o8&#45;&gt;e(o10o8) -->
<g id="edge71" class="edge"><title>o8&#45;&gt;e(o10o8)</title>
<path fill="none" stroke="black" d="M746.632,-244.005C736.666,-265.264 719.504,-301.874 705.497,-331.754"/>
<polygon fill="black" stroke="black" points="702.149,-330.651 701.073,-341.191 708.487,-333.622 702.149,-330.651"/>
</g>
<!-- o40 -->
<g id="node7" class="node"><title>o40</title>
<ellipse fill="none" stroke="black" cx="379.892" cy="-842.291" rx="24.8972" ry="24.8972"/>
<text text-anchor="middle" x="379.892" y="-838.591" font-family="Times New Roman,serif" font-size="14.00">o40</text>
</g>
<!-- o40&#45;&gt;e(e(e(e(o10o8)o14)e(e(o10o8)o4))o40) -->
<g id="edge51" class="edge"><title>o40&#45;&gt;e(e(e(e(o10o8)o14)e(e(o10o8)o4))o40)</title>
<path fill="none" stroke="black" d="M379.391,-867.293C380.139,-895.702 385.803,-942.637 412.892,-970.33 453.916,-1012.27 488.8,-977.492 539.892,-1006.33 556.913,-1015.94 573.553,-1027.7 589.287,-1040.38"/>
<polygon fill="black" stroke="black" points="587.485,-1043.43 597.429,-1047.09 591.935,-1038.03 587.485,-1043.43"/>
</g>
<!-- e(e(e(e(o28o34)o20)o26)o40) -->
<g id="node26" class="node"><title>e(e(e(e(o28o34)o20)o26)o40)</title>
<ellipse fill="none" stroke="black" cx="412.892" cy="-1157.77" rx="118.079" ry="118.079"/>
<text text-anchor="middle" x="412.892" y="-1154.07" font-family="Times New Roman,serif" font-size="14.00">e(e(e(e(o28o34)o20)o26)o40)</text>
</g>
<!-- o40&#45;&gt;e(e(e(e(o28o34)o20)o26)o40) -->
<g id="edge62" class="edge"><title>o40&#45;&gt;e(e(e(e(o28o34)o20)o26)o40)</title>
<path fill="none" stroke="black" d="M382.399,-867.11C386.061,-901.894 393.134,-969.086 399.547,-1030"/>
<polygon fill="black" stroke="black" points="396.083,-1030.53 400.611,-1040.11 403.045,-1029.8 396.083,-1030.53"/>
</g>
<!-- e(e(e(o28o34)o20)o14)&#45;&gt;o40 -->
<g id="edge17" class="edge"><title>e(e(e(o28o34)o20)o14)&#45;&gt;o40</title>
<path fill="none" stroke="black" d="M403.481,-677.482C396.95,-722.837 389.5,-774.566 384.751,-807.549"/>
<polygon fill="black" stroke="black" points="381.269,-807.17 383.308,-817.567 388.198,-808.168 381.269,-807.17"/>
</g>
<!-- o38 -->
<g id="node10" class="node"><title>o38</title>
<ellipse fill="none" stroke="black" cx="446.892" cy="-842.291" rx="24.8972" ry="24.8972"/>
<text text-anchor="middle" x="446.892" y="-838.591" font-family="Times New Roman,serif" font-size="14.00">o38</text>
</g>
<!-- e(e(e(o28o34)o20)o14)&#45;&gt;o38 -->
<g id="edge27" class="edge"><title>e(e(e(o28o34)o20)o14)&#45;&gt;o38</title>
<path fill="none" stroke="black" d="M427.807,-677.846C433.098,-723.16 439.123,-774.76 442.964,-807.65"/>
<polygon fill="black" stroke="black" points="439.494,-808.113 444.13,-817.639 446.446,-807.301 439.494,-808.113"/>
</g>
<!-- o36 -->
<g id="node15" class="node"><title>o36</title>
<ellipse fill="none" stroke="black" cx="513.892" cy="-842.291" rx="24.8972" ry="24.8972"/>
<text text-anchor="middle" x="513.892" y="-838.591" font-family="Times New Roman,serif" font-size="14.00">o36</text>
</g>
<!-- e(e(e(o28o34)o20)o14)&#45;&gt;o36 -->
<g id="edge37" class="edge"><title>e(e(e(o28o34)o20)o14)&#45;&gt;o36</title>
<path fill="none" stroke="black" d="M460.933,-667.455C468.161,-682.779 475.153,-698.819 480.892,-714.253 492.408,-745.227 501.467,-781.875 507.156,-807.83"/>
<polygon fill="black" stroke="black" points="503.798,-808.86 509.314,-817.906 510.642,-807.394 503.798,-808.86"/>
</g>
<!-- o32 -->
<g id="node27" class="node"><title>o32</title>
<ellipse fill="none" stroke="black" cx="580.892" cy="-842.291" rx="24.8972" ry="24.8972"/>
<text text-anchor="middle" x="580.892" y="-838.591" font-family="Times New Roman,serif" font-size="14.00">o32</text>
</g>
<!-- e(e(e(o28o34)o20)o14)&#45;&gt;o32 -->
<g id="edge68" class="edge"><title>e(e(e(o28o34)o20)o14)&#45;&gt;o32</title>
<path fill="none" stroke="black" d="M487.192,-647.677C513.457,-672.615 539.07,-698.913 547.892,-714.253 564.539,-743.201 572.941,-780.637 577.082,-807.356"/>
<polygon fill="black" stroke="black" points="573.636,-807.981 578.516,-817.385 580.566,-806.991 573.636,-807.981"/>
</g>
<!-- e(e(o28o34)o20)&#45;&gt;e(e(e(o28o34)o20)o14) -->
<g id="edge20" class="edge"><title>e(e(o28o34)o20)&#45;&gt;e(e(e(o28o34)o20)o14)</title>
<path fill="none" stroke="black" d="M416.244,-452.624C416.285,-460.885 416.328,-469.44 416.371,-478.036"/>
<polygon fill="black" stroke="black" points="412.871,-478.148 416.421,-488.13 419.871,-478.113 412.871,-478.148"/>
</g>
<!-- e(e(e(o28o34)o20)o26) -->
<g id="node32" class="node"><title>e(e(e(o28o34)o20)o26)</title>
<ellipse fill="none" stroke="black" cx="94.8916" cy="-583.361" rx="94.7833" ry="94.7833"/>
<text text-anchor="middle" x="94.8916" y="-579.661" font-family="Times New Roman,serif" font-size="14.00">e(e(e(o28o34)o20)o26)</text>
</g>
<!-- e(e(o28o34)o20)&#45;&gt;e(e(e(o28o34)o20)o26) -->
<g id="edge82" class="edge"><title>e(e(o28o34)o20)&#45;&gt;e(e(e(o28o34)o20)o26)</title>
<path fill="none" stroke="black" d="M349.674,-408.717C305.295,-427.998 246.495,-456.23 198.892,-488.469 189.293,-494.97 179.664,-502.304 170.349,-509.936"/>
<polygon fill="black" stroke="black" points="168.036,-507.308 162.605,-516.405 172.524,-512.68 168.036,-507.308"/>
</g>
<!-- o38&#45;&gt;e(e(e(e(o10o8)o14)e(e(o10o8)o4))o40) -->
<g id="edge54" class="edge"><title>o38&#45;&gt;e(e(e(e(o10o8)o14)e(e(o10o8)o4))o40)</title>
<path fill="none" stroke="black" d="M447.78,-867.138C449.914,-894.544 456.96,-939.675 479.892,-970.33 498.52,-995.232 515.059,-987.61 539.892,-1006.33 555.239,-1017.9 570.764,-1030.72 585.805,-1043.86"/>
<polygon fill="black" stroke="black" points="583.808,-1046.77 593.623,-1050.76 588.438,-1041.52 583.808,-1046.77"/>
</g>
<!-- o38&#45;&gt;e(e(e(e(o28o34)o20)o26)o40) -->
<g id="edge60" class="edge"><title>o38&#45;&gt;e(e(e(e(o28o34)o20)o26)o40)</title>
<path fill="none" stroke="black" d="M444.308,-867.11C440.535,-901.894 433.248,-969.086 426.641,-1030"/>
<polygon fill="black" stroke="black" points="423.143,-1029.79 425.544,-1040.11 430.102,-1030.55 423.143,-1029.79"/>
</g>
<!-- e(o28o34) -->
<g id="node11" class="node"><title>e(o28o34)</title>
<ellipse fill="none" stroke="black" cx="371.892" cy="-225.386" rx="48.1917" ry="48.1917"/>
<text text-anchor="middle" x="371.892" y="-221.686" font-family="Times New Roman,serif" font-size="14.00">e(o28o34)</text>
</g>
<!-- e(o28o34)&#45;&gt;e(e(o28o34)o20) -->
<g id="edge23" class="edge"><title>e(o28o34)&#45;&gt;e(e(o28o34)o20)</title>
<path fill="none" stroke="black" d="M384.974,-272.052C387.7,-281.568 390.646,-291.851 393.599,-302.158"/>
<polygon fill="black" stroke="black" points="390.306,-303.375 396.425,-312.024 397.036,-301.447 390.306,-303.375"/>
</g>
<!-- e(o28o34)&#45;&gt;e(e(o28o34)o8) -->
<g id="edge31" class="edge"><title>e(o28o34)&#45;&gt;e(e(o28o34)o8)</title>
<path fill="none" stroke="black" d="M347.82,-267.452C321.967,-317.539 290.325,-401.776 335.892,-452.469 386.239,-508.482 606.738,-452.469 672.892,-488.469 686.189,-495.706 698.03,-506.327 708.179,-517.848"/>
<polygon fill="black" stroke="black" points="705.5,-520.101 714.602,-525.523 710.868,-515.608 705.5,-520.101"/>
</g>
<!-- e(e(o28o34)o8)&#45;&gt;o40 -->
<g id="edge18" class="edge"><title>e(e(o28o34)o8)&#45;&gt;o40</title>
<path fill="none" stroke="black" d="M714.422,-640.874C702.965,-655.25 688.962,-669.18 672.892,-678.253 571.305,-735.605 500.046,-636.708 412.892,-714.253 386.888,-737.389 380.167,-778.141 378.976,-807.252"/>
<polygon fill="black" stroke="black" points="375.473,-807.324 378.761,-817.396 382.472,-807.472 375.473,-807.324"/>
</g>
<!-- e(e(o28o34)o8)&#45;&gt;o38 -->
<g id="edge28" class="edge"><title>e(e(o28o34)o8)&#45;&gt;o38</title>
<path fill="none" stroke="black" d="M713.75,-640.881C702.363,-655.078 688.565,-668.913 672.892,-678.253 597.932,-722.917 543.705,-654.741 479.892,-714.253 454.511,-737.922 447.65,-778.39 446.255,-807.293"/>
<polygon fill="black" stroke="black" points="442.755,-807.268 445.965,-817.365 449.752,-807.47 442.755,-807.268"/>
</g>
<!-- e(e(o28o34)o8)&#45;&gt;o36 -->
<g id="edge38" class="edge"><title>e(e(o28o34)o8)&#45;&gt;o36</title>
<path fill="none" stroke="black" d="M712.761,-640.422C701.448,-654.443 687.935,-668.304 672.892,-678.253 624.313,-710.38 587.574,-672.576 546.892,-714.253 522.898,-738.833 515.719,-778.514 513.871,-806.989"/>
<polygon fill="black" stroke="black" points="510.361,-807.149 513.401,-817.299 517.353,-807.469 510.361,-807.149"/>
</g>
<!-- e(e(o28o34)o8)&#45;&gt;o32 -->
<g id="edge69" class="edge"><title>e(e(o28o34)o8)&#45;&gt;o32</title>
<path fill="none" stroke="black" d="M710.028,-637.923C698.8,-651.783 686.013,-666.187 672.892,-678.253 651.93,-697.527 636.806,-691.345 619.892,-714.253 599.477,-741.902 589.615,-780.39 584.937,-807.74"/>
<polygon fill="black" stroke="black" points="581.478,-807.21 583.387,-817.631 588.393,-808.293 581.478,-807.21"/>
</g>
<!-- e(e(e(o28o34)o8)o4) -->
<g id="node30" class="node"><title>e(e(e(o28o34)o8)o4)</title>
<ellipse fill="none" stroke="black" cx="1295.89" cy="-842.291" rx="85.5853" ry="85.5853"/>
<text text-anchor="middle" x="1295.89" y="-838.591" font-family="Times New Roman,serif" font-size="14.00">e(e(e(o28o34)o8)o4)</text>
</g>
<!-- e(e(o28o34)o8)&#45;&gt;e(e(e(o28o34)o8)o4) -->
<g id="edge77" class="edge"><title>e(e(o28o34)o8)&#45;&gt;e(e(e(o28o34)o8)o4)</title>
<path fill="none" stroke="black" d="M783.119,-641.314C794.572,-655.697 808.633,-669.52 824.892,-678.253 972.785,-757.687 1054.55,-631.995 1200.89,-714.253 1219.67,-724.806 1235.84,-740.766 1249.24,-757.846"/>
<polygon fill="black" stroke="black" points="1246.79,-760.412 1255.6,-766.301 1252.38,-756.205 1246.79,-760.412"/>
</g>
<!-- o44 -->
<g id="node13" class="node"><title>o44</title>
<ellipse fill="none" stroke="black" cx="662.892" cy="-1369.9" rx="24.8972" ry="24.8972"/>
<text text-anchor="middle" x="662.892" y="-1366.2" font-family="Times New Roman,serif" font-size="14.00">o44</text>
</g>
<!-- o44&#45;&gt;e(e(e(e(e(o28o34)o20)o26)o40)o50) -->
<g id="edge10" class="edge"><title>o44&#45;&gt;e(e(e(e(e(o28o34)o20)o26)o40)o50)</title>
<path fill="none" stroke="black" d="M666.807,-1394.67C668.101,-1402.53 669.648,-1411.93 671.347,-1422.24"/>
<polygon fill="black" stroke="black" points="667.94,-1423.09 673.018,-1432.39 674.847,-1421.96 667.94,-1423.09"/>
</g>
<!-- e(e(o10o8)o14)&#45;&gt;e(e(e(o10o8)o14)e(e(o10o8)o4)) -->
<g id="edge3" class="edge"><title>e(e(o10o8)o14)&#45;&gt;e(e(e(o10o8)o14)e(e(o10o8)o4))</title>
<path fill="none" stroke="black" d="M636.647,-637.286C657.044,-664.438 682.685,-698.573 707.127,-731.111"/>
<polygon fill="black" stroke="black" points="704.507,-733.45 713.311,-739.344 710.103,-729.246 704.507,-733.45"/>
</g>
<!-- e(e(o10o8)o14)&#45;&gt;o40 -->
<g id="edge16" class="edge"><title>e(e(o10o8)o14)&#45;&gt;o40</title>
<path fill="none" stroke="black" d="M560.47,-639.993C549.156,-654.012 535.715,-667.979 520.892,-678.253 479.306,-707.073 447.439,-677.287 412.892,-714.253 389.437,-739.349 382.162,-778.938 380.145,-807.25"/>
<polygon fill="black" stroke="black" points="376.636,-807.325 379.607,-817.495 383.627,-807.693 376.636,-807.325"/>
</g>
<!-- e(e(o10o8)o14)&#45;&gt;o38 -->
<g id="edge26" class="edge"><title>e(e(o10o8)o14)&#45;&gt;o38</title>
<path fill="none" stroke="black" d="M556.597,-637.356C545.474,-651.073 533.096,-665.549 520.892,-678.253 504.091,-695.74 492.612,-693.607 479.892,-714.253 462.269,-742.855 453.999,-780.646 450.155,-807.557"/>
<polygon fill="black" stroke="black" points="446.661,-807.285 448.846,-817.652 453.603,-808.185 446.661,-807.285"/>
</g>
<!-- e(e(o10o8)o14)&#45;&gt;o36 -->
<g id="edge36" class="edge"><title>e(e(o10o8)o14)&#45;&gt;o36</title>
<path fill="none" stroke="black" d="M571.667,-645.629C563.25,-667.139 554.17,-691.592 546.892,-714.253 536.785,-745.715 527.539,-782.299 521.422,-808.105"/>
<polygon fill="black" stroke="black" points="517.95,-807.582 519.078,-818.116 524.766,-809.178 517.95,-807.582"/>
</g>
<!-- e(e(o10o8)o14)&#45;&gt;o32 -->
<g id="edge67" class="edge"><title>e(e(o10o8)o14)&#45;&gt;o32</title>
<path fill="none" stroke="black" d="M592.792,-650.193C589.664,-700.42 585.483,-767.558 583,-807.426"/>
<polygon fill="black" stroke="black" points="579.506,-807.231 582.378,-817.43 586.492,-807.667 579.506,-807.231"/>
</g>
<!-- o36&#45;&gt;e(e(e(e(o10o8)o14)e(e(o10o8)o4))o40) -->
<g id="edge53" class="edge"><title>o36&#45;&gt;e(e(e(e(o10o8)o14)e(e(o10o8)o4))o40)</title>
<path fill="none" stroke="black" d="M516.879,-866.865C520.917,-893.228 529.684,-936.644 546.892,-970.33 559.011,-994.054 574.584,-1017.47 591.154,-1039.28"/>
<polygon fill="black" stroke="black" points="588.418,-1041.46 597.3,-1047.24 593.958,-1037.18 588.418,-1041.46"/>
</g>
<!-- o36&#45;&gt;e(e(e(e(o28o34)o20)o26)o40) -->
<g id="edge64" class="edge"><title>o36&#45;&gt;e(e(e(e(o28o34)o20)o26)o40)</title>
<path fill="none" stroke="black" d="M508.585,-866.428C502.55,-892.034 492.073,-934.432 480.892,-970.33 474.078,-992.205 466.216,-1015.3 458.31,-1037.49"/>
<polygon fill="black" stroke="black" points="455.001,-1036.35 454.922,-1046.95 461.591,-1038.71 455.001,-1036.35"/>
</g>
<!-- o48 -->
<g id="node16" class="node"><title>o48</title>
<ellipse fill="none" stroke="black" cx="729.892" cy="-1369.9" rx="24.8972" ry="24.8972"/>
<text text-anchor="middle" x="729.892" y="-1366.2" font-family="Times New Roman,serif" font-size="14.00">o48</text>
</g>
<!-- o48&#45;&gt;e(e(e(e(e(o28o34)o20)o26)o40)o50) -->
<g id="edge12" class="edge"><title>o48&#45;&gt;e(e(e(e(e(o28o34)o20)o26)o40)o50)</title>
<path fill="none" stroke="black" d="M725.925,-1394.28C724.57,-1402.26 722.94,-1411.87 721.148,-1422.44"/>
<polygon fill="black" stroke="black" points="717.682,-1421.94 719.46,-1432.38 724.583,-1423.11 717.682,-1421.94"/>
</g>
<!-- o10 -->
<g id="node17" class="node"><title>o10</title>
<ellipse fill="none" stroke="black" cx="663.892" cy="-225.386" rx="24.8972" ry="24.8972"/>
<text text-anchor="middle" x="663.892" y="-221.686" font-family="Times New Roman,serif" font-size="14.00">o10</text>
</g>
<!-- o10&#45;&gt;o14 -->
<g id="edge8" class="edge"><title>o10&#45;&gt;o14</title>
<path fill="none" stroke="black" d="M654.292,-248.392C642.849,-274.624 623.643,-318.653 610.629,-348.485"/>
<polygon fill="black" stroke="black" points="607.264,-347.446 606.473,-358.011 613.68,-350.245 607.264,-347.446"/>
</g>
<!-- o10&#45;&gt;e(e(o28o34)o20) -->
<g id="edge22" class="edge"><title>o10&#45;&gt;e(e(o28o34)o20)</title>
<path fill="none" stroke="black" d="M653.306,-247.763C647.784,-256.909 640.22,-266.961 630.892,-273.482 579.998,-309.06 550.639,-280.178 495.892,-309.482 488.501,-313.438 481.223,-318.2 474.247,-323.359"/>
<polygon fill="black" stroke="black" points="471.98,-320.688 466.209,-329.573 476.261,-326.225 471.98,-320.688"/>
</g>
<!-- o10&#45;&gt;o26 -->
<g id="edge45" class="edge"><title>o10&#45;&gt;o26</title>
<path fill="none" stroke="black" d="M652.271,-247.302C646.638,-256.142 639.274,-266.082 630.892,-273.482 605.256,-296.114 586.471,-284.716 562.892,-309.482 552.719,-320.167 545.221,-334.558 539.967,-347.552"/>
<polygon fill="black" stroke="black" points="536.609,-346.539 536.379,-357.132 543.164,-348.995 536.609,-346.539"/>
</g>
<!-- o10&#45;&gt;e(o10o8) -->
<g id="edge73" class="edge"><title>o10&#45;&gt;e(o10o8)</title>
<path fill="none" stroke="black" d="M666.819,-250.048C669.364,-270.625 673.145,-301.185 676.4,-327.498"/>
<polygon fill="black" stroke="black" points="672.963,-328.224 677.664,-337.719 679.91,-327.365 672.963,-328.224"/>
</g>
<!-- o34 -->
<g id="node18" class="node"><title>o34</title>
<ellipse fill="none" stroke="black" cx="417.892" cy="-116.593" rx="24.8972" ry="24.8972"/>
<text text-anchor="middle" x="417.892" y="-112.893" font-family="Times New Roman,serif" font-size="14.00">o34</text>
</g>
<!-- o34&#45;&gt;e(o28o34) -->
<g id="edge30" class="edge"><title>o34&#45;&gt;e(o28o34)</title>
<path fill="none" stroke="black" d="M408.472,-139.462C404.447,-148.806 399.558,-160.157 394.681,-171.479"/>
<polygon fill="black" stroke="black" points="391.348,-170.368 390.607,-180.937 397.777,-173.138 391.348,-170.368"/>
</g>
<!-- o26&#45;&gt;e(o14o26) -->
<g id="edge58" class="edge"><title>o26&#45;&gt;e(o14o26)</title>
<path fill="none" stroke="black" d="M524.547,-405.117C519.702,-420.847 510.945,-440.839 495.892,-452.469 430.297,-503.149 380.848,-441.003 312.892,-488.469 298.255,-498.693 286.7,-513.997 277.931,-529.298"/>
<polygon fill="black" stroke="black" points="274.759,-527.806 273.087,-538.268 280.918,-531.132 274.759,-527.806"/>
</g>
<!-- e(e(o10o8)o26) -->
<g id="node31" class="node"><title>e(e(o10o8)o26)</title>
<ellipse fill="none" stroke="black" cx="900.892" cy="-583.361" rx="66.8882" ry="66.8882"/>
<text text-anchor="middle" x="900.892" y="-579.661" font-family="Times New Roman,serif" font-size="14.00">e(e(o10o8)o26)</text>
</g>
<!-- o26&#45;&gt;e(e(o10o8)o26) -->
<g id="edge79" class="edge"><title>o26&#45;&gt;e(e(o10o8)o26)</title>
<path fill="none" stroke="black" d="M534.695,-405.37C539.217,-421.22 547.658,-441.251 562.892,-452.469 657.535,-522.168 722.508,-430.738 824.892,-488.469 838.078,-495.905 849.871,-506.613 860.008,-518.157"/>
<polygon fill="black" stroke="black" points="857.329,-520.409 866.428,-525.837 862.7,-515.92 857.329,-520.409"/>
</g>
<!-- o26&#45;&gt;e(e(e(o28o34)o20)o26) -->
<g id="edge81" class="edge"><title>o26&#45;&gt;e(e(e(o28o34)o20)o26)</title>
<path fill="none" stroke="black" d="M524.805,-405.463C520.081,-421.356 511.363,-441.401 495.892,-452.469 387.751,-529.837 319.892,-433.343 198.892,-488.469 187.996,-493.433 177.446,-499.959 167.512,-507.262"/>
<polygon fill="black" stroke="black" points="165.111,-504.693 159.317,-513.563 169.378,-510.242 165.111,-504.693"/>
</g>
<!-- e(e(o10o8)o4) -->
<g id="node21" class="node"><title>e(e(o10o8)o4)</title>
<ellipse fill="none" stroke="black" cx="1047.89" cy="-583.361" rx="62.2891" ry="62.2891"/>
<text text-anchor="middle" x="1047.89" y="-579.661" font-family="Times New Roman,serif" font-size="14.00">e(e(o10o8)o4)</text>
</g>
<!-- o2&#45;&gt;e(e(o10o8)o4) -->
<g id="edge47" class="edge"><title>o2&#45;&gt;e(e(o10o8)o4)</title>
<path fill="none" stroke="black" d="M1021.67,-401.19C1025.32,-426.368 1031.91,-471.925 1037.57,-511.055"/>
<polygon fill="black" stroke="black" points="1034.17,-511.976 1039.07,-521.372 1041.1,-510.973 1034.17,-511.976"/>
</g>
<!-- o2&#45;&gt;e(e(e(o28o34)o8)o4) -->
<g id="edge78" class="edge"><title>o2&#45;&gt;e(e(e(o28o34)o8)o4)</title>
<path fill="none" stroke="black" d="M1022.84,-401.036C1026.88,-416.483 1034.51,-437.987 1047.89,-452.469 1071.9,-478.455 1094.05,-463.282 1118.89,-488.469 1184.86,-555.34 1169.71,-594.324 1211.89,-678.253 1224.75,-703.845 1238.95,-731.582 1251.95,-756.796"/>
<polygon fill="black" stroke="black" points="1248.98,-758.683 1256.68,-765.963 1255.2,-755.472 1248.98,-758.683"/>
</g>
<!-- e(e(o10o8)o4)&#45;&gt;e(e(e(o10o8)o14)e(e(o10o8)o4)) -->
<g id="edge4" class="edge"><title>e(e(o10o8)o4)&#45;&gt;e(e(e(o10o8)o14)e(e(o10o8)o4))</title>
<path fill="none" stroke="black" d="M1013.28,-635.873C1002.45,-650.322 989.903,-665.543 976.892,-678.253 957.303,-697.387 948.083,-696.91 926.892,-714.253 914.627,-724.29 902.053,-735.124 889.736,-746.084"/>
<polygon fill="black" stroke="black" points="887.218,-743.64 882.104,-752.918 891.888,-748.854 887.218,-743.64"/>
</g>
<!-- e(e(e(o10o8)o26)e(e(o10o8)o4)) -->
<g id="node24" class="node"><title>e(e(e(o10o8)o26)e(e(o10o8)o4))</title>
<ellipse fill="none" stroke="black" cx="1063.89" cy="-842.291" rx="128.077" ry="128.077"/>
<text text-anchor="middle" x="1063.89" y="-838.591" font-family="Times New Roman,serif" font-size="14.00">e(e(e(o10o8)o26)e(e(o10o8)o4))</text>
</g>
<!-- e(e(o10o8)o4)&#45;&gt;e(e(e(o10o8)o26)e(e(o10o8)o4)) -->
<g id="edge57" class="edge"><title>e(e(o10o8)o4)&#45;&gt;e(e(e(o10o8)o26)e(e(o10o8)o4))</title>
<path fill="none" stroke="black" d="M1051.72,-645.902C1052.83,-663.7 1054.09,-683.875 1055.36,-704.339"/>
<polygon fill="black" stroke="black" points="1051.87,-704.635 1055.99,-714.398 1058.86,-704.2 1051.87,-704.635"/>
</g>
<!-- eBot -->
<g id="node22" class="node"><title>eBot</title>
<ellipse fill="none" stroke="black" cx="473.892" cy="-27.9475" rx="27.8951" ry="27.8951"/>
<text text-anchor="middle" x="473.892" y="-24.2475" font-family="Times New Roman,serif" font-size="14.00">eBot</text>
</g>
<!-- eBot&#45;&gt;o34 -->
<g id="edge41" class="edge"><title>eBot&#45;&gt;o34</title>
<path fill="none" stroke="black" d="M459.178,-51.7126C452.274,-62.3947 443.967,-75.2475 436.62,-86.6151"/>
<polygon fill="black" stroke="black" points="433.468,-85.0449 430.979,-95.3433 439.347,-88.8446 433.468,-85.0449"/>
</g>
<!-- o28 -->
<g id="node33" class="node"><title>o28</title>
<ellipse fill="none" stroke="black" cx="529.892" cy="-116.593" rx="24.8972" ry="24.8972"/>
<text text-anchor="middle" x="529.892" y="-112.893" font-family="Times New Roman,serif" font-size="14.00">o28</text>
</g>
<!-- eBot&#45;&gt;o28 -->
<g id="edge83" class="edge"><title>eBot&#45;&gt;o28</title>
<path fill="none" stroke="black" d="M488.605,-51.7126C495.509,-62.3947 503.816,-75.2475 511.163,-86.6151"/>
<polygon fill="black" stroke="black" points="508.436,-88.8446 516.804,-95.3433 514.315,-85.0449 508.436,-88.8446"/>
</g>
<!-- e(e(e(e(o10o8)o14)e(e(o10o8)o4))o40)&#45;&gt;o50 -->
<g id="edge2" class="edge"><title>e(e(e(e(o10o8)o14)e(e(o10o8)o4))o40)&#45;&gt;o50</title>
<path fill="none" stroke="black" d="M633.502,-1293.63C625.164,-1310.32 617.372,-1325.91 611.068,-1338.53"/>
<polygon fill="black" stroke="black" points="607.891,-1337.06 606.552,-1347.57 614.153,-1340.19 607.891,-1337.06"/>
</g>
<!-- e(e(e(e(o10o8)o14)e(e(o10o8)o4))o40)&#45;&gt;o44 -->
<g id="edge33" class="edge"><title>e(e(e(e(o10o8)o14)e(e(o10o8)o4))o40)&#45;&gt;o44</title>
<path fill="none" stroke="black" d="M674.087,-1306.99C672.222,-1317.3 670.478,-1326.95 668.948,-1335.41"/>
<polygon fill="black" stroke="black" points="665.466,-1334.99 667.131,-1345.46 672.355,-1336.24 665.466,-1334.99"/>
</g>
<!-- e(e(e(e(o10o8)o14)e(e(o10o8)o4))o40)&#45;&gt;o48 -->
<g id="edge39" class="edge"><title>e(e(e(e(o10o8)o14)e(e(o10o8)o4))o40)&#45;&gt;o48</title>
<path fill="none" stroke="black" d="M721.465,-1307.84C722.83,-1317.73 724.108,-1326.99 725.235,-1335.16"/>
<polygon fill="black" stroke="black" points="721.791,-1335.8 726.625,-1345.23 728.725,-1334.85 721.791,-1335.8"/>
</g>
<!-- o46 -->
<g id="node36" class="node"><title>o46</title>
<ellipse fill="none" stroke="black" cx="796.892" cy="-1369.9" rx="24.8972" ry="24.8972"/>
<text text-anchor="middle" x="796.892" y="-1366.2" font-family="Times New Roman,serif" font-size="14.00">o46</text>
</g>
<!-- e(e(e(e(o10o8)o14)e(e(o10o8)o4))o40)&#45;&gt;o46 -->
<g id="edge86" class="edge"><title>e(e(e(e(o10o8)o14)e(e(o10o8)o4))o40)&#45;&gt;o46</title>
<path fill="none" stroke="black" d="M763.45,-1295.7C770.533,-1311.21 777.149,-1325.69 782.596,-1337.61"/>
<polygon fill="black" stroke="black" points="779.543,-1339.35 786.881,-1346.99 785.91,-1336.44 779.543,-1339.35"/>
</g>
<!-- e(e(e(o10o8)o26)e(e(o10o8)o4))&#45;&gt;e(e(e(e(e(o28o34)o20)o26)o40)o50) -->
<g id="edge13" class="edge"><title>e(e(e(o10o8)o26)e(e(o10o8)o4))&#45;&gt;e(e(e(e(e(o28o34)o20)o26)o40)o50)</title>
<path fill="none" stroke="black" d="M1022.97,-963.849C981.784,-1078.41 912.756,-1253.64 830.892,-1394.6 819.271,-1414.61 805.692,-1434.93 791.708,-1454.33"/>
<polygon fill="black" stroke="black" points="788.755,-1452.44 785.695,-1462.58 794.413,-1456.56 788.755,-1452.44"/>
</g>
<!-- e(o14o26)&#45;&gt;e(e(e(e(o28o34)o20)o26)o40) -->
<g id="edge61" class="edge"><title>e(o14o26)&#45;&gt;e(e(e(e(o28o34)o20)o26)o40)</title>
<path fill="none" stroke="black" d="M264.917,-630.858C279.487,-703.829 310.194,-849.402 345.892,-970.33 352.367,-992.266 359.999,-1015.39 367.751,-1037.59"/>
<polygon fill="black" stroke="black" points="364.457,-1038.78 371.077,-1047.05 371.06,-1036.46 364.457,-1038.78"/>
</g>
<!-- e(e(e(e(o28o34)o20)o26)o40)&#45;&gt;e(e(e(e(e(o28o34)o20)o26)o40)o50) -->
<g id="edge11" class="edge"><title>e(e(e(e(o28o34)o20)o26)o40)&#45;&gt;e(e(e(e(e(o28o34)o20)o26)o40)o50)</title>
<path fill="none" stroke="black" d="M473.747,-1259.25C500.051,-1301.57 531.679,-1351.02 561.892,-1394.6 574.846,-1413.29 588.956,-1432.76 602.998,-1451.65"/>
<polygon fill="black" stroke="black" points="600.224,-1453.79 609.008,-1459.71 605.835,-1449.6 600.224,-1453.79"/>
</g>
<!-- o32&#45;&gt;e(e(e(e(o10o8)o14)e(e(o10o8)o4))o40) -->
<g id="edge55" class="edge"><title>o32&#45;&gt;e(e(e(e(o10o8)o14)e(e(o10o8)o4))o40)</title>
<path fill="none" stroke="black" d="M589.522,-865.836C601.028,-895.894 622.388,-951.691 643.347,-1006.44"/>
<polygon fill="black" stroke="black" points="640.134,-1007.84 646.978,-1015.93 646.672,-1005.34 640.134,-1007.84"/>
</g>
<!-- o32&#45;&gt;e(e(e(e(o28o34)o20)o26)o40) -->
<g id="edge65" class="edge"><title>o32&#45;&gt;e(e(e(e(o28o34)o20)o26)o40)</title>
<path fill="none" stroke="black" d="M577.423,-867.143C572.997,-893.376 563.921,-936.319 547.892,-970.33 533.61,-1000.63 514.206,-1031.08 494.565,-1058.33"/>
<polygon fill="black" stroke="black" points="491.539,-1056.54 488.468,-1066.68 497.192,-1060.67 491.539,-1056.54"/>
</g>
<!-- o4&#45;&gt;e(e(o10o8)o4) -->
<g id="edge48" class="edge"><title>o4&#45;&gt;e(e(o10o8)o4)</title>
<path fill="none" stroke="black" d="M1074.11,-401.19C1070.47,-426.368 1063.87,-471.925 1058.21,-511.055"/>
<polygon fill="black" stroke="black" points="1054.69,-510.973 1056.72,-521.372 1061.61,-511.976 1054.69,-510.973"/>
</g>
<!-- o4&#45;&gt;e(e(e(o28o34)o8)o4) -->
<g id="edge76" class="edge"><title>o4&#45;&gt;e(e(e(o28o34)o8)o4)</title>
<path fill="none" stroke="black" d="M1094.95,-391.012C1124.28,-406.66 1182.01,-441.673 1211.89,-488.469 1261.66,-566.397 1281.97,-671.012 1290.24,-746.058"/>
<polygon fill="black" stroke="black" points="1286.81,-746.865 1291.33,-756.445 1293.77,-746.135 1286.81,-746.865"/>
</g>
<!-- e(o10o8)&#45;&gt;e(e(o10o8)o14) -->
<g id="edge35" class="edge"><title>e(o10o8)&#45;&gt;e(e(o10o8)o14)</title>
<path fill="none" stroke="black" d="M665.901,-421.565C654.81,-447.407 640.022,-481.864 626.981,-512.252"/>
<polygon fill="black" stroke="black" points="623.723,-510.968 622.995,-521.538 630.156,-513.729 623.723,-510.968"/>
</g>
<!-- e(o10o8)&#45;&gt;e(e(o10o8)o4) -->
<g id="edge49" class="edge"><title>e(o10o8)&#45;&gt;e(e(o10o8)o4)</title>
<path fill="none" stroke="black" d="M725.714,-389.481C786.421,-401.79 898.794,-430.875 976.892,-488.469 989.169,-497.524 1000.32,-509.281 1009.97,-521.396"/>
<polygon fill="black" stroke="black" points="1007.22,-523.57 1016.08,-529.383 1012.78,-519.315 1007.22,-523.57"/>
</g>
<!-- e(o10o8)&#45;&gt;e(e(o10o8)o26) -->
<g id="edge80" class="edge"><title>e(o10o8)&#45;&gt;e(e(o10o8)o26)</title>
<path fill="none" stroke="black" d="M719.248,-405.539C749.15,-425.76 791.83,-456.609 824.892,-488.469 835.198,-498.401 845.411,-509.711 854.847,-520.958"/>
<polygon fill="black" stroke="black" points="852.184,-523.23 861.248,-528.716 857.584,-518.775 852.184,-523.23"/>
</g>
<!-- e(e(e(o28o34)o8)o4)&#45;&gt;e(e(e(e(o10o8)o14)e(e(o10o8)o4))o40) -->
<g id="edge52" class="edge"><title>e(e(e(o28o34)o8)o4)&#45;&gt;e(e(e(e(o10o8)o14)e(e(o10o8)o4))o40)</title>
<path fill="none" stroke="black" d="M1252.16,-916.516C1237.77,-936.029 1220.4,-955.72 1200.89,-970.33 1099.32,-1046.4 963.3,-1094.44 858.773,-1122.67"/>
<polygon fill="black" stroke="black" points="857.837,-1119.29 849.077,-1125.25 859.641,-1126.06 857.837,-1119.29"/>
</g>
<!-- e(e(o10o8)o26)&#45;&gt;e(e(e(o10o8)o26)e(e(o10o8)o4)) -->
<g id="edge56" class="edge"><title>e(e(o10o8)o26)&#45;&gt;e(e(e(o10o8)o26)e(e(o10o8)o4))</title>
<path fill="none" stroke="black" d="M936.461,-640.428C952.277,-665.357 971.518,-695.687 990.206,-725.144"/>
<polygon fill="black" stroke="black" points="987.408,-727.267 995.721,-733.836 993.319,-723.517 987.408,-727.267"/>
</g>
<!-- e(e(o10o8)o26)&#45;&gt;e(e(e(e(o28o34)o20)o26)o40) -->
<g id="edge63" class="edge"><title>e(e(o10o8)o26)&#45;&gt;e(e(e(e(o28o34)o20)o26)o40)</title>
<path fill="none" stroke="black" d="M865.615,-640.657C854.227,-654.852 840.462,-668.742 824.892,-678.253 758.24,-718.963 706.464,-657.422 652.892,-714.253 573.968,-797.976 682.925,-877.541 614.892,-970.33 593.265,-999.825 569.801,-983.926 540.892,-1006.33 522.748,-1020.39 505.341,-1037.38 489.527,-1054.81"/>
<polygon fill="black" stroke="black" points="486.891,-1052.51 482.849,-1062.3 492.116,-1057.17 486.891,-1052.51"/>
</g>
<!-- e(e(e(o28o34)o20)o26)&#45;&gt;e(e(e(e(o28o34)o20)o26)o40) -->
<g id="edge66" class="edge"><title>e(e(e(o28o34)o20)o26)&#45;&gt;e(e(e(e(o28o34)o20)o26)o40)</title>
<path fill="none" stroke="black" d="M131.735,-671.193C166.693,-750.851 222.445,-871.164 280.892,-970.33 297.498,-998.506 317.104,-1027.88 336.053,-1054.75"/>
<polygon fill="black" stroke="black" points="333.268,-1056.87 341.909,-1063 338.978,-1052.82 333.268,-1056.87"/>
</g>
<!-- o28&#45;&gt;o16 -->
<g id="edge1" class="edge"><title>o28&#45;&gt;o16</title>
<path fill="none" stroke="black" d="M542.81,-138.184C552.913,-154.287 567.094,-176.891 578.4,-194.911"/>
<polygon fill="black" stroke="black" points="575.734,-197.248 584.013,-203.859 581.663,-193.528 575.734,-197.248"/>
</g>
<!-- o28&#45;&gt;o8 -->
<g id="edge15" class="edge"><title>o28&#45;&gt;o8</title>
<path fill="none" stroke="black" d="M553.829,-123.271C587.467,-131.864 649.968,-150.106 697.892,-177.291 710.578,-184.487 723.232,-194.573 733.383,-203.566"/>
<polygon fill="black" stroke="black" points="731.196,-206.308 740.94,-210.468 735.916,-201.14 731.196,-206.308"/>
</g>
<!-- o28&#45;&gt;e(o28o34) -->
<g id="edge29" class="edge"><title>o28&#45;&gt;e(o28o34)</title>
<path fill="none" stroke="black" d="M508.4,-129.01C487.53,-140.391 455.23,-158.797 428.892,-177.291 424.666,-180.257 420.362,-183.454 416.107,-186.736"/>
<polygon fill="black" stroke="black" points="413.706,-184.172 408.021,-193.113 418.041,-189.669 413.706,-184.172"/>
</g>
<!-- o28&#45;&gt;o10 -->
<g id="edge40" class="edge"><title>o28&#45;&gt;o10</title>
<path fill="none" stroke="black" d="M552.167,-127.336C573.918,-137.592 607.123,-155.293 630.892,-177.291 636.534,-182.512 641.767,-188.853 646.327,-195.168"/>
<polygon fill="black" stroke="black" points="643.584,-197.358 652.104,-203.656 649.371,-193.419 643.584,-197.358"/>
</g>
<!-- o20 -->
<g id="node34" class="node"><title>o20</title>
<ellipse fill="none" stroke="black" cx="462.892" cy="-225.386" rx="24.8972" ry="24.8972"/>
<text text-anchor="middle" x="462.892" y="-221.686" font-family="Times New Roman,serif" font-size="14.00">o20</text>
</g>
<!-- o28&#45;&gt;o20 -->
<g id="edge84" class="edge"><title>o28&#45;&gt;o20</title>
<path fill="none" stroke="black" d="M516.973,-138.184C506.87,-154.287 492.689,-176.891 481.384,-194.911"/>
<polygon fill="black" stroke="black" points="478.12,-193.528 475.77,-203.859 484.05,-197.248 478.12,-193.528"/>
</g>
<!-- o18 -->
<g id="node35" class="node"><title>o18</title>
<ellipse fill="none" stroke="black" cx="529.892" cy="-225.386" rx="24.8972" ry="24.8972"/>
<text text-anchor="middle" x="529.892" y="-221.686" font-family="Times New Roman,serif" font-size="14.00">o18</text>
</g>
<!-- o28&#45;&gt;o18 -->
<g id="edge85" class="edge"><title>o28&#45;&gt;o18</title>
<path fill="none" stroke="black" d="M529.892,-141.294C529.892,-155.71 529.892,-174.362 529.892,-190.34"/>
<polygon fill="black" stroke="black" points="526.392,-190.382 529.892,-200.382 533.392,-190.382 526.392,-190.382"/>
</g>
<!-- o20&#45;&gt;o14 -->
<g id="edge5" class="edge"><title>o20&#45;&gt;o14</title>
<path fill="none" stroke="black" d="M474.512,-247.302C480.145,-256.142 487.509,-266.082 495.892,-273.482 521.527,-296.114 540.312,-284.716 563.892,-309.482 574.064,-320.167 581.562,-334.558 586.816,-347.552"/>
<polygon fill="black" stroke="black" points="583.619,-348.995 590.404,-357.132 590.174,-346.539 583.619,-348.995"/>
</g>
<!-- o20&#45;&gt;e(e(o28o34)o20) -->
<g id="edge21" class="edge"><title>o20&#45;&gt;e(e(o28o34)o20)</title>
<path fill="none" stroke="black" d="M455.855,-249.38C451.474,-263.698 445.558,-283.03 439.623,-302.426"/>
<polygon fill="black" stroke="black" points="436.199,-301.653 436.62,-312.239 442.893,-303.701 436.199,-301.653"/>
</g>
<!-- o20&#45;&gt;o26 -->
<g id="edge42" class="edge"><title>o20&#45;&gt;o26</title>
<path fill="none" stroke="black" d="M472.491,-248.392C483.934,-274.624 503.141,-318.653 516.154,-348.485"/>
<polygon fill="black" stroke="black" points="513.103,-350.245 520.31,-358.011 519.52,-347.446 513.103,-350.245"/>
</g>
<!-- o20&#45;&gt;e(o10o8) -->
<g id="edge72" class="edge"><title>o20&#45;&gt;e(o10o8)</title>
<path fill="none" stroke="black" d="M473.478,-247.763C478.999,-256.909 486.563,-266.961 495.892,-273.482 546.785,-309.06 579.568,-274.526 630.892,-309.482 640.516,-316.037 649.035,-324.978 656.249,-334.29"/>
<polygon fill="black" stroke="black" points="653.529,-336.5 662.248,-342.519 659.185,-332.376 653.529,-336.5"/>
</g>
<!-- o18&#45;&gt;o14 -->
<g id="edge6" class="edge"><title>o18&#45;&gt;o14</title>
<path fill="none" stroke="black" d="M539.491,-248.392C550.934,-274.624 570.141,-318.653 583.154,-348.485"/>
<polygon fill="black" stroke="black" points="580.103,-350.245 587.31,-358.011 586.52,-347.446 580.103,-350.245"/>
</g>
<!-- o18&#45;&gt;e(e(o28o34)o20) -->
<g id="edge24" class="edge"><title>o18&#45;&gt;e(e(o28o34)o20)</title>
<path fill="none" stroke="black" d="M516.254,-246.214C510.372,-254.67 503.368,-264.613 496.892,-273.482 486.814,-287.282 475.84,-301.945 465.317,-315.834"/>
<polygon fill="black" stroke="black" points="462.444,-313.83 459.183,-323.911 468.019,-318.064 462.444,-313.83"/>
</g>
<!-- o18&#45;&gt;o26 -->
<g id="edge43" class="edge"><title>o18&#45;&gt;o26</title>
<path fill="none" stroke="black" d="M529.892,-250.385C529.892,-276.083 529.892,-317.07 529.892,-346.059"/>
<polygon fill="black" stroke="black" points="526.392,-346.146 529.892,-356.146 533.392,-346.146 526.392,-346.146"/>
</g>
<!-- o18&#45;&gt;e(o10o8) -->
<g id="edge74" class="edge"><title>o18&#45;&gt;e(o10o8)</title>
<path fill="none" stroke="black" d="M541.512,-247.302C547.145,-256.142 554.509,-266.082 562.892,-273.482 588.527,-296.114 604.982,-287.164 630.892,-309.482 639.536,-316.928 647.58,-326.065 654.633,-335.261"/>
<polygon fill="black" stroke="black" points="651.817,-337.34 660.566,-343.317 657.454,-333.189 651.817,-337.34"/>
</g>
<!-- o46&#45;&gt;e(e(e(e(e(o28o34)o20)o26)o40)o50) -->
<g id="edge14" class="edge"><title>o46&#45;&gt;e(e(e(e(e(o28o34)o20)o26)o40)o50)</title>
<path fill="none" stroke="black" d="M786.083,-1392.35C780.233,-1403.95 772.462,-1419.37 763.93,-1436.3"/>
<polygon fill="black" stroke="black" points="760.78,-1434.77 759.404,-1445.28 767.03,-1437.92 760.78,-1434.77"/>
</g>
</g>
</svg>
