<?xml version="1.0" encoding="UTF-8" standalone="no"?>
<!DOCTYPE svg PUBLIC "-//W3C//DTD SVG 1.1//EN"
 "http://www.w3.org/Graphics/SVG/1.1/DTD/svg11.dtd">
<!-- Generated by graphviz version 2.38.0 (20140413.2041)
 -->
<!-- Title: priss2013&#45;table01_o18_d Pages: 1 -->
<svg width="706pt" height="1231pt"
 viewBox="0.00 0.00 705.99 1231.41" xmlns="http://www.w3.org/2000/svg" xmlns:xlink="http://www.w3.org/1999/xlink">
<g id="graph0" class="graph" transform="scale(1 1) rotate(0) translate(4 1227.41)">
<title>priss2013&#45;table01_o18_d</title>
<polygon fill="white" stroke="none" points="-4,4 -4,-1227.41 701.987,-1227.41 701.987,4 -4,4"/>
<!-- e(e(o10o30)o26) -->
<g id="node1" class="node"><title>e(e(o10o30)o26)</title>
<ellipse fill="none" stroke="black" cx="71.4937" cy="-380.976" rx="71.4873" ry="71.4873"/>
<text text-anchor="middle" x="71.4937" y="-377.276" font-family="Times New Roman,serif" font-size="14.00">e(e(o10o30)o26)</text>
</g>
<!-- e(e(e(o10o30)o26)o8) -->
<g id="node20" class="node"><title>e(e(e(o10o30)o26)o8)</title>
<ellipse fill="none" stroke="black" cx="98.4937" cy="-630.157" rx="90.1842" ry="90.1842"/>
<text text-anchor="middle" x="98.4937" y="-626.457" font-family="Times New Roman,serif" font-size="14.00">e(e(e(o10o30)o26)o8)</text>
</g>
<!-- e(e(o10o30)o26)&#45;&gt;e(e(e(o10o30)o26)o8) -->
<g id="edge44" class="edge"><title>e(e(o10o30)o26)&#45;&gt;e(e(e(o10o30)o26)o8)</title>
<path fill="none" stroke="black" d="M79.1586,-452.147C81.8128,-476.446 84.8398,-504.158 87.6981,-530.325"/>
<polygon fill="black" stroke="black" points="84.2189,-530.707 88.7842,-540.268 91.1775,-529.947 84.2189,-530.707"/>
</g>
<!-- e(e(e(o10o30)o26)e(e(o10o30)o44)) -->
<g id="node21" class="node"><title>e(e(e(o10o30)o26)e(e(o10o30)o44))</title>
<ellipse fill="none" stroke="black" cx="348.494" cy="-630.157" rx="141.875" ry="141.875"/>
<text text-anchor="middle" x="348.494" y="-626.457" font-family="Times New Roman,serif" font-size="14.00">e(e(e(o10o30)o26)e(e(o10o30)o44))</text>
</g>
<!-- e(e(o10o30)o26)&#45;&gt;e(e(e(o10o30)o26)e(e(o10o30)o44)) -->
<g id="edge46" class="edge"><title>e(e(o10o30)o26)&#45;&gt;e(e(e(o10o30)o26)e(e(o10o30)o44))</title>
<path fill="none" stroke="black" d="M124.816,-428.932C133.992,-436.854 143.477,-444.944 152.494,-452.469 172.158,-468.88 178.11,-471.728 197.494,-488.469 210.992,-500.128 224.951,-512.573 238.681,-525.057"/>
<polygon fill="black" stroke="black" points="236.534,-527.836 246.28,-531.992 241.253,-522.666 236.534,-527.836"/>
</g>
<!-- e(o10o30) -->
<g id="node2" class="node"><title>e(o10o30)</title>
<ellipse fill="none" stroke="black" cx="344.494" cy="-225.386" rx="48.1917" ry="48.1917"/>
<text text-anchor="middle" x="344.494" y="-221.686" font-family="Times New Roman,serif" font-size="14.00">e(o10o30)</text>
</g>
<!-- e(o10o30)&#45;&gt;e(e(o10o30)o26) -->
<g id="edge2" class="edge"><title>e(o10o30)&#45;&gt;e(e(o10o30)o26)</title>
<path fill="none" stroke="black" d="M306.975,-255.559C297.398,-262.095 286.867,-268.546 276.494,-273.482 224.675,-298.14 202.873,-282.002 152.494,-309.482 144.965,-313.589 137.527,-318.495 130.39,-323.782"/>
<polygon fill="black" stroke="black" points="127.936,-321.255 122.162,-330.138 132.216,-326.794 127.936,-321.255"/>
</g>
<!-- o8 -->
<g id="node3" class="node"><title>o8</title>
<ellipse fill="none" stroke="black" cx="181.494" cy="-380.976" rx="20.2975" ry="20.2975"/>
<text text-anchor="middle" x="181.494" y="-377.276" font-family="Times New Roman,serif" font-size="14.00">o8</text>
</g>
<!-- e(o10o30)&#45;&gt;o8 -->
<g id="edge9" class="edge"><title>e(o10o30)&#45;&gt;o8</title>
<path fill="none" stroke="black" d="M305.773,-254.256C296.323,-260.763 286.15,-267.528 276.494,-273.482 248.052,-291.019 232.797,-284.603 210.494,-309.482 199.902,-321.297 192.871,-337.507 188.388,-351.405"/>
<polygon fill="black" stroke="black" points="185.024,-350.439 185.559,-361.02 191.739,-352.414 185.024,-350.439"/>
</g>
<!-- o40 -->
<g id="node5" class="node"><title>o40</title>
<ellipse fill="none" stroke="black" cx="244.494" cy="-380.976" rx="24.8972" ry="24.8972"/>
<text text-anchor="middle" x="244.494" y="-377.276" font-family="Times New Roman,serif" font-size="14.00">o40</text>
</g>
<!-- e(o10o30)&#45;&gt;o40 -->
<g id="edge10" class="edge"><title>e(o10o30)&#45;&gt;o40</title>
<path fill="none" stroke="black" d="M312.819,-261.785C300.923,-276.033 287.8,-292.977 277.494,-309.482 269.926,-321.601 262.98,-335.735 257.433,-348.152"/>
<polygon fill="black" stroke="black" points="254.073,-347.103 253.3,-357.67 260.493,-349.892 254.073,-347.103"/>
</g>
<!-- o38 -->
<g id="node7" class="node"><title>o38</title>
<ellipse fill="none" stroke="black" cx="311.494" cy="-380.976" rx="24.8972" ry="24.8972"/>
<text text-anchor="middle" x="311.494" y="-377.276" font-family="Times New Roman,serif" font-size="14.00">o38</text>
</g>
<!-- e(o10o30)&#45;&gt;o38 -->
<g id="edge18" class="edge"><title>e(o10o30)&#45;&gt;o38</title>
<path fill="none" stroke="black" d="M334.593,-272.468C329.47,-296.312 323.33,-324.885 318.669,-346.579"/>
<polygon fill="black" stroke="black" points="315.19,-346.113 316.511,-356.625 322.033,-347.584 315.19,-346.113"/>
</g>
<!-- o36 -->
<g id="node15" class="node"><title>o36</title>
<ellipse fill="none" stroke="black" cx="378.494" cy="-380.976" rx="24.8972" ry="24.8972"/>
<text text-anchor="middle" x="378.494" y="-377.276" font-family="Times New Roman,serif" font-size="14.00">o36</text>
</g>
<!-- e(o10o30)&#45;&gt;o36 -->
<g id="edge32" class="edge"><title>e(o10o30)&#45;&gt;o36</title>
<path fill="none" stroke="black" d="M354.695,-272.468C359.973,-296.312 366.298,-324.885 371.101,-346.579"/>
<polygon fill="black" stroke="black" points="367.746,-347.618 373.325,-356.625 374.58,-346.105 367.746,-347.618"/>
</g>
<!-- e(e(o10o30)o44) -->
<g id="node17" class="node"><title>e(e(o10o30)o44)</title>
<ellipse fill="none" stroke="black" cx="626.494" cy="-380.976" rx="71.4873" ry="71.4873"/>
<text text-anchor="middle" x="626.494" y="-377.276" font-family="Times New Roman,serif" font-size="14.00">e(e(o10o30)o44)</text>
</g>
<!-- e(o10o30)&#45;&gt;e(e(o10o30)o44) -->
<g id="edge34" class="edge"><title>e(o10o30)&#45;&gt;e(e(o10o30)o44)</title>
<path fill="none" stroke="black" d="M390.293,-240.355C432.646,-254.376 496.418,-278.345 546.494,-309.482 553.612,-313.908 560.715,-318.974 567.586,-324.315"/>
<polygon fill="black" stroke="black" points="565.541,-327.162 575.531,-330.689 569.921,-321.701 565.541,-327.162"/>
</g>
<!-- o34 -->
<g id="node19" class="node"><title>o34</title>
<ellipse fill="none" stroke="black" cx="445.494" cy="-380.976" rx="24.8972" ry="24.8972"/>
<text text-anchor="middle" x="445.494" y="-377.276" font-family="Times New Roman,serif" font-size="14.00">o34</text>
</g>
<!-- e(o10o30)&#45;&gt;o34 -->
<g id="edge37" class="edge"><title>e(o10o30)&#45;&gt;o34</title>
<path fill="none" stroke="black" d="M376.676,-261.723C388.753,-275.962 402.066,-292.918 412.494,-309.482 420.105,-321.574 427.059,-335.703 432.599,-348.123"/>
<polygon fill="black" stroke="black" points="429.538,-349.862 436.725,-357.646 435.961,-347.079 429.538,-349.862"/>
</g>
<!-- o32 -->
<g id="node24" class="node"><title>o32</title>
<ellipse fill="none" stroke="black" cx="512.494" cy="-380.976" rx="24.8972" ry="24.8972"/>
<text text-anchor="middle" x="512.494" y="-377.276" font-family="Times New Roman,serif" font-size="14.00">o32</text>
</g>
<!-- e(o10o30)&#45;&gt;o32 -->
<g id="edge53" class="edge"><title>e(o10o30)&#45;&gt;o32</title>
<path fill="none" stroke="black" d="M388.615,-245.321C417.496,-259.527 454.394,-281.346 479.494,-309.482 489.243,-320.41 496.652,-334.72 501.954,-347.589"/>
<polygon fill="black" stroke="black" points="498.745,-348.993 505.603,-357.069 505.278,-346.479 498.745,-348.993"/>
</g>
<!-- e(e(e(o10o30)o44)o8) -->
<g id="node12" class="node"><title>e(e(e(o10o30)o44)o8)</title>
<ellipse fill="none" stroke="black" cx="598.494" cy="-630.157" rx="90.1842" ry="90.1842"/>
<text text-anchor="middle" x="598.494" y="-626.457" font-family="Times New Roman,serif" font-size="14.00">e(e(e(o10o30)o44)o8)</text>
</g>
<!-- o8&#45;&gt;e(e(e(o10o30)o44)o8) -->
<g id="edge23" class="edge"><title>o8&#45;&gt;e(e(e(o10o30)o44)o8)</title>
<path fill="none" stroke="black" d="M183.985,-401.06C187.187,-417.401 194.402,-440.18 210.494,-452.469 313.362,-531.032 388.525,-421.836 499.494,-488.469 520.648,-501.172 538.459,-520.328 552.881,-540.45"/>
<polygon fill="black" stroke="black" points="550.089,-542.565 558.65,-548.807 555.85,-538.589 550.089,-542.565"/>
</g>
<!-- o8&#45;&gt;e(e(e(o10o30)o26)o8) -->
<g id="edge38" class="edge"><title>o8&#45;&gt;e(e(e(o10o30)o26)o8)</title>
<path fill="none" stroke="black" d="M175.255,-400.555C165.71,-428.981 146.835,-485.193 130.191,-534.76"/>
<polygon fill="black" stroke="black" points="126.869,-533.658 127.004,-544.252 133.505,-535.886 126.869,-533.658"/>
</g>
<!-- eBot -->
<g id="node4" class="node"><title>eBot</title>
<ellipse fill="none" stroke="black" cx="331.494" cy="-27.9475" rx="27.8951" ry="27.8951"/>
<text text-anchor="middle" x="331.494" y="-24.2475" font-family="Times New Roman,serif" font-size="14.00">eBot</text>
</g>
<!-- o16 -->
<g id="node8" class="node"><title>o16</title>
<ellipse fill="none" stroke="black" cx="231.494" cy="-116.593" rx="24.8972" ry="24.8972"/>
<text text-anchor="middle" x="231.494" y="-112.893" font-family="Times New Roman,serif" font-size="14.00">o16</text>
</g>
<!-- eBot&#45;&gt;o16 -->
<g id="edge19" class="edge"><title>eBot&#45;&gt;o16</title>
<path fill="none" stroke="black" d="M310.774,-46.9005C295.336,-60.2762 274.15,-78.6335 257.562,-93.0061"/>
<polygon fill="black" stroke="black" points="255.099,-90.5087 249.833,-99.7023 259.683,-95.7991 255.099,-90.5087"/>
</g>
<!-- o28 -->
<g id="node11" class="node"><title>o28</title>
<ellipse fill="none" stroke="black" cx="298.494" cy="-116.593" rx="24.8972" ry="24.8972"/>
<text text-anchor="middle" x="298.494" y="-112.893" font-family="Times New Roman,serif" font-size="14.00">o28</text>
</g>
<!-- eBot&#45;&gt;o28 -->
<g id="edge22" class="edge"><title>eBot&#45;&gt;o28</title>
<path fill="none" stroke="black" d="M321.771,-54.4753C318.3,-63.5894 314.344,-73.9751 310.691,-83.5667"/>
<polygon fill="black" stroke="black" points="307.315,-82.5971 307.027,-93.188 313.857,-85.0886 307.315,-82.5971"/>
</g>
<!-- o30 -->
<g id="node13" class="node"><title>o30</title>
<ellipse fill="none" stroke="black" cx="365.494" cy="-116.593" rx="24.8972" ry="24.8972"/>
<text text-anchor="middle" x="365.494" y="-112.893" font-family="Times New Roman,serif" font-size="14.00">o30</text>
</g>
<!-- eBot&#45;&gt;o30 -->
<g id="edge30" class="edge"><title>eBot&#45;&gt;o30</title>
<path fill="none" stroke="black" d="M341.511,-54.4753C345.125,-63.6853 349.249,-74.1939 353.045,-83.8693"/>
<polygon fill="black" stroke="black" points="349.791,-85.1576 356.702,-93.188 356.307,-82.6005 349.791,-85.1576"/>
</g>
<!-- o20 -->
<g id="node14" class="node"><title>o20</title>
<ellipse fill="none" stroke="black" cx="432.494" cy="-116.593" rx="24.8972" ry="24.8972"/>
<text text-anchor="middle" x="432.494" y="-112.893" font-family="Times New Roman,serif" font-size="14.00">o20</text>
</g>
<!-- eBot&#45;&gt;o20 -->
<g id="edge31" class="edge"><title>eBot&#45;&gt;o20</title>
<path fill="none" stroke="black" d="M352.421,-46.9005C368.013,-60.2762 389.411,-78.6335 406.165,-93.0061"/>
<polygon fill="black" stroke="black" points="404.102,-95.8476 413.971,-99.7023 408.66,-90.5347 404.102,-95.8476"/>
</g>
<!-- o10 -->
<g id="node18" class="node"><title>o10</title>
<ellipse fill="none" stroke="black" cx="164.494" cy="-116.593" rx="24.8972" ry="24.8972"/>
<text text-anchor="middle" x="164.494" y="-112.893" font-family="Times New Roman,serif" font-size="14.00">o10</text>
</g>
<!-- eBot&#45;&gt;o10 -->
<g id="edge36" class="edge"><title>eBot&#45;&gt;o10</title>
<path fill="none" stroke="black" d="M305.846,-39.3287C278.34,-50.8406 233.732,-70.6152 197.494,-91.895 195.76,-92.913 194.004,-93.9979 192.251,-95.1224"/>
<polygon fill="black" stroke="black" points="189.962,-92.4451 183.639,-100.947 193.884,-98.2435 189.962,-92.4451"/>
</g>
<!-- o14 -->
<g id="node25" class="node"><title>o14</title>
<ellipse fill="none" stroke="black" cx="499.494" cy="-116.593" rx="24.8972" ry="24.8972"/>
<text text-anchor="middle" x="499.494" y="-112.893" font-family="Times New Roman,serif" font-size="14.00">o14</text>
</g>
<!-- eBot&#45;&gt;o14 -->
<g id="edge54" class="edge"><title>eBot&#45;&gt;o14</title>
<path fill="none" stroke="black" d="M357.086,-39.1929C384.782,-50.6634 429.892,-70.4717 466.494,-91.895 468.229,-92.9105 469.986,-93.9935 471.74,-95.1166"/>
<polygon fill="black" stroke="black" points="470.108,-98.2382 480.354,-100.937 474.027,-92.4381 470.108,-98.2382"/>
</g>
<!-- o40&#45;&gt;e(e(e(o10o30)o44)o8) -->
<g id="edge24" class="edge"><title>o40&#45;&gt;e(e(e(o10o30)o44)o8)</title>
<path fill="none" stroke="black" d="M249.381,-405.257C253.943,-421.054 262.397,-441.068 277.494,-452.469 357.256,-512.712 414.762,-435.444 499.494,-488.469 520.299,-501.489 537.948,-520.648 552.324,-540.662"/>
<polygon fill="black" stroke="black" points="549.508,-542.742 558.079,-548.969 555.262,-538.756 549.508,-542.742"/>
</g>
<!-- o40&#45;&gt;e(e(e(o10o30)o26)o8) -->
<g id="edge39" class="edge"><title>o40&#45;&gt;e(e(e(o10o30)o26)o8)</title>
<path fill="none" stroke="black" d="M234.714,-403.902C228.238,-417.986 219.337,-436.554 210.494,-452.469 193.154,-483.675 172.617,-516.967 153.895,-546.141"/>
<polygon fill="black" stroke="black" points="150.884,-544.353 148.409,-554.655 156.768,-548.145 150.884,-544.353"/>
</g>
<!-- e(e(e(e(o10o30)o26)e(e(o10o30)o44))o50) -->
<g id="node6" class="node"><title>e(e(e(e(o10o30)o26)e(e(o10o30)o44))o50)</title>
<ellipse fill="none" stroke="black" cx="472.494" cy="-1058.33" rx="165.171" ry="165.171"/>
<text text-anchor="middle" x="472.494" y="-1054.63" font-family="Times New Roman,serif" font-size="14.00">e(e(e(e(o10o30)o26)e(e(o10o30)o44))o50)</text>
</g>
<!-- o38&#45;&gt;e(e(e(o10o30)o44)o8) -->
<g id="edge28" class="edge"><title>o38&#45;&gt;e(e(e(o10o30)o44)o8)</title>
<path fill="none" stroke="black" d="M316.724,-405.284C321.421,-420.883 329.895,-440.65 344.494,-452.469 399.459,-496.972 440.842,-448.952 499.494,-488.469 519.739,-502.11 537.149,-521.383 551.47,-541.3"/>
<polygon fill="black" stroke="black" points="548.629,-543.346 557.213,-549.556 554.376,-539.349 548.629,-543.346"/>
</g>
<!-- o38&#45;&gt;e(e(e(o10o30)o26)o8) -->
<g id="edge42" class="edge"><title>o38&#45;&gt;e(e(e(o10o30)o26)o8)</title>
<path fill="none" stroke="black" d="M305.3,-405.109C300.233,-420.23 291.712,-439.508 278.494,-452.469 250.365,-480.052 227.93,-463.456 197.494,-488.469 179.02,-503.652 162.419,-523.098 148.325,-542.656"/>
<polygon fill="black" stroke="black" points="145.325,-540.839 142.44,-551.033 151.052,-544.862 145.325,-540.839"/>
</g>
<!-- o16&#45;&gt;e(o10o30) -->
<g id="edge8" class="edge"><title>o16&#45;&gt;e(o10o30)</title>
<path fill="none" stroke="black" d="M249.15,-134.279C263.271,-147.625 283.668,-166.901 301.974,-184.203"/>
<polygon fill="black" stroke="black" points="299.996,-187.148 309.668,-191.473 304.804,-182.061 299.996,-187.148"/>
</g>
<!-- o26 -->
<g id="node23" class="node"><title>o26</title>
<ellipse fill="none" stroke="black" cx="242.494" cy="-225.386" rx="24.8972" ry="24.8972"/>
<text text-anchor="middle" x="242.494" y="-221.686" font-family="Times New Roman,serif" font-size="14.00">o26</text>
</g>
<!-- o16&#45;&gt;o26 -->
<g id="edge52" class="edge"><title>o16&#45;&gt;o26</title>
<path fill="none" stroke="black" d="M233.935,-141.294C235.43,-155.811 237.368,-174.623 239.021,-190.675"/>
<polygon fill="black" stroke="black" points="235.553,-191.163 240.059,-200.752 242.516,-190.446 235.553,-191.163"/>
</g>
<!-- o50 -->
<g id="node9" class="node"><title>o50</title>
<ellipse fill="none" stroke="black" cx="661.494" cy="-832.542" rx="24.8972" ry="24.8972"/>
<text text-anchor="middle" x="661.494" y="-828.842" font-family="Times New Roman,serif" font-size="14.00">o50</text>
</g>
<!-- o50&#45;&gt;e(e(e(e(o10o30)o26)e(e(o10o30)o44))o50) -->
<g id="edge11" class="edge"><title>o50&#45;&gt;e(e(e(e(o10o30)o26)e(e(o10o30)o44))o50)</title>
<path fill="none" stroke="black" d="M646.027,-851.855C631.783,-868.72 609.25,-895.401 585.076,-924.023"/>
<polygon fill="black" stroke="black" points="582.34,-921.839 578.561,-931.737 587.687,-926.356 582.34,-921.839"/>
</g>
<!-- o44 -->
<g id="node10" class="node"><title>o44</title>
<ellipse fill="none" stroke="black" cx="589.494" cy="-225.386" rx="24.8972" ry="24.8972"/>
<text text-anchor="middle" x="589.494" y="-221.686" font-family="Times New Roman,serif" font-size="14.00">o44</text>
</g>
<!-- o44&#45;&gt;e(e(o10o30)o44) -->
<g id="edge35" class="edge"><title>o44&#45;&gt;e(e(o10o30)o44)</title>
<path fill="none" stroke="black" d="M595.113,-249.713C598.487,-263.72 602.996,-282.437 607.542,-301.306"/>
<polygon fill="black" stroke="black" points="604.172,-302.26 609.916,-311.162 610.977,-300.621 604.172,-302.26"/>
</g>
<!-- o28&#45;&gt;e(o10o30) -->
<g id="edge3" class="edge"><title>o28&#45;&gt;e(o10o30)</title>
<path fill="none" stroke="black" d="M307.913,-139.462C311.938,-148.806 316.828,-160.157 321.704,-171.479"/>
<polygon fill="black" stroke="black" points="318.608,-173.138 325.779,-180.937 325.037,-170.368 318.608,-173.138"/>
</g>
<!-- o28&#45;&gt;o26 -->
<g id="edge48" class="edge"><title>o28&#45;&gt;o26</title>
<path fill="none" stroke="black" d="M287.43,-138.692C279.2,-154.386 267.844,-176.043 258.606,-193.659"/>
<polygon fill="black" stroke="black" points="255.271,-192.484 253.726,-202.966 261.47,-195.735 255.271,-192.484"/>
</g>
<!-- e(e(e(o10o30)o44)o8)&#45;&gt;o50 -->
<g id="edge20" class="edge"><title>e(e(e(o10o30)o44)o8)&#45;&gt;o50</title>
<path fill="none" stroke="black" d="M625.394,-716.719C634.559,-745.87 644.254,-776.708 651.287,-799.078"/>
<polygon fill="black" stroke="black" points="647.981,-800.233 654.319,-808.723 654.659,-798.134 647.981,-800.233"/>
</g>
<!-- o48 -->
<g id="node16" class="node"><title>o48</title>
<ellipse fill="none" stroke="black" cx="409.494" cy="-832.542" rx="24.8972" ry="24.8972"/>
<text text-anchor="middle" x="409.494" y="-828.842" font-family="Times New Roman,serif" font-size="14.00">o48</text>
</g>
<!-- e(e(e(o10o30)o44)o8)&#45;&gt;o48 -->
<g id="edge33" class="edge"><title>e(e(e(o10o30)o44)o8)&#45;&gt;o48</title>
<path fill="none" stroke="black" d="M552.323,-708.072C537.089,-730.073 519.002,-753.136 499.494,-771.844 478.138,-792.324 468.079,-791.382 443.494,-807.844 441.599,-809.113 439.653,-810.43 437.696,-811.765"/>
<polygon fill="black" stroke="black" points="435.432,-809.075 429.184,-817.632 439.404,-814.839 435.432,-809.075"/>
</g>
<!-- o4 -->
<g id="node22" class="node"><title>o4</title>
<ellipse fill="none" stroke="black" cx="472.494" cy="-832.542" rx="20.2975" ry="20.2975"/>
<text text-anchor="middle" x="472.494" y="-828.842" font-family="Times New Roman,serif" font-size="14.00">o4</text>
</g>
<!-- e(e(e(o10o30)o44)o8)&#45;&gt;o4 -->
<g id="edge47" class="edge"><title>e(e(e(o10o30)o44)o8)&#45;&gt;o4</title>
<path fill="none" stroke="black" d="M550.679,-707.2C528.702,-742.15 504.104,-781.27 488.471,-806.132"/>
<polygon fill="black" stroke="black" points="485.303,-804.595 482.943,-814.924 491.229,-808.321 485.303,-804.595"/>
</g>
<!-- o46 -->
<g id="node26" class="node"><title>o46</title>
<ellipse fill="none" stroke="black" cx="535.494" cy="-832.542" rx="24.8972" ry="24.8972"/>
<text text-anchor="middle" x="535.494" y="-828.842" font-family="Times New Roman,serif" font-size="14.00">o46</text>
</g>
<!-- e(e(e(o10o30)o44)o8)&#45;&gt;o46 -->
<g id="edge55" class="edge"><title>e(e(e(o10o30)o44)o8)&#45;&gt;o46</title>
<path fill="none" stroke="black" d="M571.593,-716.719C562.429,-745.87 552.733,-776.708 545.7,-799.078"/>
<polygon fill="black" stroke="black" points="542.328,-798.134 542.668,-808.723 549.006,-800.233 542.328,-798.134"/>
</g>
<!-- o2 -->
<g id="node27" class="node"><title>o2</title>
<ellipse fill="none" stroke="black" cx="598.494" cy="-832.542" rx="20.2975" ry="20.2975"/>
<text text-anchor="middle" x="598.494" y="-828.842" font-family="Times New Roman,serif" font-size="14.00">o2</text>
</g>
<!-- e(e(e(o10o30)o44)o8)&#45;&gt;o2 -->
<g id="edge56" class="edge"><title>e(e(e(o10o30)o44)o8)&#45;&gt;o2</title>
<path fill="none" stroke="black" d="M598.494,-720.508C598.494,-749.792 598.494,-780.327 598.494,-801.947"/>
<polygon fill="black" stroke="black" points="594.994,-802.092 598.494,-812.092 601.994,-802.092 594.994,-802.092"/>
</g>
<!-- o30&#45;&gt;e(o10o30) -->
<g id="edge6" class="edge"><title>o30&#45;&gt;e(o10o30)</title>
<path fill="none" stroke="black" d="M360.885,-141.029C359.308,-149.049 357.469,-158.403 355.604,-167.888"/>
<polygon fill="black" stroke="black" points="352.156,-167.281 353.661,-177.768 359.024,-168.632 352.156,-167.281"/>
</g>
<!-- o30&#45;&gt;o26 -->
<g id="edge51" class="edge"><title>o30&#45;&gt;o26</title>
<path fill="none" stroke="black" d="M345.828,-132.1C326.283,-146.615 297.78,-168.072 287.494,-177.291 280.072,-183.942 272.428,-191.595 265.593,-198.771"/>
<polygon fill="black" stroke="black" points="262.822,-196.61 258.544,-206.302 267.933,-201.393 262.822,-196.61"/>
</g>
<!-- o20&#45;&gt;e(o10o30) -->
<g id="edge4" class="edge"><title>o20&#45;&gt;e(o10o30)</title>
<path fill="none" stroke="black" d="M417.165,-136.195C407.185,-148.307 393.719,-164.648 381.091,-179.974"/>
<polygon fill="black" stroke="black" points="378.244,-177.924 374.586,-187.868 383.646,-182.376 378.244,-177.924"/>
</g>
<!-- o20&#45;&gt;o26 -->
<g id="edge49" class="edge"><title>o20&#45;&gt;o26</title>
<path fill="none" stroke="black" d="M413.592,-132.686C409.134,-135.809 404.28,-138.878 399.494,-141.291 352.804,-164.825 331.805,-149.536 287.494,-177.291 278.907,-182.669 270.819,-190.051 263.932,-197.376"/>
<polygon fill="black" stroke="black" points="260.999,-195.407 256.964,-205.204 266.227,-200.062 260.999,-195.407"/>
</g>
<!-- o36&#45;&gt;e(e(e(o10o30)o44)o8) -->
<g id="edge25" class="edge"><title>o36&#45;&gt;e(e(e(o10o30)o44)o8)</title>
<path fill="none" stroke="black" d="M384.563,-405.238C389.575,-420.415 398.083,-439.707 411.494,-452.469 442.104,-481.601 466.449,-462.13 499.494,-488.469 518.192,-503.374 534.878,-522.716 548.981,-542.262"/>
<polygon fill="black" stroke="black" points="546.254,-544.469 554.866,-550.64 551.982,-540.445 546.254,-544.469"/>
</g>
<!-- o36&#45;&gt;e(e(e(o10o30)o26)o8) -->
<g id="edge40" class="edge"><title>o36&#45;&gt;e(e(e(o10o30)o26)o8)</title>
<path fill="none" stroke="black" d="M373.225,-405.236C368.51,-420.814 360.03,-440.574 345.494,-452.469 293.103,-495.34 253.438,-450.352 197.494,-488.469 177.319,-502.215 159.935,-521.526 145.616,-541.446"/>
<polygon fill="black" stroke="black" points="142.711,-539.494 139.873,-549.702 148.457,-543.492 142.711,-539.494"/>
</g>
<!-- o48&#45;&gt;e(e(e(e(o10o30)o26)e(e(o10o30)o44))o50) -->
<g id="edge12" class="edge"><title>o48&#45;&gt;e(e(e(e(o10o30)o26)e(e(o10o30)o44))o50)</title>
<path fill="none" stroke="black" d="M415.998,-856.648C418.554,-865.725 421.722,-876.977 425.243,-889.486"/>
<polygon fill="black" stroke="black" points="421.922,-890.603 428.001,-899.281 428.66,-888.706 421.922,-890.603"/>
</g>
<!-- e(e(o10o30)o44)&#45;&gt;e(e(e(o10o30)o44)o8) -->
<g id="edge26" class="edge"><title>e(e(o10o30)o44)&#45;&gt;e(e(e(o10o30)o44)o8)</title>
<path fill="none" stroke="black" d="M618.545,-452.147C615.792,-476.446 612.653,-504.158 609.689,-530.325"/>
<polygon fill="black" stroke="black" points="606.211,-529.938 608.563,-540.268 613.166,-530.726 606.211,-529.938"/>
</g>
<!-- e(e(o10o30)o44)&#45;&gt;e(e(e(o10o30)o26)e(e(o10o30)o44)) -->
<g id="edge45" class="edge"><title>e(e(o10o30)o44)&#45;&gt;e(e(e(o10o30)o26)e(e(o10o30)o44))</title>
<path fill="none" stroke="black" d="M573.574,-429.512C564.624,-437.289 555.36,-445.182 546.494,-452.469 526.166,-469.177 519.587,-471.481 499.494,-488.469 485.873,-499.985 471.839,-512.343 458.069,-524.778"/>
<polygon fill="black" stroke="black" points="455.504,-522.379 450.45,-531.69 460.208,-527.563 455.504,-522.379"/>
</g>
<!-- o10&#45;&gt;e(o10o30) -->
<g id="edge5" class="edge"><title>o10&#45;&gt;e(o10o30)</title>
<path fill="none" stroke="black" d="M183.616,-132.279C188.063,-135.423 192.856,-138.603 197.494,-141.291 230.879,-160.636 242.945,-158.231 276.494,-177.291 283.429,-181.231 290.557,-185.679 297.466,-190.228"/>
<polygon fill="black" stroke="black" points="295.819,-193.338 306.07,-196.014 299.725,-187.53 295.819,-193.338"/>
</g>
<!-- o10&#45;&gt;o26 -->
<g id="edge50" class="edge"><title>o10&#45;&gt;o26</title>
<path fill="none" stroke="black" d="M178.8,-137.18C191.005,-153.89 208.69,-178.104 222.33,-196.779"/>
<polygon fill="black" stroke="black" points="219.553,-198.912 228.278,-204.923 225.206,-194.783 219.553,-198.912"/>
</g>
<!-- o34&#45;&gt;e(e(e(o10o30)o44)o8) -->
<g id="edge27" class="edge"><title>o34&#45;&gt;e(e(e(o10o30)o44)o8)</title>
<path fill="none" stroke="black" d="M454.734,-404.023C460.918,-418.154 469.54,-436.73 478.494,-452.469 496.929,-484.876 519.394,-519.083 539.88,-548.676"/>
<polygon fill="black" stroke="black" points="537.015,-550.687 545.601,-556.895 542.761,-546.688 537.015,-550.687"/>
</g>
<!-- o34&#45;&gt;e(e(e(o10o30)o26)o8) -->
<g id="edge41" class="edge"><title>o34&#45;&gt;e(e(e(o10o30)o26)o8)</title>
<path fill="none" stroke="black" d="M440.588,-405.233C436.018,-421.019 427.561,-441.029 412.494,-452.469 335.331,-511.06 279.49,-436.861 197.494,-488.469 176.722,-501.543 159.085,-520.72 144.71,-540.735"/>
<polygon fill="black" stroke="black" points="141.772,-538.829 138.954,-549.042 147.526,-542.816 141.772,-538.829"/>
</g>
<!-- e(e(e(o10o30)o26)o8)&#45;&gt;e(e(e(e(o10o30)o26)e(e(o10o30)o44))o50) -->
<g id="edge13" class="edge"><title>e(e(e(o10o30)o26)o8)&#45;&gt;e(e(e(e(o10o30)o26)e(e(o10o30)o44))o50)</title>
<path fill="none" stroke="black" d="M148.062,-706.118C163.262,-727.831 180.48,-751.228 197.494,-771.844 243.731,-827.872 298.593,-886.233 347.107,-935.478"/>
<polygon fill="black" stroke="black" points="344.699,-938.021 354.217,-942.676 349.68,-933.102 344.699,-938.021"/>
</g>
<!-- e(e(e(o10o30)o26)e(e(o10o30)o44))&#45;&gt;e(e(e(e(o10o30)o26)e(e(o10o30)o44))o50) -->
<g id="edge17" class="edge"><title>e(e(e(o10o30)o26)e(e(o10o30)o44))&#45;&gt;e(e(e(e(o10o30)o26)e(e(o10o30)o44))o50)</title>
<path fill="none" stroke="black" d="M357.922,-771.62C361.889,-800.302 367.516,-830.023 375.494,-857.24 379.922,-872.349 385.402,-887.722 391.485,-902.892"/>
<polygon fill="black" stroke="black" points="388.314,-904.383 395.347,-912.307 394.79,-901.727 388.314,-904.383"/>
</g>
<!-- o4&#45;&gt;e(e(e(e(o10o30)o26)e(e(o10o30)o44))o50) -->
<g id="edge16" class="edge"><title>o4&#45;&gt;e(e(e(e(o10o30)o26)e(e(o10o30)o44))o50)</title>
<path fill="none" stroke="black" d="M472.494,-853.01C472.494,-861.151 472.494,-871.427 472.494,-883.016"/>
<polygon fill="black" stroke="black" points="468.994,-883.041 472.494,-893.041 475.994,-883.041 468.994,-883.041"/>
</g>
<!-- o26&#45;&gt;e(e(o10o30)o26) -->
<g id="edge1" class="edge"><title>o26&#45;&gt;e(e(o10o30)o26)</title>
<path fill="none" stroke="black" d="M224.517,-242.533C202.686,-262.141 164.73,-296.232 132.083,-325.555"/>
<polygon fill="black" stroke="black" points="129.446,-323.219 124.345,-332.506 134.123,-328.427 129.446,-323.219"/>
</g>
<!-- o32&#45;&gt;e(e(e(o10o30)o44)o8) -->
<g id="edge29" class="edge"><title>o32&#45;&gt;e(e(e(o10o30)o44)o8)</title>
<path fill="none" stroke="black" d="M520.43,-404.787C530.72,-434.361 549.298,-487.758 565.749,-535.042"/>
<polygon fill="black" stroke="black" points="562.524,-536.423 569.115,-544.718 569.135,-534.123 562.524,-536.423"/>
</g>
<!-- o32&#45;&gt;e(e(e(o10o30)o26)o8) -->
<g id="edge43" class="edge"><title>o32&#45;&gt;e(e(e(o10o30)o26)o8)</title>
<path fill="none" stroke="black" d="M507.723,-405.415C503.217,-421.286 494.781,-441.324 479.494,-452.469 377.397,-526.905 305.717,-423.261 197.494,-488.469 176.359,-501.204 158.555,-520.372 144.133,-540.494"/>
<polygon fill="black" stroke="black" points="141.164,-538.633 138.364,-548.851 146.925,-542.609 141.164,-538.633"/>
</g>
<!-- o14&#45;&gt;e(o10o30) -->
<g id="edge7" class="edge"><title>o14&#45;&gt;e(o10o30)</title>
<path fill="none" stroke="black" d="M479.657,-131.959C475.333,-135.057 470.771,-138.299 466.494,-141.291 442.193,-158.288 414.934,-176.897 392.356,-192.188"/>
<polygon fill="black" stroke="black" points="390.27,-189.374 383.948,-197.876 394.192,-195.172 390.27,-189.374"/>
</g>
<!-- o14&#45;&gt;o44 -->
<g id="edge21" class="edge"><title>o14&#45;&gt;o44</title>
<path fill="none" stroke="black" d="M515.17,-136.195C529.624,-153.346 551.228,-178.98 567.423,-198.198"/>
<polygon fill="black" stroke="black" points="564.876,-200.606 573.997,-205.998 570.229,-196.095 564.876,-200.606"/>
</g>
<!-- o46&#45;&gt;e(e(e(e(o10o30)o26)e(e(o10o30)o44))o50) -->
<g id="edge15" class="edge"><title>o46&#45;&gt;e(e(e(e(o10o30)o26)e(e(o10o30)o44))o50)</title>
<path fill="none" stroke="black" d="M528.989,-856.648C526.433,-865.725 523.266,-876.977 519.744,-889.486"/>
<polygon fill="black" stroke="black" points="516.328,-888.706 516.987,-899.281 523.066,-890.603 516.328,-888.706"/>
</g>
<!-- o2&#45;&gt;e(e(e(e(o10o30)o26)e(e(o10o30)o44))o50) -->
<g id="edge14" class="edge"><title>o2&#45;&gt;e(e(e(e(o10o30)o26)e(e(o10o30)o44))o50)</title>
<path fill="none" stroke="black" d="M589.023,-850.362C581.647,-863.464 570.599,-883.084 558.196,-905.112"/>
<polygon fill="black" stroke="black" points="555.048,-903.571 553.191,-914.002 561.147,-907.005 555.048,-903.571"/>
</g>
</g>
</svg>
