<?xml version="1.0" encoding="UTF-8" standalone="no"?>
<!DOCTYPE svg PUBLIC "-//W3C//DTD SVG 1.1//EN"
 "http://www.w3.org/Graphics/SVG/1.1/DTD/svg11.dtd">
<!-- Generated by graphviz version 2.38.0 (20140413.2041)
 -->
<!-- Title: priss2013&#45;table01_o2_d Pages: 1 -->
<svg width="1328pt" height="747pt"
 viewBox="0.00 0.00 1327.64 746.95" xmlns="http://www.w3.org/2000/svg" xmlns:xlink="http://www.w3.org/1999/xlink">
<g id="graph0" class="graph" transform="scale(1 1) rotate(0) translate(4 742.95)">
<title>priss2013&#45;table01_o2_d</title>
<polygon fill="white" stroke="none" points="-4,4 -4,-742.95 1323.64,-742.95 1323.64,4 -4,4"/>
<!-- o56 -->
<g id="node1" class="node"><title>o56</title>
<ellipse fill="none" stroke="black" cx="1086.7" cy="-116.593" rx="24.8972" ry="24.8972"/>
<text text-anchor="middle" x="1086.7" y="-112.893" font-family="Times New Roman,serif" font-size="14.00">o56</text>
</g>
<!-- e(o4o56) -->
<g id="node10" class="node"><title>e(o4o56)</title>
<ellipse fill="none" stroke="black" cx="1086.7" cy="-220.837" rx="43.5923" ry="43.5923"/>
<text text-anchor="middle" x="1086.7" y="-217.137" font-family="Times New Roman,serif" font-size="14.00">e(o4o56)</text>
</g>
<!-- o56&#45;&gt;e(o4o56) -->
<g id="edge34" class="edge"><title>o56&#45;&gt;e(o4o56)</title>
<path fill="none" stroke="black" d="M1086.7,-141.307C1086.7,-149.022 1086.7,-157.919 1086.7,-166.892"/>
<polygon fill="black" stroke="black" points="1083.2,-166.995 1086.7,-176.995 1090.2,-166.995 1083.2,-166.995"/>
</g>
<!-- o8 -->
<g id="node2" class="node"><title>o8</title>
<ellipse fill="none" stroke="black" cx="497.698" cy="-220.837" rx="20.2975" ry="20.2975"/>
<text text-anchor="middle" x="497.698" y="-217.137" font-family="Times New Roman,serif" font-size="14.00">o8</text>
</g>
<!-- o40 -->
<g id="node4" class="node"><title>o40</title>
<ellipse fill="none" stroke="black" cx="91.6978" cy="-367.327" rx="24.8972" ry="24.8972"/>
<text text-anchor="middle" x="91.6978" y="-363.627" font-family="Times New Roman,serif" font-size="14.00">o40</text>
</g>
<!-- o8&#45;&gt;o40 -->
<g id="edge4" class="edge"><title>o8&#45;&gt;o40</title>
<path fill="none" stroke="black" d="M477.369,-223.793C407.925,-230.821 181.283,-256.722 124.698,-300.383 113.901,-308.714 106.376,-321.529 101.269,-333.655"/>
<polygon fill="black" stroke="black" points="97.9477,-332.542 97.675,-343.133 104.493,-335.023 97.9477,-332.542"/>
</g>
<!-- o38 -->
<g id="node7" class="node"><title>o38</title>
<ellipse fill="none" stroke="black" cx="158.698" cy="-367.327" rx="24.8972" ry="24.8972"/>
<text text-anchor="middle" x="158.698" y="-363.627" font-family="Times New Roman,serif" font-size="14.00">o38</text>
</g>
<!-- o8&#45;&gt;o38 -->
<g id="edge25" class="edge"><title>o8&#45;&gt;o38</title>
<path fill="none" stroke="black" d="M477.301,-221.535C424.184,-221.804 279.621,-229.423 191.698,-300.383 181.086,-308.948 173.591,-321.803 168.457,-333.894"/>
<polygon fill="black" stroke="black" points="165.151,-332.742 164.832,-343.332 171.685,-335.252 165.151,-332.742"/>
</g>
<!-- e(o26o8) -->
<g id="node9" class="node"><title>e(o26o8)</title>
<ellipse fill="none" stroke="black" cx="981.698" cy="-367.327" rx="43.5923" ry="43.5923"/>
<text text-anchor="middle" x="981.698" y="-363.627" font-family="Times New Roman,serif" font-size="14.00">e(o26o8)</text>
</g>
<!-- o8&#45;&gt;e(o26o8) -->
<g id="edge31" class="edge"><title>o8&#45;&gt;e(o26o8)</title>
<path fill="none" stroke="black" d="M505.253,-239.631C510.036,-248.614 517.138,-258.772 526.698,-264.383 681.778,-355.415 771.551,-214.789 929.698,-300.383 939.026,-305.432 947.252,-312.936 954.249,-321.094"/>
<polygon fill="black" stroke="black" points="951.614,-323.404 960.576,-329.055 957.094,-319.049 951.614,-323.404"/>
</g>
<!-- o16 -->
<g id="node11" class="node"><title>o16</title>
<ellipse fill="none" stroke="black" cx="225.698" cy="-367.327" rx="24.8972" ry="24.8972"/>
<text text-anchor="middle" x="225.698" y="-363.627" font-family="Times New Roman,serif" font-size="14.00">o16</text>
</g>
<!-- o8&#45;&gt;o16 -->
<g id="edge37" class="edge"><title>o8&#45;&gt;o16</title>
<path fill="none" stroke="black" d="M477.55,-223.305C432.957,-227.548 324.654,-243.443 258.698,-300.383 248.452,-309.229 241.04,-322.017 235.869,-333.981"/>
<polygon fill="black" stroke="black" points="232.603,-332.723 232.191,-343.31 239.115,-335.29 232.603,-332.723"/>
</g>
<!-- o50 -->
<g id="node12" class="node"><title>o50</title>
<ellipse fill="none" stroke="black" cx="292.698" cy="-367.327" rx="24.8972" ry="24.8972"/>
<text text-anchor="middle" x="292.698" y="-363.627" font-family="Times New Roman,serif" font-size="14.00">o50</text>
</g>
<!-- o8&#45;&gt;o50 -->
<g id="edge40" class="edge"><title>o8&#45;&gt;o50</title>
<path fill="none" stroke="black" d="M478.245,-226.171C443.585,-234.784 370.58,-257.071 325.698,-300.383 316.126,-309.62 308.888,-322.223 303.666,-333.937"/>
<polygon fill="black" stroke="black" points="300.31,-332.894 299.746,-343.474 306.784,-335.555 300.31,-332.894"/>
</g>
<!-- o44 -->
<g id="node14" class="node"><title>o44</title>
<ellipse fill="none" stroke="black" cx="359.698" cy="-367.327" rx="24.8972" ry="24.8972"/>
<text text-anchor="middle" x="359.698" y="-363.627" font-family="Times New Roman,serif" font-size="14.00">o44</text>
</g>
<!-- o8&#45;&gt;o44 -->
<g id="edge44" class="edge"><title>o8&#45;&gt;o44</title>
<path fill="none" stroke="black" d="M480.1,-231.496C457.48,-244.627 418.103,-269.991 392.698,-300.383 384.295,-310.435 377.336,-322.99 372.01,-334.439"/>
<polygon fill="black" stroke="black" points="368.751,-333.155 367.925,-343.717 375.158,-335.976 368.751,-333.155"/>
</g>
<!-- o46 -->
<g id="node17" class="node"><title>o46</title>
<ellipse fill="none" stroke="black" cx="426.698" cy="-367.327" rx="24.8972" ry="24.8972"/>
<text text-anchor="middle" x="426.698" y="-363.627" font-family="Times New Roman,serif" font-size="14.00">o46</text>
</g>
<!-- o8&#45;&gt;o46 -->
<g id="edge63" class="edge"><title>o8&#45;&gt;o46</title>
<path fill="none" stroke="black" d="M489.134,-239.266C477.419,-263.106 456.21,-306.267 441.796,-335.601"/>
<polygon fill="black" stroke="black" points="438.644,-334.079 437.375,-344.598 444.927,-337.166 438.644,-334.079"/>
</g>
<!-- o20 -->
<g id="node18" class="node"><title>o20</title>
<ellipse fill="none" stroke="black" cx="493.698" cy="-367.327" rx="24.8972" ry="24.8972"/>
<text text-anchor="middle" x="493.698" y="-363.627" font-family="Times New Roman,serif" font-size="14.00">o20</text>
</g>
<!-- o8&#45;&gt;o20 -->
<g id="edge66" class="edge"><title>o8&#45;&gt;o20</title>
<path fill="none" stroke="black" d="M497.167,-241.024C496.526,-264.168 495.437,-303.502 494.65,-331.935"/>
<polygon fill="black" stroke="black" points="491.143,-332.149 494.365,-342.242 498.14,-332.342 491.143,-332.149"/>
</g>
<!-- o36 -->
<g id="node19" class="node"><title>o36</title>
<ellipse fill="none" stroke="black" cx="560.698" cy="-367.327" rx="24.8972" ry="24.8972"/>
<text text-anchor="middle" x="560.698" y="-363.627" font-family="Times New Roman,serif" font-size="14.00">o36</text>
</g>
<!-- o8&#45;&gt;o36 -->
<g id="edge69" class="edge"><title>o8&#45;&gt;o36</title>
<path fill="none" stroke="black" d="M505.423,-239.554C515.755,-263.251 534.245,-305.659 546.976,-334.856"/>
<polygon fill="black" stroke="black" points="543.847,-336.437 551.052,-344.205 550.264,-333.64 543.847,-336.437"/>
</g>
<!-- o48 -->
<g id="node20" class="node"><title>o48</title>
<ellipse fill="none" stroke="black" cx="627.698" cy="-367.327" rx="24.8972" ry="24.8972"/>
<text text-anchor="middle" x="627.698" y="-363.627" font-family="Times New Roman,serif" font-size="14.00">o48</text>
</g>
<!-- o8&#45;&gt;o48 -->
<g id="edge72" class="edge"><title>o8&#45;&gt;o48</title>
<path fill="none" stroke="black" d="M506.786,-239.047C511.83,-247.436 518.702,-257.232 526.698,-264.383 552.187,-287.18 570.796,-275.927 594.698,-300.383 603.996,-309.896 611.182,-322.551 616.44,-334.229"/>
<polygon fill="black" stroke="black" points="613.32,-335.842 620.406,-343.719 619.779,-333.143 613.32,-335.842"/>
</g>
<!-- o10 -->
<g id="node21" class="node"><title>o10</title>
<ellipse fill="none" stroke="black" cx="694.698" cy="-367.327" rx="24.8972" ry="24.8972"/>
<text text-anchor="middle" x="694.698" y="-363.627" font-family="Times New Roman,serif" font-size="14.00">o10</text>
</g>
<!-- o8&#45;&gt;o10 -->
<g id="edge75" class="edge"><title>o8&#45;&gt;o10</title>
<path fill="none" stroke="black" d="M505.903,-239.421C510.797,-248.119 517.8,-258.077 526.698,-264.383 577.361,-300.289 613.558,-261.158 661.698,-300.383 672.27,-308.997 679.758,-321.86 684.897,-333.945"/>
<polygon fill="black" stroke="black" points="681.669,-335.301 688.53,-343.374 688.201,-332.784 681.669,-335.301"/>
</g>
<!-- o34 -->
<g id="node22" class="node"><title>o34</title>
<ellipse fill="none" stroke="black" cx="761.698" cy="-367.327" rx="24.8972" ry="24.8972"/>
<text text-anchor="middle" x="761.698" y="-363.627" font-family="Times New Roman,serif" font-size="14.00">o34</text>
</g>
<!-- o8&#45;&gt;o34 -->
<g id="edge78" class="edge"><title>o8&#45;&gt;o34</title>
<path fill="none" stroke="black" d="M505.691,-239.734C510.527,-248.517 517.542,-258.457 526.698,-264.383 603.253,-313.934 655.639,-245.807 728.698,-300.383 739.623,-308.544 747.17,-321.332 752.259,-333.482"/>
<polygon fill="black" stroke="black" points="749.037,-334.859 755.83,-342.989 755.59,-332.397 749.037,-334.859"/>
</g>
<!-- o18 -->
<g id="node23" class="node"><title>o18</title>
<ellipse fill="none" stroke="black" cx="828.698" cy="-367.327" rx="24.8972" ry="24.8972"/>
<text text-anchor="middle" x="828.698" y="-363.627" font-family="Times New Roman,serif" font-size="14.00">o18</text>
</g>
<!-- o8&#45;&gt;o18 -->
<g id="edge81" class="edge"><title>o8&#45;&gt;o18</title>
<path fill="none" stroke="black" d="M505.588,-239.898C510.395,-248.726 517.416,-258.657 526.698,-264.383 629.355,-327.716 697.521,-230.305 795.698,-300.383 806.88,-308.365 814.486,-321.242 819.549,-333.509"/>
<polygon fill="black" stroke="black" points="816.344,-334.935 823.084,-343.11 822.913,-332.516 816.344,-334.935"/>
</g>
<!-- o32 -->
<g id="node26" class="node"><title>o32</title>
<ellipse fill="none" stroke="black" cx="895.698" cy="-367.327" rx="24.8972" ry="24.8972"/>
<text text-anchor="middle" x="895.698" y="-363.627" font-family="Times New Roman,serif" font-size="14.00">o32</text>
</g>
<!-- o8&#45;&gt;o32 -->
<g id="edge86" class="edge"><title>o8&#45;&gt;o32</title>
<path fill="none" stroke="black" d="M505.292,-239.564C510.087,-248.527 517.188,-258.688 526.698,-264.383 655.544,-341.552 739.319,-214.743 862.698,-300.383 873.984,-308.217 881.606,-321.071 886.654,-333.359"/>
<polygon fill="black" stroke="black" points="883.452,-334.794 890.171,-342.986 890.027,-332.393 883.452,-334.794"/>
</g>
<!-- o14 -->
<g id="node27" class="node"><title>o14</title>
<ellipse fill="none" stroke="black" cx="24.6978" cy="-367.327" rx="24.8972" ry="24.8972"/>
<text text-anchor="middle" x="24.6978" y="-363.627" font-family="Times New Roman,serif" font-size="14.00">o14</text>
</g>
<!-- o8&#45;&gt;o14 -->
<g id="edge89" class="edge"><title>o8&#45;&gt;o14</title>
<path fill="none" stroke="black" d="M477.575,-223.063C400.627,-228.102 125.918,-249.406 57.6978,-300.383 46.7735,-308.546 39.2268,-321.334 34.1383,-333.484"/>
<polygon fill="black" stroke="black" points="30.8072,-332.398 30.5668,-342.99 37.36,-334.86 30.8072,-332.398"/>
</g>
<!-- e(e(o4o56)o8) -->
<g id="node29" class="node"><title>e(e(o4o56)o8)</title>
<ellipse fill="none" stroke="black" cx="1105.7" cy="-367.327" rx="62.2891" ry="62.2891"/>
<text text-anchor="middle" x="1105.7" y="-363.627" font-family="Times New Roman,serif" font-size="14.00">e(e(o4o56)o8)</text>
</g>
<!-- o8&#45;&gt;e(e(o4o56)o8) -->
<g id="edge94" class="edge"><title>o8&#45;&gt;e(e(o4o56)o8)</title>
<path fill="none" stroke="black" d="M505.212,-239.701C509.983,-248.705 517.087,-258.86 526.698,-264.383 624.819,-320.776 930.888,-255.311 1034.7,-300.383 1042.46,-303.754 1049.92,-308.347 1056.88,-313.551"/>
<polygon fill="black" stroke="black" points="1054.83,-316.392 1064.83,-319.905 1059.2,-310.926 1054.83,-316.392"/>
</g>
<!-- eBot -->
<g id="node3" class="node"><title>eBot</title>
<ellipse fill="none" stroke="black" cx="1019.7" cy="-27.9475" rx="27.8951" ry="27.8951"/>
<text text-anchor="middle" x="1019.7" y="-24.2475" font-family="Times New Roman,serif" font-size="14.00">eBot</text>
</g>
<!-- eBot&#45;&gt;o56 -->
<g id="edge1" class="edge"><title>eBot&#45;&gt;o56</title>
<path fill="none" stroke="black" d="M1036.6,-50.8118C1045.49,-62.2985 1056.45,-76.4777 1065.86,-88.6393"/>
<polygon fill="black" stroke="black" points="1063.19,-90.9088 1072.07,-96.6785 1068.72,-86.6267 1063.19,-90.9088"/>
</g>
<!-- o54 -->
<g id="node13" class="node"><title>o54</title>
<ellipse fill="none" stroke="black" cx="1019.7" cy="-116.593" rx="24.8972" ry="24.8972"/>
<text text-anchor="middle" x="1019.7" y="-112.893" font-family="Times New Roman,serif" font-size="14.00">o54</text>
</g>
<!-- eBot&#45;&gt;o54 -->
<g id="edge42" class="edge"><title>eBot&#45;&gt;o54</title>
<path fill="none" stroke="black" d="M1019.7,-56.3626C1019.7,-64.3805 1019.7,-73.2425 1019.7,-81.6154"/>
<polygon fill="black" stroke="black" points="1016.2,-81.8593 1019.7,-91.8593 1023.2,-81.8594 1016.2,-81.8593"/>
</g>
<!-- o4 -->
<g id="node28" class="node"><title>o4</title>
<ellipse fill="none" stroke="black" cx="801.698" cy="-116.593" rx="20.2975" ry="20.2975"/>
<text text-anchor="middle" x="801.698" y="-112.893" font-family="Times New Roman,serif" font-size="14.00">o4</text>
</g>
<!-- eBot&#45;&gt;o4 -->
<g id="edge91" class="edge"><title>eBot&#45;&gt;o4</title>
<path fill="none" stroke="black" d="M993.834,-39.2271C952.591,-55.6196 872.249,-87.5518 829.698,-104.464"/>
<polygon fill="black" stroke="black" points="828.233,-101.28 820.233,-108.226 830.819,-107.785 828.233,-101.28"/>
</g>
<!-- e(e(o26o8)o50) -->
<g id="node6" class="node"><title>e(e(o26o8)o50)</title>
<ellipse fill="none" stroke="black" cx="426.698" cy="-556.063" rx="66.8882" ry="66.8882"/>
<text text-anchor="middle" x="426.698" y="-552.363" font-family="Times New Roman,serif" font-size="14.00">e(e(o26o8)o50)</text>
</g>
<!-- o40&#45;&gt;e(e(o26o8)o50) -->
<g id="edge11" class="edge"><title>o40&#45;&gt;e(e(o26o8)o50)</title>
<path fill="none" stroke="black" d="M98.5526,-391.385C103.748,-405.395 112.166,-422.744 124.698,-434.271 188.443,-492.904 284.209,-524.639 350.745,-540.659"/>
<polygon fill="black" stroke="black" points="350.218,-544.131 360.753,-543.004 351.815,-537.315 350.218,-544.131"/>
</g>
<!-- e(e(e(o4o56)o8)o50) -->
<g id="node16" class="node"><title>e(e(e(o4o56)o8)o50)</title>
<ellipse fill="none" stroke="black" cx="597.698" cy="-556.063" rx="85.5853" ry="85.5853"/>
<text text-anchor="middle" x="597.698" y="-552.363" font-family="Times New Roman,serif" font-size="14.00">e(e(e(o4o56)o8)o50)</text>
</g>
<!-- o40&#45;&gt;e(e(e(o4o56)o8)o50) -->
<g id="edge49" class="edge"><title>o40&#45;&gt;e(e(e(o4o56)o8)o50)</title>
<path fill="none" stroke="black" d="M97.1864,-391.723C101.921,-406.432 110.337,-424.427 124.698,-434.271 194.298,-481.977 425.372,-436.496 502.698,-470.271 512.625,-474.607 522.232,-480.39 531.278,-486.906"/>
<polygon fill="black" stroke="black" points="529.337,-489.827 539.421,-493.077 533.565,-484.248 529.337,-489.827"/>
</g>
<!-- eTop -->
<g id="node5" class="node"><title>eTop</title>
<ellipse fill="none" stroke="black" cx="597.698" cy="-708.403" rx="30.5947" ry="30.5947"/>
<text text-anchor="middle" x="597.698" y="-704.703" font-family="Times New Roman,serif" font-size="14.00">eTop</text>
</g>
<!-- e(e(o26o8)o50)&#45;&gt;eTop -->
<g id="edge8" class="edge"><title>e(e(o26o8)o50)&#45;&gt;eTop</title>
<path fill="none" stroke="black" d="M469.047,-608.258C479.55,-619.813 491.126,-631.665 502.698,-641.856 521.522,-658.433 544.651,-674.47 563.374,-686.532"/>
<polygon fill="black" stroke="black" points="561.586,-689.543 571.904,-691.95 565.339,-683.634 561.586,-689.543"/>
</g>
<!-- o38&#45;&gt;e(e(o26o8)o50) -->
<g id="edge17" class="edge"><title>o38&#45;&gt;e(e(o26o8)o50)</title>
<path fill="none" stroke="black" d="M165.939,-390.985C171.284,-404.84 179.723,-422.166 191.698,-434.271 236.857,-479.92 302.891,-511.763 353.47,-531.249"/>
<polygon fill="black" stroke="black" points="352.455,-534.607 363.047,-534.863 354.927,-528.058 352.455,-534.607"/>
</g>
<!-- o38&#45;&gt;e(e(e(o4o56)o8)o50) -->
<g id="edge55" class="edge"><title>o38&#45;&gt;e(e(e(o4o56)o8)o50)</title>
<path fill="none" stroke="black" d="M164.253,-391.628C169.015,-406.295 177.437,-424.282 191.698,-434.271 305.666,-514.1 375.758,-413.284 502.698,-470.271 512.503,-474.673 522.01,-480.461 530.979,-486.95"/>
<polygon fill="black" stroke="black" points="528.977,-489.825 539.057,-493.087 533.212,-484.25 528.977,-489.825"/>
</g>
<!-- e(e(o4o56)o26) -->
<g id="node8" class="node"><title>e(e(o4o56)o26)</title>
<ellipse fill="none" stroke="black" cx="1252.7" cy="-367.327" rx="66.8882" ry="66.8882"/>
<text text-anchor="middle" x="1252.7" y="-363.627" font-family="Times New Roman,serif" font-size="14.00">e(e(o4o56)o26)</text>
</g>
<!-- e(e(o4o56)o26)&#45;&gt;eTop -->
<g id="edge6" class="edge"><title>e(e(o4o56)o26)&#45;&gt;eTop</title>
<path fill="none" stroke="black" d="M1204.38,-413.664C1195.5,-420.991 1186.06,-428.165 1176.7,-434.271 986.509,-558.259 731.188,-658.281 635.77,-693.641"/>
<polygon fill="black" stroke="black" points="634.423,-690.407 626.251,-697.15 636.844,-696.975 634.423,-690.407"/>
</g>
<!-- e(o26o8)&#45;&gt;e(e(o26o8)o50) -->
<g id="edge19" class="edge"><title>e(o26o8)&#45;&gt;e(e(o26o8)o50)</title>
<path fill="none" stroke="black" d="M960.595,-405.635C952.418,-416.708 942.024,-427.64 929.698,-434.271 761.98,-524.506 673.177,-385.368 502.698,-470.271 491.388,-475.904 480.988,-484.009 471.749,-493.001"/>
<polygon fill="black" stroke="black" points="469.047,-490.76 464.593,-500.373 474.07,-495.636 469.047,-490.76"/>
</g>
<!-- e(o4o56)&#45;&gt;e(e(o4o56)o26) -->
<g id="edge28" class="edge"><title>e(o4o56)&#45;&gt;e(e(o4o56)o26)</title>
<path fill="none" stroke="black" d="M1119.1,-250.039C1140.56,-268.72 1169.32,-293.755 1194.66,-315.811"/>
<polygon fill="black" stroke="black" points="1192.56,-318.625 1202.4,-322.55 1197.16,-313.345 1192.56,-318.625"/>
</g>
<!-- e(o4o56)&#45;&gt;e(e(o4o56)o8) -->
<g id="edge93" class="edge"><title>e(o4o56)&#45;&gt;e(e(o4o56)o8)</title>
<path fill="none" stroke="black" d="M1092.3,-264.407C1093.57,-274.122 1094.96,-284.703 1096.35,-295.251"/>
<polygon fill="black" stroke="black" points="1092.9,-295.867 1097.68,-305.325 1099.84,-294.954 1092.9,-295.867"/>
</g>
<!-- o16&#45;&gt;e(e(o26o8)o50) -->
<g id="edge23" class="edge"><title>o16&#45;&gt;e(e(o26o8)o50)</title>
<path fill="none" stroke="black" d="M233.71,-390.701C239.307,-404.278 247.738,-421.408 258.698,-434.271 286.929,-467.403 326.074,-496.233 359.476,-517.41"/>
<polygon fill="black" stroke="black" points="357.944,-520.579 368.281,-522.902 361.648,-514.64 357.944,-520.579"/>
</g>
<!-- o16&#45;&gt;e(e(e(o4o56)o8)o50) -->
<g id="edge61" class="edge"><title>o16&#45;&gt;e(e(e(o4o56)o8)o50)</title>
<path fill="none" stroke="black" d="M231.357,-391.481C236.163,-406.088 244.595,-424.061 258.698,-434.271 347.489,-498.555 403.408,-423.82 502.698,-470.271 512.433,-474.825 521.897,-480.708 530.841,-487.25"/>
<polygon fill="black" stroke="black" points="528.835,-490.123 538.902,-493.425 533.092,-484.565 528.835,-490.123"/>
</g>
<!-- o50&#45;&gt;e(e(o26o8)o50) -->
<g id="edge9" class="edge"><title>o50&#45;&gt;e(e(o26o8)o50)</title>
<path fill="none" stroke="black" d="M302.181,-390.411C308.207,-403.564 316.575,-420.352 325.698,-434.271 340.184,-456.372 358.131,-479.005 374.86,-498.618"/>
<polygon fill="black" stroke="black" points="372.267,-500.97 381.447,-506.26 377.569,-496.4 372.267,-500.97"/>
</g>
<!-- o50&#45;&gt;e(e(e(o4o56)o8)o50) -->
<g id="edge47" class="edge"><title>o50&#45;&gt;e(e(e(o4o56)o8)o50)</title>
<path fill="none" stroke="black" d="M298.651,-391.553C303.552,-405.997 311.978,-423.76 325.698,-434.271 389.424,-483.092 430.932,-434.297 502.698,-470.271 512.23,-475.05 521.543,-481.038 530.381,-487.61"/>
<polygon fill="black" stroke="black" points="528.308,-490.431 538.356,-493.791 532.597,-484.899 528.308,-490.431"/>
</g>
<!-- o54&#45;&gt;e(o4o56) -->
<g id="edge33" class="edge"><title>o54&#45;&gt;e(o4o56)</title>
<path fill="none" stroke="black" d="M1032.93,-137.793C1040,-148.582 1049,-162.315 1057.61,-175.445"/>
<polygon fill="black" stroke="black" points="1054.77,-177.503 1063.18,-183.949 1060.63,-173.666 1054.77,-177.503"/>
</g>
<!-- o44&#45;&gt;e(e(o26o8)o50) -->
<g id="edge10" class="edge"><title>o44&#45;&gt;e(e(o26o8)o50)</title>
<path fill="none" stroke="black" d="M367.78,-390.852C375.984,-413.719 389.123,-450.339 400.914,-483.2"/>
<polygon fill="black" stroke="black" points="397.688,-484.574 404.36,-492.805 404.277,-482.21 397.688,-484.574"/>
</g>
<!-- o44&#45;&gt;e(e(e(o4o56)o8)o50) -->
<g id="edge48" class="edge"><title>o44&#45;&gt;e(e(e(o4o56)o8)o50)</title>
<path fill="none" stroke="black" d="M366.186,-391.35C371.273,-405.526 379.706,-423.069 392.698,-434.271 431.656,-467.862 458.12,-444.6 502.698,-470.271 511.865,-475.55 520.924,-481.818 529.596,-488.521"/>
<polygon fill="black" stroke="black" points="527.443,-491.281 537.443,-494.783 531.81,-485.81 527.443,-491.281"/>
</g>
<!-- o28 -->
<g id="node15" class="node"><title>o28</title>
<ellipse fill="none" stroke="black" cx="560.698" cy="-220.837" rx="24.8972" ry="24.8972"/>
<text text-anchor="middle" x="560.698" y="-217.137" font-family="Times New Roman,serif" font-size="14.00">o28</text>
</g>
<!-- o28&#45;&gt;o40 -->
<g id="edge5" class="edge"><title>o28&#45;&gt;o40</title>
<path fill="none" stroke="black" d="M549.076,-242.765C543.426,-250.913 535.86,-259.461 526.698,-264.383 447.685,-306.827 198.821,-249.883 124.698,-300.383 113.344,-308.118 105.71,-320.956 100.673,-333.259"/>
<polygon fill="black" stroke="black" points="97.294,-332.31 97.1681,-342.904 103.873,-334.701 97.294,-332.31"/>
</g>
<!-- o28&#45;&gt;o38 -->
<g id="edge26" class="edge"><title>o28&#45;&gt;o38</title>
<path fill="none" stroke="black" d="M549.033,-242.686C543.376,-250.821 535.816,-259.38 526.698,-264.383 395.414,-336.414 314.7,-214.975 191.698,-300.383 180.413,-308.219 172.791,-321.073 167.743,-333.361"/>
<polygon fill="black" stroke="black" points="164.37,-332.394 164.226,-342.988 170.945,-334.796 164.37,-332.394"/>
</g>
<!-- o28&#45;&gt;e(o26o8) -->
<g id="edge32" class="edge"><title>o28&#45;&gt;e(o26o8)</title>
<path fill="none" stroke="black" d="M572.193,-243.123C577.631,-251.123 584.881,-259.464 593.698,-264.383 724.853,-337.559 798.25,-227.733 929.698,-300.383 938.981,-305.514 947.188,-313.054 954.18,-321.22"/>
<polygon fill="black" stroke="black" points="951.545,-323.53 960.507,-329.182 957.026,-319.176 951.545,-323.53"/>
</g>
<!-- o28&#45;&gt;o16 -->
<g id="edge38" class="edge"><title>o28&#45;&gt;o16</title>
<path fill="none" stroke="black" d="M548.657,-243.012C543.025,-250.995 535.585,-259.353 526.698,-264.383 422.109,-323.582 356.499,-230.537 258.698,-300.383 247.518,-308.367 239.912,-321.245 234.849,-333.511"/>
<polygon fill="black" stroke="black" points="231.485,-332.519 231.313,-343.112 238.053,-334.938 231.485,-332.519"/>
</g>
<!-- o28&#45;&gt;o50 -->
<g id="edge41" class="edge"><title>o28&#45;&gt;o50</title>
<path fill="none" stroke="black" d="M548.544,-242.818C542.895,-250.771 535.473,-259.16 526.698,-264.383 448.713,-310.802 398.382,-246.038 325.698,-300.383 314.776,-308.549 307.23,-321.337 302.141,-333.487"/>
<polygon fill="black" stroke="black" points="298.81,-332.401 298.569,-342.993 305.362,-334.863 298.81,-332.401"/>
</g>
<!-- o28&#45;&gt;o44 -->
<g id="edge45" class="edge"><title>o28&#45;&gt;o44</title>
<path fill="none" stroke="black" d="M548.313,-242.448C542.629,-250.345 535.242,-258.791 526.698,-264.383 475.099,-298.153 440.468,-261.385 392.698,-300.383 382.134,-309.007 374.647,-321.872 369.507,-333.955"/>
<polygon fill="black" stroke="black" points="366.204,-332.792 365.873,-343.382 372.735,-335.31 366.204,-332.792"/>
</g>
<!-- o28&#45;&gt;o46 -->
<g id="edge64" class="edge"><title>o28&#45;&gt;o46</title>
<path fill="none" stroke="black" d="M547.288,-241.931C541.549,-249.569 534.397,-257.966 526.698,-264.383 500.731,-286.026 483.251,-276.135 459.698,-300.383 450.499,-309.853 443.356,-322.394 438.106,-333.996"/>
<polygon fill="black" stroke="black" points="434.788,-332.857 434.137,-343.432 441.241,-335.571 434.788,-332.857"/>
</g>
<!-- o28&#45;&gt;o20 -->
<g id="edge67" class="edge"><title>o28&#45;&gt;o20</title>
<path fill="none" stroke="black" d="M550.667,-243.468C539.369,-267.835 520.912,-307.638 508.08,-335.31"/>
<polygon fill="black" stroke="black" points="504.829,-334.003 503.797,-344.547 511.179,-336.948 504.829,-334.003"/>
</g>
<!-- o28&#45;&gt;o36 -->
<g id="edge70" class="edge"><title>o28&#45;&gt;o36</title>
<path fill="none" stroke="black" d="M560.698,-245.696C560.698,-269.331 560.698,-305.751 560.698,-332.392"/>
<polygon fill="black" stroke="black" points="557.198,-332.432 560.698,-342.432 564.198,-332.432 557.198,-332.432"/>
</g>
<!-- o28&#45;&gt;o48 -->
<g id="edge73" class="edge"><title>o28&#45;&gt;o48</title>
<path fill="none" stroke="black" d="M570.728,-243.468C582.027,-267.835 600.484,-307.638 613.315,-335.31"/>
<polygon fill="black" stroke="black" points="610.217,-336.948 617.599,-344.547 616.567,-334.003 610.217,-336.948"/>
</g>
<!-- o28&#45;&gt;o10 -->
<g id="edge76" class="edge"><title>o28&#45;&gt;o10</title>
<path fill="none" stroke="black" d="M573.597,-241.973C579.151,-249.617 586.113,-258.007 593.698,-264.383 619.875,-286.386 637.796,-275.927 661.698,-300.383 670.996,-309.896 678.182,-322.551 683.44,-334.229"/>
<polygon fill="black" stroke="black" points="680.32,-335.842 687.406,-343.719 686.779,-333.143 680.32,-335.842"/>
</g>
<!-- o28&#45;&gt;o34 -->
<g id="edge79" class="edge"><title>o28&#45;&gt;o34</title>
<path fill="none" stroke="black" d="M572.906,-242.898C578.365,-250.668 585.441,-258.904 593.698,-264.383 645.439,-298.717 680.558,-261.158 728.698,-300.383 739.27,-308.997 746.758,-321.86 751.897,-333.945"/>
<polygon fill="black" stroke="black" points="748.669,-335.301 755.53,-343.374 755.201,-332.784 748.669,-335.301"/>
</g>
<!-- o28&#45;&gt;o18 -->
<g id="edge82" class="edge"><title>o28&#45;&gt;o18</title>
<path fill="none" stroke="black" d="M572.371,-242.818C577.835,-250.772 585.058,-259.16 593.698,-264.383 671.739,-311.56 722.639,-245.807 795.698,-300.383 806.623,-308.544 814.17,-321.332 819.259,-333.482"/>
<polygon fill="black" stroke="black" points="816.037,-334.859 822.83,-342.989 822.59,-332.397 816.037,-334.859"/>
</g>
<!-- o28&#45;&gt;o32 -->
<g id="edge87" class="edge"><title>o28&#45;&gt;o32</title>
<path fill="none" stroke="black" d="M572.259,-243.007C577.706,-250.99 584.947,-259.348 593.698,-264.383 698.251,-324.533 764.521,-230.305 862.698,-300.383 873.88,-308.365 881.486,-321.242 886.549,-333.509"/>
<polygon fill="black" stroke="black" points="883.344,-334.935 890.084,-343.11 889.913,-332.516 883.344,-334.935"/>
</g>
<!-- o28&#45;&gt;o14 -->
<g id="edge90" class="edge"><title>o28&#45;&gt;o14</title>
<path fill="none" stroke="black" d="M549.106,-242.822C543.462,-250.98 535.891,-259.519 526.698,-264.383 434.302,-313.263 144.456,-242.079 57.6978,-300.383 46.2114,-308.102 38.5414,-321.061 33.5129,-333.458"/>
<polygon fill="black" stroke="black" points="30.1114,-332.574 30.024,-343.168 36.6991,-334.941 30.1114,-332.574"/>
</g>
<!-- o28&#45;&gt;e(e(o4o56)o8) -->
<g id="edge95" class="edge"><title>o28&#45;&gt;e(e(o4o56)o8)</title>
<path fill="none" stroke="black" d="M572.132,-243.235C577.56,-251.252 584.82,-259.576 593.698,-264.383 766.626,-358.019 854.736,-221.1 1034.7,-300.383 1042.44,-303.795 1049.89,-308.414 1056.85,-313.632"/>
<polygon fill="black" stroke="black" points="1054.8,-316.472 1064.79,-319.997 1059.17,-311.011 1054.8,-316.472"/>
</g>
<!-- e(e(e(o4o56)o8)o50)&#45;&gt;eTop -->
<g id="edge7" class="edge"><title>e(e(e(o4o56)o8)o50)&#45;&gt;eTop</title>
<path fill="none" stroke="black" d="M597.698,-641.899C597.698,-650.791 597.698,-659.499 597.698,-667.515"/>
<polygon fill="black" stroke="black" points="594.198,-667.611 597.698,-677.611 601.198,-667.611 594.198,-667.611"/>
</g>
<!-- o46&#45;&gt;e(e(o26o8)o50) -->
<g id="edge12" class="edge"><title>o46&#45;&gt;e(e(o26o8)o50)</title>
<path fill="none" stroke="black" d="M426.698,-392.357C426.698,-414.217 426.698,-447.693 426.698,-478.61"/>
<polygon fill="black" stroke="black" points="423.198,-478.976 426.698,-488.976 430.198,-478.976 423.198,-478.976"/>
</g>
<!-- o46&#45;&gt;e(e(e(o4o56)o8)o50) -->
<g id="edge50" class="edge"><title>o46&#45;&gt;e(e(e(o4o56)o8)o50)</title>
<path fill="none" stroke="black" d="M435.179,-390.729C440.901,-404.155 449.298,-421.114 459.698,-434.271 475.154,-453.825 483.842,-453.971 502.698,-470.271 510.412,-476.94 518.43,-483.958 526.392,-490.983"/>
<polygon fill="black" stroke="black" points="524.514,-493.995 534.323,-497.999 529.152,-488.751 524.514,-493.995"/>
</g>
<!-- o20&#45;&gt;e(e(o26o8)o50) -->
<g id="edge13" class="edge"><title>o20&#45;&gt;e(e(o26o8)o50)</title>
<path fill="none" stroke="black" d="M485.616,-390.852C477.412,-413.719 464.273,-450.339 452.482,-483.2"/>
<polygon fill="black" stroke="black" points="449.119,-482.21 449.036,-492.805 455.707,-484.574 449.119,-482.21"/>
</g>
<!-- o20&#45;&gt;e(e(e(o4o56)o8)o50) -->
<g id="edge51" class="edge"><title>o20&#45;&gt;e(e(e(o4o56)o8)o50)</title>
<path fill="none" stroke="black" d="M504.037,-389.899C510.367,-402.871 518.753,-419.647 526.698,-434.271 533.586,-446.949 541.093,-460.236 548.563,-473.17"/>
<polygon fill="black" stroke="black" points="545.674,-475.164 553.721,-482.056 551.728,-471.65 545.674,-475.164"/>
</g>
<!-- o36&#45;&gt;e(e(o26o8)o50) -->
<g id="edge14" class="edge"><title>o36&#45;&gt;e(e(o26o8)o50)</title>
<path fill="none" stroke="black" d="M551.215,-390.411C545.188,-403.564 536.821,-420.352 527.698,-434.271 513.212,-456.372 495.265,-479.005 478.536,-498.618"/>
<polygon fill="black" stroke="black" points="475.826,-496.4 471.949,-506.26 481.129,-500.97 475.826,-496.4"/>
</g>
<!-- o36&#45;&gt;e(e(e(o4o56)o8)o50) -->
<g id="edge52" class="edge"><title>o36&#45;&gt;e(e(e(o4o56)o8)o50)</title>
<path fill="none" stroke="black" d="M565.309,-391.6C568.865,-409.545 574.034,-435.633 579.202,-461.717"/>
<polygon fill="black" stroke="black" points="575.803,-462.569 581.18,-471.698 582.669,-461.208 575.803,-462.569"/>
</g>
<!-- o48&#45;&gt;e(e(o26o8)o50) -->
<g id="edge15" class="edge"><title>o48&#45;&gt;e(e(o26o8)o50)</title>
<path fill="none" stroke="black" d="M620.989,-391.102C615.815,-405.179 607.367,-422.705 594.698,-434.271 562.27,-463.874 538.774,-445.244 502.698,-470.271 492.573,-477.295 482.872,-485.926 473.99,-494.965"/>
<polygon fill="black" stroke="black" points="471.395,-492.615 467.05,-502.278 476.472,-497.434 471.395,-492.615"/>
</g>
<!-- o48&#45;&gt;e(e(e(o4o56)o8)o50) -->
<g id="edge53" class="edge"><title>o48&#45;&gt;e(e(e(o4o56)o8)o50)</title>
<path fill="none" stroke="black" d="M623.898,-391.977C621.045,-409.739 616.935,-435.32 612.814,-460.974"/>
<polygon fill="black" stroke="black" points="609.305,-460.747 611.175,-471.175 616.217,-461.857 609.305,-460.747"/>
</g>
<!-- o10&#45;&gt;e(e(o26o8)o50) -->
<g id="edge16" class="edge"><title>o10&#45;&gt;e(e(o26o8)o50)</title>
<path fill="none" stroke="black" d="M688.667,-391.452C683.734,-405.855 675.301,-423.61 661.698,-434.271 604.67,-478.965 565.164,-433.559 502.698,-470.271 491.939,-476.594 481.866,-484.954 472.793,-493.963"/>
<polygon fill="black" stroke="black" points="470.146,-491.666 465.738,-501.3 475.192,-496.518 470.146,-491.666"/>
</g>
<!-- o10&#45;&gt;e(e(e(o4o56)o8)o50) -->
<g id="edge54" class="edge"><title>o10&#45;&gt;e(e(e(o4o56)o8)o50)</title>
<path fill="none" stroke="black" d="M684.123,-389.774C677.709,-402.701 669.318,-419.475 661.698,-434.271 655.533,-446.24 648.958,-458.837 642.456,-471.194"/>
<polygon fill="black" stroke="black" points="639.309,-469.66 637.742,-480.138 645.501,-472.924 639.309,-469.66"/>
</g>
<!-- o34&#45;&gt;e(e(o26o8)o50) -->
<g id="edge18" class="edge"><title>o34&#45;&gt;e(e(o26o8)o50)</title>
<path fill="none" stroke="black" d="M756,-391.428C751.177,-406.012 742.742,-423.98 728.698,-434.271 646.656,-494.389 592.006,-421.598 502.698,-470.271 491.604,-476.317 481.312,-484.63 472.113,-493.7"/>
<polygon fill="black" stroke="black" points="469.394,-491.478 464.976,-501.108 474.435,-496.335 469.394,-491.478"/>
</g>
<!-- o34&#45;&gt;e(e(e(o4o56)o8)o50) -->
<g id="edge56" class="edge"><title>o34&#45;&gt;e(e(e(o4o56)o8)o50)</title>
<path fill="none" stroke="black" d="M752.989,-390.554C747.185,-403.915 738.78,-420.869 728.698,-434.271 712.455,-455.863 692.046,-476.783 672.206,-494.975"/>
<polygon fill="black" stroke="black" points="669.714,-492.509 664.639,-501.809 674.406,-497.703 669.714,-492.509"/>
</g>
<!-- o18&#45;&gt;e(e(o26o8)o50) -->
<g id="edge20" class="edge"><title>o18&#45;&gt;e(e(o26o8)o50)</title>
<path fill="none" stroke="black" d="M823.12,-391.595C818.348,-406.249 809.923,-424.232 795.698,-434.271 688.5,-509.919 619.004,-409.552 502.698,-470.271 491.497,-476.118 481.152,-484.331 471.934,-493.364"/>
<polygon fill="black" stroke="black" points="469.223,-491.133 464.787,-500.754 474.255,-495.999 469.223,-491.133"/>
</g>
<!-- o18&#45;&gt;e(e(e(o4o56)o8)o50) -->
<g id="edge57" class="edge"><title>o18&#45;&gt;e(e(e(o4o56)o8)o50)</title>
<path fill="none" stroke="black" d="M821.022,-390.998C815.552,-404.688 807.136,-421.832 795.698,-434.271 764.788,-467.886 722.407,-495.423 684.784,-515.671"/>
<polygon fill="black" stroke="black" points="683.042,-512.633 675.836,-520.4 686.312,-518.822 683.042,-512.633"/>
</g>
<!-- o30 -->
<g id="node24" class="node"><title>o30</title>
<ellipse fill="none" stroke="black" cx="627.698" cy="-220.837" rx="24.8972" ry="24.8972"/>
<text text-anchor="middle" x="627.698" y="-217.137" font-family="Times New Roman,serif" font-size="14.00">o30</text>
</g>
<!-- o30&#45;&gt;o40 -->
<g id="edge3" class="edge"><title>o30&#45;&gt;o40</title>
<path fill="none" stroke="black" d="M616.276,-243.257C610.85,-251.278 603.588,-259.598 594.698,-264.383 502.46,-314.029 211.644,-241.962 124.698,-300.383 113.211,-308.101 105.541,-321.06 100.512,-333.457"/>
<polygon fill="black" stroke="black" points="97.1107,-332.573 97.0235,-343.168 103.698,-334.94 97.1107,-332.573"/>
</g>
<!-- o30&#45;&gt;o38 -->
<g id="edge24" class="edge"><title>o30&#45;&gt;o38</title>
<path fill="none" stroke="black" d="M616.245,-243.201C610.815,-251.213 603.557,-259.542 594.698,-264.383 515.796,-307.497 266.009,-249.767 191.698,-300.383 180.343,-308.117 172.709,-320.955 167.672,-333.258"/>
<polygon fill="black" stroke="black" points="164.293,-332.309 164.167,-342.903 170.872,-334.7 164.293,-332.309"/>
</g>
<!-- o30&#45;&gt;e(o26o8) -->
<g id="edge30" class="edge"><title>o30&#45;&gt;e(o26o8)</title>
<path fill="none" stroke="black" d="M652.524,-223.014C707.021,-226.66 839.447,-241.413 929.698,-300.383 938.303,-306.005 946.112,-313.532 952.911,-321.488"/>
<polygon fill="black" stroke="black" points="950.377,-323.923 959.365,-329.533 955.837,-319.543 950.377,-323.923"/>
</g>
<!-- o30&#45;&gt;o16 -->
<g id="edge36" class="edge"><title>o30&#45;&gt;o16</title>
<path fill="none" stroke="black" d="M616.202,-243.123C610.765,-251.123 603.514,-259.464 594.698,-264.383 463.543,-337.559 382.076,-214.743 258.698,-300.383 247.412,-308.217 239.789,-321.071 234.742,-333.359"/>
<polygon fill="black" stroke="black" points="231.368,-332.393 231.225,-342.986 237.944,-334.794 231.368,-332.393"/>
</g>
<!-- o30&#45;&gt;o50 -->
<g id="edge39" class="edge"><title>o30&#45;&gt;o50</title>
<path fill="none" stroke="black" d="M616.136,-243.007C610.689,-250.99 603.449,-259.348 594.698,-264.383 490.144,-324.533 423.874,-230.305 325.698,-300.383 314.516,-308.365 306.91,-321.242 301.847,-333.509"/>
<polygon fill="black" stroke="black" points="298.482,-332.516 298.312,-343.11 305.051,-334.935 298.482,-332.516"/>
</g>
<!-- o30&#45;&gt;o44 -->
<g id="edge43" class="edge"><title>o30&#45;&gt;o44</title>
<path fill="none" stroke="black" d="M616.025,-242.818C610.561,-250.772 603.338,-259.16 594.698,-264.383 516.657,-311.56 465.756,-245.807 392.698,-300.383 381.772,-308.544 374.225,-321.332 369.137,-333.482"/>
<polygon fill="black" stroke="black" points="365.806,-332.397 365.566,-342.989 372.359,-334.859 365.806,-332.397"/>
</g>
<!-- o30&#45;&gt;o46 -->
<g id="edge62" class="edge"><title>o30&#45;&gt;o46</title>
<path fill="none" stroke="black" d="M615.49,-242.898C610.031,-250.668 602.954,-258.904 594.698,-264.383 542.956,-298.717 507.837,-261.158 459.698,-300.383 449.126,-308.997 441.638,-321.86 436.498,-333.945"/>
<polygon fill="black" stroke="black" points="433.195,-332.784 432.866,-343.374 439.727,-335.301 433.195,-332.784"/>
</g>
<!-- o30&#45;&gt;o20 -->
<g id="edge65" class="edge"><title>o30&#45;&gt;o20</title>
<path fill="none" stroke="black" d="M614.798,-241.973C609.244,-249.617 602.283,-258.007 594.698,-264.383 568.521,-286.386 550.6,-275.927 526.698,-300.383 517.4,-309.896 510.213,-322.551 504.956,-334.229"/>
<polygon fill="black" stroke="black" points="501.617,-333.143 500.989,-343.719 508.075,-335.842 501.617,-333.143"/>
</g>
<!-- o30&#45;&gt;o36 -->
<g id="edge68" class="edge"><title>o30&#45;&gt;o36</title>
<path fill="none" stroke="black" d="M617.667,-243.468C606.369,-267.835 587.912,-307.638 575.08,-335.31"/>
<polygon fill="black" stroke="black" points="571.829,-334.003 570.797,-344.547 578.179,-336.948 571.829,-334.003"/>
</g>
<!-- o30&#45;&gt;o48 -->
<g id="edge71" class="edge"><title>o30&#45;&gt;o48</title>
<path fill="none" stroke="black" d="M627.698,-245.696C627.698,-269.331 627.698,-305.751 627.698,-332.392"/>
<polygon fill="black" stroke="black" points="624.198,-332.432 627.698,-342.432 631.198,-332.432 624.198,-332.432"/>
</g>
<!-- o30&#45;&gt;o10 -->
<g id="edge74" class="edge"><title>o30&#45;&gt;o10</title>
<path fill="none" stroke="black" d="M637.728,-243.468C649.027,-267.835 667.484,-307.638 680.315,-335.31"/>
<polygon fill="black" stroke="black" points="677.217,-336.948 684.599,-344.547 683.567,-334.003 677.217,-336.948"/>
</g>
<!-- o30&#45;&gt;o34 -->
<g id="edge77" class="edge"><title>o30&#45;&gt;o34</title>
<path fill="none" stroke="black" d="M648.911,-234.319C671.069,-248.199 705.737,-272.387 728.698,-300.383 737.006,-310.514 743.946,-323.084 749.283,-334.524"/>
<polygon fill="black" stroke="black" points="746.136,-336.061 753.385,-343.789 752.537,-333.228 746.136,-336.061"/>
</g>
<!-- o30&#45;&gt;o18 -->
<g id="edge80" class="edge"><title>o30&#45;&gt;o18</title>
<path fill="none" stroke="black" d="M651.463,-227.564C686.882,-237.173 753.829,-259.615 795.698,-300.383 805.228,-309.663 812.459,-322.273 817.686,-333.982"/>
<polygon fill="black" stroke="black" points="814.567,-335.6 821.613,-343.512 821.039,-332.933 814.567,-335.6"/>
</g>
<!-- o30&#45;&gt;o32 -->
<g id="edge85" class="edge"><title>o30&#45;&gt;o32</title>
<path fill="none" stroke="black" d="M652.357,-223.92C698.793,-229.047 800.153,-246.112 862.698,-300.383 872.922,-309.254 880.33,-322.047 885.504,-334.008"/>
<polygon fill="black" stroke="black" points="882.257,-335.316 889.185,-343.332 888.768,-332.745 882.257,-335.316"/>
</g>
<!-- o30&#45;&gt;o14 -->
<g id="edge88" class="edge"><title>o30&#45;&gt;o14</title>
<path fill="none" stroke="black" d="M616.299,-243.3C610.876,-251.327 603.61,-259.64 594.698,-264.383 489.114,-320.567 157.287,-234.152 57.6978,-300.383 46.1742,-308.047 38.4984,-320.997 33.4756,-333.402"/>
<polygon fill="black" stroke="black" points="30.0709,-332.528 29.9934,-343.123 36.6609,-334.889 30.0709,-332.528"/>
</g>
<!-- o30&#45;&gt;e(e(o4o56)o8) -->
<g id="edge92" class="edge"><title>o30&#45;&gt;e(e(o4o56)o8)</title>
<path fill="none" stroke="black" d="M652.6,-221.969C718.627,-223.271 902.178,-233.139 1034.7,-300.383 1042.14,-304.158 1049.36,-308.946 1056.17,-314.211"/>
<polygon fill="black" stroke="black" points="1054,-316.962 1063.96,-320.58 1058.43,-311.542 1054,-316.962"/>
</g>
<!-- o26 -->
<g id="node25" class="node"><title>o26</title>
<ellipse fill="none" stroke="black" cx="981.698" cy="-220.837" rx="24.8972" ry="24.8972"/>
<text text-anchor="middle" x="981.698" y="-217.137" font-family="Times New Roman,serif" font-size="14.00">o26</text>
</g>
<!-- o26&#45;&gt;e(e(o4o56)o26) -->
<g id="edge27" class="edge"><title>o26&#45;&gt;e(e(o4o56)o26)</title>
<path fill="none" stroke="black" d="M998.611,-238.921C1008.17,-247.696 1020.78,-257.882 1033.7,-264.383 1092.24,-293.841 1118.59,-270.081 1176.7,-300.383 1183.67,-304.018 1190.54,-308.412 1197.12,-313.187"/>
<polygon fill="black" stroke="black" points="1195.22,-316.14 1205.3,-319.41 1199.46,-310.569 1195.22,-316.14"/>
</g>
<!-- o26&#45;&gt;e(o26o8) -->
<g id="edge29" class="edge"><title>o26&#45;&gt;e(o26o8)</title>
<path fill="none" stroke="black" d="M981.698,-245.696C981.698,-264.13 981.698,-290.34 981.698,-313.623"/>
<polygon fill="black" stroke="black" points="978.198,-313.732 981.698,-323.732 985.198,-313.732 978.198,-313.732"/>
</g>
<!-- o32&#45;&gt;e(e(o26o8)o50) -->
<g id="edge21" class="edge"><title>o32&#45;&gt;e(e(o26o8)o50)</title>
<path fill="none" stroke="black" d="M890.194,-391.701C885.453,-406.4 877.036,-424.394 862.698,-434.271 730.28,-525.494 646.071,-397.47 502.698,-470.271 491.432,-475.992 481.054,-484.141 471.823,-493.15"/>
<polygon fill="black" stroke="black" points="469.118,-490.912 464.671,-500.529 474.144,-495.784 469.118,-490.912"/>
</g>
<!-- o32&#45;&gt;e(e(e(o4o56)o8)o50) -->
<g id="edge59" class="edge"><title>o32&#45;&gt;e(e(e(o4o56)o8)o50)</title>
<path fill="none" stroke="black" d="M888.652,-391.183C883.382,-405.114 874.954,-422.452 862.698,-434.271 814.617,-480.637 745.59,-511.317 690.039,-530.152"/>
<polygon fill="black" stroke="black" points="688.929,-526.832 680.54,-533.303 691.133,-533.476 688.929,-526.832"/>
</g>
<!-- o14&#45;&gt;e(e(o26o8)o50) -->
<g id="edge22" class="edge"><title>o14&#45;&gt;e(e(o26o8)o50)</title>
<path fill="none" stroke="black" d="M31.1867,-391.35C36.2734,-405.526 44.7059,-423.068 57.6978,-434.271 141.168,-506.246 268.542,-535.556 349.686,-547.34"/>
<polygon fill="black" stroke="black" points="349.449,-550.84 359.837,-548.758 350.418,-543.908 349.449,-550.84"/>
</g>
<!-- o14&#45;&gt;e(e(e(o4o56)o8)o50) -->
<g id="edge60" class="edge"><title>o14&#45;&gt;e(e(e(o4o56)o8)o50)</title>
<path fill="none" stroke="black" d="M30.037,-391.466C34.7321,-406.262 43.1609,-424.458 57.6978,-434.271 139.929,-489.779 411.5,-431.207 502.698,-470.271 512.655,-474.536 522.281,-480.275 531.338,-486.767"/>
<polygon fill="black" stroke="black" points="529.399,-489.689 539.489,-492.921 533.616,-484.102 529.399,-489.689"/>
</g>
<!-- o4&#45;&gt;o8 -->
<g id="edge2" class="edge"><title>o4&#45;&gt;o8</title>
<path fill="none" stroke="black" d="M781.435,-117.079C733.054,-116.824 608.731,-121.991 526.698,-177.291 520.622,-181.386 515.464,-187.221 511.259,-193.262"/>
<polygon fill="black" stroke="black" points="508.085,-191.738 505.784,-202.08 514.032,-195.43 508.085,-191.738"/>
</g>
<!-- o4&#45;&gt;e(o4o56) -->
<g id="edge35" class="edge"><title>o4&#45;&gt;e(o4o56)</title>
<path fill="none" stroke="black" d="M821.475,-121.26C859.953,-128.793 947.128,-147.817 1015.7,-177.291 1024.52,-181.081 1033.57,-185.79 1042.13,-190.68"/>
<polygon fill="black" stroke="black" points="1040.45,-193.753 1050.84,-195.811 1044,-187.721 1040.45,-193.753"/>
</g>
<!-- o4&#45;&gt;o28 -->
<g id="edge46" class="edge"><title>o4&#45;&gt;o28</title>
<path fill="none" stroke="black" d="M781.626,-119.21C742.378,-123.211 654.044,-136.421 593.698,-177.291 588.314,-180.937 583.419,-185.743 579.145,-190.81"/>
<polygon fill="black" stroke="black" points="576.28,-188.795 572.96,-198.856 581.829,-193.061 576.28,-188.795"/>
</g>
<!-- o4&#45;&gt;o30 -->
<g id="edge83" class="edge"><title>o4&#45;&gt;o30</title>
<path fill="none" stroke="black" d="M784.697,-127.583C755.214,-144.907 694.244,-180.733 657.564,-202.287"/>
<polygon fill="black" stroke="black" points="655.644,-199.356 648.796,-207.439 659.191,-205.391 655.644,-199.356"/>
</g>
<!-- o4&#45;&gt;o26 -->
<g id="edge84" class="edge"><title>o4&#45;&gt;o26</title>
<path fill="none" stroke="black" d="M818.957,-127.396C849.539,-144.768 913.589,-181.15 951.58,-202.729"/>
<polygon fill="black" stroke="black" points="950.217,-205.98 960.641,-207.876 953.674,-199.893 950.217,-205.98"/>
</g>
<!-- e(e(o4o56)o8)&#45;&gt;e(e(e(o4o56)o8)o50) -->
<g id="edge58" class="edge"><title>e(e(o4o56)o8)&#45;&gt;e(e(e(o4o56)o8)o50)</title>
<path fill="none" stroke="black" d="M1063.62,-413.425C1054.66,-421.215 1044.83,-428.614 1034.7,-434.271 926.051,-494.913 784.96,-526.721 692.916,-542.181"/>
<polygon fill="black" stroke="black" points="692.073,-538.773 682.775,-543.852 693.211,-545.68 692.073,-538.773"/>
</g>
</g>
</svg>
