<?xml version="1.0" encoding="UTF-8" standalone="no"?>
<!DOCTYPE svg PUBLIC "-//W3C//DTD SVG 1.1//EN"
 "http://www.w3.org/Graphics/SVG/1.1/DTD/svg11.dtd">
<!-- Generated by graphviz version 2.38.0 (20140413.2041)
 -->
<!-- Title: priss2013&#45;table01_o44_d Pages: 1 -->
<svg width="795pt" height="677pt"
 viewBox="0.00 0.00 795.19 677.15" xmlns="http://www.w3.org/2000/svg" xmlns:xlink="http://www.w3.org/1999/xlink">
<g id="graph0" class="graph" transform="scale(1 1) rotate(0) translate(4 673.153)">
<title>priss2013&#45;table01_o44_d</title>
<polygon fill="white" stroke="none" points="-4,4 -4,-673.153 791.191,-673.153 791.191,4 -4,4"/>
<!-- eBot -->
<g id="node1" class="node"><title>eBot</title>
<ellipse fill="none" stroke="black" cx="385.494" cy="-27.9475" rx="27.8951" ry="27.8951"/>
<text text-anchor="middle" x="385.494" y="-24.2475" font-family="Times New Roman,serif" font-size="14.00">eBot</text>
</g>
<!-- o40 -->
<g id="node3" class="node"><title>o40</title>
<ellipse fill="none" stroke="black" cx="151.494" cy="-116.593" rx="24.8972" ry="24.8972"/>
<text text-anchor="middle" x="151.494" y="-112.893" font-family="Times New Roman,serif" font-size="14.00">o40</text>
</g>
<!-- eBot&#45;&gt;o40 -->
<g id="edge2" class="edge"><title>eBot&#45;&gt;o40</title>
<path fill="none" stroke="black" d="M358.106,-34.5955C318.41,-43.4216 243.217,-62.5708 184.494,-91.895 182.695,-92.7931 180.888,-93.7849 179.097,-94.8385"/>
<polygon fill="black" stroke="black" points="176.88,-92.1041 170.382,-100.473 180.68,-97.9825 176.88,-92.1041"/>
</g>
<!-- o38 -->
<g id="node4" class="node"><title>o38</title>
<ellipse fill="none" stroke="black" cx="218.494" cy="-116.593" rx="24.8972" ry="24.8972"/>
<text text-anchor="middle" x="218.494" y="-112.893" font-family="Times New Roman,serif" font-size="14.00">o38</text>
</g>
<!-- eBot&#45;&gt;o38 -->
<g id="edge3" class="edge"><title>eBot&#45;&gt;o38</title>
<path fill="none" stroke="black" d="M359.846,-39.3287C332.34,-50.8406 287.732,-70.6152 251.494,-91.895 249.76,-92.913 248.004,-93.9979 246.251,-95.1224"/>
<polygon fill="black" stroke="black" points="243.962,-92.4451 237.639,-100.947 247.884,-98.2435 243.962,-92.4451"/>
</g>
<!-- o50 -->
<g id="node7" class="node"><title>o50</title>
<ellipse fill="none" stroke="black" cx="285.494" cy="-116.593" rx="24.8972" ry="24.8972"/>
<text text-anchor="middle" x="285.494" y="-112.893" font-family="Times New Roman,serif" font-size="14.00">o50</text>
</g>
<!-- eBot&#45;&gt;o50 -->
<g id="edge11" class="edge"><title>eBot&#45;&gt;o50</title>
<path fill="none" stroke="black" d="M364.774,-46.9005C349.336,-60.2762 328.15,-78.6335 311.562,-93.0061"/>
<polygon fill="black" stroke="black" points="309.099,-90.5087 303.833,-99.7023 313.683,-95.7991 309.099,-90.5087"/>
</g>
<!-- o46 -->
<g id="node10" class="node"><title>o46</title>
<ellipse fill="none" stroke="black" cx="352.494" cy="-116.593" rx="24.8972" ry="24.8972"/>
<text text-anchor="middle" x="352.494" y="-112.893" font-family="Times New Roman,serif" font-size="14.00">o46</text>
</g>
<!-- eBot&#45;&gt;o46 -->
<g id="edge21" class="edge"><title>eBot&#45;&gt;o46</title>
<path fill="none" stroke="black" d="M375.771,-54.4753C372.3,-63.5894 368.344,-73.9751 364.691,-83.5667"/>
<polygon fill="black" stroke="black" points="361.315,-82.5971 361.027,-93.188 367.857,-85.0886 361.315,-82.5971"/>
</g>
<!-- o36 -->
<g id="node11" class="node"><title>o36</title>
<ellipse fill="none" stroke="black" cx="419.494" cy="-116.593" rx="24.8972" ry="24.8972"/>
<text text-anchor="middle" x="419.494" y="-112.893" font-family="Times New Roman,serif" font-size="14.00">o36</text>
</g>
<!-- eBot&#45;&gt;o36 -->
<g id="edge22" class="edge"><title>eBot&#45;&gt;o36</title>
<path fill="none" stroke="black" d="M395.511,-54.4753C399.125,-63.6853 403.249,-74.1939 407.045,-83.8693"/>
<polygon fill="black" stroke="black" points="403.791,-85.1576 410.702,-93.188 410.307,-82.6005 403.791,-85.1576"/>
</g>
<!-- o48 -->
<g id="node13" class="node"><title>o48</title>
<ellipse fill="none" stroke="black" cx="486.494" cy="-116.593" rx="24.8972" ry="24.8972"/>
<text text-anchor="middle" x="486.494" y="-112.893" font-family="Times New Roman,serif" font-size="14.00">o48</text>
</g>
<!-- eBot&#45;&gt;o48 -->
<g id="edge24" class="edge"><title>eBot&#45;&gt;o48</title>
<path fill="none" stroke="black" d="M406.421,-46.9005C422.013,-60.2762 443.411,-78.6335 460.165,-93.0061"/>
<polygon fill="black" stroke="black" points="458.102,-95.8476 467.971,-99.7023 462.66,-90.5347 458.102,-95.8476"/>
</g>
<!-- o18 -->
<g id="node17" class="node"><title>o18</title>
<ellipse fill="none" stroke="black" cx="553.494" cy="-116.593" rx="24.8972" ry="24.8972"/>
<text text-anchor="middle" x="553.494" y="-112.893" font-family="Times New Roman,serif" font-size="14.00">o18</text>
</g>
<!-- eBot&#45;&gt;o18 -->
<g id="edge38" class="edge"><title>eBot&#45;&gt;o18</title>
<path fill="none" stroke="black" d="M411.086,-39.1929C438.782,-50.6634 483.892,-70.4717 520.494,-91.895 522.229,-92.9105 523.986,-93.9935 525.74,-95.1166"/>
<polygon fill="black" stroke="black" points="524.108,-98.2382 534.354,-100.937 528.027,-92.4381 524.108,-98.2382"/>
</g>
<!-- o14 -->
<g id="node21" class="node"><title>o14</title>
<ellipse fill="none" stroke="black" cx="620.494" cy="-116.593" rx="24.8972" ry="24.8972"/>
<text text-anchor="middle" x="620.494" y="-112.893" font-family="Times New Roman,serif" font-size="14.00">o14</text>
</g>
<!-- eBot&#45;&gt;o14 -->
<g id="edge43" class="edge"><title>eBot&#45;&gt;o14</title>
<path fill="none" stroke="black" d="M412.687,-34.4978C452.493,-43.2607 528.319,-62.3976 587.494,-91.895 589.293,-92.7918 591.1,-93.7827 592.892,-94.8355"/>
<polygon fill="black" stroke="black" points="591.309,-97.9797 601.608,-100.468 595.108,-92.1005 591.309,-97.9797"/>
</g>
<!-- o8 -->
<g id="node2" class="node"><title>o8</title>
<ellipse fill="none" stroke="black" cx="632.494" cy="-380.976" rx="20.2975" ry="20.2975"/>
<text text-anchor="middle" x="632.494" y="-377.276" font-family="Times New Roman,serif" font-size="14.00">o8</text>
</g>
<!-- e(e(e(o14o50)o52)o8) -->
<g id="node16" class="node"><title>e(e(e(o14o50)o52)o8)</title>
<ellipse fill="none" stroke="black" cx="453.494" cy="-578.811" rx="90.1842" ry="90.1842"/>
<text text-anchor="middle" x="453.494" y="-575.111" font-family="Times New Roman,serif" font-size="14.00">e(e(e(o14o50)o52)o8)</text>
</g>
<!-- o8&#45;&gt;e(e(e(o14o50)o52)o8) -->
<g id="edge27" class="edge"><title>o8&#45;&gt;e(e(e(o14o50)o52)o8)</title>
<path fill="none" stroke="black" d="M627.547,-400.594C622.956,-415.58 615.072,-436.672 603.494,-452.469 584.928,-477.799 560.185,-501.194 536.156,-520.744"/>
<polygon fill="black" stroke="black" points="533.673,-518.248 528.044,-527.224 538.042,-523.717 533.673,-518.248"/>
</g>
<!-- o52 -->
<g id="node5" class="node"><title>o52</title>
<ellipse fill="none" stroke="black" cx="285.494" cy="-225.386" rx="24.8972" ry="24.8972"/>
<text text-anchor="middle" x="285.494" y="-221.686" font-family="Times New Roman,serif" font-size="14.00">o52</text>
</g>
<!-- o40&#45;&gt;o52 -->
<g id="edge5" class="edge"><title>o40&#45;&gt;o52</title>
<path fill="none" stroke="black" d="M170.408,-132.667C193.453,-151.033 232.538,-182.183 258.679,-203.016"/>
<polygon fill="black" stroke="black" points="256.674,-205.893 266.675,-209.389 261.036,-200.419 256.674,-205.893"/>
</g>
<!-- e(o14o50) -->
<g id="node8" class="node"><title>e(o14o50)</title>
<ellipse fill="none" stroke="black" cx="419.494" cy="-225.386" rx="48.1917" ry="48.1917"/>
<text text-anchor="middle" x="419.494" y="-221.686" font-family="Times New Roman,serif" font-size="14.00">e(o14o50)</text>
</g>
<!-- o40&#45;&gt;e(o14o50) -->
<g id="edge13" class="edge"><title>o40&#45;&gt;e(o14o50)</title>
<path fill="none" stroke="black" d="M170.308,-132.866C174.77,-135.98 179.648,-138.999 184.494,-141.291 240.631,-167.835 261.17,-155.976 319.494,-177.291 335.465,-183.127 352.36,-190.566 367.627,-197.798"/>
<polygon fill="black" stroke="black" points="366.37,-201.078 376.899,-202.258 369.405,-194.769 366.37,-201.078"/>
</g>
<!-- o38&#45;&gt;o52 -->
<g id="edge8" class="edge"><title>o38&#45;&gt;o52</title>
<path fill="none" stroke="black" d="M231.412,-138.184C241.515,-154.287 255.696,-176.891 267.002,-194.911"/>
<polygon fill="black" stroke="black" points="264.336,-197.248 272.615,-203.859 270.265,-193.528 264.336,-197.248"/>
</g>
<!-- o38&#45;&gt;e(o14o50) -->
<g id="edge16" class="edge"><title>o38&#45;&gt;e(o14o50)</title>
<path fill="none" stroke="black" d="M237.68,-132.17C242.124,-135.32 246.899,-138.53 251.494,-141.291 272.303,-153.794 325.93,-179.953 367.048,-199.6"/>
<polygon fill="black" stroke="black" points="365.61,-202.792 376.143,-203.937 368.624,-196.474 365.61,-202.792"/>
</g>
<!-- e(e(o14o50)o52) -->
<g id="node18" class="node"><title>e(e(o14o50)o52)</title>
<ellipse fill="none" stroke="black" cx="71.4937" cy="-380.976" rx="71.4873" ry="71.4873"/>
<text text-anchor="middle" x="71.4937" y="-377.276" font-family="Times New Roman,serif" font-size="14.00">e(e(o14o50)o52)</text>
</g>
<!-- o52&#45;&gt;e(e(o14o50)o52) -->
<g id="edge39" class="edge"><title>o52&#45;&gt;e(e(o14o50)o52)</title>
<path fill="none" stroke="black" d="M263.89,-238.289C236.791,-253.551 189.295,-281.414 151.494,-309.482 144.871,-314.4 138.129,-319.742 131.511,-325.211"/>
<polygon fill="black" stroke="black" points="129.223,-322.562 123.814,-331.672 133.724,-327.923 129.223,-322.562"/>
</g>
<!-- o16 -->
<g id="node6" class="node"><title>o16</title>
<ellipse fill="none" stroke="black" cx="695.494" cy="-380.976" rx="24.8972" ry="24.8972"/>
<text text-anchor="middle" x="695.494" y="-377.276" font-family="Times New Roman,serif" font-size="14.00">o16</text>
</g>
<!-- o16&#45;&gt;e(e(e(o14o50)o52)o8) -->
<g id="edge36" class="edge"><title>o16&#45;&gt;e(e(e(o14o50)o52)o8)</title>
<path fill="none" stroke="black" d="M688.289,-404.918C682.757,-419.768 673.939,-438.81 661.494,-452.469 629.221,-487.89 584.607,-516.565 544.97,-537.502"/>
<polygon fill="black" stroke="black" points="543.335,-534.408 536.07,-542.12 546.559,-540.621 543.335,-534.408"/>
</g>
<!-- o50&#45;&gt;o52 -->
<g id="edge4" class="edge"><title>o50&#45;&gt;o52</title>
<path fill="none" stroke="black" d="M285.494,-141.294C285.494,-155.71 285.494,-174.362 285.494,-190.34"/>
<polygon fill="black" stroke="black" points="281.994,-190.382 285.494,-200.382 288.994,-190.382 281.994,-190.382"/>
</g>
<!-- o50&#45;&gt;e(o14o50) -->
<g id="edge12" class="edge"><title>o50&#45;&gt;e(o14o50)</title>
<path fill="none" stroke="black" d="M304.408,-132.667C322.492,-147.079 350.453,-169.364 374.286,-188.358"/>
<polygon fill="black" stroke="black" points="372.188,-191.161 382.19,-194.657 376.551,-185.687 372.188,-191.161"/>
</g>
<!-- e(o14o50)&#45;&gt;o8 -->
<g id="edge1" class="edge"><title>e(o14o50)&#45;&gt;o8</title>
<path fill="none" stroke="black" d="M466.381,-237.078C507.395,-248.629 566.1,-270.798 603.494,-309.482 614.595,-320.967 621.675,-337.293 626.058,-351.342"/>
<polygon fill="black" stroke="black" points="622.716,-352.387 628.791,-361.067 629.455,-350.493 622.716,-352.387"/>
</g>
<!-- e(o14o50)&#45;&gt;o16 -->
<g id="edge10" class="edge"><title>e(o14o50)&#45;&gt;o16</title>
<path fill="none" stroke="black" d="M467.268,-231.748C520.454,-239.996 606.186,-260.376 661.494,-309.482 672.667,-319.403 680.515,-333.808 685.833,-347.015"/>
<polygon fill="black" stroke="black" points="682.688,-348.605 689.419,-356.786 689.259,-346.193 682.688,-348.605"/>
</g>
<!-- o28 -->
<g id="node9" class="node"><title>o28</title>
<ellipse fill="none" stroke="black" cx="762.494" cy="-380.976" rx="24.8972" ry="24.8972"/>
<text text-anchor="middle" x="762.494" y="-377.276" font-family="Times New Roman,serif" font-size="14.00">o28</text>
</g>
<!-- e(o14o50)&#45;&gt;o28 -->
<g id="edge20" class="edge"><title>e(o14o50)&#45;&gt;o28</title>
<path fill="none" stroke="black" d="M467.679,-227.117C533.971,-230.578 653.686,-245.962 729.494,-309.482 741.079,-319.19 748.84,-333.871 753.907,-347.328"/>
<polygon fill="black" stroke="black" points="750.603,-348.481 757.137,-356.821 757.23,-346.226 750.603,-348.481"/>
</g>
<!-- o20 -->
<g id="node12" class="node"><title>o20</title>
<ellipse fill="none" stroke="black" cx="185.494" cy="-380.976" rx="24.8972" ry="24.8972"/>
<text text-anchor="middle" x="185.494" y="-377.276" font-family="Times New Roman,serif" font-size="14.00">o20</text>
</g>
<!-- e(o14o50)&#45;&gt;o20 -->
<g id="edge23" class="edge"><title>e(o14o50)&#45;&gt;o20</title>
<path fill="none" stroke="black" d="M376.59,-247.719C359.059,-256.139 338.475,-265.651 319.494,-273.482 275.44,-291.656 253.76,-277.43 218.494,-309.482 207.497,-319.477 199.858,-333.893 194.722,-347.087"/>
<polygon fill="black" stroke="black" points="191.305,-346.251 191.268,-356.845 197.904,-348.586 191.305,-346.251"/>
</g>
<!-- o10 -->
<g id="node14" class="node"><title>o10</title>
<ellipse fill="none" stroke="black" cx="252.494" cy="-380.976" rx="24.8972" ry="24.8972"/>
<text text-anchor="middle" x="252.494" y="-377.276" font-family="Times New Roman,serif" font-size="14.00">o10</text>
</g>
<!-- e(o14o50)&#45;&gt;o10 -->
<g id="edge25" class="edge"><title>e(o14o50)&#45;&gt;o10</title>
<path fill="none" stroke="black" d="M375.702,-245.392C347.037,-259.628 310.412,-281.456 285.494,-309.482 275.763,-320.427 268.357,-334.738 263.051,-347.605"/>
<polygon fill="black" stroke="black" points="259.729,-346.493 259.399,-357.082 266.261,-349.009 259.729,-346.493"/>
</g>
<!-- o34 -->
<g id="node15" class="node"><title>o34</title>
<ellipse fill="none" stroke="black" cx="319.494" cy="-380.976" rx="24.8972" ry="24.8972"/>
<text text-anchor="middle" x="319.494" y="-377.276" font-family="Times New Roman,serif" font-size="14.00">o34</text>
</g>
<!-- e(o14o50)&#45;&gt;o34 -->
<g id="edge26" class="edge"><title>e(o14o50)&#45;&gt;o34</title>
<path fill="none" stroke="black" d="M387.819,-261.785C375.923,-276.033 362.8,-292.977 352.494,-309.482 344.926,-321.601 337.98,-335.735 332.433,-348.152"/>
<polygon fill="black" stroke="black" points="329.073,-347.103 328.3,-357.67 335.493,-349.892 329.073,-347.103"/>
</g>
<!-- e(o14o50)&#45;&gt;e(e(o14o50)o52) -->
<g id="edge40" class="edge"><title>e(o14o50)&#45;&gt;e(e(o14o50)o52)</title>
<path fill="none" stroke="black" d="M377.071,-249.002C359.61,-257.608 338.948,-266.914 319.494,-273.482 247.145,-297.91 219.689,-275.124 151.494,-309.482 143.889,-313.314 136.434,-318.044 129.321,-323.227"/>
<polygon fill="black" stroke="black" points="126.951,-320.634 121.139,-329.492 131.207,-326.191 126.951,-320.634"/>
</g>
<!-- o30 -->
<g id="node19" class="node"><title>o30</title>
<ellipse fill="none" stroke="black" cx="386.494" cy="-380.976" rx="24.8972" ry="24.8972"/>
<text text-anchor="middle" x="386.494" y="-377.276" font-family="Times New Roman,serif" font-size="14.00">o30</text>
</g>
<!-- e(o14o50)&#45;&gt;o30 -->
<g id="edge41" class="edge"><title>e(o14o50)&#45;&gt;o30</title>
<path fill="none" stroke="black" d="M409.593,-272.468C404.47,-296.312 398.33,-324.885 393.669,-346.579"/>
<polygon fill="black" stroke="black" points="390.19,-346.113 391.511,-356.625 397.033,-347.584 390.19,-346.113"/>
</g>
<!-- o32 -->
<g id="node20" class="node"><title>o32</title>
<ellipse fill="none" stroke="black" cx="453.494" cy="-380.976" rx="24.8972" ry="24.8972"/>
<text text-anchor="middle" x="453.494" y="-377.276" font-family="Times New Roman,serif" font-size="14.00">o32</text>
</g>
<!-- e(o14o50)&#45;&gt;o32 -->
<g id="edge42" class="edge"><title>e(o14o50)&#45;&gt;o32</title>
<path fill="none" stroke="black" d="M429.695,-272.468C434.973,-296.312 441.298,-324.885 446.101,-346.579"/>
<polygon fill="black" stroke="black" points="442.746,-347.618 448.325,-356.625 449.58,-346.105 442.746,-347.618"/>
</g>
<!-- o4 -->
<g id="node22" class="node"><title>o4</title>
<ellipse fill="none" stroke="black" cx="516.494" cy="-380.976" rx="20.2975" ry="20.2975"/>
<text text-anchor="middle" x="516.494" y="-377.276" font-family="Times New Roman,serif" font-size="14.00">o4</text>
</g>
<!-- e(o14o50)&#45;&gt;o4 -->
<g id="edge44" class="edge"><title>e(o14o50)&#45;&gt;o4</title>
<path fill="none" stroke="black" d="M452.09,-261.469C464.221,-275.675 477.463,-292.674 487.494,-309.482 495.438,-322.794 502.184,-338.683 507.165,-352.004"/>
<polygon fill="black" stroke="black" points="503.941,-353.381 510.62,-361.604 510.527,-351.01 503.941,-353.381"/>
</g>
<!-- o2 -->
<g id="node23" class="node"><title>o2</title>
<ellipse fill="none" stroke="black" cx="574.494" cy="-380.976" rx="20.2975" ry="20.2975"/>
<text text-anchor="middle" x="574.494" y="-377.276" font-family="Times New Roman,serif" font-size="14.00">o2</text>
</g>
<!-- e(o14o50)&#45;&gt;o2 -->
<g id="edge45" class="edge"><title>e(o14o50)&#45;&gt;o2</title>
<path fill="none" stroke="black" d="M462.857,-246.549C489.693,-260.883 523.169,-282.38 545.494,-309.482 555.484,-321.61 562.445,-337.653 567.039,-351.369"/>
<polygon fill="black" stroke="black" points="563.81,-352.776 570.1,-361.302 570.499,-350.714 563.81,-352.776"/>
</g>
<!-- o28&#45;&gt;e(e(e(o14o50)o52)o8) -->
<g id="edge28" class="edge"><title>o28&#45;&gt;e(e(e(o14o50)o52)o8)</title>
<path fill="none" stroke="black" d="M756.266,-405.075C751.185,-420.181 742.66,-439.455 729.494,-452.469 680.126,-501.271 608.356,-533.059 550.377,-552.41"/>
<polygon fill="black" stroke="black" points="549.249,-549.096 540.829,-555.527 551.421,-555.751 549.249,-549.096"/>
</g>
<!-- o46&#45;&gt;o52 -->
<g id="edge9" class="edge"><title>o46&#45;&gt;o52</title>
<path fill="none" stroke="black" d="M339.575,-138.184C329.472,-154.287 315.292,-176.891 303.986,-194.911"/>
<polygon fill="black" stroke="black" points="300.722,-193.528 298.372,-203.859 306.652,-197.248 300.722,-193.528"/>
</g>
<!-- o46&#45;&gt;e(o14o50) -->
<g id="edge19" class="edge"><title>o46&#45;&gt;e(o14o50)</title>
<path fill="none" stroke="black" d="M365.412,-138.184C372.087,-148.824 380.543,-162.301 388.773,-175.42"/>
<polygon fill="black" stroke="black" points="385.849,-177.344 394.128,-183.955 391.778,-173.624 385.849,-177.344"/>
</g>
<!-- o36&#45;&gt;o52 -->
<g id="edge6" class="edge"><title>o36&#45;&gt;o52</title>
<path fill="none" stroke="black" d="M400.579,-132.667C377.534,-151.033 338.449,-182.183 312.308,-203.016"/>
<polygon fill="black" stroke="black" points="309.951,-200.419 304.312,-209.389 314.314,-205.893 309.951,-200.419"/>
</g>
<!-- o36&#45;&gt;e(o14o50) -->
<g id="edge14" class="edge"><title>o36&#45;&gt;e(o14o50)</title>
<path fill="none" stroke="black" d="M419.494,-141.294C419.494,-148.973 419.494,-157.854 419.494,-166.892"/>
<polygon fill="black" stroke="black" points="415.994,-167.108 419.494,-177.108 422.994,-167.108 415.994,-167.108"/>
</g>
<!-- o20&#45;&gt;e(e(e(o14o50)o52)o8) -->
<g id="edge29" class="edge"><title>o20&#45;&gt;e(e(e(o14o50)o52)o8)</title>
<path fill="none" stroke="black" d="M191.995,-404.807C197.194,-419.797 205.749,-439.042 218.494,-452.469 257.14,-493.186 311.984,-523.474 358.97,-544.067"/>
<polygon fill="black" stroke="black" points="357.686,-547.324 368.256,-548.056 360.45,-540.893 357.686,-547.324"/>
</g>
<!-- o48&#45;&gt;o52 -->
<g id="edge7" class="edge"><title>o48&#45;&gt;o52</title>
<path fill="none" stroke="black" d="M467.47,-132.455C463.018,-135.59 458.199,-138.722 453.494,-141.291 415.319,-162.133 401.412,-157.872 362.494,-177.291 346.046,-185.498 328.504,-196.072 314.324,-205.121"/>
<polygon fill="black" stroke="black" points="312.031,-202.436 305.537,-210.807 315.834,-208.313 312.031,-202.436"/>
</g>
<!-- o48&#45;&gt;e(o14o50) -->
<g id="edge15" class="edge"><title>o48&#45;&gt;e(o14o50)</title>
<path fill="none" stroke="black" d="M473.575,-138.184C466.9,-148.824 458.444,-162.301 450.214,-175.42"/>
<polygon fill="black" stroke="black" points="447.209,-173.624 444.859,-183.955 453.139,-177.344 447.209,-173.624"/>
</g>
<!-- o10&#45;&gt;e(e(e(o14o50)o52)o8) -->
<g id="edge30" class="edge"><title>o10&#45;&gt;e(e(e(o14o50)o52)o8)</title>
<path fill="none" stroke="black" d="M259.917,-404.857C265.422,-419.498 273.969,-438.328 285.494,-452.469 308.406,-480.582 338.94,-505.803 367.689,-526.122"/>
<polygon fill="black" stroke="black" points="365.932,-529.163 376.142,-531.995 369.926,-523.415 365.932,-529.163"/>
</g>
<!-- o34&#45;&gt;e(e(e(o14o50)o52)o8) -->
<g id="edge31" class="edge"><title>o34&#45;&gt;e(e(e(o14o50)o52)o8)</title>
<path fill="none" stroke="black" d="M328.301,-404.28C334.313,-418.515 342.905,-437.109 352.494,-452.469 362.953,-469.225 375.336,-486.283 387.783,-502.199"/>
<polygon fill="black" stroke="black" points="385.335,-504.745 394.288,-510.41 390.822,-500.399 385.335,-504.745"/>
</g>
<!-- o18&#45;&gt;e(o14o50) -->
<g id="edge17" class="edge"><title>o18&#45;&gt;e(o14o50)</title>
<path fill="none" stroke="black" d="M534.579,-132.667C516.495,-147.079 488.534,-169.364 464.701,-188.358"/>
<polygon fill="black" stroke="black" points="462.436,-185.687 456.797,-194.657 466.799,-191.161 462.436,-185.687"/>
</g>
<!-- e(e(o14o50)o52)&#45;&gt;e(e(e(o14o50)o52)o8) -->
<g id="edge33" class="edge"><title>e(e(o14o50)o52)&#45;&gt;e(e(e(o14o50)o52)o8)</title>
<path fill="none" stroke="black" d="M122.473,-431.236C131.73,-438.891 141.599,-446.296 151.494,-452.469 216.295,-492.903 296.405,-525.459 357.83,-547.248"/>
<polygon fill="black" stroke="black" points="356.928,-550.641 367.523,-550.653 359.247,-544.037 356.928,-550.641"/>
</g>
<!-- o30&#45;&gt;e(e(e(o14o50)o52)o8) -->
<g id="edge34" class="edge"><title>o30&#45;&gt;e(e(e(o14o50)o52)o8)</title>
<path fill="none" stroke="black" d="M394.311,-404.824C401.039,-424.489 411.221,-454.251 421.252,-483.572"/>
<polygon fill="black" stroke="black" points="417.951,-484.734 424.499,-493.063 424.574,-482.468 417.951,-484.734"/>
</g>
<!-- o32&#45;&gt;e(e(e(o14o50)o52)o8) -->
<g id="edge35" class="edge"><title>o32&#45;&gt;e(e(e(o14o50)o52)o8)</title>
<path fill="none" stroke="black" d="M453.494,-405.989C453.494,-424.374 453.494,-451.069 453.494,-477.959"/>
<polygon fill="black" stroke="black" points="449.994,-478.257 453.494,-488.258 456.994,-478.258 449.994,-478.257"/>
</g>
<!-- o14&#45;&gt;e(o14o50) -->
<g id="edge18" class="edge"><title>o14&#45;&gt;e(o14o50)</title>
<path fill="none" stroke="black" d="M601.307,-132.17C596.864,-135.32 592.089,-138.53 587.494,-141.291 550.271,-163.656 506.202,-185.285 472.54,-200.867"/>
<polygon fill="black" stroke="black" points="470.961,-197.741 463.336,-205.098 473.884,-204.102 470.961,-197.741"/>
</g>
<!-- o4&#45;&gt;e(e(e(o14o50)o52)o8) -->
<g id="edge32" class="edge"><title>o4&#45;&gt;e(e(e(o14o50)o52)o8)</title>
<path fill="none" stroke="black" d="M510.567,-400.4C504.376,-419.642 494.181,-451.335 484.107,-482.651"/>
<polygon fill="black" stroke="black" points="480.719,-481.752 480.989,-492.343 487.383,-483.896 480.719,-481.752"/>
</g>
<!-- o2&#45;&gt;e(e(e(o14o50)o52)o8) -->
<g id="edge37" class="edge"><title>o2&#45;&gt;e(e(e(o14o50)o52)o8)</title>
<path fill="none" stroke="black" d="M568.379,-400.208C563.168,-414.782 555.02,-435.508 545.494,-452.469 536.683,-468.157 526.223,-484.173 515.57,-499.283"/>
<polygon fill="black" stroke="black" points="512.61,-497.406 509.642,-507.576 518.305,-501.477 512.61,-497.406"/>
</g>
</g>
</svg>
