<?xml version="1.0" encoding="UTF-8" standalone="no"?>
<!DOCTYPE svg PUBLIC "-//W3C//DTD SVG 1.1//EN"
 "http://www.w3.org/Graphics/SVG/1.1/DTD/svg11.dtd">
<!-- Generated by graphviz version 2.38.0 (20140413.2041)
 -->
<!-- Title: priss2013&#45;table01_o32_d Pages: 1 -->
<svg width="1303pt" height="1189pt"
 viewBox="0.00 0.00 1302.68 1188.51" xmlns="http://www.w3.org/2000/svg" xmlns:xlink="http://www.w3.org/1999/xlink">
<g id="graph0" class="graph" transform="scale(1 1) rotate(0) translate(4 1184.51)">
<title>priss2013&#45;table01_o32_d</title>
<polygon fill="white" stroke="none" points="-4,4 -4,-1184.51 1298.68,-1184.51 1298.68,4 -4,4"/>
<!-- eTop -->
<g id="node1" class="node"><title>eTop</title>
<ellipse fill="none" stroke="black" cx="556.096" cy="-1149.97" rx="30.5947" ry="30.5947"/>
<text text-anchor="middle" x="556.096" y="-1146.27" font-family="Times New Roman,serif" font-size="14.00">eTop</text>
</g>
<!-- e(e(o10o8)o52) -->
<g id="node2" class="node"><title>e(e(o10o8)o52)</title>
<ellipse fill="none" stroke="black" cx="713.096" cy="-367.327" rx="66.8882" ry="66.8882"/>
<text text-anchor="middle" x="713.096" y="-363.627" font-family="Times New Roman,serif" font-size="14.00">e(e(o10o8)o52)</text>
</g>
<!-- e(e(e(o10o8)o52)o44) -->
<g id="node12" class="node"><title>e(e(e(o10o8)o52)o44)</title>
<ellipse fill="none" stroke="black" cx="292.096" cy="-927.434" rx="90.1842" ry="90.1842"/>
<text text-anchor="middle" x="292.096" y="-923.734" font-family="Times New Roman,serif" font-size="14.00">e(e(e(o10o8)o52)o44)</text>
</g>
<!-- e(e(o10o8)o52)&#45;&gt;e(e(e(o10o8)o52)o44) -->
<g id="edge22" class="edge"><title>e(e(o10o8)o52)&#45;&gt;e(e(e(o10o8)o52)o44)</title>
<path fill="none" stroke="black" d="M666.344,-415.352C657.219,-422.582 647.298,-429.287 637.096,-434.271 562.617,-470.659 511.168,-410.156 454.096,-470.271 372.121,-556.616 459.666,-624.646 416.096,-735.448 408.967,-753.576 401.896,-755.236 391.096,-771.448 376.026,-794.066 360.032,-818.779 345.395,-841.693"/>
<polygon fill="black" stroke="black" points="342.281,-840.065 339.856,-850.379 348.184,-843.829 342.281,-840.065"/>
</g>
<!-- e(e(e(o10o8)o26)e(e(o10o8)o52)) -->
<g id="node30" class="node"><title>e(e(e(o10o8)o26)e(e(o10o8)o52))</title>
<ellipse fill="none" stroke="black" cx="1162.1" cy="-602.859" rx="132.677" ry="132.677"/>
<text text-anchor="middle" x="1162.1" y="-599.159" font-family="Times New Roman,serif" font-size="14.00">e(e(e(o10o8)o26)e(e(o10o8)o52))</text>
</g>
<!-- e(e(o10o8)o52)&#45;&gt;e(e(e(o10o8)o26)e(e(o10o8)o52)) -->
<g id="edge77" class="edge"><title>e(e(o10o8)o52)&#45;&gt;e(e(e(o10o8)o26)e(e(o10o8)o52))</title>
<path fill="none" stroke="black" d="M759.683,-415.697C768.826,-422.89 778.795,-429.493 789.096,-434.271 883.754,-478.178 927.248,-424.658 1021.1,-470.271 1036.33,-477.674 1051.04,-487.287 1064.85,-497.949"/>
<polygon fill="black" stroke="black" points="1062.87,-500.846 1072.87,-504.338 1067.23,-495.371 1062.87,-500.846"/>
</g>
<!-- o16 -->
<g id="node3" class="node"><title>o16</title>
<ellipse fill="none" stroke="black" cx="963.096" cy="-116.593" rx="24.8972" ry="24.8972"/>
<text text-anchor="middle" x="963.096" y="-112.893" font-family="Times New Roman,serif" font-size="14.00">o16</text>
</g>
<!-- o26 -->
<g id="node17" class="node"><title>o26</title>
<ellipse fill="none" stroke="black" cx="771.096" cy="-220.837" rx="24.8972" ry="24.8972"/>
<text text-anchor="middle" x="771.096" y="-217.137" font-family="Times New Roman,serif" font-size="14.00">o26</text>
</g>
<!-- o16&#45;&gt;o26 -->
<g id="edge40" class="edge"><title>o16&#45;&gt;o26</title>
<path fill="none" stroke="black" d="M943.91,-132.172C939.467,-135.321 934.691,-138.531 930.096,-141.291 887.637,-166.788 835.758,-191.255 803.062,-205.92"/>
<polygon fill="black" stroke="black" points="801.276,-202.883 793.562,-210.146 804.122,-209.279 801.276,-202.883"/>
</g>
<!-- e(o10o8) -->
<g id="node26" class="node"><title>e(o10o8)</title>
<ellipse fill="none" stroke="black" cx="685.096" cy="-220.837" rx="43.5923" ry="43.5923"/>
<text text-anchor="middle" x="685.096" y="-217.137" font-family="Times New Roman,serif" font-size="14.00">e(o10o8)</text>
</g>
<!-- o16&#45;&gt;e(o10o8) -->
<g id="edge70" class="edge"><title>o16&#45;&gt;e(o10o8)</title>
<path fill="none" stroke="black" d="M944.406,-133.143C939.937,-136.242 935.026,-139.185 930.096,-141.291 849.849,-175.559 816.224,-140.514 737.096,-177.291 732.937,-179.223 728.83,-181.566 724.856,-184.147"/>
<polygon fill="black" stroke="black" points="722.555,-181.486 716.4,-190.11 726.59,-187.207 722.555,-181.486"/>
</g>
<!-- o50 -->
<g id="node4" class="node"><title>o50</title>
<ellipse fill="none" stroke="black" cx="293.096" cy="-116.593" rx="24.8972" ry="24.8972"/>
<text text-anchor="middle" x="293.096" y="-112.893" font-family="Times New Roman,serif" font-size="14.00">o50</text>
</g>
<!-- o48 -->
<g id="node14" class="node"><title>o48</title>
<ellipse fill="none" stroke="black" cx="332.096" cy="-220.837" rx="24.8972" ry="24.8972"/>
<text text-anchor="middle" x="332.096" y="-217.137" font-family="Times New Roman,serif" font-size="14.00">o48</text>
</g>
<!-- o50&#45;&gt;o48 -->
<g id="edge26" class="edge"><title>o50&#45;&gt;o48</title>
<path fill="none" stroke="black" d="M301.654,-140.031C306.989,-154.015 313.938,-172.233 319.849,-187.731"/>
<polygon fill="black" stroke="black" points="316.723,-189.355 323.557,-197.451 323.263,-186.861 316.723,-189.355"/>
</g>
<!-- o52 -->
<g id="node20" class="node"><title>o52</title>
<ellipse fill="none" stroke="black" cx="265.096" cy="-220.837" rx="24.8972" ry="24.8972"/>
<text text-anchor="middle" x="265.096" y="-217.137" font-family="Times New Roman,serif" font-size="14.00">o52</text>
</g>
<!-- o50&#45;&gt;o52 -->
<g id="edge44" class="edge"><title>o50&#45;&gt;o52</title>
<path fill="none" stroke="black" d="M286.812,-140.538C283.091,-154.124 278.314,-171.571 274.187,-186.639"/>
<polygon fill="black" stroke="black" points="270.721,-186.045 271.455,-196.614 277.472,-187.894 270.721,-186.045"/>
</g>
<!-- o50&#45;&gt;e(o10o8) -->
<g id="edge58" class="edge"><title>o50&#45;&gt;e(o10o8)</title>
<path fill="none" stroke="black" d="M311.835,-133.03C316.301,-136.135 321.199,-139.109 326.096,-141.291 428.442,-186.884 559.31,-206.887 631.406,-214.953"/>
<polygon fill="black" stroke="black" points="631.288,-218.461 641.607,-216.058 632.042,-211.501 631.288,-218.461"/>
</g>
<!-- o46 -->
<g id="node35" class="node"><title>o46</title>
<ellipse fill="none" stroke="black" cx="198.096" cy="-220.837" rx="24.8972" ry="24.8972"/>
<text text-anchor="middle" x="198.096" y="-217.137" font-family="Times New Roman,serif" font-size="14.00">o46</text>
</g>
<!-- o50&#45;&gt;o46 -->
<g id="edge84" class="edge"><title>o50&#45;&gt;o46</title>
<path fill="none" stroke="black" d="M275.055,-133.672C262.309,-145.335 245.078,-161.73 231.096,-177.291 226.933,-181.923 222.702,-187.026 218.72,-192.041"/>
<polygon fill="black" stroke="black" points="215.677,-190.253 212.31,-200.299 221.207,-194.546 215.677,-190.253"/>
</g>
<!-- e(o46o52) -->
<g id="node5" class="node"><title>e(o46o52)</title>
<ellipse fill="none" stroke="black" cx="48.0957" cy="-367.327" rx="48.1917" ry="48.1917"/>
<text text-anchor="middle" x="48.0957" y="-363.627" font-family="Times New Roman,serif" font-size="14.00">e(o46o52)</text>
</g>
<!-- e(o46o52)&#45;&gt;e(e(e(o10o8)o52)o44) -->
<g id="edge20" class="edge"><title>e(o46o52)&#45;&gt;e(e(e(o10o8)o52)o44)</title>
<path fill="none" stroke="black" d="M60.4077,-413.926C80.2476,-484.587 122.449,-624.007 175.096,-735.448 192.478,-772.24 215.2,-810.867 235.992,-843.68"/>
<polygon fill="black" stroke="black" points="233.183,-845.786 241.514,-852.332 239.084,-842.02 233.183,-845.786"/>
</g>
<!-- o14 -->
<g id="node6" class="node"><title>o14</title>
<ellipse fill="none" stroke="black" cx="1030.1" cy="-116.593" rx="24.8972" ry="24.8972"/>
<text text-anchor="middle" x="1030.1" y="-112.893" font-family="Times New Roman,serif" font-size="14.00">o14</text>
</g>
<!-- o14&#45;&gt;o26 -->
<g id="edge39" class="edge"><title>o14&#45;&gt;o26</title>
<path fill="none" stroke="black" d="M1011.15,-132.603C1006.7,-135.73 1001.85,-138.822 997.096,-141.291 932.447,-174.836 850.335,-199.277 805.01,-211.348"/>
<polygon fill="black" stroke="black" points="803.9,-208.021 795.114,-213.943 805.675,-214.792 803.9,-208.021"/>
</g>
<!-- o14&#45;&gt;e(o10o8) -->
<g id="edge69" class="edge"><title>o14&#45;&gt;e(o10o8)</title>
<path fill="none" stroke="black" d="M1011.48,-133.315C1007,-136.405 1002.07,-139.301 997.096,-141.291 888.768,-184.581 844.008,-130.612 737.096,-177.291 732.716,-179.203 728.407,-181.593 724.257,-184.258"/>
<polygon fill="black" stroke="black" points="722.171,-181.446 715.992,-190.052 726.189,-187.178 722.171,-181.446"/>
</g>
<!-- o8 -->
<g id="node7" class="node"><title>o8</title>
<ellipse fill="none" stroke="black" cx="1093.1" cy="-116.593" rx="20.2975" ry="20.2975"/>
<text text-anchor="middle" x="1093.1" y="-112.893" font-family="Times New Roman,serif" font-size="14.00">o8</text>
</g>
<!-- o8&#45;&gt;o26 -->
<g id="edge29" class="edge"><title>o8&#45;&gt;o26</title>
<path fill="none" stroke="black" d="M1078.9,-131.197C1074.43,-134.901 1069.3,-138.622 1064.1,-141.291 977.133,-185.85 862.315,-207.079 805.7,-215.389"/>
<polygon fill="black" stroke="black" points="804.911,-211.965 795.502,-216.837 805.895,-218.896 804.911,-211.965"/>
</g>
<!-- o8&#45;&gt;e(o10o8) -->
<g id="edge59" class="edge"><title>o8&#45;&gt;e(o10o8)</title>
<path fill="none" stroke="black" d="M1079.43,-131.458C1074.91,-135.264 1069.61,-138.976 1064.1,-141.291 929.278,-197.876 871.896,-120.664 737.096,-177.291 732.69,-179.141 728.362,-181.49 724.201,-184.128"/>
<polygon fill="black" stroke="black" points="722.132,-181.304 715.921,-189.887 726.129,-187.051 722.132,-181.304"/>
</g>
<!-- o40 -->
<g id="node8" class="node"><title>o40</title>
<ellipse fill="none" stroke="black" cx="360.096" cy="-116.593" rx="24.8972" ry="24.8972"/>
<text text-anchor="middle" x="360.096" y="-112.893" font-family="Times New Roman,serif" font-size="14.00">o40</text>
</g>
<!-- o40&#45;&gt;o26 -->
<g id="edge30" class="edge"><title>o40&#45;&gt;o26</title>
<path fill="none" stroke="black" d="M378.666,-133.439C383.141,-136.523 388.085,-139.385 393.096,-141.291 537.195,-196.086 603.363,-102.363 738.096,-177.291 743.886,-180.511 748.999,-185.209 753.367,-190.32"/>
<polygon fill="black" stroke="black" points="750.772,-192.69 759.607,-198.538 756.347,-188.457 750.772,-192.69"/>
</g>
<!-- o40&#45;&gt;e(o10o8) -->
<g id="edge60" class="edge"><title>o40&#45;&gt;e(o10o8)</title>
<path fill="none" stroke="black" d="M378.913,-132.859C383.376,-135.972 388.252,-138.994 393.096,-141.291 472.014,-178.712 571.687,-200.669 631.804,-211.456"/>
<polygon fill="black" stroke="black" points="631.375,-214.934 641.829,-213.217 632.586,-208.039 631.375,-214.934"/>
</g>
<!-- o38 -->
<g id="node9" class="node"><title>o38</title>
<ellipse fill="none" stroke="black" cx="427.096" cy="-116.593" rx="24.8972" ry="24.8972"/>
<text text-anchor="middle" x="427.096" y="-112.893" font-family="Times New Roman,serif" font-size="14.00">o38</text>
</g>
<!-- o38&#45;&gt;o26 -->
<g id="edge35" class="edge"><title>o38&#45;&gt;o26</title>
<path fill="none" stroke="black" d="M445.702,-133.347C450.175,-136.436 455.109,-139.323 460.096,-141.291 575.989,-187.014 629.973,-115.393 738.096,-177.291 743.846,-180.582 748.941,-185.312 753.304,-190.432"/>
<polygon fill="black" stroke="black" points="750.709,-192.802 759.545,-198.648 756.283,-188.568 750.709,-192.802"/>
</g>
<!-- o38&#45;&gt;e(o10o8) -->
<g id="edge65" class="edge"><title>o38&#45;&gt;e(o10o8)</title>
<path fill="none" stroke="black" d="M446.043,-132.598C450.499,-135.726 455.339,-138.818 460.096,-141.291 516.529,-170.622 586.317,-193.049 633.073,-206.288"/>
<polygon fill="black" stroke="black" points="632.406,-209.735 642.979,-209.053 634.288,-202.993 632.406,-209.735"/>
</g>
<!-- e(e(e(o10o8)o26)e(e(o10o8)o48)) -->
<g id="node10" class="node"><title>e(e(e(o10o8)o26)e(e(o10o8)o48))</title>
<ellipse fill="none" stroke="black" cx="879.096" cy="-602.859" rx="132.677" ry="132.677"/>
<text text-anchor="middle" x="879.096" y="-599.159" font-family="Times New Roman,serif" font-size="14.00">e(e(e(o10o8)o26)e(e(o10o8)o48))</text>
</g>
<!-- e(e(e(e(o10o8)o26)e(e(o10o8)o46))o44) -->
<g id="node23" class="node"><title>e(e(e(e(o10o8)o26)e(e(o10o8)o46))o44)</title>
<ellipse fill="none" stroke="black" cx="556.096" cy="-927.434" rx="155.972" ry="155.972"/>
<text text-anchor="middle" x="556.096" y="-923.734" font-family="Times New Roman,serif" font-size="14.00">e(e(e(e(o10o8)o26)e(e(o10o8)o46))o44)</text>
</g>
<!-- e(e(e(o10o8)o26)e(e(o10o8)o48))&#45;&gt;e(e(e(e(o10o8)o26)e(e(o10o8)o46))o44) -->
<g id="edge50" class="edge"><title>e(e(e(o10o8)o26)e(e(o10o8)o48))&#45;&gt;e(e(e(e(o10o8)o26)e(e(o10o8)o46))o44)</title>
<path fill="none" stroke="black" d="M785.671,-697.161C750.649,-732.137 710.4,-772.333 673.481,-809.203"/>
<polygon fill="black" stroke="black" points="670.747,-806.987 666.144,-816.53 675.693,-811.94 670.747,-806.987"/>
</g>
<!-- o44 -->
<g id="node11" class="node"><title>o44</title>
<ellipse fill="none" stroke="black" cx="324.096" cy="-602.859" rx="24.8972" ry="24.8972"/>
<text text-anchor="middle" x="324.096" y="-599.159" font-family="Times New Roman,serif" font-size="14.00">o44</text>
</g>
<!-- o44&#45;&gt;e(e(e(o10o8)o52)o44) -->
<g id="edge19" class="edge"><title>o44&#45;&gt;e(e(e(o10o8)o52)o44)</title>
<path fill="none" stroke="black" d="M321.743,-627.579C317.622,-669.113 308.881,-757.232 301.952,-827.08"/>
<polygon fill="black" stroke="black" points="298.448,-826.949 300.943,-837.245 305.414,-827.64 298.448,-826.949"/>
</g>
<!-- o44&#45;&gt;e(e(e(e(o10o8)o26)e(e(o10o8)o46))o44) -->
<g id="edge49" class="edge"><title>o44&#45;&gt;e(e(e(e(o10o8)o26)e(e(o10o8)o46))o44)</title>
<path fill="none" stroke="black" d="M326.305,-627.679C329.72,-655.238 338.12,-701.208 358.096,-735.448 361.296,-740.933 396.026,-774.838 435.53,-812.597"/>
<polygon fill="black" stroke="black" points="433.306,-815.312 442.955,-819.686 438.139,-810.249 433.306,-815.312"/>
</g>
<!-- e(e(e(o10o8)o52)o44)&#45;&gt;eTop -->
<g id="edge1" class="edge"><title>e(e(e(o10o8)o52)o44)&#45;&gt;eTop</title>
<path fill="none" stroke="black" d="M330.868,-1009.5C346.6,-1035.84 366.846,-1063.4 391.096,-1083.42 427.762,-1113.7 480.157,-1131.29 516.008,-1140.49"/>
<polygon fill="black" stroke="black" points="515.564,-1143.98 526.11,-1142.97 517.235,-1137.18 515.564,-1143.98"/>
</g>
<!-- o36 -->
<g id="node13" class="node"><title>o36</title>
<ellipse fill="none" stroke="black" cx="494.096" cy="-116.593" rx="24.8972" ry="24.8972"/>
<text text-anchor="middle" x="494.096" y="-112.893" font-family="Times New Roman,serif" font-size="14.00">o36</text>
</g>
<!-- o36&#45;&gt;o26 -->
<g id="edge32" class="edge"><title>o36&#45;&gt;o26</title>
<path fill="none" stroke="black" d="M512.762,-133.199C517.232,-136.295 522.15,-139.223 527.096,-141.291 614.871,-177.976 656.501,-128.376 738.096,-177.291 743.778,-180.697 748.844,-185.479 753.198,-190.613"/>
<polygon fill="black" stroke="black" points="750.603,-192.982 759.442,-198.823 756.175,-188.745 750.603,-192.982"/>
</g>
<!-- o36&#45;&gt;e(o10o8) -->
<g id="edge62" class="edge"><title>o36&#45;&gt;e(o10o8)</title>
<path fill="none" stroke="black" d="M513.286,-132.163C517.73,-135.313 522.504,-138.525 527.096,-141.291 562.564,-162.651 604.622,-183.35 636.425,-198.133"/>
<polygon fill="black" stroke="black" points="634.98,-201.321 645.527,-202.333 637.913,-194.965 634.98,-201.321"/>
</g>
<!-- e(e(o10o8)o48) -->
<g id="node21" class="node"><title>e(e(o10o8)o48)</title>
<ellipse fill="none" stroke="black" cx="561.096" cy="-367.327" rx="66.8882" ry="66.8882"/>
<text text-anchor="middle" x="561.096" y="-363.627" font-family="Times New Roman,serif" font-size="14.00">e(e(o10o8)o48)</text>
</g>
<!-- o48&#45;&gt;e(e(o10o8)o48) -->
<g id="edge45" class="edge"><title>o48&#45;&gt;e(e(o10o8)o48)</title>
<path fill="none" stroke="black" d="M354.566,-231.317C385.252,-244.714 441.437,-270.867 485.096,-300.383 491.506,-304.717 497.974,-309.525 504.287,-314.515"/>
<polygon fill="black" stroke="black" points="502.21,-317.337 512.185,-320.909 506.615,-311.896 502.21,-317.337"/>
</g>
<!-- e(o48o52) -->
<g id="node27" class="node"><title>e(o48o52)</title>
<ellipse fill="none" stroke="black" cx="162.096" cy="-367.327" rx="48.1917" ry="48.1917"/>
<text text-anchor="middle" x="162.096" y="-363.627" font-family="Times New Roman,serif" font-size="14.00">e(o48o52)</text>
</g>
<!-- o48&#45;&gt;e(o48o52) -->
<g id="edge72" class="edge"><title>o48&#45;&gt;e(o48o52)</title>
<path fill="none" stroke="black" d="M319.402,-242.227C313.877,-249.905 306.881,-258.253 299.096,-264.383 268.462,-288.502 250.359,-277.085 219.096,-300.383 211.432,-306.094 204.081,-313 197.354,-320.165"/>
<polygon fill="black" stroke="black" points="194.397,-318.22 190.315,-327.997 199.603,-322.899 194.397,-318.22"/>
</g>
<!-- e(o46o48) -->
<g id="node29" class="node"><title>e(o46o48)</title>
<ellipse fill="none" stroke="black" cx="276.096" cy="-367.327" rx="48.1917" ry="48.1917"/>
<text text-anchor="middle" x="276.096" y="-363.627" font-family="Times New Roman,serif" font-size="14.00">e(o46o48)</text>
</g>
<!-- o48&#45;&gt;e(o46o48) -->
<g id="edge76" class="edge"><title>o48&#45;&gt;e(o46o48)</title>
<path fill="none" stroke="black" d="M323.468,-244.097C316.404,-262.326 306.111,-288.882 296.923,-312.588"/>
<polygon fill="black" stroke="black" points="293.55,-311.606 293.2,-322.195 300.077,-314.135 293.55,-311.606"/>
</g>
<!-- o10 -->
<g id="node15" class="node"><title>o10</title>
<ellipse fill="none" stroke="black" cx="561.096" cy="-116.593" rx="24.8972" ry="24.8972"/>
<text text-anchor="middle" x="561.096" y="-112.893" font-family="Times New Roman,serif" font-size="14.00">o10</text>
</g>
<!-- o10&#45;&gt;o26 -->
<g id="edge34" class="edge"><title>o10&#45;&gt;o26</title>
<path fill="none" stroke="black" d="M579.883,-132.923C584.347,-136.033 589.232,-139.037 594.096,-141.291 653.953,-169.024 682.844,-141.246 738.096,-177.291 743.645,-180.911 748.651,-185.787 752.989,-190.947"/>
<polygon fill="black" stroke="black" points="750.394,-193.316 759.238,-199.149 755.962,-189.074 750.394,-193.316"/>
</g>
<!-- o10&#45;&gt;e(o10o8) -->
<g id="edge64" class="edge"><title>o10&#45;&gt;e(o10o8)</title>
<path fill="none" stroke="black" d="M579.66,-132.9C596.628,-146.891 622.32,-168.076 644.094,-186.029"/>
<polygon fill="black" stroke="black" points="641.974,-188.817 651.916,-192.478 646.427,-183.416 641.974,-188.817"/>
</g>
<!-- o34 -->
<g id="node16" class="node"><title>o34</title>
<ellipse fill="none" stroke="black" cx="628.096" cy="-116.593" rx="24.8972" ry="24.8972"/>
<text text-anchor="middle" x="628.096" y="-112.893" font-family="Times New Roman,serif" font-size="14.00">o34</text>
</g>
<!-- o34&#45;&gt;o26 -->
<g id="edge36" class="edge"><title>o34&#45;&gt;o26</title>
<path fill="none" stroke="black" d="M647.238,-132.245C651.683,-135.391 656.471,-138.58 661.096,-141.291 693.69,-160.391 708.584,-153.707 738.096,-177.291 743.176,-181.35 747.931,-186.345 752.164,-191.467"/>
<polygon fill="black" stroke="black" points="749.481,-193.719 758.356,-199.505 755.026,-189.447 749.481,-193.719"/>
</g>
<!-- o34&#45;&gt;e(o10o8) -->
<g id="edge66" class="edge"><title>o34&#45;&gt;e(o10o8)</title>
<path fill="none" stroke="black" d="M639.906,-138.778C645.574,-148.944 652.601,-161.55 659.412,-173.767"/>
<polygon fill="black" stroke="black" points="656.384,-175.524 664.311,-182.554 662.498,-172.115 656.384,-175.524"/>
</g>
<!-- e(e(o10o8)o26) -->
<g id="node31" class="node"><title>e(e(o10o8)o26)</title>
<ellipse fill="none" stroke="black" cx="865.096" cy="-367.327" rx="66.8882" ry="66.8882"/>
<text text-anchor="middle" x="865.096" y="-363.627" font-family="Times New Roman,serif" font-size="14.00">e(e(o10o8)o26)</text>
</g>
<!-- o26&#45;&gt;e(e(o10o8)o26) -->
<g id="edge79" class="edge"><title>o26&#45;&gt;e(e(o10o8)o26)</title>
<path fill="none" stroke="black" d="M784.166,-241.928C794.409,-257.672 809.256,-280.494 823.444,-302.303"/>
<polygon fill="black" stroke="black" points="820.66,-304.442 829.047,-310.915 826.527,-300.624 820.66,-304.442"/>
</g>
<!-- o2 -->
<g id="node18" class="node"><title>o2</title>
<ellipse fill="none" stroke="black" cx="387.096" cy="-602.859" rx="20.2975" ry="20.2975"/>
<text text-anchor="middle" x="387.096" y="-599.159" font-family="Times New Roman,serif" font-size="14.00">o2</text>
</g>
<!-- o2&#45;&gt;e(e(e(o10o8)o52)o44) -->
<g id="edge24" class="edge"><title>o2&#45;&gt;e(e(e(o10o8)o52)o44)</title>
<path fill="none" stroke="black" d="M383.643,-622.769C378.786,-648.484 369.269,-695.82 358.096,-735.448 349.037,-767.577 337.593,-802.208 326.79,-833.043"/>
<polygon fill="black" stroke="black" points="323.486,-831.889 323.461,-842.483 330.087,-834.216 323.486,-831.889"/>
</g>
<!-- o2&#45;&gt;e(e(e(e(o10o8)o26)e(e(o10o8)o46))o44) -->
<g id="edge53" class="edge"><title>o2&#45;&gt;e(e(e(e(o10o8)o26)e(e(o10o8)o46))o44)</title>
<path fill="none" stroke="black" d="M395.874,-621.369C408.574,-646.637 432.875,-694.76 454.096,-735.448 461.761,-750.144 469.812,-765.444 477.888,-780.704"/>
<polygon fill="black" stroke="black" points="474.869,-782.482 482.643,-789.679 481.054,-779.204 474.869,-782.482"/>
</g>
<!-- eBot -->
<g id="node19" class="node"><title>eBot</title>
<ellipse fill="none" stroke="black" cx="695.096" cy="-27.9475" rx="27.8951" ry="27.8951"/>
<text text-anchor="middle" x="695.096" y="-24.2475" font-family="Times New Roman,serif" font-size="14.00">eBot</text>
</g>
<!-- eBot&#45;&gt;o16 -->
<g id="edge6" class="edge"><title>eBot&#45;&gt;o16</title>
<path fill="none" stroke="black" d="M722.636,-33.0109C767.705,-40.3754 859.284,-58.3636 930.096,-91.895 931.913,-92.7554 933.734,-93.7178 935.536,-94.749"/>
<polygon fill="black" stroke="black" points="933.966,-97.8989 944.28,-100.323 937.729,-91.9963 933.966,-97.8989"/>
</g>
<!-- eBot&#45;&gt;o50 -->
<g id="edge7" class="edge"><title>eBot&#45;&gt;o50</title>
<path fill="none" stroke="black" d="M667.065,-29.4711C603.782,-31.5473 446.019,-41.7747 326.096,-91.895 324.241,-92.6702 322.39,-93.5665 320.566,-94.5473"/>
<polygon fill="black" stroke="black" points="318.429,-91.7529 311.762,-99.9866 322.109,-97.7081 318.429,-91.7529"/>
</g>
<!-- eBot&#45;&gt;o14 -->
<g id="edge10" class="edge"><title>eBot&#45;&gt;o14</title>
<path fill="none" stroke="black" d="M722.92,-30.8786C777.591,-35.4939 901.978,-50.0851 997.096,-91.895 998.936,-92.7039 1000.78,-93.6265 1002.59,-94.6272"/>
<polygon fill="black" stroke="black" points="1001.04,-97.784 1011.37,-100.12 1004.75,-91.8495 1001.04,-97.784"/>
</g>
<!-- eBot&#45;&gt;o8 -->
<g id="edge11" class="edge"><title>eBot&#45;&gt;o8</title>
<path fill="none" stroke="black" d="M723.359,-28.9381C787.118,-29.9228 945.792,-38.0616 1064.1,-91.895 1066.43,-92.9554 1068.73,-94.2502 1070.95,-95.6822"/>
<polygon fill="black" stroke="black" points="1068.93,-98.541 1079.05,-101.68 1073.09,-92.9156 1068.93,-98.541"/>
</g>
<!-- eBot&#45;&gt;o40 -->
<g id="edge12" class="edge"><title>eBot&#45;&gt;o40</title>
<path fill="none" stroke="black" d="M667.272,-30.8786C612.601,-35.4939 488.214,-50.0851 393.096,-91.895 391.255,-92.7039 389.416,-93.6265 387.6,-94.6272"/>
<polygon fill="black" stroke="black" points="385.441,-91.8495 378.819,-100.12 389.153,-97.784 385.441,-91.8495"/>
</g>
<!-- eBot&#45;&gt;o38 -->
<g id="edge13" class="edge"><title>eBot&#45;&gt;o38</title>
<path fill="none" stroke="black" d="M667.556,-33.0109C622.486,-40.3754 530.907,-58.3636 460.096,-91.895 458.279,-92.7554 456.458,-93.7178 454.655,-94.749"/>
<polygon fill="black" stroke="black" points="452.462,-91.9963 445.912,-100.323 456.225,-97.8989 452.462,-91.9963"/>
</g>
<!-- eBot&#45;&gt;o36 -->
<g id="edge25" class="edge"><title>eBot&#45;&gt;o36</title>
<path fill="none" stroke="black" d="M668.261,-36.5894C634.29,-46.7992 574.486,-66.5789 527.096,-91.895 525.323,-92.8422 523.535,-93.8722 521.759,-94.9549"/>
<polygon fill="black" stroke="black" points="519.512,-92.2441 513.085,-100.667 523.361,-98.0904 519.512,-92.2441"/>
</g>
<!-- eBot&#45;&gt;o10 -->
<g id="edge27" class="edge"><title>eBot&#45;&gt;o10</title>
<path fill="none" stroke="black" d="M671.553,-43.0212C650.904,-55.5057 620.191,-74.4208 594.096,-91.895 592.469,-92.9841 590.808,-94.1155 589.138,-95.2673"/>
<polygon fill="black" stroke="black" points="587.013,-92.4825 580.842,-101.094 591.037,-98.2108 587.013,-92.4825"/>
</g>
<!-- eBot&#45;&gt;o34 -->
<g id="edge28" class="edge"><title>eBot&#45;&gt;o34</title>
<path fill="none" stroke="black" d="M678.189,-50.8118C669.307,-62.2985 658.342,-76.4777 648.938,-88.6393"/>
<polygon fill="black" stroke="black" points="646.07,-86.6267 642.722,-96.6785 651.608,-90.9088 646.07,-86.6267"/>
</g>
<!-- o30 -->
<g id="node24" class="node"><title>o30</title>
<ellipse fill="none" stroke="black" cx="695.096" cy="-116.593" rx="24.8972" ry="24.8972"/>
<text text-anchor="middle" x="695.096" y="-112.893" font-family="Times New Roman,serif" font-size="14.00">o30</text>
</g>
<!-- eBot&#45;&gt;o30 -->
<g id="edge54" class="edge"><title>eBot&#45;&gt;o30</title>
<path fill="none" stroke="black" d="M695.096,-56.3626C695.096,-64.3805 695.096,-73.2425 695.096,-81.6154"/>
<polygon fill="black" stroke="black" points="691.596,-81.8593 695.096,-91.8593 698.596,-81.8594 691.596,-81.8593"/>
</g>
<!-- o28 -->
<g id="node32" class="node"><title>o28</title>
<ellipse fill="none" stroke="black" cx="762.096" cy="-116.593" rx="24.8972" ry="24.8972"/>
<text text-anchor="middle" x="762.096" y="-112.893" font-family="Times New Roman,serif" font-size="14.00">o28</text>
</g>
<!-- eBot&#45;&gt;o28 -->
<g id="edge81" class="edge"><title>eBot&#45;&gt;o28</title>
<path fill="none" stroke="black" d="M712.003,-50.8118C720.885,-62.2985 731.849,-76.4777 741.253,-88.6393"/>
<polygon fill="black" stroke="black" points="738.584,-90.9088 747.47,-96.6785 744.122,-86.6267 738.584,-90.9088"/>
</g>
<!-- o20 -->
<g id="node33" class="node"><title>o20</title>
<ellipse fill="none" stroke="black" cx="829.096" cy="-116.593" rx="24.8972" ry="24.8972"/>
<text text-anchor="middle" x="829.096" y="-112.893" font-family="Times New Roman,serif" font-size="14.00">o20</text>
</g>
<!-- eBot&#45;&gt;o20 -->
<g id="edge82" class="edge"><title>eBot&#45;&gt;o20</title>
<path fill="none" stroke="black" d="M718.639,-43.0212C739.287,-55.5057 770.001,-74.4208 796.096,-91.895 797.722,-92.9841 799.384,-94.1155 801.054,-95.2673"/>
<polygon fill="black" stroke="black" points="799.155,-98.2108 809.35,-101.094 803.178,-92.4825 799.155,-98.2108"/>
</g>
<!-- o18 -->
<g id="node34" class="node"><title>o18</title>
<ellipse fill="none" stroke="black" cx="896.096" cy="-116.593" rx="24.8972" ry="24.8972"/>
<text text-anchor="middle" x="896.096" y="-112.893" font-family="Times New Roman,serif" font-size="14.00">o18</text>
</g>
<!-- eBot&#45;&gt;o18 -->
<g id="edge83" class="edge"><title>eBot&#45;&gt;o18</title>
<path fill="none" stroke="black" d="M721.931,-36.5894C755.902,-46.7992 815.706,-66.5789 863.096,-91.895 864.869,-92.8422 866.656,-93.8722 868.432,-94.9549"/>
<polygon fill="black" stroke="black" points="866.83,-98.0904 877.107,-100.667 870.68,-92.2441 866.83,-98.0904"/>
</g>
<!-- o52&#45;&gt;e(e(o10o8)o52) -->
<g id="edge4" class="edge"><title>o52&#45;&gt;e(e(o10o8)o52)</title>
<path fill="none" stroke="black" d="M276.589,-243.127C282.026,-251.128 289.277,-259.468 298.096,-264.383 430.443,-338.143 498.153,-239.955 637.096,-300.383 644.417,-303.567 651.547,-307.716 658.32,-312.384"/>
<polygon fill="black" stroke="black" points="656.565,-315.438 666.695,-318.541 660.711,-309.798 656.565,-315.438"/>
</g>
<!-- o52&#45;&gt;e(o46o52) -->
<g id="edge8" class="edge"><title>o52&#45;&gt;e(o46o52)</title>
<path fill="none" stroke="black" d="M252.843,-242.831C247.379,-250.593 240.309,-258.84 232.096,-264.383 183.465,-297.202 154.58,-268.866 105.096,-300.383 96.9409,-305.577 89.3062,-312.286 82.4399,-319.43"/>
<polygon fill="black" stroke="black" points="79.4268,-317.542 75.3026,-327.301 84.6126,-322.244 79.4268,-317.542"/>
</g>
<!-- o52&#45;&gt;e(o48o52) -->
<g id="edge71" class="edge"><title>o52&#45;&gt;e(o48o52)</title>
<path fill="none" stroke="black" d="M251.205,-241.323C237.034,-261.203 214.509,-292.8 195.653,-319.253"/>
<polygon fill="black" stroke="black" points="192.629,-317.464 189.675,-327.639 198.329,-321.528 192.629,-317.464"/>
</g>
<!-- e(e(o10o8)o48)&#45;&gt;e(e(e(o10o8)o26)e(e(o10o8)o48)) -->
<g id="edge15" class="edge"><title>e(e(o10o8)o48)&#45;&gt;e(e(e(o10o8)o26)e(e(o10o8)o48))</title>
<path fill="none" stroke="black" d="M608.929,-414.454C617.864,-421.693 627.441,-428.633 637.096,-434.271 678.248,-458.302 697.385,-445.499 738.096,-470.271 752.323,-478.928 766.344,-489.189 779.703,-500.102"/>
<polygon fill="black" stroke="black" points="777.567,-502.879 787.488,-506.597 782.051,-497.503 777.567,-502.879"/>
</g>
<!-- e(e(o10o8)o48)&#45;&gt;o44 -->
<g id="edge18" class="edge"><title>e(e(o10o8)o48)&#45;&gt;o44</title>
<path fill="none" stroke="black" d="M513.569,-414.998C504.599,-422.177 494.932,-428.956 485.096,-434.271 433.482,-462.163 399.093,-428.304 358.096,-470.271 332.838,-496.126 325.633,-538.156 323.921,-567.745"/>
<polygon fill="black" stroke="black" points="320.412,-567.901 323.515,-578.031 327.407,-568.177 320.412,-567.901"/>
</g>
<!-- e(e(o10o8)o48)&#45;&gt;o2 -->
<g id="edge43" class="edge"><title>e(e(o10o8)o48)&#45;&gt;o2</title>
<path fill="none" stroke="black" d="M511.982,-413.451C503.266,-420.723 494.094,-427.935 485.096,-434.271 458.412,-453.061 440.992,-444.402 421.096,-470.271 398.263,-499.957 390.673,-543.416 388.202,-572.158"/>
<polygon fill="black" stroke="black" points="384.693,-572.173 387.485,-582.393 391.676,-572.662 384.693,-572.173"/>
</g>
<!-- o4 -->
<g id="node25" class="node"><title>o4</title>
<ellipse fill="none" stroke="black" cx="261.096" cy="-602.859" rx="20.2975" ry="20.2975"/>
<text text-anchor="middle" x="261.096" y="-599.159" font-family="Times New Roman,serif" font-size="14.00">o4</text>
</g>
<!-- e(e(o10o8)o48)&#45;&gt;o4 -->
<g id="edge57" class="edge"><title>e(e(o10o8)o48)&#45;&gt;o4</title>
<path fill="none" stroke="black" d="M514.392,-415.452C505.262,-422.671 495.327,-429.346 485.096,-434.271 405.685,-472.495 353.475,-409.033 290.096,-470.271 262.826,-496.619 258.463,-542.357 258.931,-572.367"/>
<polygon fill="black" stroke="black" points="255.443,-572.774 259.289,-582.646 262.439,-572.531 255.443,-572.774"/>
</g>
<!-- e(e(o10o8)o46) -->
<g id="node22" class="node"><title>e(e(o10o8)o46)</title>
<ellipse fill="none" stroke="black" cx="409.096" cy="-367.327" rx="66.8882" ry="66.8882"/>
<text text-anchor="middle" x="409.096" y="-363.627" font-family="Times New Roman,serif" font-size="14.00">e(e(o10o8)o46)</text>
</g>
<!-- e(e(o10o8)o46)&#45;&gt;o44 -->
<g id="edge16" class="edge"><title>e(e(o10o8)o46)&#45;&gt;o44</title>
<path fill="none" stroke="black" d="M377.4,-426.411C370.447,-440.511 363.544,-455.723 358.096,-470.271 345.968,-502.653 336.583,-541.082 330.776,-568.023"/>
<polygon fill="black" stroke="black" points="327.289,-567.597 328.654,-578.104 334.139,-569.039 327.289,-567.597"/>
</g>
<!-- e(e(o10o8)o46)&#45;&gt;o2 -->
<g id="edge41" class="edge"><title>e(e(o10o8)o46)&#45;&gt;o2</title>
<path fill="none" stroke="black" d="M402.909,-434C398.631,-479.407 393.144,-537.654 389.886,-572.237"/>
<polygon fill="black" stroke="black" points="386.365,-572.304 388.911,-582.588 393.334,-572.96 386.365,-572.304"/>
</g>
<!-- e(e(o10o8)o46)&#45;&gt;o4 -->
<g id="edge55" class="edge"><title>e(e(o10o8)o46)&#45;&gt;o4</title>
<path fill="none" stroke="black" d="M358.92,-412.083C350.328,-419.513 341.472,-427.132 333.096,-434.271 314.127,-450.439 303.024,-448.962 290.096,-470.271 270.943,-501.838 264.384,-544.501 262.169,-572.577"/>
<polygon fill="black" stroke="black" points="258.676,-572.363 261.516,-582.57 265.661,-572.82 258.676,-572.363"/>
</g>
<!-- e(e(e(o10o8)o26)e(e(o10o8)o46)) -->
<g id="node28" class="node"><title>e(e(e(o10o8)o26)e(e(o10o8)o46))</title>
<ellipse fill="none" stroke="black" cx="596.096" cy="-602.859" rx="132.677" ry="132.677"/>
<text text-anchor="middle" x="596.096" y="-599.159" font-family="Times New Roman,serif" font-size="14.00">e(e(e(o10o8)o26)e(e(o10o8)o46))</text>
</g>
<!-- e(e(o10o8)o46)&#45;&gt;e(e(e(o10o8)o26)e(e(o10o8)o46)) -->
<g id="edge73" class="edge"><title>e(e(o10o8)o46)&#45;&gt;e(e(e(o10o8)o26)e(e(o10o8)o46))</title>
<path fill="none" stroke="black" d="M450.597,-420.155C467.394,-441.132 487.474,-466.209 507.274,-490.935"/>
<polygon fill="black" stroke="black" points="504.705,-493.327 513.688,-498.945 510.169,-488.952 504.705,-493.327"/>
</g>
<!-- e(e(e(e(o10o8)o26)e(e(o10o8)o46))o44)&#45;&gt;eTop -->
<g id="edge3" class="edge"><title>e(e(e(e(o10o8)o26)e(e(o10o8)o46))o44)&#45;&gt;eTop</title>
<path fill="none" stroke="black" d="M556.096,-1083.69C556.096,-1092.75 556.096,-1101.31 556.096,-1109.07"/>
<polygon fill="black" stroke="black" points="552.596,-1109.14 556.096,-1119.14 559.596,-1109.14 552.596,-1109.14"/>
</g>
<!-- o30&#45;&gt;o26 -->
<g id="edge38" class="edge"><title>o30&#45;&gt;o26</title>
<path fill="none" stroke="black" d="M709.391,-136.824C720.994,-152.434 737.506,-174.648 750.53,-192.169"/>
<polygon fill="black" stroke="black" points="747.832,-194.406 756.606,-200.344 753.45,-190.23 747.832,-194.406"/>
</g>
<!-- o30&#45;&gt;e(o10o8) -->
<g id="edge68" class="edge"><title>o30&#45;&gt;e(o10o8)</title>
<path fill="none" stroke="black" d="M692.776,-141.307C692.013,-149.107 691.132,-158.117 690.245,-167.191"/>
<polygon fill="black" stroke="black" points="686.736,-167.108 689.246,-177.401 693.703,-167.79 686.736,-167.108"/>
</g>
<!-- o4&#45;&gt;e(e(e(o10o8)o52)o44) -->
<g id="edge23" class="edge"><title>o4&#45;&gt;e(e(e(o10o8)o52)o44)</title>
<path fill="none" stroke="black" d="M262.942,-623.072C266.727,-662.452 275.594,-754.723 282.563,-827.235"/>
<polygon fill="black" stroke="black" points="279.092,-827.709 283.533,-837.328 286.06,-827.039 279.092,-827.709"/>
</g>
<!-- o4&#45;&gt;e(e(e(e(o10o8)o26)e(e(o10o8)o46))o44) -->
<g id="edge52" class="edge"><title>o4&#45;&gt;e(e(e(e(o10o8)o26)e(e(o10o8)o46))o44)</title>
<path fill="none" stroke="black" d="M259.882,-623.415C259.223,-651.64 262.246,-703.864 290.096,-735.448 321.614,-771.191 350.425,-746.61 391.096,-771.448 408.102,-781.833 424.844,-794.185 440.76,-807.316"/>
<polygon fill="black" stroke="black" points="438.596,-810.069 448.505,-813.82 443.098,-804.709 438.596,-810.069"/>
</g>
<!-- e(o10o8)&#45;&gt;e(e(o10o8)o52) -->
<g id="edge5" class="edge"><title>e(o10o8)&#45;&gt;e(e(o10o8)o52)</title>
<path fill="none" stroke="black" d="M693.194,-263.629C694.897,-272.413 696.741,-281.932 698.598,-291.512"/>
<polygon fill="black" stroke="black" points="695.192,-292.337 700.531,-301.488 702.064,-291.005 695.192,-292.337"/>
</g>
<!-- e(o10o8)&#45;&gt;e(e(o10o8)o48) -->
<g id="edge46" class="edge"><title>e(o10o8)&#45;&gt;e(e(o10o8)o48)</title>
<path fill="none" stroke="black" d="M656.958,-254.624C643.328,-270.506 626.548,-290.059 610.858,-308.342"/>
<polygon fill="black" stroke="black" points="608.069,-306.218 604.212,-316.086 613.381,-310.777 608.069,-306.218"/>
</g>
<!-- e(o10o8)&#45;&gt;e(e(o10o8)o46) -->
<g id="edge48" class="edge"><title>e(o10o8)&#45;&gt;e(e(o10o8)o46)</title>
<path fill="none" stroke="black" d="M643.354,-233.647C601.513,-246.515 536.152,-269.469 485.096,-300.383 478.371,-304.455 471.663,-309.132 465.172,-314.077"/>
<polygon fill="black" stroke="black" points="462.766,-311.517 457.082,-320.459 467.101,-317.013 462.766,-311.517"/>
</g>
<!-- e(o10o8)&#45;&gt;e(e(o10o8)o26) -->
<g id="edge80" class="edge"><title>e(o10o8)&#45;&gt;e(e(o10o8)o26)</title>
<path fill="none" stroke="black" d="M718.068,-249.476C724.317,-254.525 730.854,-259.68 737.096,-264.383 759.547,-281.296 766.892,-283.146 789.096,-300.383 795.208,-305.128 801.481,-310.205 807.676,-315.358"/>
<polygon fill="black" stroke="black" points="805.556,-318.148 815.462,-321.906 810.061,-312.791 805.556,-318.148"/>
</g>
<!-- e(o48o52)&#45;&gt;e(e(e(o10o8)o52)o44) -->
<g id="edge21" class="edge"><title>e(o48o52)&#45;&gt;e(e(e(o10o8)o52)o44)</title>
<path fill="none" stroke="black" d="M169.224,-415.068C180.319,-485.192 203.45,-621.554 232.096,-735.448 240.051,-767.078 250.237,-801.183 259.949,-831.698"/>
<polygon fill="black" stroke="black" points="256.696,-833.017 263.082,-841.471 263.362,-830.88 256.696,-833.017"/>
</g>
<!-- e(e(e(o10o8)o26)e(e(o10o8)o46))&#45;&gt;e(e(e(e(o10o8)o26)e(e(o10o8)o46))o44) -->
<g id="edge51" class="edge"><title>e(e(e(o10o8)o26)e(e(o10o8)o46))&#45;&gt;e(e(e(e(o10o8)o26)e(e(o10o8)o46))o44)</title>
<path fill="none" stroke="black" d="M579.884,-734.598C578.747,-743.768 577.593,-753.075 576.437,-762.394"/>
<polygon fill="black" stroke="black" points="572.941,-762.15 575.183,-772.505 579.887,-763.011 572.941,-762.15"/>
</g>
<!-- e(o46o48)&#45;&gt;o44 -->
<g id="edge17" class="edge"><title>e(o46o48)&#45;&gt;o44</title>
<path fill="none" stroke="black" d="M285.636,-414.745C294.967,-460.142 308.947,-528.159 317.232,-568.468"/>
<polygon fill="black" stroke="black" points="313.818,-569.24 319.26,-578.331 320.675,-567.831 313.818,-569.24"/>
</g>
<!-- e(o46o48)&#45;&gt;o2 -->
<g id="edge42" class="edge"><title>e(o46o48)&#45;&gt;o2</title>
<path fill="none" stroke="black" d="M307.546,-403.825C327.682,-427.206 351.27,-456.037 358.096,-470.271 373.902,-503.231 381.217,-544.98 384.518,-572.509"/>
<polygon fill="black" stroke="black" points="381.062,-573.107 385.63,-582.666 388.02,-572.344 381.062,-573.107"/>
</g>
<!-- e(o46o48)&#45;&gt;o4 -->
<g id="edge56" class="edge"><title>e(o46o48)&#45;&gt;o4</title>
<path fill="none" stroke="black" d="M273.06,-415.586C270.041,-462.589 265.505,-533.217 262.974,-572.624"/>
<polygon fill="black" stroke="black" points="259.479,-572.43 262.331,-582.634 266.465,-572.879 259.479,-572.43"/>
</g>
<!-- e(e(e(o10o8)o26)e(e(o10o8)o52))&#45;&gt;eTop -->
<g id="edge2" class="edge"><title>e(e(e(o10o8)o26)e(e(o10o8)o52))&#45;&gt;eTop</title>
<path fill="none" stroke="black" d="M1085.83,-711.815C1005.6,-818.645 870.416,-980.671 721.096,-1083.42 682.153,-1110.22 630.654,-1128.43 595.618,-1138.73"/>
<polygon fill="black" stroke="black" points="594.405,-1135.44 585.752,-1141.55 596.328,-1142.17 594.405,-1135.44"/>
</g>
<!-- e(e(o10o8)o26)&#45;&gt;e(e(e(o10o8)o26)e(e(o10o8)o48)) -->
<g id="edge14" class="edge"><title>e(e(o10o8)o26)&#45;&gt;e(e(e(o10o8)o26)e(e(o10o8)o48))</title>
<path fill="none" stroke="black" d="M869.051,-434.312C869.545,-442.543 870.063,-451.193 870.594,-460.045"/>
<polygon fill="black" stroke="black" points="867.105,-460.34 871.198,-470.113 874.093,-459.921 867.105,-460.34"/>
</g>
<!-- e(e(o10o8)o26)&#45;&gt;e(e(e(o10o8)o26)e(e(o10o8)o46)) -->
<g id="edge74" class="edge"><title>e(e(o10o8)o26)&#45;&gt;e(e(e(o10o8)o26)e(e(o10o8)o46))</title>
<path fill="none" stroke="black" d="M815.462,-412.748C806.807,-420.102 797.789,-427.522 789.096,-434.271 766.892,-451.508 758.984,-452.635 737.096,-470.271 724.345,-480.544 711.321,-491.694 698.593,-503.011"/>
<polygon fill="black" stroke="black" points="696.251,-500.41 691.137,-509.688 700.921,-505.624 696.251,-500.41"/>
</g>
<!-- e(e(o10o8)o26)&#45;&gt;e(e(e(o10o8)o26)e(e(o10o8)o52)) -->
<g id="edge78" class="edge"><title>e(e(o10o8)o26)&#45;&gt;e(e(e(o10o8)o26)e(e(o10o8)o52))</title>
<path fill="none" stroke="black" d="M922.304,-402.404C952.541,-421.227 989.777,-445.72 1021.1,-470.271 1034.09,-480.459 1047.31,-491.606 1060.19,-502.964"/>
<polygon fill="black" stroke="black" points="1057.93,-505.638 1067.73,-509.67 1062.59,-500.408 1057.93,-505.638"/>
</g>
<!-- o28&#45;&gt;o26 -->
<g id="edge31" class="edge"><title>o28&#45;&gt;o26</title>
<path fill="none" stroke="black" d="M764.183,-141.307C765.345,-154.503 766.811,-171.16 768.094,-185.733"/>
<polygon fill="black" stroke="black" points="764.625,-186.243 768.988,-195.897 771.598,-185.629 764.625,-186.243"/>
</g>
<!-- o28&#45;&gt;e(o10o8) -->
<g id="edge61" class="edge"><title>o28&#45;&gt;e(o10o8)</title>
<path fill="none" stroke="black" d="M747.613,-136.824C739.018,-148.236 727.765,-163.179 717.178,-177.236"/>
<polygon fill="black" stroke="black" points="714.267,-175.284 711.047,-185.378 719.859,-179.495 714.267,-175.284"/>
</g>
<!-- o20&#45;&gt;o26 -->
<g id="edge33" class="edge"><title>o20&#45;&gt;o26</title>
<path fill="none" stroke="black" d="M817.078,-138.778C808.623,-153.682 797.195,-173.829 787.847,-190.308"/>
<polygon fill="black" stroke="black" points="784.789,-188.604 782.9,-199.029 790.878,-192.058 784.789,-188.604"/>
</g>
<!-- o20&#45;&gt;e(o10o8) -->
<g id="edge63" class="edge"><title>o20&#45;&gt;e(o10o8)</title>
<path fill="none" stroke="black" d="M809.371,-132.123C805.039,-135.21 800.446,-138.407 796.096,-141.291 770.491,-158.261 762.154,-159.522 737.096,-177.291 733.41,-179.904 729.649,-182.701 725.921,-185.565"/>
<polygon fill="black" stroke="black" points="723.555,-182.972 717.85,-191.9 727.877,-188.479 723.555,-182.972"/>
</g>
<!-- o18&#45;&gt;o26 -->
<g id="edge37" class="edge"><title>o18&#45;&gt;o26</title>
<path fill="none" stroke="black" d="M877.382,-132.9C856.302,-150.142 821.868,-178.307 797.928,-197.889"/>
<polygon fill="black" stroke="black" points="795.462,-195.385 789.937,-204.425 799.894,-200.803 795.462,-195.385"/>
</g>
<!-- o18&#45;&gt;e(o10o8) -->
<g id="edge67" class="edge"><title>o18&#45;&gt;e(o10o8)</title>
<path fill="none" stroke="black" d="M877.251,-132.803C872.79,-135.919 867.921,-138.956 863.096,-141.291 810.667,-166.652 788.701,-150.292 737.096,-177.291 733.033,-179.416 728.991,-181.893 725.06,-184.561"/>
<polygon fill="black" stroke="black" points="722.706,-181.945 716.667,-190.651 726.817,-187.611 722.706,-181.945"/>
</g>
<!-- o46&#45;&gt;e(o46o52) -->
<g id="edge9" class="edge"><title>o46&#45;&gt;e(o46o52)</title>
<path fill="none" stroke="black" d="M178.815,-236.66C159.459,-251.871 129.142,-276.61 105.096,-300.383 98.3782,-307.024 91.5477,-314.347 85.0586,-321.625"/>
<polygon fill="black" stroke="black" points="82.1391,-319.645 78.1728,-329.47 87.4,-324.263 82.1391,-319.645"/>
</g>
<!-- o46&#45;&gt;e(e(o10o8)o46) -->
<g id="edge47" class="edge"><title>o46&#45;&gt;e(e(o10o8)o46)</title>
<path fill="none" stroke="black" d="M210.532,-242.567C216.022,-250.293 223.061,-258.584 231.096,-264.383 270.077,-292.518 291.544,-276.205 333.096,-300.383 339.89,-304.336 346.644,-308.938 353.162,-313.837"/>
<polygon fill="black" stroke="black" points="351.242,-316.778 361.278,-320.175 355.551,-311.261 351.242,-316.778"/>
</g>
<!-- o46&#45;&gt;e(o46o48) -->
<g id="edge75" class="edge"><title>o46&#45;&gt;e(o46o48)</title>
<path fill="none" stroke="black" d="M209.438,-242.847C219.711,-261.877 235.259,-290.68 248.756,-315.682"/>
<polygon fill="black" stroke="black" points="245.792,-317.559 253.622,-324.696 251.951,-314.233 245.792,-317.559"/>
</g>
</g>
</svg>
