<?xml version="1.0" encoding="UTF-8" standalone="no"?>
<!DOCTYPE svg PUBLIC "-//W3C//DTD SVG 1.1//EN"
 "http://www.w3.org/Graphics/SVG/1.1/DTD/svg11.dtd">
<!-- Generated by graphviz version 2.38.0 (20140413.2041)
 -->
<!-- Title: priss2013&#45;table01_o40_d Pages: 1 -->
<svg width="920pt" height="926pt"
 viewBox="0.00 0.00 920.40 925.94" xmlns="http://www.w3.org/2000/svg" xmlns:xlink="http://www.w3.org/1999/xlink">
<g id="graph0" class="graph" transform="scale(1 1) rotate(0) translate(4 921.938)">
<title>priss2013&#45;table01_o40_d</title>
<polygon fill="white" stroke="none" points="-4,4 -4,-921.938 916.396,-921.938 916.396,4 -4,4"/>
<!-- e(e(e(o10o8)o52)o4) -->
<g id="node1" class="node"><title>e(e(e(o10o8)o52)o4)</title>
<ellipse fill="none" stroke="black" cx="147.698" cy="-688.255" rx="85.5853" ry="85.5853"/>
<text text-anchor="middle" x="147.698" y="-684.555" font-family="Times New Roman,serif" font-size="14.00">e(e(e(o10o8)o52)o4)</text>
</g>
<!-- eTop -->
<g id="node4" class="node"><title>eTop</title>
<ellipse fill="none" stroke="black" cx="383.698" cy="-887.39" rx="30.5947" ry="30.5947"/>
<text text-anchor="middle" x="383.698" y="-883.69" font-family="Times New Roman,serif" font-size="14.00">eTop</text>
</g>
<!-- e(e(e(o10o8)o52)o4)&#45;&gt;eTop -->
<g id="edge6" class="edge"><title>e(e(e(o10o8)o52)o4)&#45;&gt;eTop</title>
<path fill="none" stroke="black" d="M190.221,-762.82C204.644,-783.449 222.126,-804.641 241.698,-820.843 272.328,-846.2 314.382,-863.995 344.767,-874.583"/>
<polygon fill="black" stroke="black" points="343.997,-878.017 354.591,-877.898 346.235,-871.384 343.997,-878.017"/>
</g>
<!-- o8 -->
<g id="node2" class="node"><title>o8</title>
<ellipse fill="none" stroke="black" cx="422.698" cy="-201.988" rx="20.2975" ry="20.2975"/>
<text text-anchor="middle" x="422.698" y="-198.288" font-family="Times New Roman,serif" font-size="14.00">o8</text>
</g>
<!-- e(o10o8) -->
<g id="node13" class="node"><title>e(o10o8)</title>
<ellipse fill="none" stroke="black" cx="434.698" cy="-306.232" rx="43.5923" ry="43.5923"/>
<text text-anchor="middle" x="434.698" y="-302.532" font-family="Times New Roman,serif" font-size="14.00">e(o10o8)</text>
</g>
<!-- o8&#45;&gt;e(o10o8) -->
<g id="edge28" class="edge"><title>o8&#45;&gt;e(o10o8)</title>
<path fill="none" stroke="black" d="M424.955,-222.22C425.984,-230.989 427.258,-241.843 428.541,-252.778"/>
<polygon fill="black" stroke="black" points="425.074,-253.262 429.716,-262.785 432.026,-252.446 425.074,-253.262"/>
</g>
<!-- o26 -->
<g id="node24" class="node"><title>o26</title>
<ellipse fill="none" stroke="black" cx="552.698" cy="-306.232" rx="24.8972" ry="24.8972"/>
<text text-anchor="middle" x="552.698" y="-302.532" font-family="Times New Roman,serif" font-size="14.00">o26</text>
</g>
<!-- o8&#45;&gt;o26 -->
<g id="edge60" class="edge"><title>o8&#45;&gt;o26</title>
<path fill="none" stroke="black" d="M437.993,-215.603C442.399,-219.205 447.224,-223.12 451.698,-226.686 476.428,-246.402 504.893,-268.484 525.287,-284.201"/>
<polygon fill="black" stroke="black" points="523.168,-286.987 533.227,-290.313 527.437,-281.439 523.168,-286.987"/>
</g>
<!-- eBot -->
<g id="node3" class="node"><title>eBot</title>
<ellipse fill="none" stroke="black" cx="453.698" cy="-27.9475" rx="27.8951" ry="27.8951"/>
<text text-anchor="middle" x="453.698" y="-24.2475" font-family="Times New Roman,serif" font-size="14.00">eBot</text>
</g>
<!-- o38 -->
<g id="node5" class="node"><title>o38</title>
<ellipse fill="none" stroke="black" cx="420.698" cy="-116.593" rx="24.8972" ry="24.8972"/>
<text text-anchor="middle" x="420.698" y="-112.893" font-family="Times New Roman,serif" font-size="14.00">o38</text>
</g>
<!-- eBot&#45;&gt;o38 -->
<g id="edge9" class="edge"><title>eBot&#45;&gt;o38</title>
<path fill="none" stroke="black" d="M443.975,-54.4753C440.504,-63.5894 436.548,-73.9751 432.895,-83.5667"/>
<polygon fill="black" stroke="black" points="429.519,-82.5971 429.231,-93.188 436.061,-85.0886 429.519,-82.5971"/>
</g>
<!-- o36 -->
<g id="node16" class="node"><title>o36</title>
<ellipse fill="none" stroke="black" cx="487.698" cy="-116.593" rx="24.8972" ry="24.8972"/>
<text text-anchor="middle" x="487.698" y="-112.893" font-family="Times New Roman,serif" font-size="14.00">o36</text>
</g>
<!-- eBot&#45;&gt;o36 -->
<g id="edge44" class="edge"><title>eBot&#45;&gt;o36</title>
<path fill="none" stroke="black" d="M463.715,-54.4753C467.329,-63.6853 471.453,-74.1939 475.249,-83.8693"/>
<polygon fill="black" stroke="black" points="471.995,-85.1576 478.906,-93.188 478.511,-82.6005 471.995,-85.1576"/>
</g>
<!-- o38&#45;&gt;o8 -->
<g id="edge4" class="edge"><title>o38&#45;&gt;o8</title>
<path fill="none" stroke="black" d="M421.276,-141.714C421.5,-151.041 421.758,-161.803 421.992,-171.577"/>
<polygon fill="black" stroke="black" points="418.496,-171.766 422.235,-181.679 425.494,-171.598 418.496,-171.766"/>
</g>
<!-- o16 -->
<g id="node10" class="node"><title>o16</title>
<ellipse fill="none" stroke="black" cx="485.698" cy="-201.988" rx="24.8972" ry="24.8972"/>
<text text-anchor="middle" x="485.698" y="-198.288" font-family="Times New Roman,serif" font-size="14.00">o16</text>
</g>
<!-- o38&#45;&gt;o16 -->
<g id="edge20" class="edge"><title>o38&#45;&gt;o16</title>
<path fill="none" stroke="black" d="M435.447,-136.517C444.03,-147.528 454.994,-161.595 464.49,-173.778"/>
<polygon fill="black" stroke="black" points="461.874,-176.115 470.782,-181.851 467.395,-171.812 461.874,-176.115"/>
</g>
<!-- o50 -->
<g id="node11" class="node"><title>o50</title>
<ellipse fill="none" stroke="black" cx="24.6978" cy="-201.988" rx="24.8972" ry="24.8972"/>
<text text-anchor="middle" x="24.6978" y="-198.288" font-family="Times New Roman,serif" font-size="14.00">o50</text>
</g>
<!-- o38&#45;&gt;o50 -->
<g id="edge22" class="edge"><title>o38&#45;&gt;o50</title>
<path fill="none" stroke="black" d="M395.865,-117.827C335.545,-119.199 177.47,-127.653 57.6978,-177.291 55.8408,-178.06 53.9882,-178.952 52.1621,-179.93"/>
<polygon fill="black" stroke="black" points="50.0298,-177.133 43.3546,-185.36 53.7036,-183.091 50.0298,-177.133"/>
</g>
<!-- o44 -->
<g id="node12" class="node"><title>o44</title>
<ellipse fill="none" stroke="black" cx="91.6978" cy="-201.988" rx="24.8972" ry="24.8972"/>
<text text-anchor="middle" x="91.6978" y="-198.288" font-family="Times New Roman,serif" font-size="14.00">o44</text>
</g>
<!-- o38&#45;&gt;o44 -->
<g id="edge24" class="edge"><title>o38&#45;&gt;o44</title>
<path fill="none" stroke="black" d="M395.865,-119.071C343.623,-122.925 219.376,-136.04 124.698,-177.291 122.855,-178.094 121.013,-179.011 119.196,-180.009"/>
<polygon fill="black" stroke="black" points="117.041,-177.228 110.411,-185.492 120.747,-183.166 117.041,-177.228"/>
</g>
<!-- o28 -->
<g id="node14" class="node"><title>o28</title>
<ellipse fill="none" stroke="black" cx="552.698" cy="-201.988" rx="24.8972" ry="24.8972"/>
<text text-anchor="middle" x="552.698" y="-198.288" font-family="Times New Roman,serif" font-size="14.00">o28</text>
</g>
<!-- o38&#45;&gt;o28 -->
<g id="edge40" class="edge"><title>o38&#45;&gt;o28</title>
<path fill="none" stroke="black" d="M440.319,-132.284C444.657,-135.362 449.279,-138.513 453.698,-141.291 481.988,-159.069 491.407,-159.512 519.698,-177.291 521.355,-178.332 523.041,-179.426 524.729,-180.549"/>
<polygon fill="black" stroke="black" points="522.856,-183.509 533.077,-186.297 526.826,-177.743 522.856,-183.509"/>
</g>
<!-- o46 -->
<g id="node15" class="node"><title>o46</title>
<ellipse fill="none" stroke="black" cx="158.698" cy="-201.988" rx="24.8972" ry="24.8972"/>
<text text-anchor="middle" x="158.698" y="-198.288" font-family="Times New Roman,serif" font-size="14.00">o46</text>
</g>
<!-- o38&#45;&gt;o46 -->
<g id="edge42" class="edge"><title>o38&#45;&gt;o46</title>
<path fill="none" stroke="black" d="M396.295,-120.939C353.31,-127.48 261.99,-144.293 191.698,-177.291 189.878,-178.145 188.055,-179.103 186.251,-180.13"/>
<polygon fill="black" stroke="black" points="184.062,-177.375 177.502,-185.695 187.819,-183.281 184.062,-177.375"/>
</g>
<!-- o20 -->
<g id="node17" class="node"><title>o20</title>
<ellipse fill="none" stroke="black" cx="619.698" cy="-201.988" rx="24.8972" ry="24.8972"/>
<text text-anchor="middle" x="619.698" y="-198.288" font-family="Times New Roman,serif" font-size="14.00">o20</text>
</g>
<!-- o38&#45;&gt;o20 -->
<g id="edge45" class="edge"><title>o38&#45;&gt;o20</title>
<path fill="none" stroke="black" d="M439.518,-132.853C443.981,-135.967 448.856,-138.99 453.698,-141.291 509.01,-167.572 531.386,-151.01 586.698,-177.291 588.513,-178.153 590.334,-179.118 592.135,-180.15"/>
<polygon fill="black" stroke="black" points="590.565,-183.3 600.877,-185.728 594.33,-177.399 590.565,-183.3"/>
</g>
<!-- o48 -->
<g id="node18" class="node"><title>o48</title>
<ellipse fill="none" stroke="black" cx="225.698" cy="-201.988" rx="24.8972" ry="24.8972"/>
<text text-anchor="middle" x="225.698" y="-198.288" font-family="Times New Roman,serif" font-size="14.00">o48</text>
</g>
<!-- o38&#45;&gt;o48 -->
<g id="edge47" class="edge"><title>o38&#45;&gt;o48</title>
<path fill="none" stroke="black" d="M397.052,-124.113C364.728,-133.51 305.428,-152.49 258.698,-177.291 256.922,-178.233 255.133,-179.259 253.355,-180.339"/>
<polygon fill="black" stroke="black" points="251.111,-177.626 244.677,-186.044 254.955,-183.475 251.111,-177.626"/>
</g>
<!-- o10 -->
<g id="node19" class="node"><title>o10</title>
<ellipse fill="none" stroke="black" cx="686.698" cy="-201.988" rx="24.8972" ry="24.8972"/>
<text text-anchor="middle" x="686.698" y="-198.288" font-family="Times New Roman,serif" font-size="14.00">o10</text>
</g>
<!-- o38&#45;&gt;o10 -->
<g id="edge49" class="edge"><title>o38&#45;&gt;o10</title>
<path fill="none" stroke="black" d="M439.378,-133.166C443.847,-136.263 448.761,-139.201 453.698,-141.291 536.87,-176.498 570.525,-142.083 653.698,-177.291 655.549,-178.074 657.397,-178.977 659.22,-179.963"/>
<polygon fill="black" stroke="black" points="657.674,-183.123 668.018,-185.416 661.362,-177.173 657.674,-183.123"/>
</g>
<!-- o34 -->
<g id="node20" class="node"><title>o34</title>
<ellipse fill="none" stroke="black" cx="753.698" cy="-201.988" rx="24.8972" ry="24.8972"/>
<text text-anchor="middle" x="753.698" y="-198.288" font-family="Times New Roman,serif" font-size="14.00">o34</text>
</g>
<!-- o38&#45;&gt;o34 -->
<g id="edge51" class="edge"><title>o38&#45;&gt;o34</title>
<path fill="none" stroke="black" d="M439.311,-133.328C443.784,-136.417 448.716,-139.31 453.698,-141.291 564.967,-185.527 609.428,-133.054 720.698,-177.291 722.566,-178.033 724.427,-178.904 726.259,-179.866"/>
<polygon fill="black" stroke="black" points="724.725,-183.03 735.084,-185.254 728.373,-177.055 724.725,-183.03"/>
</g>
<!-- o18 -->
<g id="node21" class="node"><title>o18</title>
<ellipse fill="none" stroke="black" cx="820.698" cy="-201.988" rx="24.8972" ry="24.8972"/>
<text text-anchor="middle" x="820.698" y="-198.288" font-family="Times New Roman,serif" font-size="14.00">o18</text>
</g>
<!-- o38&#45;&gt;o18 -->
<g id="edge53" class="edge"><title>o38&#45;&gt;o18</title>
<path fill="none" stroke="black" d="M439.273,-133.426C443.748,-136.511 448.691,-139.377 453.698,-141.291 593.162,-194.595 648.233,-123.986 787.698,-177.291 789.576,-178.008 791.444,-178.86 793.282,-179.807"/>
<polygon fill="black" stroke="black" points="791.755,-182.973 802.123,-185.155 795.378,-176.984 791.755,-182.973"/>
</g>
<!-- o30 -->
<g id="node23" class="node"><title>o30</title>
<ellipse fill="none" stroke="black" cx="887.698" cy="-201.988" rx="24.8972" ry="24.8972"/>
<text text-anchor="middle" x="887.698" y="-198.288" font-family="Times New Roman,serif" font-size="14.00">o30</text>
</g>
<!-- o38&#45;&gt;o30 -->
<g id="edge58" class="edge"><title>o38&#45;&gt;o30</title>
<path fill="none" stroke="black" d="M439.248,-133.493C443.724,-136.574 448.674,-139.422 453.698,-141.291 621.407,-203.682 686.988,-114.899 854.698,-177.291 856.582,-177.992 858.455,-178.83 860.297,-179.767"/>
<polygon fill="black" stroke="black" points="858.774,-182.935 869.148,-185.089 862.381,-176.936 858.774,-182.935"/>
</g>
<!-- o32 -->
<g id="node25" class="node"><title>o32</title>
<ellipse fill="none" stroke="black" cx="292.698" cy="-201.988" rx="24.8972" ry="24.8972"/>
<text text-anchor="middle" x="292.698" y="-198.288" font-family="Times New Roman,serif" font-size="14.00">o32</text>
</g>
<!-- o38&#45;&gt;o32 -->
<g id="edge70" class="edge"><title>o38&#45;&gt;o32</title>
<path fill="none" stroke="black" d="M399.705,-130.271C380.295,-142.113 350.754,-160.445 325.698,-177.291 324.073,-178.383 322.414,-179.517 320.745,-180.67"/>
<polygon fill="black" stroke="black" points="318.618,-177.887 312.452,-186.502 322.645,-183.613 318.618,-177.887"/>
</g>
<!-- o14 -->
<g id="node26" class="node"><title>o14</title>
<ellipse fill="none" stroke="black" cx="359.698" cy="-201.988" rx="24.8972" ry="24.8972"/>
<text text-anchor="middle" x="359.698" y="-198.288" font-family="Times New Roman,serif" font-size="14.00">o14</text>
</g>
<!-- o38&#45;&gt;o14 -->
<g id="edge72" class="edge"><title>o38&#45;&gt;o14</title>
<path fill="none" stroke="black" d="M406.55,-136.935C398.677,-147.699 388.739,-161.285 380.045,-173.172"/>
<polygon fill="black" stroke="black" points="377.059,-171.325 373.98,-181.462 382.709,-175.457 377.059,-171.325"/>
</g>
<!-- e(e(o10o8)o52) -->
<g id="node6" class="node"><title>e(e(o10o8)o52)</title>
<ellipse fill="none" stroke="black" cx="218.698" cy="-452.723" rx="66.8882" ry="66.8882"/>
<text text-anchor="middle" x="218.698" y="-449.023" font-family="Times New Roman,serif" font-size="14.00">e(e(o10o8)o52)</text>
</g>
<!-- e(e(o10o8)o52)&#45;&gt;e(e(e(o10o8)o52)o4) -->
<g id="edge1" class="edge"><title>e(e(o10o8)o52)&#45;&gt;e(e(e(o10o8)o52)o4)</title>
<path fill="none" stroke="black" d="M199.484,-516.92C192.059,-541.342 183.421,-569.756 175.351,-596.297"/>
<polygon fill="black" stroke="black" points="171.968,-595.394 172.408,-605.98 178.665,-597.43 171.968,-595.394"/>
</g>
<!-- e(e(e(o10o8)o26)e(e(o10o8)o52)) -->
<g id="node7" class="node"><title>e(e(e(o10o8)o26)e(e(o10o8)o52))</title>
<ellipse fill="none" stroke="black" cx="383.698" cy="-688.255" rx="132.677" ry="132.677"/>
<text text-anchor="middle" x="383.698" y="-684.555" font-family="Times New Roman,serif" font-size="14.00">e(e(e(o10o8)o26)e(e(o10o8)o52))</text>
</g>
<!-- e(e(o10o8)o52)&#45;&gt;e(e(e(o10o8)o26)e(e(o10o8)o52)) -->
<g id="edge12" class="edge"><title>e(e(o10o8)o52)&#45;&gt;e(e(e(o10o8)o26)e(e(o10o8)o52))</title>
<path fill="none" stroke="black" d="M256.967,-507.887C270.448,-526.967 286.167,-549.214 301.854,-571.417"/>
<polygon fill="black" stroke="black" points="298.998,-573.441 307.627,-579.589 304.715,-569.402 298.998,-573.441"/>
</g>
<!-- e(e(e(o10o8)o26)e(e(o10o8)o52))&#45;&gt;eTop -->
<g id="edge8" class="edge"><title>e(e(e(o10o8)o26)e(e(o10o8)o52))&#45;&gt;eTop</title>
<path fill="none" stroke="black" d="M383.698,-821.021C383.698,-830.021 383.698,-838.603 383.698,-846.415"/>
<polygon fill="black" stroke="black" points="380.198,-846.556 383.698,-856.556 387.198,-846.556 380.198,-846.556"/>
</g>
<!-- e(e(o10o8)o26) -->
<g id="node8" class="node"><title>e(e(o10o8)o26)</title>
<ellipse fill="none" stroke="black" cx="548.698" cy="-452.723" rx="66.8882" ry="66.8882"/>
<text text-anchor="middle" x="548.698" y="-449.023" font-family="Times New Roman,serif" font-size="14.00">e(e(o10o8)o26)</text>
</g>
<!-- e(e(o10o8)o26)&#45;&gt;e(e(e(o10o8)o26)e(e(o10o8)o52)) -->
<g id="edge13" class="edge"><title>e(e(o10o8)o26)&#45;&gt;e(e(e(o10o8)o26)e(e(o10o8)o52))</title>
<path fill="none" stroke="black" d="M510.429,-507.887C496.947,-526.967 481.229,-549.214 465.542,-571.417"/>
<polygon fill="black" stroke="black" points="462.68,-569.402 459.768,-579.589 468.397,-573.441 462.68,-569.402"/>
</g>
<!-- e(e(e(o10o8)o26)o4) -->
<g id="node22" class="node"><title>e(e(e(o10o8)o26)o4)</title>
<ellipse fill="none" stroke="black" cx="619.698" cy="-688.255" rx="85.5853" ry="85.5853"/>
<text text-anchor="middle" x="619.698" y="-684.555" font-family="Times New Roman,serif" font-size="14.00">e(e(e(o10o8)o26)o4)</text>
</g>
<!-- e(e(o10o8)o26)&#45;&gt;e(e(e(o10o8)o26)o4) -->
<g id="edge55" class="edge"><title>e(e(o10o8)o26)&#45;&gt;e(e(e(o10o8)o26)o4)</title>
<path fill="none" stroke="black" d="M567.911,-516.92C575.336,-541.342 583.975,-569.756 592.044,-596.297"/>
<polygon fill="black" stroke="black" points="588.731,-597.43 594.988,-605.98 595.428,-595.394 588.731,-597.43"/>
</g>
<!-- o52 -->
<g id="node9" class="node"><title>o52</title>
<ellipse fill="none" stroke="black" cx="158.698" cy="-306.232" rx="24.8972" ry="24.8972"/>
<text text-anchor="middle" x="158.698" y="-302.532" font-family="Times New Roman,serif" font-size="14.00">o52</text>
</g>
<!-- o52&#45;&gt;e(e(o10o8)o52) -->
<g id="edge10" class="edge"><title>o52&#45;&gt;e(e(o10o8)o52)</title>
<path fill="none" stroke="black" d="M167.941,-329.492C173.762,-343.51 181.628,-362.453 189.429,-381.237"/>
<polygon fill="black" stroke="black" points="186.299,-382.827 193.366,-390.72 192.764,-380.142 186.299,-382.827"/>
</g>
<!-- o16&#45;&gt;e(o10o8) -->
<g id="edge39" class="edge"><title>o16&#45;&gt;e(o10o8)</title>
<path fill="none" stroke="black" d="M474.882,-224.672C470.037,-234.385 464.119,-246.249 458.33,-257.855"/>
<polygon fill="black" stroke="black" points="455.07,-256.55 453.738,-267.061 461.334,-259.674 455.07,-256.55"/>
</g>
<!-- o16&#45;&gt;o26 -->
<g id="edge69" class="edge"><title>o16&#45;&gt;o26</title>
<path fill="none" stroke="black" d="M498.935,-223.189C508.937,-238.453 522.8,-259.608 533.944,-276.613"/>
<polygon fill="black" stroke="black" points="531.08,-278.628 539.488,-285.074 536.935,-274.792 531.08,-278.628"/>
</g>
<!-- o50&#45;&gt;o52 -->
<g id="edge16" class="edge"><title>o50&#45;&gt;o52</title>
<path fill="none" stroke="black" d="M43.8967,-217.638C66.8825,-235.176 105.53,-264.665 131.562,-284.527"/>
<polygon fill="black" stroke="black" points="129.461,-287.327 139.534,-290.611 133.708,-281.762 129.461,-287.327"/>
</g>
<!-- o50&#45;&gt;e(o10o8) -->
<g id="edge26" class="edge"><title>o50&#45;&gt;e(o10o8)</title>
<path fill="none" stroke="black" d="M43.4208,-218.462C47.8882,-221.565 52.7903,-224.529 57.6978,-226.686 87.1441,-239.628 285.355,-277.498 381.964,-295.504"/>
<polygon fill="black" stroke="black" points="381.355,-298.951 391.827,-297.34 382.636,-292.069 381.355,-298.951"/>
</g>
<!-- o44&#45;&gt;o52 -->
<g id="edge17" class="edge"><title>o44&#45;&gt;o52</title>
<path fill="none" stroke="black" d="M104.935,-223.189C114.937,-238.453 128.8,-259.608 139.944,-276.613"/>
<polygon fill="black" stroke="black" points="137.08,-278.628 145.488,-285.074 142.935,-274.792 137.08,-278.628"/>
</g>
<!-- o44&#45;&gt;e(o10o8) -->
<g id="edge27" class="edge"><title>o44&#45;&gt;e(o10o8)</title>
<path fill="none" stroke="black" d="M110.491,-218.307C114.955,-221.418 119.838,-224.425 124.698,-226.686 209.933,-266.342 318.034,-287.902 381.464,-297.955"/>
<polygon fill="black" stroke="black" points="381.213,-301.458 391.63,-299.528 382.283,-294.54 381.213,-301.458"/>
</g>
<!-- e(o10o8)&#45;&gt;e(e(o10o8)o52) -->
<g id="edge11" class="edge"><title>e(o10o8)&#45;&gt;e(e(o10o8)o52)</title>
<path fill="none" stroke="black" d="M398.544,-331.417C366.946,-352.554 320.332,-383.736 282.478,-409.057"/>
<polygon fill="black" stroke="black" points="280.416,-406.226 274.05,-414.695 284.308,-412.044 280.416,-406.226"/>
</g>
<!-- e(o10o8)&#45;&gt;e(e(o10o8)o26) -->
<g id="edge15" class="edge"><title>e(o10o8)&#45;&gt;e(e(o10o8)o26)</title>
<path fill="none" stroke="black" d="M461.426,-341.109C473.353,-356.227 487.772,-374.502 501.424,-391.805"/>
<polygon fill="black" stroke="black" points="498.689,-393.99 507.631,-399.672 504.185,-389.654 498.689,-393.99"/>
</g>
<!-- o4 -->
<g id="node27" class="node"><title>o4</title>
<ellipse fill="none" stroke="black" cx="382.698" cy="-452.723" rx="20.2975" ry="20.2975"/>
<text text-anchor="middle" x="382.698" y="-449.023" font-family="Times New Roman,serif" font-size="14.00">o4</text>
</g>
<!-- e(o10o8)&#45;&gt;o4 -->
<g id="edge74" class="edge"><title>e(o10o8)&#45;&gt;o4</title>
<path fill="none" stroke="black" d="M420.213,-347.481C411.444,-371.846 400.486,-402.296 392.681,-423.982"/>
<polygon fill="black" stroke="black" points="389.325,-422.972 389.232,-433.567 395.911,-425.343 389.325,-422.972"/>
</g>
<!-- o2 -->
<g id="node28" class="node"><title>o2</title>
<ellipse fill="none" stroke="black" cx="440.698" cy="-452.723" rx="20.2975" ry="20.2975"/>
<text text-anchor="middle" x="440.698" y="-449.023" font-family="Times New Roman,serif" font-size="14.00">o2</text>
</g>
<!-- e(o10o8)&#45;&gt;o2 -->
<g id="edge75" class="edge"><title>e(o10o8)&#45;&gt;o2</title>
<path fill="none" stroke="black" d="M436.466,-349.803C437.431,-373.054 438.603,-401.268 439.468,-422.111"/>
<polygon fill="black" stroke="black" points="435.978,-422.427 439.89,-432.274 442.972,-422.137 435.978,-422.427"/>
</g>
<!-- o28&#45;&gt;e(o10o8) -->
<g id="edge29" class="edge"><title>o28&#45;&gt;e(o10o8)</title>
<path fill="none" stroke="black" d="M534.519,-218.74C518.697,-232.449 495.194,-252.814 474.967,-270.34"/>
<polygon fill="black" stroke="black" points="472.664,-267.704 467.398,-276.898 477.248,-272.995 472.664,-267.704"/>
</g>
<!-- o28&#45;&gt;o26 -->
<g id="edge61" class="edge"><title>o28&#45;&gt;o26</title>
<path fill="none" stroke="black" d="M552.698,-226.702C552.698,-239.899 552.698,-256.555 552.698,-271.129"/>
<polygon fill="black" stroke="black" points="549.198,-271.293 552.698,-281.293 556.198,-271.293 549.198,-271.293"/>
</g>
<!-- o46&#45;&gt;o52 -->
<g id="edge19" class="edge"><title>o46&#45;&gt;o52</title>
<path fill="none" stroke="black" d="M158.698,-226.702C158.698,-239.899 158.698,-256.555 158.698,-271.129"/>
<polygon fill="black" stroke="black" points="155.198,-271.293 158.698,-281.293 162.198,-271.293 155.198,-271.293"/>
</g>
<!-- o46&#45;&gt;e(o10o8) -->
<g id="edge30" class="edge"><title>o46&#45;&gt;e(o10o8)</title>
<path fill="none" stroke="black" d="M177.603,-218.076C182.061,-221.199 186.913,-224.27 191.698,-226.686 254.214,-258.262 332.104,-280.777 382.59,-293.391"/>
<polygon fill="black" stroke="black" points="381.763,-296.791 392.31,-295.781 383.435,-289.994 381.763,-296.791"/>
</g>
<!-- o36&#45;&gt;o8 -->
<g id="edge5" class="edge"><title>o36&#45;&gt;o8</title>
<path fill="none" stroke="black" d="M472.948,-136.517C463.485,-148.659 451.124,-164.517 441.031,-177.467"/>
<polygon fill="black" stroke="black" points="438.166,-175.45 434.779,-185.489 443.687,-179.753 438.166,-175.45"/>
</g>
<!-- o36&#45;&gt;o16 -->
<g id="edge21" class="edge"><title>o36&#45;&gt;o16</title>
<path fill="none" stroke="black" d="M487.119,-141.714C486.929,-149.649 486.714,-158.622 486.51,-167.142"/>
<polygon fill="black" stroke="black" points="483.009,-167.128 486.268,-177.209 490.007,-167.296 483.009,-167.128"/>
</g>
<!-- o36&#45;&gt;o50 -->
<g id="edge23" class="edge"><title>o36&#45;&gt;o50</title>
<path fill="none" stroke="black" d="M469.147,-133.489C464.67,-136.57 459.721,-139.419 454.698,-141.291 288.676,-203.14 223.72,-115.442 57.6978,-177.291 55.8141,-177.992 53.9408,-178.832 52.0989,-179.769"/>
<polygon fill="black" stroke="black" points="50.0145,-176.938 43.249,-185.092 53.6224,-182.937 50.0145,-176.938"/>
</g>
<!-- o36&#45;&gt;o44 -->
<g id="edge25" class="edge"><title>o36&#45;&gt;o44</title>
<path fill="none" stroke="black" d="M469.121,-133.422C464.646,-136.506 459.704,-139.374 454.698,-141.291 316.918,-194.053 262.477,-124.528 124.698,-177.291 122.821,-178.01 120.952,-178.862 119.114,-179.81"/>
<polygon fill="black" stroke="black" points="117.017,-176.987 110.275,-185.16 120.642,-182.976 117.017,-176.987"/>
</g>
<!-- o36&#45;&gt;o28 -->
<g id="edge41" class="edge"><title>o36&#45;&gt;o28</title>
<path fill="none" stroke="black" d="M502.447,-136.517C511.03,-147.528 521.994,-161.595 531.49,-173.778"/>
<polygon fill="black" stroke="black" points="528.874,-176.115 537.782,-181.851 534.395,-171.812 528.874,-176.115"/>
</g>
<!-- o36&#45;&gt;o46 -->
<g id="edge43" class="edge"><title>o36&#45;&gt;o46</title>
<path fill="none" stroke="black" d="M469.081,-133.32C464.608,-136.41 459.677,-139.305 454.698,-141.291 345.109,-184.987 301.286,-133.595 191.698,-177.291 189.831,-178.035 187.97,-178.908 186.138,-179.87"/>
<polygon fill="black" stroke="black" points="184.023,-177.061 177.314,-185.261 187.672,-183.034 184.023,-177.061"/>
</g>
<!-- o36&#45;&gt;o20 -->
<g id="edge46" class="edge"><title>o36&#45;&gt;o20</title>
<path fill="none" stroke="black" d="M508.859,-129.692C529.113,-141.426 560.387,-159.951 586.698,-177.291 588.332,-178.368 590,-179.49 591.675,-180.634"/>
<polygon fill="black" stroke="black" points="589.782,-183.582 599.984,-186.441 593.792,-177.844 589.782,-183.582"/>
</g>
<!-- o36&#45;&gt;o48 -->
<g id="edge48" class="edge"><title>o36&#45;&gt;o48</title>
<path fill="none" stroke="black" d="M469.012,-133.153C464.543,-136.251 459.631,-139.192 454.698,-141.291 373.198,-175.961 340.198,-142.62 258.698,-177.291 256.848,-178.078 255.001,-178.983 253.179,-179.971"/>
<polygon fill="black" stroke="black" points="251.035,-177.182 244.383,-185.429 254.726,-183.13 251.035,-177.182"/>
</g>
<!-- o36&#45;&gt;o10 -->
<g id="edge50" class="edge"><title>o36&#45;&gt;o10</title>
<path fill="none" stroke="black" d="M511.378,-123.855C544.384,-133.078 605.58,-151.995 653.698,-177.291 655.477,-178.226 657.269,-179.247 659.049,-180.323"/>
<polygon fill="black" stroke="black" points="657.452,-183.46 667.734,-186.016 661.29,-177.606 657.452,-183.46"/>
</g>
<!-- o36&#45;&gt;o34 -->
<g id="edge52" class="edge"><title>o36&#45;&gt;o34</title>
<path fill="none" stroke="black" d="M512.182,-120.808C555.775,-127.188 648.996,-143.815 720.698,-177.291 722.519,-178.141 724.344,-179.096 726.149,-180.121"/>
<polygon fill="black" stroke="black" points="724.583,-183.272 734.9,-185.68 728.336,-177.364 724.583,-183.272"/>
</g>
<!-- o36&#45;&gt;o18 -->
<g id="edge54" class="edge"><title>o36&#45;&gt;o18</title>
<path fill="none" stroke="black" d="M512.464,-118.977C565.172,-122.67 691.492,-135.522 787.698,-177.291 789.542,-178.091 791.384,-179.007 793.202,-180.003"/>
<polygon fill="black" stroke="black" points="791.652,-183.161 801.989,-185.483 795.356,-177.221 791.652,-183.161"/>
</g>
<!-- o36&#45;&gt;o30 -->
<g id="edge59" class="edge"><title>o36&#45;&gt;o30</title>
<path fill="none" stroke="black" d="M512.804,-117.772C573.785,-119.023 733.597,-127.226 854.698,-177.291 856.556,-178.059 858.409,-178.949 860.235,-179.926"/>
<polygon fill="black" stroke="black" points="858.694,-183.087 869.044,-185.354 862.366,-177.128 858.694,-183.087"/>
</g>
<!-- o36&#45;&gt;o32 -->
<g id="edge71" class="edge"><title>o36&#45;&gt;o32</title>
<path fill="none" stroke="black" d="M468.864,-132.825C464.402,-135.94 459.531,-138.971 454.698,-141.291 401.034,-167.046 379.362,-151.536 325.698,-177.291 323.886,-178.16 322.068,-179.13 320.268,-180.167"/>
<polygon fill="black" stroke="black" points="318.069,-177.419 311.532,-185.756 321.841,-183.316 318.069,-177.419"/>
</g>
<!-- o36&#45;&gt;o14 -->
<g id="edge73" class="edge"><title>o36&#45;&gt;o14</title>
<path fill="none" stroke="black" d="M468.005,-132.171C463.671,-135.256 459.07,-138.439 454.698,-141.291 428.331,-158.489 420.185,-160.278 393.698,-177.291 391.779,-178.523 389.815,-179.813 387.845,-181.128"/>
<polygon fill="black" stroke="black" points="385.596,-178.425 379.303,-186.949 389.538,-184.21 385.596,-178.425"/>
</g>
<!-- o20&#45;&gt;e(o10o8) -->
<g id="edge31" class="edge"><title>o20&#45;&gt;e(o10o8)</title>
<path fill="none" stroke="black" d="M600.475,-217.506C596.033,-220.658 591.268,-223.885 586.698,-226.686 576.868,-232.711 523.054,-260.319 482.221,-281.114"/>
<polygon fill="black" stroke="black" points="480.529,-278.048 473.204,-285.703 483.704,-284.286 480.529,-278.048"/>
</g>
<!-- o20&#45;&gt;o26 -->
<g id="edge62" class="edge"><title>o20&#45;&gt;o26</title>
<path fill="none" stroke="black" d="M606.461,-223.189C596.458,-238.453 582.595,-259.608 571.452,-276.613"/>
<polygon fill="black" stroke="black" points="568.461,-274.792 565.907,-285.074 574.316,-278.628 568.461,-274.792"/>
</g>
<!-- o48&#45;&gt;o52 -->
<g id="edge18" class="edge"><title>o48&#45;&gt;o52</title>
<path fill="none" stroke="black" d="M212.461,-223.189C202.458,-238.453 188.595,-259.608 177.452,-276.613"/>
<polygon fill="black" stroke="black" points="174.461,-274.792 171.907,-285.074 180.316,-278.628 174.461,-274.792"/>
</g>
<!-- o48&#45;&gt;e(o10o8) -->
<g id="edge32" class="edge"><title>o48&#45;&gt;e(o10o8)</title>
<path fill="none" stroke="black" d="M244.805,-217.701C249.252,-220.844 254.049,-224.017 258.698,-226.686 299.584,-250.165 348.783,-271.594 384.756,-286.117"/>
<polygon fill="black" stroke="black" points="383.483,-289.377 394.068,-289.841 386.083,-282.878 383.483,-289.377"/>
</g>
<!-- o10&#45;&gt;e(o10o8) -->
<g id="edge33" class="edge"><title>o10&#45;&gt;e(o10o8)</title>
<path fill="none" stroke="black" d="M667.884,-218.262C663.421,-221.375 658.544,-224.395 653.698,-226.686 597.561,-253.231 576.71,-240.537 518.698,-262.686 506.285,-267.426 493.286,-273.445 481.325,-279.453"/>
<polygon fill="black" stroke="black" points="479.71,-276.347 472.407,-284.024 482.903,-282.577 479.71,-276.347"/>
</g>
<!-- o10&#45;&gt;o26 -->
<g id="edge63" class="edge"><title>o10&#45;&gt;o26</title>
<path fill="none" stroke="black" d="M667.499,-217.638C644.513,-235.176 605.865,-264.665 579.834,-284.527"/>
<polygon fill="black" stroke="black" points="577.688,-281.762 571.861,-290.611 581.934,-287.327 577.688,-281.762"/>
</g>
<!-- o34&#45;&gt;e(o10o8) -->
<g id="edge34" class="edge"><title>o34&#45;&gt;e(o10o8)</title>
<path fill="none" stroke="black" d="M735.021,-218.568C730.551,-221.665 725.636,-224.601 720.698,-226.686 636.689,-262.162 605.186,-233.775 518.698,-262.686 506.096,-266.899 493.028,-272.725 481.061,-278.716"/>
<polygon fill="black" stroke="black" points="479.438,-275.615 472.15,-283.306 482.643,-281.839 479.438,-275.615"/>
</g>
<!-- o34&#45;&gt;o26 -->
<g id="edge64" class="edge"><title>o34&#45;&gt;o26</title>
<path fill="none" stroke="black" d="M734.556,-217.641C730.11,-220.786 725.323,-223.976 720.698,-226.686 675.315,-253.281 619.435,-277.921 584.94,-292.27"/>
<polygon fill="black" stroke="black" points="583.292,-289.163 575.38,-296.21 585.959,-295.635 583.292,-289.163"/>
</g>
<!-- o18&#45;&gt;e(o10o8) -->
<g id="edge35" class="edge"><title>o18&#45;&gt;e(o10o8)</title>
<path fill="none" stroke="black" d="M802.086,-218.727C797.613,-221.816 792.68,-224.708 787.698,-226.686 675.588,-271.193 633.898,-226.932 518.698,-262.686 506.008,-266.625 492.908,-272.351 480.938,-278.334"/>
<polygon fill="black" stroke="black" points="479.31,-275.235 472.03,-282.933 482.521,-281.455 479.31,-275.235"/>
</g>
<!-- o18&#45;&gt;o26 -->
<g id="edge65" class="edge"><title>o18&#45;&gt;o26</title>
<path fill="none" stroke="black" d="M801.775,-218.041C797.318,-221.166 792.471,-224.246 787.698,-226.686 719.865,-261.371 633.414,-285.658 586.572,-297.333"/>
<polygon fill="black" stroke="black" points="585.528,-293.985 576.648,-299.765 587.194,-300.784 585.528,-293.985"/>
</g>
<!-- e(e(e(o10o8)o26)o4)&#45;&gt;eTop -->
<g id="edge7" class="edge"><title>e(e(e(o10o8)o26)o4)&#45;&gt;eTop</title>
<path fill="none" stroke="black" d="M577.174,-762.82C562.751,-783.449 545.27,-804.641 525.698,-820.843 495.068,-846.2 453.013,-863.995 422.628,-874.583"/>
<polygon fill="black" stroke="black" points="421.161,-871.384 412.805,-877.898 423.399,-878.017 421.161,-871.384"/>
</g>
<!-- o30&#45;&gt;e(o10o8) -->
<g id="edge36" class="edge"><title>o30&#45;&gt;e(o10o8)</title>
<path fill="none" stroke="black" d="M869.124,-218.824C864.649,-221.909 859.706,-224.774 854.698,-226.686 714.391,-280.262 662.709,-220.058 518.698,-262.686 505.832,-266.495 492.581,-272.234 480.515,-278.276"/>
<polygon fill="black" stroke="black" points="478.811,-275.217 471.545,-282.927 482.034,-281.431 478.811,-275.217"/>
</g>
<!-- o30&#45;&gt;o26 -->
<g id="edge66" class="edge"><title>o30&#45;&gt;o26</title>
<path fill="none" stroke="black" d="M868.894,-218.284C864.431,-221.396 859.551,-224.41 854.698,-226.686 763.275,-269.572 644.878,-291.647 587.256,-300.481"/>
<polygon fill="black" stroke="black" points="586.598,-297.041 577.225,-301.979 587.632,-303.964 586.598,-297.041"/>
</g>
<!-- o26&#45;&gt;e(e(o10o8)o26) -->
<g id="edge14" class="edge"><title>o26&#45;&gt;e(e(o10o8)o26)</title>
<path fill="none" stroke="black" d="M552.037,-331.092C551.694,-343.505 551.252,-359.444 550.804,-375.642"/>
<polygon fill="black" stroke="black" points="547.303,-375.638 550.525,-385.731 554.3,-375.832 547.303,-375.638"/>
</g>
<!-- o32&#45;&gt;e(o10o8) -->
<g id="edge37" class="edge"><title>o32&#45;&gt;e(o10o8)</title>
<path fill="none" stroke="black" d="M312.442,-217.205C332.797,-231.861 365.185,-255.181 391.512,-274.138"/>
<polygon fill="black" stroke="black" points="389.664,-277.12 399.824,-280.123 393.754,-271.439 389.664,-277.12"/>
</g>
<!-- o32&#45;&gt;o26 -->
<g id="edge67" class="edge"><title>o32&#45;&gt;o26</title>
<path fill="none" stroke="black" d="M311.442,-218.413C315.908,-221.519 320.805,-224.497 325.698,-226.686 393.022,-256.81 419.738,-234.024 487.698,-262.686 500.838,-268.228 514.212,-276.45 525.385,-284.193"/>
<polygon fill="black" stroke="black" points="523.659,-287.262 533.827,-290.239 527.735,-281.571 523.659,-287.262"/>
</g>
<!-- o14&#45;&gt;e(o10o8) -->
<g id="edge38" class="edge"><title>o14&#45;&gt;e(o10o8)</title>
<path fill="none" stroke="black" d="M374.159,-222.702C382.407,-233.947 393.084,-248.502 403.169,-262.251"/>
<polygon fill="black" stroke="black" points="400.609,-264.678 409.345,-270.671 406.253,-260.537 400.609,-264.678"/>
</g>
<!-- o14&#45;&gt;o26 -->
<g id="edge68" class="edge"><title>o14&#45;&gt;o26</title>
<path fill="none" stroke="black" d="M378.96,-217.616C383.645,-220.832 388.739,-224.059 393.698,-226.686 433.229,-247.631 447.866,-242.32 487.698,-262.686 500.3,-269.13 513.493,-277.441 524.675,-285.005"/>
<polygon fill="black" stroke="black" points="522.944,-288.062 533.162,-290.861 526.919,-282.301 522.944,-288.062"/>
</g>
<!-- o4&#45;&gt;e(e(e(o10o8)o52)o4) -->
<g id="edge2" class="edge"><title>o4&#45;&gt;e(e(e(o10o8)o52)o4)</title>
<path fill="none" stroke="black" d="M366.964,-465.859C349.483,-479.262 320.338,-501.367 294.698,-519.667 271.52,-536.209 262.07,-535.771 241.698,-555.667 226.109,-570.892 211.332,-588.98 198.308,-606.796"/>
<polygon fill="black" stroke="black" points="195.442,-604.787 192.451,-614.951 201.127,-608.871 195.442,-604.787"/>
</g>
<!-- o4&#45;&gt;e(e(e(o10o8)o26)o4) -->
<g id="edge56" class="edge"><title>o4&#45;&gt;e(e(e(o10o8)o26)o4)</title>
<path fill="none" stroke="black" d="M386.55,-472.73C390.482,-487.469 398.012,-507.39 411.698,-519.667 451.249,-555.146 482.708,-524.441 525.698,-555.667 543.722,-568.759 559.604,-586.376 572.939,-604.457"/>
<polygon fill="black" stroke="black" points="570.225,-606.679 578.886,-612.782 575.921,-602.61 570.225,-606.679"/>
</g>
<!-- o2&#45;&gt;e(e(e(o10o8)o52)o4) -->
<g id="edge3" class="edge"><title>o2&#45;&gt;e(e(e(o10o8)o52)o4)</title>
<path fill="none" stroke="black" d="M437.237,-472.795C433.509,-487.775 426.061,-507.991 411.698,-519.667 351.771,-568.384 306.316,-513.368 241.698,-555.667 222.957,-567.934 206.768,-585.336 193.36,-603.48"/>
<polygon fill="black" stroke="black" points="190.346,-601.677 187.396,-611.853 196.048,-605.738 190.346,-601.677"/>
</g>
<!-- o2&#45;&gt;e(e(e(o10o8)o26)o4) -->
<g id="edge57" class="edge"><title>o2&#45;&gt;e(e(e(o10o8)o26)o4)</title>
<path fill="none" stroke="black" d="M446.614,-472.001C451.846,-486.141 460.546,-505.613 472.698,-519.667 491.323,-541.206 505.326,-535.771 525.698,-555.667 541.287,-570.892 556.063,-588.98 569.087,-606.796"/>
<polygon fill="black" stroke="black" points="566.268,-608.871 574.945,-614.951 571.954,-604.787 566.268,-608.871"/>
</g>
</g>
</svg>
